G04 EAGLE Gerber RS-274X export*
G75*
%MOMM*%
%FSLAX34Y34*%
%LPD*%
%INSolderpaste Bottom*%
%IPPOS*%
%AMOC8*
5,1,8,0,0,1.08239X$1,22.5*%
G01*
%ADD10R,1.400000X1.800000*%
%ADD11R,1.900000X1.400000*%
%ADD12R,1.500000X0.800000*%


D10*
X387540Y91410D03*
X387540Y148410D03*
D11*
X519040Y164410D03*
X529040Y32910D03*
D12*
X490540Y79510D03*
X486540Y90510D03*
X490540Y101510D03*
X492540Y112510D03*
X490540Y123510D03*
X492540Y134510D03*
X490540Y145510D03*
X490540Y156510D03*
D10*
X1002220Y91410D03*
X1002220Y148410D03*
D11*
X1133720Y164410D03*
X1143720Y32910D03*
D12*
X1105220Y79510D03*
X1101220Y90510D03*
X1105220Y101510D03*
X1107220Y112510D03*
X1105220Y123510D03*
X1107220Y134510D03*
X1105220Y145510D03*
X1105220Y156510D03*
D10*
X1616900Y91410D03*
X1616900Y148410D03*
D11*
X1748400Y164410D03*
X1758400Y32910D03*
D12*
X1719900Y79510D03*
X1715900Y90510D03*
X1719900Y101510D03*
X1721900Y112510D03*
X1719900Y123510D03*
X1721900Y134510D03*
X1719900Y145510D03*
X1719900Y156510D03*
D10*
X387540Y325090D03*
X387540Y382090D03*
D11*
X519040Y398090D03*
X529040Y266590D03*
D12*
X490540Y313190D03*
X486540Y324190D03*
X490540Y335190D03*
X492540Y346190D03*
X490540Y357190D03*
X492540Y368190D03*
X490540Y379190D03*
X490540Y390190D03*
D10*
X1002220Y325090D03*
X1002220Y382090D03*
D11*
X1133720Y398090D03*
X1143720Y266590D03*
D12*
X1105220Y313190D03*
X1101220Y324190D03*
X1105220Y335190D03*
X1107220Y346190D03*
X1105220Y357190D03*
X1107220Y368190D03*
X1105220Y379190D03*
X1105220Y390190D03*
D10*
X1616900Y325090D03*
X1616900Y382090D03*
D11*
X1748400Y398090D03*
X1758400Y266590D03*
D12*
X1719900Y313190D03*
X1715900Y324190D03*
X1719900Y335190D03*
X1721900Y346190D03*
X1719900Y357190D03*
X1721900Y368190D03*
X1719900Y379190D03*
X1719900Y390190D03*
D10*
X387540Y558770D03*
X387540Y615770D03*
D11*
X519040Y631770D03*
X529040Y500270D03*
D12*
X490540Y546870D03*
X486540Y557870D03*
X490540Y568870D03*
X492540Y579870D03*
X490540Y590870D03*
X492540Y601870D03*
X490540Y612870D03*
X490540Y623870D03*
D10*
X1002220Y558770D03*
X1002220Y615770D03*
D11*
X1133720Y631770D03*
X1143720Y500270D03*
D12*
X1105220Y546870D03*
X1101220Y557870D03*
X1105220Y568870D03*
X1107220Y579870D03*
X1105220Y590870D03*
X1107220Y601870D03*
X1105220Y612870D03*
X1105220Y623870D03*
D10*
X1616900Y558770D03*
X1616900Y615770D03*
D11*
X1748400Y631770D03*
X1758400Y500270D03*
D12*
X1719900Y546870D03*
X1715900Y557870D03*
X1719900Y568870D03*
X1721900Y579870D03*
X1719900Y590870D03*
X1721900Y601870D03*
X1719900Y612870D03*
X1719900Y623870D03*
D10*
X387540Y792450D03*
X387540Y849450D03*
D11*
X519040Y865450D03*
X529040Y733950D03*
D12*
X490540Y780550D03*
X486540Y791550D03*
X490540Y802550D03*
X492540Y813550D03*
X490540Y824550D03*
X492540Y835550D03*
X490540Y846550D03*
X490540Y857550D03*
D10*
X1002220Y792450D03*
X1002220Y849450D03*
D11*
X1133720Y865450D03*
X1143720Y733950D03*
D12*
X1105220Y780550D03*
X1101220Y791550D03*
X1105220Y802550D03*
X1107220Y813550D03*
X1105220Y824550D03*
X1107220Y835550D03*
X1105220Y846550D03*
X1105220Y857550D03*
D10*
X1616900Y792450D03*
X1616900Y849450D03*
D11*
X1748400Y865450D03*
X1758400Y733950D03*
D12*
X1719900Y780550D03*
X1715900Y791550D03*
X1719900Y802550D03*
X1721900Y813550D03*
X1719900Y824550D03*
X1721900Y835550D03*
X1719900Y846550D03*
X1719900Y857550D03*
D10*
X387540Y1026130D03*
X387540Y1083130D03*
D11*
X519040Y1099130D03*
X529040Y967630D03*
D12*
X490540Y1014230D03*
X486540Y1025230D03*
X490540Y1036230D03*
X492540Y1047230D03*
X490540Y1058230D03*
X492540Y1069230D03*
X490540Y1080230D03*
X490540Y1091230D03*
D10*
X1002220Y1026130D03*
X1002220Y1083130D03*
D11*
X1133720Y1099130D03*
X1143720Y967630D03*
D12*
X1105220Y1014230D03*
X1101220Y1025230D03*
X1105220Y1036230D03*
X1107220Y1047230D03*
X1105220Y1058230D03*
X1107220Y1069230D03*
X1105220Y1080230D03*
X1105220Y1091230D03*
D10*
X1616900Y1026130D03*
X1616900Y1083130D03*
D11*
X1748400Y1099130D03*
X1758400Y967630D03*
D12*
X1719900Y1014230D03*
X1715900Y1025230D03*
X1719900Y1036230D03*
X1721900Y1047230D03*
X1719900Y1058230D03*
X1721900Y1069230D03*
X1719900Y1080230D03*
X1719900Y1091230D03*
M02*
