G04 EAGLE Gerber RS-274X export*
G75*
%MOMM*%
%FSLAX34Y34*%
%LPD*%
%INSoldermask Top*%
%IPPOS*%
%AMOC8*
5,1,8,0,0,1.08239X$1,22.5*%
G01*
%ADD10R,0.803200X0.803200*%
%ADD11R,1.033200X0.833200*%
%ADD12C,0.505344*%
%ADD13R,1.203200X0.503200*%
%ADD14R,1.203200X0.803200*%
%ADD15C,0.853200*%
%ADD16R,1.203200X4.803200*%
%ADD17R,1.803200X3.603200*%
%ADD18R,1.403200X2.203200*%
%ADD19R,0.803200X1.553200*%
%ADD20R,1.727200X1.727200*%
%ADD21C,1.203200*%
%ADD22R,1.203200X1.303200*%
%ADD23R,1.303200X1.203200*%
%ADD24R,1.203200X0.423200*%
%ADD25R,0.423200X1.203200*%
%ADD26R,1.403200X0.753200*%
%ADD27C,3.251200*%
%ADD28C,0.838200*%
%ADD29R,1.103200X1.203200*%
%ADD30R,0.703200X1.053200*%
%ADD31R,2.003200X1.203200*%
%ADD32R,1.303200X2.103200*%
%ADD33C,1.270000*%
%ADD34C,1.703200*%

G36*
X1188146Y797096D02*
X1188146Y797096D01*
X1188163Y797093D01*
X1188213Y797115D01*
X1188264Y797130D01*
X1188275Y797143D01*
X1188291Y797150D01*
X1188321Y797195D01*
X1188356Y797235D01*
X1188359Y797252D01*
X1188368Y797267D01*
X1188379Y797340D01*
X1188379Y833340D01*
X1188374Y833356D01*
X1188377Y833373D01*
X1188355Y833423D01*
X1188340Y833474D01*
X1188327Y833485D01*
X1188320Y833501D01*
X1188275Y833531D01*
X1188235Y833566D01*
X1188218Y833569D01*
X1188204Y833578D01*
X1188130Y833589D01*
X1145880Y833589D01*
X1145864Y833584D01*
X1145847Y833587D01*
X1145797Y833565D01*
X1145746Y833550D01*
X1145735Y833537D01*
X1145719Y833530D01*
X1145689Y833485D01*
X1145654Y833445D01*
X1145651Y833428D01*
X1145642Y833414D01*
X1145631Y833340D01*
X1145631Y803840D01*
X1145648Y803782D01*
X1145660Y803724D01*
X1145668Y803712D01*
X1145670Y803706D01*
X1145678Y803699D01*
X1145704Y803664D01*
X1152204Y797164D01*
X1152256Y797135D01*
X1152307Y797102D01*
X1152321Y797100D01*
X1152326Y797097D01*
X1152337Y797097D01*
X1152380Y797091D01*
X1188130Y797091D01*
X1188146Y797096D01*
G37*
G36*
X573466Y797096D02*
X573466Y797096D01*
X573483Y797093D01*
X573533Y797115D01*
X573584Y797130D01*
X573595Y797143D01*
X573611Y797150D01*
X573641Y797195D01*
X573676Y797235D01*
X573679Y797252D01*
X573688Y797267D01*
X573699Y797340D01*
X573699Y833340D01*
X573694Y833356D01*
X573697Y833373D01*
X573675Y833423D01*
X573660Y833474D01*
X573647Y833485D01*
X573640Y833501D01*
X573595Y833531D01*
X573555Y833566D01*
X573538Y833569D01*
X573524Y833578D01*
X573450Y833589D01*
X531200Y833589D01*
X531184Y833584D01*
X531167Y833587D01*
X531117Y833565D01*
X531066Y833550D01*
X531055Y833537D01*
X531039Y833530D01*
X531009Y833485D01*
X530974Y833445D01*
X530971Y833428D01*
X530962Y833414D01*
X530951Y833340D01*
X530951Y803840D01*
X530968Y803782D01*
X530980Y803724D01*
X530988Y803712D01*
X530990Y803706D01*
X530998Y803699D01*
X531024Y803664D01*
X537524Y797164D01*
X537576Y797135D01*
X537627Y797102D01*
X537641Y797100D01*
X537646Y797097D01*
X537657Y797097D01*
X537700Y797091D01*
X573450Y797091D01*
X573466Y797096D01*
G37*
G36*
X1188146Y563416D02*
X1188146Y563416D01*
X1188163Y563413D01*
X1188213Y563435D01*
X1188264Y563450D01*
X1188275Y563463D01*
X1188291Y563470D01*
X1188321Y563515D01*
X1188356Y563555D01*
X1188359Y563572D01*
X1188368Y563587D01*
X1188379Y563660D01*
X1188379Y599660D01*
X1188374Y599676D01*
X1188377Y599693D01*
X1188355Y599743D01*
X1188340Y599794D01*
X1188327Y599805D01*
X1188320Y599821D01*
X1188275Y599851D01*
X1188235Y599886D01*
X1188218Y599889D01*
X1188204Y599898D01*
X1188130Y599909D01*
X1145880Y599909D01*
X1145864Y599904D01*
X1145847Y599907D01*
X1145797Y599885D01*
X1145746Y599870D01*
X1145735Y599857D01*
X1145719Y599850D01*
X1145689Y599805D01*
X1145654Y599765D01*
X1145651Y599748D01*
X1145642Y599734D01*
X1145631Y599660D01*
X1145631Y570160D01*
X1145648Y570102D01*
X1145660Y570044D01*
X1145668Y570032D01*
X1145670Y570026D01*
X1145678Y570019D01*
X1145704Y569984D01*
X1152204Y563484D01*
X1152256Y563455D01*
X1152307Y563422D01*
X1152321Y563420D01*
X1152326Y563417D01*
X1152337Y563417D01*
X1152380Y563411D01*
X1188130Y563411D01*
X1188146Y563416D01*
G37*
G36*
X573466Y563416D02*
X573466Y563416D01*
X573483Y563413D01*
X573533Y563435D01*
X573584Y563450D01*
X573595Y563463D01*
X573611Y563470D01*
X573641Y563515D01*
X573676Y563555D01*
X573679Y563572D01*
X573688Y563587D01*
X573699Y563660D01*
X573699Y599660D01*
X573694Y599676D01*
X573697Y599693D01*
X573675Y599743D01*
X573660Y599794D01*
X573647Y599805D01*
X573640Y599821D01*
X573595Y599851D01*
X573555Y599886D01*
X573538Y599889D01*
X573524Y599898D01*
X573450Y599909D01*
X531200Y599909D01*
X531184Y599904D01*
X531167Y599907D01*
X531117Y599885D01*
X531066Y599870D01*
X531055Y599857D01*
X531039Y599850D01*
X531009Y599805D01*
X530974Y599765D01*
X530971Y599748D01*
X530962Y599734D01*
X530951Y599660D01*
X530951Y570160D01*
X530968Y570102D01*
X530980Y570044D01*
X530988Y570032D01*
X530990Y570026D01*
X530998Y570019D01*
X531024Y569984D01*
X537524Y563484D01*
X537576Y563455D01*
X537627Y563422D01*
X537641Y563420D01*
X537646Y563417D01*
X537657Y563417D01*
X537700Y563411D01*
X573450Y563411D01*
X573466Y563416D01*
G37*
G36*
X1188146Y329736D02*
X1188146Y329736D01*
X1188163Y329733D01*
X1188213Y329755D01*
X1188264Y329770D01*
X1188275Y329783D01*
X1188291Y329790D01*
X1188321Y329835D01*
X1188356Y329875D01*
X1188359Y329892D01*
X1188368Y329907D01*
X1188379Y329980D01*
X1188379Y365980D01*
X1188374Y365996D01*
X1188377Y366013D01*
X1188355Y366063D01*
X1188340Y366114D01*
X1188327Y366125D01*
X1188320Y366141D01*
X1188275Y366171D01*
X1188235Y366206D01*
X1188218Y366209D01*
X1188204Y366218D01*
X1188130Y366229D01*
X1145880Y366229D01*
X1145864Y366224D01*
X1145847Y366227D01*
X1145797Y366205D01*
X1145746Y366190D01*
X1145735Y366177D01*
X1145719Y366170D01*
X1145689Y366125D01*
X1145654Y366085D01*
X1145651Y366068D01*
X1145642Y366054D01*
X1145631Y365980D01*
X1145631Y336480D01*
X1145648Y336422D01*
X1145660Y336364D01*
X1145668Y336352D01*
X1145670Y336346D01*
X1145678Y336339D01*
X1145704Y336304D01*
X1152204Y329804D01*
X1152256Y329775D01*
X1152307Y329742D01*
X1152321Y329740D01*
X1152326Y329737D01*
X1152337Y329737D01*
X1152380Y329731D01*
X1188130Y329731D01*
X1188146Y329736D01*
G37*
G36*
X573466Y329736D02*
X573466Y329736D01*
X573483Y329733D01*
X573533Y329755D01*
X573584Y329770D01*
X573595Y329783D01*
X573611Y329790D01*
X573641Y329835D01*
X573676Y329875D01*
X573679Y329892D01*
X573688Y329907D01*
X573699Y329980D01*
X573699Y365980D01*
X573694Y365996D01*
X573697Y366013D01*
X573675Y366063D01*
X573660Y366114D01*
X573647Y366125D01*
X573640Y366141D01*
X573595Y366171D01*
X573555Y366206D01*
X573538Y366209D01*
X573524Y366218D01*
X573450Y366229D01*
X531200Y366229D01*
X531184Y366224D01*
X531167Y366227D01*
X531117Y366205D01*
X531066Y366190D01*
X531055Y366177D01*
X531039Y366170D01*
X531009Y366125D01*
X530974Y366085D01*
X530971Y366068D01*
X530962Y366054D01*
X530951Y365980D01*
X530951Y336480D01*
X530968Y336422D01*
X530980Y336364D01*
X530988Y336352D01*
X530990Y336346D01*
X530998Y336339D01*
X531024Y336304D01*
X537524Y329804D01*
X537576Y329775D01*
X537627Y329742D01*
X537641Y329740D01*
X537646Y329737D01*
X537657Y329737D01*
X537700Y329731D01*
X573450Y329731D01*
X573466Y329736D01*
G37*
G36*
X1188146Y96056D02*
X1188146Y96056D01*
X1188163Y96053D01*
X1188213Y96075D01*
X1188264Y96090D01*
X1188275Y96103D01*
X1188291Y96110D01*
X1188321Y96155D01*
X1188356Y96195D01*
X1188359Y96212D01*
X1188368Y96227D01*
X1188379Y96300D01*
X1188379Y132300D01*
X1188374Y132316D01*
X1188377Y132333D01*
X1188355Y132383D01*
X1188340Y132434D01*
X1188327Y132445D01*
X1188320Y132461D01*
X1188275Y132491D01*
X1188235Y132526D01*
X1188218Y132529D01*
X1188204Y132538D01*
X1188130Y132549D01*
X1145880Y132549D01*
X1145864Y132544D01*
X1145847Y132547D01*
X1145797Y132525D01*
X1145746Y132510D01*
X1145735Y132497D01*
X1145719Y132490D01*
X1145689Y132445D01*
X1145654Y132405D01*
X1145651Y132388D01*
X1145642Y132374D01*
X1145631Y132300D01*
X1145631Y102800D01*
X1145648Y102742D01*
X1145660Y102684D01*
X1145668Y102672D01*
X1145670Y102666D01*
X1145678Y102659D01*
X1145704Y102624D01*
X1152204Y96124D01*
X1152256Y96095D01*
X1152307Y96062D01*
X1152321Y96060D01*
X1152326Y96057D01*
X1152337Y96057D01*
X1152380Y96051D01*
X1188130Y96051D01*
X1188146Y96056D01*
G37*
G36*
X573466Y96056D02*
X573466Y96056D01*
X573483Y96053D01*
X573533Y96075D01*
X573584Y96090D01*
X573595Y96103D01*
X573611Y96110D01*
X573641Y96155D01*
X573676Y96195D01*
X573679Y96212D01*
X573688Y96227D01*
X573699Y96300D01*
X573699Y132300D01*
X573694Y132316D01*
X573697Y132333D01*
X573675Y132383D01*
X573660Y132434D01*
X573647Y132445D01*
X573640Y132461D01*
X573595Y132491D01*
X573555Y132526D01*
X573538Y132529D01*
X573524Y132538D01*
X573450Y132549D01*
X531200Y132549D01*
X531184Y132544D01*
X531167Y132547D01*
X531117Y132525D01*
X531066Y132510D01*
X531055Y132497D01*
X531039Y132490D01*
X531009Y132445D01*
X530974Y132405D01*
X530971Y132388D01*
X530962Y132374D01*
X530951Y132300D01*
X530951Y102800D01*
X530968Y102742D01*
X530980Y102684D01*
X530988Y102672D01*
X530990Y102666D01*
X530998Y102659D01*
X531024Y102624D01*
X537524Y96124D01*
X537576Y96095D01*
X537627Y96062D01*
X537641Y96060D01*
X537646Y96057D01*
X537657Y96057D01*
X537700Y96051D01*
X573450Y96051D01*
X573466Y96056D01*
G37*
G36*
X674984Y852494D02*
X674984Y852494D01*
X674987Y852491D01*
X676109Y852646D01*
X676114Y852651D01*
X676118Y852648D01*
X677189Y853019D01*
X677193Y853025D01*
X677198Y853023D01*
X678175Y853596D01*
X678178Y853602D01*
X678183Y853601D01*
X679030Y854354D01*
X679032Y854361D01*
X679037Y854361D01*
X679721Y855264D01*
X679721Y855271D01*
X679726Y855272D01*
X680221Y856291D01*
X680219Y856298D01*
X680224Y856300D01*
X680511Y857397D01*
X680509Y857401D01*
X680511Y857402D01*
X680509Y857404D01*
X680512Y857406D01*
X680579Y858537D01*
X680577Y858541D01*
X680579Y858543D01*
X680512Y859674D01*
X680507Y859679D01*
X680511Y859683D01*
X680224Y860780D01*
X680218Y860784D01*
X680221Y860789D01*
X679726Y861808D01*
X679720Y861811D01*
X679721Y861816D01*
X679037Y862719D01*
X679030Y862721D01*
X679030Y862726D01*
X678183Y863479D01*
X678176Y863479D01*
X678175Y863484D01*
X677198Y864057D01*
X677191Y864056D01*
X677189Y864061D01*
X676118Y864432D01*
X676112Y864429D01*
X676109Y864434D01*
X674987Y864589D01*
X674982Y864586D01*
X674980Y864589D01*
X662980Y864589D01*
X662975Y864586D01*
X662972Y864589D01*
X661705Y864384D01*
X661699Y864378D01*
X661695Y864381D01*
X660505Y863899D01*
X660501Y863892D01*
X660495Y863894D01*
X659442Y863160D01*
X659440Y863152D01*
X659434Y863153D01*
X658571Y862203D01*
X658570Y862194D01*
X658565Y862194D01*
X657935Y861075D01*
X657936Y861067D01*
X657930Y861065D01*
X657565Y859835D01*
X657568Y859827D01*
X657563Y859824D01*
X657481Y858543D01*
X657484Y858539D01*
X657481Y858537D01*
X657563Y857256D01*
X657569Y857250D01*
X657565Y857245D01*
X657930Y856015D01*
X657937Y856010D01*
X657935Y856005D01*
X658565Y854886D01*
X658572Y854883D01*
X658571Y854877D01*
X659434Y853927D01*
X659442Y853926D01*
X659442Y853920D01*
X660495Y853186D01*
X660503Y853186D01*
X660505Y853181D01*
X661695Y852699D01*
X661702Y852701D01*
X661705Y852696D01*
X662972Y852491D01*
X662977Y852494D01*
X662980Y852491D01*
X674980Y852491D01*
X674984Y852494D01*
G37*
G36*
X60304Y852494D02*
X60304Y852494D01*
X60307Y852491D01*
X61429Y852646D01*
X61434Y852651D01*
X61438Y852648D01*
X62509Y853019D01*
X62513Y853025D01*
X62518Y853023D01*
X63495Y853596D01*
X63498Y853602D01*
X63503Y853601D01*
X64350Y854354D01*
X64352Y854361D01*
X64357Y854361D01*
X65041Y855264D01*
X65041Y855271D01*
X65046Y855272D01*
X65541Y856291D01*
X65539Y856298D01*
X65544Y856300D01*
X65831Y857397D01*
X65829Y857401D01*
X65831Y857402D01*
X65829Y857404D01*
X65832Y857406D01*
X65899Y858537D01*
X65897Y858541D01*
X65899Y858543D01*
X65832Y859674D01*
X65827Y859679D01*
X65831Y859683D01*
X65544Y860780D01*
X65538Y860784D01*
X65541Y860789D01*
X65046Y861808D01*
X65040Y861811D01*
X65041Y861816D01*
X64357Y862719D01*
X64350Y862721D01*
X64350Y862726D01*
X63503Y863479D01*
X63496Y863479D01*
X63495Y863484D01*
X62518Y864057D01*
X62511Y864056D01*
X62509Y864061D01*
X61438Y864432D01*
X61432Y864429D01*
X61429Y864434D01*
X60307Y864589D01*
X60302Y864586D01*
X60300Y864589D01*
X48300Y864589D01*
X48295Y864586D01*
X48292Y864589D01*
X47025Y864384D01*
X47019Y864378D01*
X47015Y864381D01*
X45825Y863899D01*
X45821Y863892D01*
X45815Y863894D01*
X44762Y863160D01*
X44760Y863152D01*
X44754Y863153D01*
X43891Y862203D01*
X43890Y862194D01*
X43885Y862194D01*
X43255Y861075D01*
X43256Y861067D01*
X43250Y861065D01*
X42885Y859835D01*
X42888Y859827D01*
X42883Y859824D01*
X42801Y858543D01*
X42804Y858539D01*
X42801Y858537D01*
X42883Y857256D01*
X42889Y857250D01*
X42885Y857245D01*
X43250Y856015D01*
X43257Y856010D01*
X43255Y856005D01*
X43885Y854886D01*
X43892Y854883D01*
X43891Y854877D01*
X44754Y853927D01*
X44762Y853926D01*
X44762Y853920D01*
X45815Y853186D01*
X45823Y853186D01*
X45825Y853181D01*
X47015Y852699D01*
X47022Y852701D01*
X47025Y852696D01*
X48292Y852491D01*
X48297Y852494D01*
X48300Y852491D01*
X60300Y852491D01*
X60304Y852494D01*
G37*
G36*
X674984Y618814D02*
X674984Y618814D01*
X674987Y618811D01*
X676109Y618966D01*
X676114Y618971D01*
X676118Y618968D01*
X677189Y619339D01*
X677193Y619345D01*
X677198Y619343D01*
X678175Y619916D01*
X678178Y619922D01*
X678183Y619921D01*
X679030Y620674D01*
X679032Y620681D01*
X679037Y620681D01*
X679721Y621584D01*
X679721Y621591D01*
X679726Y621592D01*
X680221Y622611D01*
X680219Y622618D01*
X680224Y622620D01*
X680511Y623717D01*
X680509Y623721D01*
X680511Y623722D01*
X680509Y623724D01*
X680512Y623726D01*
X680579Y624857D01*
X680577Y624861D01*
X680579Y624863D01*
X680512Y625994D01*
X680507Y625999D01*
X680511Y626003D01*
X680224Y627100D01*
X680218Y627104D01*
X680221Y627109D01*
X679726Y628128D01*
X679720Y628131D01*
X679721Y628136D01*
X679037Y629039D01*
X679030Y629041D01*
X679030Y629046D01*
X678183Y629799D01*
X678176Y629799D01*
X678175Y629804D01*
X677198Y630377D01*
X677191Y630376D01*
X677189Y630381D01*
X676118Y630752D01*
X676112Y630749D01*
X676109Y630754D01*
X674987Y630909D01*
X674982Y630906D01*
X674980Y630909D01*
X662980Y630909D01*
X662975Y630906D01*
X662972Y630909D01*
X661705Y630704D01*
X661699Y630698D01*
X661695Y630701D01*
X660505Y630219D01*
X660501Y630212D01*
X660495Y630214D01*
X659442Y629480D01*
X659440Y629472D01*
X659434Y629473D01*
X658571Y628523D01*
X658570Y628514D01*
X658565Y628514D01*
X657935Y627395D01*
X657936Y627387D01*
X657930Y627385D01*
X657565Y626155D01*
X657568Y626147D01*
X657563Y626144D01*
X657481Y624863D01*
X657484Y624859D01*
X657481Y624857D01*
X657563Y623576D01*
X657569Y623570D01*
X657565Y623565D01*
X657930Y622335D01*
X657937Y622330D01*
X657935Y622325D01*
X658565Y621206D01*
X658572Y621203D01*
X658571Y621197D01*
X659434Y620247D01*
X659442Y620246D01*
X659442Y620240D01*
X660495Y619506D01*
X660503Y619506D01*
X660505Y619501D01*
X661695Y619019D01*
X661702Y619021D01*
X661705Y619016D01*
X662972Y618811D01*
X662977Y618814D01*
X662980Y618811D01*
X674980Y618811D01*
X674984Y618814D01*
G37*
G36*
X674984Y532414D02*
X674984Y532414D01*
X674987Y532411D01*
X676109Y532566D01*
X676114Y532571D01*
X676118Y532568D01*
X677189Y532939D01*
X677193Y532945D01*
X677198Y532943D01*
X678175Y533516D01*
X678178Y533522D01*
X678183Y533521D01*
X679030Y534274D01*
X679032Y534281D01*
X679037Y534281D01*
X679721Y535184D01*
X679721Y535191D01*
X679726Y535192D01*
X680221Y536211D01*
X680219Y536218D01*
X680224Y536220D01*
X680511Y537317D01*
X680509Y537321D01*
X680511Y537322D01*
X680509Y537324D01*
X680512Y537326D01*
X680579Y538457D01*
X680577Y538461D01*
X680579Y538463D01*
X680512Y539594D01*
X680507Y539599D01*
X680511Y539603D01*
X680224Y540700D01*
X680218Y540704D01*
X680221Y540709D01*
X679726Y541728D01*
X679720Y541731D01*
X679721Y541736D01*
X679037Y542639D01*
X679030Y542641D01*
X679030Y542646D01*
X678183Y543399D01*
X678176Y543399D01*
X678175Y543404D01*
X677198Y543977D01*
X677191Y543976D01*
X677189Y543981D01*
X676118Y544352D01*
X676112Y544349D01*
X676109Y544354D01*
X674987Y544509D01*
X674982Y544506D01*
X674980Y544509D01*
X662980Y544509D01*
X662975Y544506D01*
X662972Y544509D01*
X661705Y544304D01*
X661699Y544298D01*
X661695Y544301D01*
X660505Y543819D01*
X660501Y543812D01*
X660495Y543814D01*
X659442Y543080D01*
X659440Y543072D01*
X659434Y543073D01*
X658571Y542123D01*
X658570Y542114D01*
X658565Y542114D01*
X657935Y540995D01*
X657936Y540987D01*
X657930Y540985D01*
X657565Y539755D01*
X657568Y539747D01*
X657563Y539744D01*
X657481Y538463D01*
X657484Y538459D01*
X657481Y538457D01*
X657563Y537176D01*
X657569Y537170D01*
X657565Y537165D01*
X657930Y535935D01*
X657937Y535930D01*
X657935Y535925D01*
X658565Y534806D01*
X658572Y534803D01*
X658571Y534797D01*
X659434Y533847D01*
X659442Y533846D01*
X659442Y533840D01*
X660495Y533106D01*
X660503Y533106D01*
X660505Y533101D01*
X661695Y532619D01*
X661702Y532621D01*
X661705Y532616D01*
X662972Y532411D01*
X662977Y532414D01*
X662980Y532411D01*
X674980Y532411D01*
X674984Y532414D01*
G37*
G36*
X674984Y766094D02*
X674984Y766094D01*
X674987Y766091D01*
X676109Y766246D01*
X676114Y766251D01*
X676118Y766248D01*
X677189Y766619D01*
X677193Y766625D01*
X677198Y766623D01*
X678175Y767196D01*
X678178Y767202D01*
X678183Y767201D01*
X679030Y767954D01*
X679032Y767961D01*
X679037Y767961D01*
X679721Y768864D01*
X679721Y768871D01*
X679726Y768872D01*
X680221Y769891D01*
X680219Y769898D01*
X680224Y769900D01*
X680511Y770997D01*
X680509Y771001D01*
X680511Y771002D01*
X680509Y771004D01*
X680512Y771006D01*
X680579Y772137D01*
X680577Y772141D01*
X680579Y772143D01*
X680512Y773274D01*
X680507Y773279D01*
X680511Y773283D01*
X680224Y774380D01*
X680218Y774384D01*
X680221Y774389D01*
X679726Y775408D01*
X679720Y775411D01*
X679721Y775416D01*
X679037Y776319D01*
X679030Y776321D01*
X679030Y776326D01*
X678183Y777079D01*
X678176Y777079D01*
X678175Y777084D01*
X677198Y777657D01*
X677191Y777656D01*
X677189Y777661D01*
X676118Y778032D01*
X676112Y778029D01*
X676109Y778034D01*
X674987Y778189D01*
X674982Y778186D01*
X674980Y778189D01*
X662980Y778189D01*
X662975Y778186D01*
X662972Y778189D01*
X661705Y777984D01*
X661699Y777978D01*
X661695Y777981D01*
X660505Y777499D01*
X660501Y777492D01*
X660495Y777494D01*
X659442Y776760D01*
X659440Y776752D01*
X659434Y776753D01*
X658571Y775803D01*
X658570Y775794D01*
X658565Y775794D01*
X657935Y774675D01*
X657936Y774667D01*
X657930Y774665D01*
X657565Y773435D01*
X657568Y773427D01*
X657563Y773424D01*
X657481Y772143D01*
X657484Y772139D01*
X657481Y772137D01*
X657563Y770856D01*
X657569Y770850D01*
X657565Y770845D01*
X657930Y769615D01*
X657937Y769610D01*
X657935Y769605D01*
X658565Y768486D01*
X658572Y768483D01*
X658571Y768477D01*
X659434Y767527D01*
X659442Y767526D01*
X659442Y767520D01*
X660495Y766786D01*
X660503Y766786D01*
X660505Y766781D01*
X661695Y766299D01*
X661702Y766301D01*
X661705Y766296D01*
X662972Y766091D01*
X662977Y766094D01*
X662980Y766091D01*
X674980Y766091D01*
X674984Y766094D01*
G37*
G36*
X60304Y766094D02*
X60304Y766094D01*
X60307Y766091D01*
X61429Y766246D01*
X61434Y766251D01*
X61438Y766248D01*
X62509Y766619D01*
X62513Y766625D01*
X62518Y766623D01*
X63495Y767196D01*
X63498Y767202D01*
X63503Y767201D01*
X64350Y767954D01*
X64352Y767961D01*
X64357Y767961D01*
X65041Y768864D01*
X65041Y768871D01*
X65046Y768872D01*
X65541Y769891D01*
X65539Y769898D01*
X65544Y769900D01*
X65831Y770997D01*
X65829Y771001D01*
X65831Y771002D01*
X65829Y771004D01*
X65832Y771006D01*
X65899Y772137D01*
X65897Y772141D01*
X65899Y772143D01*
X65832Y773274D01*
X65827Y773279D01*
X65831Y773283D01*
X65544Y774380D01*
X65538Y774384D01*
X65541Y774389D01*
X65046Y775408D01*
X65040Y775411D01*
X65041Y775416D01*
X64357Y776319D01*
X64350Y776321D01*
X64350Y776326D01*
X63503Y777079D01*
X63496Y777079D01*
X63495Y777084D01*
X62518Y777657D01*
X62511Y777656D01*
X62509Y777661D01*
X61438Y778032D01*
X61432Y778029D01*
X61429Y778034D01*
X60307Y778189D01*
X60302Y778186D01*
X60300Y778189D01*
X48300Y778189D01*
X48295Y778186D01*
X48292Y778189D01*
X47025Y777984D01*
X47019Y777978D01*
X47015Y777981D01*
X45825Y777499D01*
X45821Y777492D01*
X45815Y777494D01*
X44762Y776760D01*
X44760Y776752D01*
X44754Y776753D01*
X43891Y775803D01*
X43890Y775794D01*
X43885Y775794D01*
X43255Y774675D01*
X43256Y774667D01*
X43250Y774665D01*
X42885Y773435D01*
X42888Y773427D01*
X42883Y773424D01*
X42801Y772143D01*
X42804Y772139D01*
X42801Y772137D01*
X42883Y770856D01*
X42889Y770850D01*
X42885Y770845D01*
X43250Y769615D01*
X43257Y769610D01*
X43255Y769605D01*
X43885Y768486D01*
X43892Y768483D01*
X43891Y768477D01*
X44754Y767527D01*
X44762Y767526D01*
X44762Y767520D01*
X45815Y766786D01*
X45823Y766786D01*
X45825Y766781D01*
X47015Y766299D01*
X47022Y766301D01*
X47025Y766296D01*
X48292Y766091D01*
X48297Y766094D01*
X48300Y766091D01*
X60300Y766091D01*
X60304Y766094D01*
G37*
G36*
X60304Y618814D02*
X60304Y618814D01*
X60307Y618811D01*
X61429Y618966D01*
X61434Y618971D01*
X61438Y618968D01*
X62509Y619339D01*
X62513Y619345D01*
X62518Y619343D01*
X63495Y619916D01*
X63498Y619922D01*
X63503Y619921D01*
X64350Y620674D01*
X64352Y620681D01*
X64357Y620681D01*
X65041Y621584D01*
X65041Y621591D01*
X65046Y621592D01*
X65541Y622611D01*
X65539Y622618D01*
X65544Y622620D01*
X65831Y623717D01*
X65829Y623721D01*
X65831Y623722D01*
X65829Y623724D01*
X65832Y623726D01*
X65899Y624857D01*
X65897Y624861D01*
X65899Y624863D01*
X65832Y625994D01*
X65827Y625999D01*
X65831Y626003D01*
X65544Y627100D01*
X65538Y627104D01*
X65541Y627109D01*
X65046Y628128D01*
X65040Y628131D01*
X65041Y628136D01*
X64357Y629039D01*
X64350Y629041D01*
X64350Y629046D01*
X63503Y629799D01*
X63496Y629799D01*
X63495Y629804D01*
X62518Y630377D01*
X62511Y630376D01*
X62509Y630381D01*
X61438Y630752D01*
X61432Y630749D01*
X61429Y630754D01*
X60307Y630909D01*
X60302Y630906D01*
X60300Y630909D01*
X48300Y630909D01*
X48295Y630906D01*
X48292Y630909D01*
X47025Y630704D01*
X47019Y630698D01*
X47015Y630701D01*
X45825Y630219D01*
X45821Y630212D01*
X45815Y630214D01*
X44762Y629480D01*
X44760Y629472D01*
X44754Y629473D01*
X43891Y628523D01*
X43890Y628514D01*
X43885Y628514D01*
X43255Y627395D01*
X43256Y627387D01*
X43250Y627385D01*
X42885Y626155D01*
X42888Y626147D01*
X42883Y626144D01*
X42801Y624863D01*
X42804Y624859D01*
X42801Y624857D01*
X42883Y623576D01*
X42889Y623570D01*
X42885Y623565D01*
X43250Y622335D01*
X43257Y622330D01*
X43255Y622325D01*
X43885Y621206D01*
X43892Y621203D01*
X43891Y621197D01*
X44754Y620247D01*
X44762Y620246D01*
X44762Y620240D01*
X45815Y619506D01*
X45823Y619506D01*
X45825Y619501D01*
X47015Y619019D01*
X47022Y619021D01*
X47025Y619016D01*
X48292Y618811D01*
X48297Y618814D01*
X48300Y618811D01*
X60300Y618811D01*
X60304Y618814D01*
G37*
G36*
X60304Y532414D02*
X60304Y532414D01*
X60307Y532411D01*
X61429Y532566D01*
X61434Y532571D01*
X61438Y532568D01*
X62509Y532939D01*
X62513Y532945D01*
X62518Y532943D01*
X63495Y533516D01*
X63498Y533522D01*
X63503Y533521D01*
X64350Y534274D01*
X64352Y534281D01*
X64357Y534281D01*
X65041Y535184D01*
X65041Y535191D01*
X65046Y535192D01*
X65541Y536211D01*
X65539Y536218D01*
X65544Y536220D01*
X65831Y537317D01*
X65829Y537321D01*
X65831Y537322D01*
X65829Y537324D01*
X65832Y537326D01*
X65899Y538457D01*
X65897Y538461D01*
X65899Y538463D01*
X65832Y539594D01*
X65827Y539599D01*
X65831Y539603D01*
X65544Y540700D01*
X65538Y540704D01*
X65541Y540709D01*
X65046Y541728D01*
X65040Y541731D01*
X65041Y541736D01*
X64357Y542639D01*
X64350Y542641D01*
X64350Y542646D01*
X63503Y543399D01*
X63496Y543399D01*
X63495Y543404D01*
X62518Y543977D01*
X62511Y543976D01*
X62509Y543981D01*
X61438Y544352D01*
X61432Y544349D01*
X61429Y544354D01*
X60307Y544509D01*
X60302Y544506D01*
X60300Y544509D01*
X48300Y544509D01*
X48295Y544506D01*
X48292Y544509D01*
X47025Y544304D01*
X47019Y544298D01*
X47015Y544301D01*
X45825Y543819D01*
X45821Y543812D01*
X45815Y543814D01*
X44762Y543080D01*
X44760Y543072D01*
X44754Y543073D01*
X43891Y542123D01*
X43890Y542114D01*
X43885Y542114D01*
X43255Y540995D01*
X43256Y540987D01*
X43250Y540985D01*
X42885Y539755D01*
X42888Y539747D01*
X42883Y539744D01*
X42801Y538463D01*
X42804Y538459D01*
X42801Y538457D01*
X42883Y537176D01*
X42889Y537170D01*
X42885Y537165D01*
X43250Y535935D01*
X43257Y535930D01*
X43255Y535925D01*
X43885Y534806D01*
X43892Y534803D01*
X43891Y534797D01*
X44754Y533847D01*
X44762Y533846D01*
X44762Y533840D01*
X45815Y533106D01*
X45823Y533106D01*
X45825Y533101D01*
X47015Y532619D01*
X47022Y532621D01*
X47025Y532616D01*
X48292Y532411D01*
X48297Y532414D01*
X48300Y532411D01*
X60300Y532411D01*
X60304Y532414D01*
G37*
G36*
X674984Y385134D02*
X674984Y385134D01*
X674987Y385131D01*
X676109Y385286D01*
X676114Y385291D01*
X676118Y385288D01*
X677189Y385659D01*
X677193Y385665D01*
X677198Y385663D01*
X678175Y386236D01*
X678178Y386242D01*
X678183Y386241D01*
X679030Y386994D01*
X679032Y387001D01*
X679037Y387001D01*
X679721Y387904D01*
X679721Y387911D01*
X679726Y387912D01*
X680221Y388931D01*
X680219Y388938D01*
X680224Y388940D01*
X680511Y390037D01*
X680509Y390041D01*
X680511Y390042D01*
X680509Y390044D01*
X680512Y390046D01*
X680579Y391177D01*
X680577Y391181D01*
X680579Y391183D01*
X680512Y392314D01*
X680507Y392319D01*
X680511Y392323D01*
X680224Y393420D01*
X680218Y393424D01*
X680221Y393429D01*
X679726Y394448D01*
X679720Y394451D01*
X679721Y394456D01*
X679037Y395359D01*
X679030Y395361D01*
X679030Y395366D01*
X678183Y396119D01*
X678176Y396119D01*
X678175Y396124D01*
X677198Y396697D01*
X677191Y396696D01*
X677189Y396701D01*
X676118Y397072D01*
X676112Y397069D01*
X676109Y397074D01*
X674987Y397229D01*
X674982Y397226D01*
X674980Y397229D01*
X662980Y397229D01*
X662975Y397226D01*
X662972Y397229D01*
X661705Y397024D01*
X661699Y397018D01*
X661695Y397021D01*
X660505Y396539D01*
X660501Y396532D01*
X660495Y396534D01*
X659442Y395800D01*
X659440Y395792D01*
X659434Y395793D01*
X658571Y394843D01*
X658570Y394834D01*
X658565Y394834D01*
X657935Y393715D01*
X657936Y393707D01*
X657930Y393705D01*
X657565Y392475D01*
X657568Y392467D01*
X657563Y392464D01*
X657481Y391183D01*
X657484Y391179D01*
X657481Y391177D01*
X657563Y389896D01*
X657569Y389890D01*
X657565Y389885D01*
X657930Y388655D01*
X657937Y388650D01*
X657935Y388645D01*
X658565Y387526D01*
X658572Y387523D01*
X658571Y387517D01*
X659434Y386567D01*
X659442Y386566D01*
X659442Y386560D01*
X660495Y385826D01*
X660503Y385826D01*
X660505Y385821D01*
X661695Y385339D01*
X661702Y385341D01*
X661705Y385336D01*
X662972Y385131D01*
X662977Y385134D01*
X662980Y385131D01*
X674980Y385131D01*
X674984Y385134D01*
G37*
G36*
X60304Y385134D02*
X60304Y385134D01*
X60307Y385131D01*
X61429Y385286D01*
X61434Y385291D01*
X61438Y385288D01*
X62509Y385659D01*
X62513Y385665D01*
X62518Y385663D01*
X63495Y386236D01*
X63498Y386242D01*
X63503Y386241D01*
X64350Y386994D01*
X64352Y387001D01*
X64357Y387001D01*
X65041Y387904D01*
X65041Y387911D01*
X65046Y387912D01*
X65541Y388931D01*
X65539Y388938D01*
X65544Y388940D01*
X65831Y390037D01*
X65829Y390041D01*
X65831Y390042D01*
X65829Y390044D01*
X65832Y390046D01*
X65899Y391177D01*
X65897Y391181D01*
X65899Y391183D01*
X65832Y392314D01*
X65827Y392319D01*
X65831Y392323D01*
X65544Y393420D01*
X65538Y393424D01*
X65541Y393429D01*
X65046Y394448D01*
X65040Y394451D01*
X65041Y394456D01*
X64357Y395359D01*
X64350Y395361D01*
X64350Y395366D01*
X63503Y396119D01*
X63496Y396119D01*
X63495Y396124D01*
X62518Y396697D01*
X62511Y396696D01*
X62509Y396701D01*
X61438Y397072D01*
X61432Y397069D01*
X61429Y397074D01*
X60307Y397229D01*
X60302Y397226D01*
X60300Y397229D01*
X48300Y397229D01*
X48295Y397226D01*
X48292Y397229D01*
X47025Y397024D01*
X47019Y397018D01*
X47015Y397021D01*
X45825Y396539D01*
X45821Y396532D01*
X45815Y396534D01*
X44762Y395800D01*
X44760Y395792D01*
X44754Y395793D01*
X43891Y394843D01*
X43890Y394834D01*
X43885Y394834D01*
X43255Y393715D01*
X43256Y393707D01*
X43250Y393705D01*
X42885Y392475D01*
X42888Y392467D01*
X42883Y392464D01*
X42801Y391183D01*
X42804Y391179D01*
X42801Y391177D01*
X42883Y389896D01*
X42889Y389890D01*
X42885Y389885D01*
X43250Y388655D01*
X43257Y388650D01*
X43255Y388645D01*
X43885Y387526D01*
X43892Y387523D01*
X43891Y387517D01*
X44754Y386567D01*
X44762Y386566D01*
X44762Y386560D01*
X45815Y385826D01*
X45823Y385826D01*
X45825Y385821D01*
X47015Y385339D01*
X47022Y385341D01*
X47025Y385336D01*
X48292Y385131D01*
X48297Y385134D01*
X48300Y385131D01*
X60300Y385131D01*
X60304Y385134D01*
G37*
G36*
X60304Y298734D02*
X60304Y298734D01*
X60307Y298731D01*
X61429Y298886D01*
X61434Y298891D01*
X61438Y298888D01*
X62509Y299259D01*
X62513Y299265D01*
X62518Y299263D01*
X63495Y299836D01*
X63498Y299842D01*
X63503Y299841D01*
X64350Y300594D01*
X64352Y300601D01*
X64357Y300601D01*
X65041Y301504D01*
X65041Y301511D01*
X65046Y301512D01*
X65541Y302531D01*
X65539Y302538D01*
X65544Y302540D01*
X65831Y303637D01*
X65829Y303641D01*
X65831Y303642D01*
X65829Y303644D01*
X65832Y303646D01*
X65899Y304777D01*
X65897Y304781D01*
X65899Y304783D01*
X65832Y305914D01*
X65827Y305919D01*
X65831Y305923D01*
X65544Y307020D01*
X65538Y307024D01*
X65541Y307029D01*
X65046Y308048D01*
X65040Y308051D01*
X65041Y308056D01*
X64357Y308959D01*
X64350Y308961D01*
X64350Y308966D01*
X63503Y309719D01*
X63496Y309719D01*
X63495Y309724D01*
X62518Y310297D01*
X62511Y310296D01*
X62509Y310301D01*
X61438Y310672D01*
X61432Y310669D01*
X61429Y310674D01*
X60307Y310829D01*
X60302Y310826D01*
X60300Y310829D01*
X48300Y310829D01*
X48295Y310826D01*
X48292Y310829D01*
X47025Y310624D01*
X47019Y310618D01*
X47015Y310621D01*
X45825Y310139D01*
X45821Y310132D01*
X45815Y310134D01*
X44762Y309400D01*
X44760Y309392D01*
X44754Y309393D01*
X43891Y308443D01*
X43890Y308434D01*
X43885Y308434D01*
X43255Y307315D01*
X43256Y307307D01*
X43250Y307305D01*
X42885Y306075D01*
X42888Y306067D01*
X42883Y306064D01*
X42801Y304783D01*
X42804Y304779D01*
X42801Y304777D01*
X42883Y303496D01*
X42889Y303490D01*
X42885Y303485D01*
X43250Y302255D01*
X43257Y302250D01*
X43255Y302245D01*
X43885Y301126D01*
X43892Y301123D01*
X43891Y301117D01*
X44754Y300167D01*
X44762Y300166D01*
X44762Y300160D01*
X45815Y299426D01*
X45823Y299426D01*
X45825Y299421D01*
X47015Y298939D01*
X47022Y298941D01*
X47025Y298936D01*
X48292Y298731D01*
X48297Y298734D01*
X48300Y298731D01*
X60300Y298731D01*
X60304Y298734D01*
G37*
G36*
X674984Y298734D02*
X674984Y298734D01*
X674987Y298731D01*
X676109Y298886D01*
X676114Y298891D01*
X676118Y298888D01*
X677189Y299259D01*
X677193Y299265D01*
X677198Y299263D01*
X678175Y299836D01*
X678178Y299842D01*
X678183Y299841D01*
X679030Y300594D01*
X679032Y300601D01*
X679037Y300601D01*
X679721Y301504D01*
X679721Y301511D01*
X679726Y301512D01*
X680221Y302531D01*
X680219Y302538D01*
X680224Y302540D01*
X680511Y303637D01*
X680509Y303641D01*
X680511Y303642D01*
X680509Y303644D01*
X680512Y303646D01*
X680579Y304777D01*
X680577Y304781D01*
X680579Y304783D01*
X680512Y305914D01*
X680507Y305919D01*
X680511Y305923D01*
X680224Y307020D01*
X680218Y307024D01*
X680221Y307029D01*
X679726Y308048D01*
X679720Y308051D01*
X679721Y308056D01*
X679037Y308959D01*
X679030Y308961D01*
X679030Y308966D01*
X678183Y309719D01*
X678176Y309719D01*
X678175Y309724D01*
X677198Y310297D01*
X677191Y310296D01*
X677189Y310301D01*
X676118Y310672D01*
X676112Y310669D01*
X676109Y310674D01*
X674987Y310829D01*
X674982Y310826D01*
X674980Y310829D01*
X662980Y310829D01*
X662975Y310826D01*
X662972Y310829D01*
X661705Y310624D01*
X661699Y310618D01*
X661695Y310621D01*
X660505Y310139D01*
X660501Y310132D01*
X660495Y310134D01*
X659442Y309400D01*
X659440Y309392D01*
X659434Y309393D01*
X658571Y308443D01*
X658570Y308434D01*
X658565Y308434D01*
X657935Y307315D01*
X657936Y307307D01*
X657930Y307305D01*
X657565Y306075D01*
X657568Y306067D01*
X657563Y306064D01*
X657481Y304783D01*
X657484Y304779D01*
X657481Y304777D01*
X657563Y303496D01*
X657569Y303490D01*
X657565Y303485D01*
X657930Y302255D01*
X657937Y302250D01*
X657935Y302245D01*
X658565Y301126D01*
X658572Y301123D01*
X658571Y301117D01*
X659434Y300167D01*
X659442Y300166D01*
X659442Y300160D01*
X660495Y299426D01*
X660503Y299426D01*
X660505Y299421D01*
X661695Y298939D01*
X661702Y298941D01*
X661705Y298936D01*
X662972Y298731D01*
X662977Y298734D01*
X662980Y298731D01*
X674980Y298731D01*
X674984Y298734D01*
G37*
G36*
X60304Y151454D02*
X60304Y151454D01*
X60307Y151451D01*
X61429Y151606D01*
X61434Y151611D01*
X61438Y151608D01*
X62509Y151979D01*
X62513Y151985D01*
X62518Y151983D01*
X63495Y152556D01*
X63498Y152562D01*
X63503Y152561D01*
X64350Y153314D01*
X64352Y153321D01*
X64357Y153321D01*
X65041Y154224D01*
X65041Y154231D01*
X65046Y154232D01*
X65541Y155251D01*
X65539Y155258D01*
X65544Y155260D01*
X65831Y156357D01*
X65829Y156361D01*
X65831Y156362D01*
X65829Y156364D01*
X65832Y156366D01*
X65899Y157497D01*
X65897Y157501D01*
X65899Y157503D01*
X65832Y158634D01*
X65827Y158639D01*
X65831Y158643D01*
X65544Y159740D01*
X65538Y159744D01*
X65541Y159749D01*
X65046Y160768D01*
X65040Y160771D01*
X65041Y160776D01*
X64357Y161679D01*
X64350Y161681D01*
X64350Y161686D01*
X63503Y162439D01*
X63496Y162439D01*
X63495Y162444D01*
X62518Y163017D01*
X62511Y163016D01*
X62509Y163021D01*
X61438Y163392D01*
X61432Y163389D01*
X61429Y163394D01*
X60307Y163549D01*
X60302Y163546D01*
X60300Y163549D01*
X48300Y163549D01*
X48295Y163546D01*
X48292Y163549D01*
X47025Y163344D01*
X47019Y163338D01*
X47015Y163341D01*
X45825Y162859D01*
X45821Y162852D01*
X45815Y162854D01*
X44762Y162120D01*
X44760Y162112D01*
X44754Y162113D01*
X43891Y161163D01*
X43890Y161154D01*
X43885Y161154D01*
X43255Y160035D01*
X43256Y160027D01*
X43250Y160025D01*
X42885Y158795D01*
X42888Y158787D01*
X42883Y158784D01*
X42801Y157503D01*
X42804Y157499D01*
X42801Y157497D01*
X42883Y156216D01*
X42889Y156210D01*
X42885Y156205D01*
X43250Y154975D01*
X43257Y154970D01*
X43255Y154965D01*
X43885Y153846D01*
X43892Y153843D01*
X43891Y153837D01*
X44754Y152887D01*
X44762Y152886D01*
X44762Y152880D01*
X45815Y152146D01*
X45823Y152146D01*
X45825Y152141D01*
X47015Y151659D01*
X47022Y151661D01*
X47025Y151656D01*
X48292Y151451D01*
X48297Y151454D01*
X48300Y151451D01*
X60300Y151451D01*
X60304Y151454D01*
G37*
G36*
X674984Y151454D02*
X674984Y151454D01*
X674987Y151451D01*
X676109Y151606D01*
X676114Y151611D01*
X676118Y151608D01*
X677189Y151979D01*
X677193Y151985D01*
X677198Y151983D01*
X678175Y152556D01*
X678178Y152562D01*
X678183Y152561D01*
X679030Y153314D01*
X679032Y153321D01*
X679037Y153321D01*
X679721Y154224D01*
X679721Y154231D01*
X679726Y154232D01*
X680221Y155251D01*
X680219Y155258D01*
X680224Y155260D01*
X680511Y156357D01*
X680509Y156361D01*
X680511Y156362D01*
X680509Y156364D01*
X680512Y156366D01*
X680579Y157497D01*
X680577Y157501D01*
X680579Y157503D01*
X680512Y158634D01*
X680507Y158639D01*
X680511Y158643D01*
X680224Y159740D01*
X680218Y159744D01*
X680221Y159749D01*
X679726Y160768D01*
X679720Y160771D01*
X679721Y160776D01*
X679037Y161679D01*
X679030Y161681D01*
X679030Y161686D01*
X678183Y162439D01*
X678176Y162439D01*
X678175Y162444D01*
X677198Y163017D01*
X677191Y163016D01*
X677189Y163021D01*
X676118Y163392D01*
X676112Y163389D01*
X676109Y163394D01*
X674987Y163549D01*
X674982Y163546D01*
X674980Y163549D01*
X662980Y163549D01*
X662975Y163546D01*
X662972Y163549D01*
X661705Y163344D01*
X661699Y163338D01*
X661695Y163341D01*
X660505Y162859D01*
X660501Y162852D01*
X660495Y162854D01*
X659442Y162120D01*
X659440Y162112D01*
X659434Y162113D01*
X658571Y161163D01*
X658570Y161154D01*
X658565Y161154D01*
X657935Y160035D01*
X657936Y160027D01*
X657930Y160025D01*
X657565Y158795D01*
X657568Y158787D01*
X657563Y158784D01*
X657481Y157503D01*
X657484Y157499D01*
X657481Y157497D01*
X657563Y156216D01*
X657569Y156210D01*
X657565Y156205D01*
X657930Y154975D01*
X657937Y154970D01*
X657935Y154965D01*
X658565Y153846D01*
X658572Y153843D01*
X658571Y153837D01*
X659434Y152887D01*
X659442Y152886D01*
X659442Y152880D01*
X660495Y152146D01*
X660503Y152146D01*
X660505Y152141D01*
X661695Y151659D01*
X661702Y151661D01*
X661705Y151656D01*
X662972Y151451D01*
X662977Y151454D01*
X662980Y151451D01*
X674980Y151451D01*
X674984Y151454D01*
G37*
G36*
X674984Y65054D02*
X674984Y65054D01*
X674987Y65051D01*
X676109Y65206D01*
X676114Y65211D01*
X676118Y65208D01*
X677189Y65579D01*
X677193Y65585D01*
X677198Y65583D01*
X678175Y66156D01*
X678178Y66162D01*
X678183Y66161D01*
X679030Y66914D01*
X679032Y66921D01*
X679037Y66921D01*
X679721Y67824D01*
X679721Y67831D01*
X679726Y67832D01*
X680221Y68851D01*
X680219Y68858D01*
X680224Y68860D01*
X680511Y69957D01*
X680509Y69961D01*
X680511Y69962D01*
X680509Y69964D01*
X680512Y69966D01*
X680579Y71097D01*
X680577Y71101D01*
X680579Y71103D01*
X680512Y72234D01*
X680507Y72239D01*
X680511Y72243D01*
X680224Y73340D01*
X680218Y73344D01*
X680221Y73349D01*
X679726Y74368D01*
X679720Y74371D01*
X679721Y74376D01*
X679037Y75279D01*
X679030Y75281D01*
X679030Y75286D01*
X678183Y76039D01*
X678176Y76039D01*
X678175Y76044D01*
X677198Y76617D01*
X677191Y76616D01*
X677189Y76621D01*
X676118Y76992D01*
X676112Y76989D01*
X676109Y76994D01*
X674987Y77149D01*
X674982Y77146D01*
X674980Y77149D01*
X662980Y77149D01*
X662975Y77146D01*
X662972Y77149D01*
X661705Y76944D01*
X661699Y76938D01*
X661695Y76941D01*
X660505Y76459D01*
X660501Y76452D01*
X660495Y76454D01*
X659442Y75720D01*
X659440Y75712D01*
X659434Y75713D01*
X658571Y74763D01*
X658570Y74754D01*
X658565Y74754D01*
X657935Y73635D01*
X657936Y73627D01*
X657930Y73625D01*
X657565Y72395D01*
X657568Y72387D01*
X657563Y72384D01*
X657481Y71103D01*
X657484Y71099D01*
X657481Y71097D01*
X657563Y69816D01*
X657569Y69810D01*
X657565Y69805D01*
X657930Y68575D01*
X657937Y68570D01*
X657935Y68565D01*
X658565Y67446D01*
X658572Y67443D01*
X658571Y67437D01*
X659434Y66487D01*
X659442Y66486D01*
X659442Y66480D01*
X660495Y65746D01*
X660503Y65746D01*
X660505Y65741D01*
X661695Y65259D01*
X661702Y65261D01*
X661705Y65256D01*
X662972Y65051D01*
X662977Y65054D01*
X662980Y65051D01*
X674980Y65051D01*
X674984Y65054D01*
G37*
G36*
X60304Y65054D02*
X60304Y65054D01*
X60307Y65051D01*
X61429Y65206D01*
X61434Y65211D01*
X61438Y65208D01*
X62509Y65579D01*
X62513Y65585D01*
X62518Y65583D01*
X63495Y66156D01*
X63498Y66162D01*
X63503Y66161D01*
X64350Y66914D01*
X64352Y66921D01*
X64357Y66921D01*
X65041Y67824D01*
X65041Y67831D01*
X65046Y67832D01*
X65541Y68851D01*
X65539Y68858D01*
X65544Y68860D01*
X65831Y69957D01*
X65829Y69961D01*
X65831Y69962D01*
X65829Y69964D01*
X65832Y69966D01*
X65899Y71097D01*
X65897Y71101D01*
X65899Y71103D01*
X65832Y72234D01*
X65827Y72239D01*
X65831Y72243D01*
X65544Y73340D01*
X65538Y73344D01*
X65541Y73349D01*
X65046Y74368D01*
X65040Y74371D01*
X65041Y74376D01*
X64357Y75279D01*
X64350Y75281D01*
X64350Y75286D01*
X63503Y76039D01*
X63496Y76039D01*
X63495Y76044D01*
X62518Y76617D01*
X62511Y76616D01*
X62509Y76621D01*
X61438Y76992D01*
X61432Y76989D01*
X61429Y76994D01*
X60307Y77149D01*
X60302Y77146D01*
X60300Y77149D01*
X48300Y77149D01*
X48295Y77146D01*
X48292Y77149D01*
X47025Y76944D01*
X47019Y76938D01*
X47015Y76941D01*
X45825Y76459D01*
X45821Y76452D01*
X45815Y76454D01*
X44762Y75720D01*
X44760Y75712D01*
X44754Y75713D01*
X43891Y74763D01*
X43890Y74754D01*
X43885Y74754D01*
X43255Y73635D01*
X43256Y73627D01*
X43250Y73625D01*
X42885Y72395D01*
X42888Y72387D01*
X42883Y72384D01*
X42801Y71103D01*
X42804Y71099D01*
X42801Y71097D01*
X42883Y69816D01*
X42889Y69810D01*
X42885Y69805D01*
X43250Y68575D01*
X43257Y68570D01*
X43255Y68565D01*
X43885Y67446D01*
X43892Y67443D01*
X43891Y67437D01*
X44754Y66487D01*
X44762Y66486D01*
X44762Y66480D01*
X45815Y65746D01*
X45823Y65746D01*
X45825Y65741D01*
X47015Y65259D01*
X47022Y65261D01*
X47025Y65256D01*
X48292Y65051D01*
X48297Y65054D01*
X48300Y65051D01*
X60300Y65051D01*
X60304Y65054D01*
G37*
G36*
X630183Y766093D02*
X630183Y766093D01*
X630185Y766091D01*
X631361Y766202D01*
X631366Y766207D01*
X631370Y766204D01*
X632502Y766542D01*
X632506Y766548D01*
X632511Y766546D01*
X633555Y767098D01*
X633558Y767105D01*
X633563Y767103D01*
X634479Y767849D01*
X634480Y767856D01*
X634486Y767856D01*
X635239Y768766D01*
X635239Y768773D01*
X635244Y768774D01*
X635805Y769813D01*
X635804Y769818D01*
X635808Y769820D01*
X635807Y769821D01*
X635809Y769822D01*
X636156Y770951D01*
X636156Y770952D01*
X636157Y770953D01*
X636154Y770957D01*
X636158Y770960D01*
X636279Y772135D01*
X636275Y772142D01*
X636279Y772146D01*
X636122Y773486D01*
X636117Y773492D01*
X636120Y773497D01*
X635669Y774768D01*
X635662Y774773D01*
X635664Y774778D01*
X634942Y775917D01*
X634934Y775920D01*
X634935Y775926D01*
X633977Y776876D01*
X633969Y776877D01*
X633968Y776883D01*
X632823Y777596D01*
X632815Y777595D01*
X632813Y777601D01*
X631537Y778041D01*
X631530Y778039D01*
X631527Y778043D01*
X630185Y778189D01*
X630182Y778187D01*
X630180Y778189D01*
X624180Y778189D01*
X624177Y778187D01*
X624174Y778189D01*
X622845Y778034D01*
X622839Y778028D01*
X622835Y778031D01*
X621574Y777584D01*
X621569Y777577D01*
X621564Y777579D01*
X620434Y776862D01*
X620431Y776855D01*
X620425Y776856D01*
X619483Y775906D01*
X619482Y775897D01*
X619476Y775897D01*
X618769Y774761D01*
X618770Y774753D01*
X618764Y774751D01*
X618328Y773486D01*
X618330Y773478D01*
X618325Y773476D01*
X618181Y772145D01*
X618185Y772139D01*
X618181Y772135D01*
X618291Y770969D01*
X618296Y770964D01*
X618293Y770960D01*
X618628Y769837D01*
X618634Y769833D01*
X618632Y769829D01*
X619180Y768793D01*
X619186Y768790D01*
X619185Y768785D01*
X619924Y767877D01*
X619931Y767875D01*
X619931Y767870D01*
X620833Y767123D01*
X620841Y767123D01*
X620841Y767118D01*
X621872Y766561D01*
X621879Y766562D01*
X621881Y766557D01*
X623000Y766213D01*
X623007Y766215D01*
X623010Y766211D01*
X624175Y766091D01*
X624178Y766093D01*
X624180Y766091D01*
X630180Y766091D01*
X630183Y766093D01*
G37*
G36*
X15503Y766093D02*
X15503Y766093D01*
X15505Y766091D01*
X16681Y766202D01*
X16686Y766207D01*
X16690Y766204D01*
X17822Y766542D01*
X17826Y766548D01*
X17831Y766546D01*
X18875Y767098D01*
X18878Y767105D01*
X18883Y767103D01*
X19799Y767849D01*
X19800Y767856D01*
X19806Y767856D01*
X20559Y768766D01*
X20559Y768773D01*
X20564Y768774D01*
X21125Y769813D01*
X21124Y769818D01*
X21128Y769820D01*
X21127Y769821D01*
X21129Y769822D01*
X21476Y770951D01*
X21476Y770952D01*
X21477Y770953D01*
X21474Y770957D01*
X21478Y770960D01*
X21599Y772135D01*
X21595Y772142D01*
X21599Y772146D01*
X21442Y773486D01*
X21437Y773492D01*
X21440Y773497D01*
X20989Y774768D01*
X20982Y774773D01*
X20984Y774778D01*
X20262Y775917D01*
X20254Y775920D01*
X20255Y775926D01*
X19297Y776876D01*
X19289Y776877D01*
X19288Y776883D01*
X18143Y777596D01*
X18135Y777595D01*
X18133Y777601D01*
X16857Y778041D01*
X16850Y778039D01*
X16847Y778043D01*
X15505Y778189D01*
X15502Y778187D01*
X15500Y778189D01*
X9500Y778189D01*
X9497Y778187D01*
X9494Y778189D01*
X8165Y778034D01*
X8159Y778028D01*
X8155Y778031D01*
X6894Y777584D01*
X6889Y777577D01*
X6884Y777579D01*
X5754Y776862D01*
X5751Y776855D01*
X5745Y776856D01*
X4803Y775906D01*
X4802Y775897D01*
X4796Y775897D01*
X4089Y774761D01*
X4090Y774753D01*
X4084Y774751D01*
X3648Y773486D01*
X3650Y773478D01*
X3645Y773476D01*
X3501Y772145D01*
X3505Y772139D01*
X3501Y772135D01*
X3611Y770969D01*
X3616Y770964D01*
X3613Y770960D01*
X3948Y769837D01*
X3954Y769833D01*
X3952Y769829D01*
X4500Y768793D01*
X4506Y768790D01*
X4505Y768785D01*
X5244Y767877D01*
X5251Y767875D01*
X5251Y767870D01*
X6153Y767123D01*
X6161Y767123D01*
X6161Y767118D01*
X7192Y766561D01*
X7199Y766562D01*
X7201Y766557D01*
X8320Y766213D01*
X8327Y766215D01*
X8330Y766211D01*
X9495Y766091D01*
X9498Y766093D01*
X9500Y766091D01*
X15500Y766091D01*
X15503Y766093D01*
G37*
G36*
X630183Y298733D02*
X630183Y298733D01*
X630185Y298731D01*
X631361Y298842D01*
X631366Y298847D01*
X631370Y298844D01*
X632502Y299182D01*
X632506Y299188D01*
X632511Y299186D01*
X633555Y299738D01*
X633558Y299745D01*
X633563Y299743D01*
X634479Y300489D01*
X634480Y300496D01*
X634486Y300496D01*
X635239Y301406D01*
X635239Y301413D01*
X635244Y301414D01*
X635805Y302453D01*
X635804Y302458D01*
X635808Y302460D01*
X635807Y302461D01*
X635809Y302462D01*
X636156Y303591D01*
X636156Y303592D01*
X636157Y303593D01*
X636154Y303597D01*
X636158Y303600D01*
X636279Y304775D01*
X636275Y304782D01*
X636279Y304786D01*
X636122Y306126D01*
X636117Y306132D01*
X636120Y306137D01*
X635669Y307408D01*
X635662Y307413D01*
X635664Y307418D01*
X634942Y308557D01*
X634934Y308560D01*
X634935Y308566D01*
X633977Y309516D01*
X633969Y309517D01*
X633968Y309523D01*
X632823Y310236D01*
X632815Y310235D01*
X632813Y310241D01*
X631537Y310681D01*
X631530Y310679D01*
X631527Y310683D01*
X630185Y310829D01*
X630182Y310827D01*
X630180Y310829D01*
X624180Y310829D01*
X624177Y310827D01*
X624174Y310829D01*
X622845Y310674D01*
X622839Y310668D01*
X622835Y310671D01*
X621574Y310224D01*
X621569Y310217D01*
X621564Y310219D01*
X620434Y309502D01*
X620431Y309495D01*
X620425Y309496D01*
X619483Y308546D01*
X619482Y308537D01*
X619476Y308537D01*
X618769Y307401D01*
X618770Y307393D01*
X618764Y307391D01*
X618328Y306126D01*
X618330Y306118D01*
X618325Y306116D01*
X618181Y304785D01*
X618185Y304779D01*
X618181Y304775D01*
X618291Y303609D01*
X618296Y303604D01*
X618293Y303600D01*
X618628Y302477D01*
X618634Y302473D01*
X618632Y302469D01*
X619180Y301433D01*
X619186Y301430D01*
X619185Y301425D01*
X619924Y300517D01*
X619931Y300515D01*
X619931Y300510D01*
X620833Y299763D01*
X620841Y299763D01*
X620841Y299758D01*
X621872Y299201D01*
X621879Y299202D01*
X621881Y299197D01*
X623000Y298853D01*
X623007Y298855D01*
X623010Y298851D01*
X624175Y298731D01*
X624178Y298733D01*
X624180Y298731D01*
X630180Y298731D01*
X630183Y298733D01*
G37*
G36*
X15503Y298733D02*
X15503Y298733D01*
X15505Y298731D01*
X16681Y298842D01*
X16686Y298847D01*
X16690Y298844D01*
X17822Y299182D01*
X17826Y299188D01*
X17831Y299186D01*
X18875Y299738D01*
X18878Y299745D01*
X18883Y299743D01*
X19799Y300489D01*
X19800Y300496D01*
X19806Y300496D01*
X20559Y301406D01*
X20559Y301413D01*
X20564Y301414D01*
X21125Y302453D01*
X21124Y302458D01*
X21128Y302460D01*
X21127Y302461D01*
X21129Y302462D01*
X21476Y303591D01*
X21476Y303592D01*
X21477Y303593D01*
X21474Y303597D01*
X21478Y303600D01*
X21599Y304775D01*
X21595Y304782D01*
X21599Y304786D01*
X21442Y306126D01*
X21437Y306132D01*
X21440Y306137D01*
X20989Y307408D01*
X20982Y307413D01*
X20984Y307418D01*
X20262Y308557D01*
X20254Y308560D01*
X20255Y308566D01*
X19297Y309516D01*
X19289Y309517D01*
X19288Y309523D01*
X18143Y310236D01*
X18135Y310235D01*
X18133Y310241D01*
X16857Y310681D01*
X16850Y310679D01*
X16847Y310683D01*
X15505Y310829D01*
X15502Y310827D01*
X15500Y310829D01*
X9500Y310829D01*
X9497Y310827D01*
X9494Y310829D01*
X8165Y310674D01*
X8159Y310668D01*
X8155Y310671D01*
X6894Y310224D01*
X6889Y310217D01*
X6884Y310219D01*
X5754Y309502D01*
X5751Y309495D01*
X5745Y309496D01*
X4803Y308546D01*
X4802Y308537D01*
X4796Y308537D01*
X4089Y307401D01*
X4090Y307393D01*
X4084Y307391D01*
X3648Y306126D01*
X3650Y306118D01*
X3645Y306116D01*
X3501Y304785D01*
X3505Y304779D01*
X3501Y304775D01*
X3611Y303609D01*
X3616Y303604D01*
X3613Y303600D01*
X3948Y302477D01*
X3954Y302473D01*
X3952Y302469D01*
X4500Y301433D01*
X4506Y301430D01*
X4505Y301425D01*
X5244Y300517D01*
X5251Y300515D01*
X5251Y300510D01*
X6153Y299763D01*
X6161Y299763D01*
X6161Y299758D01*
X7192Y299201D01*
X7199Y299202D01*
X7201Y299197D01*
X8320Y298853D01*
X8327Y298855D01*
X8330Y298851D01*
X9495Y298731D01*
X9498Y298733D01*
X9500Y298731D01*
X15500Y298731D01*
X15503Y298733D01*
G37*
G36*
X15503Y618813D02*
X15503Y618813D01*
X15505Y618811D01*
X16681Y618922D01*
X16686Y618927D01*
X16690Y618924D01*
X17822Y619262D01*
X17826Y619268D01*
X17831Y619266D01*
X18875Y619818D01*
X18878Y619825D01*
X18883Y619823D01*
X19799Y620569D01*
X19800Y620576D01*
X19806Y620576D01*
X20559Y621486D01*
X20559Y621493D01*
X20564Y621494D01*
X21125Y622533D01*
X21124Y622538D01*
X21128Y622540D01*
X21127Y622541D01*
X21129Y622542D01*
X21476Y623671D01*
X21476Y623672D01*
X21477Y623673D01*
X21474Y623677D01*
X21478Y623680D01*
X21599Y624855D01*
X21595Y624862D01*
X21599Y624866D01*
X21442Y626206D01*
X21437Y626212D01*
X21440Y626217D01*
X20989Y627488D01*
X20982Y627493D01*
X20984Y627498D01*
X20262Y628637D01*
X20254Y628640D01*
X20255Y628646D01*
X19297Y629596D01*
X19289Y629597D01*
X19288Y629603D01*
X18143Y630316D01*
X18135Y630315D01*
X18133Y630321D01*
X16857Y630761D01*
X16850Y630759D01*
X16847Y630763D01*
X15505Y630909D01*
X15502Y630907D01*
X15500Y630909D01*
X9500Y630909D01*
X9497Y630907D01*
X9494Y630909D01*
X8165Y630754D01*
X8159Y630748D01*
X8155Y630751D01*
X6894Y630304D01*
X6889Y630297D01*
X6884Y630299D01*
X5754Y629582D01*
X5751Y629575D01*
X5745Y629576D01*
X4803Y628626D01*
X4802Y628617D01*
X4796Y628617D01*
X4089Y627481D01*
X4090Y627473D01*
X4084Y627471D01*
X3648Y626206D01*
X3650Y626198D01*
X3645Y626196D01*
X3501Y624865D01*
X3505Y624859D01*
X3501Y624855D01*
X3611Y623689D01*
X3616Y623684D01*
X3613Y623680D01*
X3948Y622557D01*
X3954Y622553D01*
X3952Y622549D01*
X4500Y621513D01*
X4506Y621510D01*
X4505Y621505D01*
X5244Y620597D01*
X5251Y620595D01*
X5251Y620590D01*
X6153Y619843D01*
X6161Y619843D01*
X6161Y619838D01*
X7192Y619281D01*
X7199Y619282D01*
X7201Y619277D01*
X8320Y618933D01*
X8327Y618935D01*
X8330Y618931D01*
X9495Y618811D01*
X9498Y618813D01*
X9500Y618811D01*
X15500Y618811D01*
X15503Y618813D01*
G37*
G36*
X630183Y618813D02*
X630183Y618813D01*
X630185Y618811D01*
X631361Y618922D01*
X631366Y618927D01*
X631370Y618924D01*
X632502Y619262D01*
X632506Y619268D01*
X632511Y619266D01*
X633555Y619818D01*
X633558Y619825D01*
X633563Y619823D01*
X634479Y620569D01*
X634480Y620576D01*
X634486Y620576D01*
X635239Y621486D01*
X635239Y621493D01*
X635244Y621494D01*
X635805Y622533D01*
X635804Y622538D01*
X635808Y622540D01*
X635807Y622541D01*
X635809Y622542D01*
X636156Y623671D01*
X636156Y623672D01*
X636157Y623673D01*
X636154Y623677D01*
X636158Y623680D01*
X636279Y624855D01*
X636275Y624862D01*
X636279Y624866D01*
X636122Y626206D01*
X636117Y626212D01*
X636120Y626217D01*
X635669Y627488D01*
X635662Y627493D01*
X635664Y627498D01*
X634942Y628637D01*
X634934Y628640D01*
X634935Y628646D01*
X633977Y629596D01*
X633969Y629597D01*
X633968Y629603D01*
X632823Y630316D01*
X632815Y630315D01*
X632813Y630321D01*
X631537Y630761D01*
X631530Y630759D01*
X631527Y630763D01*
X630185Y630909D01*
X630182Y630907D01*
X630180Y630909D01*
X624180Y630909D01*
X624177Y630907D01*
X624174Y630909D01*
X622845Y630754D01*
X622839Y630748D01*
X622835Y630751D01*
X621574Y630304D01*
X621569Y630297D01*
X621564Y630299D01*
X620434Y629582D01*
X620431Y629575D01*
X620425Y629576D01*
X619483Y628626D01*
X619482Y628617D01*
X619476Y628617D01*
X618769Y627481D01*
X618770Y627473D01*
X618764Y627471D01*
X618328Y626206D01*
X618330Y626198D01*
X618325Y626196D01*
X618181Y624865D01*
X618185Y624859D01*
X618181Y624855D01*
X618291Y623689D01*
X618296Y623684D01*
X618293Y623680D01*
X618628Y622557D01*
X618634Y622553D01*
X618632Y622549D01*
X619180Y621513D01*
X619186Y621510D01*
X619185Y621505D01*
X619924Y620597D01*
X619931Y620595D01*
X619931Y620590D01*
X620833Y619843D01*
X620841Y619843D01*
X620841Y619838D01*
X621872Y619281D01*
X621879Y619282D01*
X621881Y619277D01*
X623000Y618933D01*
X623007Y618935D01*
X623010Y618931D01*
X624175Y618811D01*
X624178Y618813D01*
X624180Y618811D01*
X630180Y618811D01*
X630183Y618813D01*
G37*
G36*
X630183Y532413D02*
X630183Y532413D01*
X630185Y532411D01*
X631361Y532522D01*
X631366Y532527D01*
X631370Y532524D01*
X632502Y532862D01*
X632506Y532868D01*
X632511Y532866D01*
X633555Y533418D01*
X633558Y533425D01*
X633563Y533423D01*
X634479Y534169D01*
X634480Y534176D01*
X634486Y534176D01*
X635239Y535086D01*
X635239Y535093D01*
X635244Y535094D01*
X635805Y536133D01*
X635804Y536138D01*
X635808Y536140D01*
X635807Y536141D01*
X635809Y536142D01*
X636156Y537271D01*
X636156Y537272D01*
X636157Y537273D01*
X636154Y537277D01*
X636158Y537280D01*
X636279Y538455D01*
X636275Y538462D01*
X636279Y538466D01*
X636122Y539806D01*
X636117Y539812D01*
X636120Y539817D01*
X635669Y541088D01*
X635662Y541093D01*
X635664Y541098D01*
X634942Y542237D01*
X634934Y542240D01*
X634935Y542246D01*
X633977Y543196D01*
X633969Y543197D01*
X633968Y543203D01*
X632823Y543916D01*
X632815Y543915D01*
X632813Y543921D01*
X631537Y544361D01*
X631530Y544359D01*
X631527Y544363D01*
X630185Y544509D01*
X630182Y544507D01*
X630180Y544509D01*
X624180Y544509D01*
X624177Y544507D01*
X624174Y544509D01*
X622845Y544354D01*
X622839Y544348D01*
X622835Y544351D01*
X621574Y543904D01*
X621569Y543897D01*
X621564Y543899D01*
X620434Y543182D01*
X620431Y543175D01*
X620425Y543176D01*
X619483Y542226D01*
X619482Y542217D01*
X619476Y542217D01*
X618769Y541081D01*
X618770Y541073D01*
X618764Y541071D01*
X618328Y539806D01*
X618330Y539798D01*
X618325Y539796D01*
X618181Y538465D01*
X618185Y538459D01*
X618181Y538455D01*
X618291Y537289D01*
X618296Y537284D01*
X618293Y537280D01*
X618628Y536157D01*
X618634Y536153D01*
X618632Y536149D01*
X619180Y535113D01*
X619186Y535110D01*
X619185Y535105D01*
X619924Y534197D01*
X619931Y534195D01*
X619931Y534190D01*
X620833Y533443D01*
X620841Y533443D01*
X620841Y533438D01*
X621872Y532881D01*
X621879Y532882D01*
X621881Y532877D01*
X623000Y532533D01*
X623007Y532535D01*
X623010Y532531D01*
X624175Y532411D01*
X624178Y532413D01*
X624180Y532411D01*
X630180Y532411D01*
X630183Y532413D01*
G37*
G36*
X15503Y532413D02*
X15503Y532413D01*
X15505Y532411D01*
X16681Y532522D01*
X16686Y532527D01*
X16690Y532524D01*
X17822Y532862D01*
X17826Y532868D01*
X17831Y532866D01*
X18875Y533418D01*
X18878Y533425D01*
X18883Y533423D01*
X19799Y534169D01*
X19800Y534176D01*
X19806Y534176D01*
X20559Y535086D01*
X20559Y535093D01*
X20564Y535094D01*
X21125Y536133D01*
X21124Y536138D01*
X21128Y536140D01*
X21127Y536141D01*
X21129Y536142D01*
X21476Y537271D01*
X21476Y537272D01*
X21477Y537273D01*
X21474Y537277D01*
X21478Y537280D01*
X21599Y538455D01*
X21595Y538462D01*
X21599Y538466D01*
X21442Y539806D01*
X21437Y539812D01*
X21440Y539817D01*
X20989Y541088D01*
X20982Y541093D01*
X20984Y541098D01*
X20262Y542237D01*
X20254Y542240D01*
X20255Y542246D01*
X19297Y543196D01*
X19289Y543197D01*
X19288Y543203D01*
X18143Y543916D01*
X18135Y543915D01*
X18133Y543921D01*
X16857Y544361D01*
X16850Y544359D01*
X16847Y544363D01*
X15505Y544509D01*
X15502Y544507D01*
X15500Y544509D01*
X9500Y544509D01*
X9497Y544507D01*
X9494Y544509D01*
X8165Y544354D01*
X8159Y544348D01*
X8155Y544351D01*
X6894Y543904D01*
X6889Y543897D01*
X6884Y543899D01*
X5754Y543182D01*
X5751Y543175D01*
X5745Y543176D01*
X4803Y542226D01*
X4802Y542217D01*
X4796Y542217D01*
X4089Y541081D01*
X4090Y541073D01*
X4084Y541071D01*
X3648Y539806D01*
X3650Y539798D01*
X3645Y539796D01*
X3501Y538465D01*
X3505Y538459D01*
X3501Y538455D01*
X3611Y537289D01*
X3616Y537284D01*
X3613Y537280D01*
X3948Y536157D01*
X3954Y536153D01*
X3952Y536149D01*
X4500Y535113D01*
X4506Y535110D01*
X4505Y535105D01*
X5244Y534197D01*
X5251Y534195D01*
X5251Y534190D01*
X6153Y533443D01*
X6161Y533443D01*
X6161Y533438D01*
X7192Y532881D01*
X7199Y532882D01*
X7201Y532877D01*
X8320Y532533D01*
X8327Y532535D01*
X8330Y532531D01*
X9495Y532411D01*
X9498Y532413D01*
X9500Y532411D01*
X15500Y532411D01*
X15503Y532413D01*
G37*
G36*
X630183Y151453D02*
X630183Y151453D01*
X630185Y151451D01*
X631361Y151562D01*
X631366Y151567D01*
X631370Y151564D01*
X632502Y151902D01*
X632506Y151908D01*
X632511Y151906D01*
X633555Y152458D01*
X633558Y152465D01*
X633563Y152463D01*
X634479Y153209D01*
X634480Y153216D01*
X634486Y153216D01*
X635239Y154126D01*
X635239Y154133D01*
X635244Y154134D01*
X635805Y155173D01*
X635804Y155178D01*
X635808Y155180D01*
X635807Y155181D01*
X635809Y155182D01*
X636156Y156311D01*
X636156Y156312D01*
X636157Y156313D01*
X636154Y156317D01*
X636158Y156320D01*
X636279Y157495D01*
X636275Y157502D01*
X636279Y157506D01*
X636122Y158846D01*
X636117Y158852D01*
X636120Y158857D01*
X635669Y160128D01*
X635662Y160133D01*
X635664Y160138D01*
X634942Y161277D01*
X634934Y161280D01*
X634935Y161286D01*
X633977Y162236D01*
X633969Y162237D01*
X633968Y162243D01*
X632823Y162956D01*
X632815Y162955D01*
X632813Y162961D01*
X631537Y163401D01*
X631530Y163399D01*
X631527Y163403D01*
X630185Y163549D01*
X630182Y163547D01*
X630180Y163549D01*
X624180Y163549D01*
X624177Y163547D01*
X624174Y163549D01*
X622845Y163394D01*
X622839Y163388D01*
X622835Y163391D01*
X621574Y162944D01*
X621569Y162937D01*
X621564Y162939D01*
X620434Y162222D01*
X620431Y162215D01*
X620425Y162216D01*
X619483Y161266D01*
X619482Y161257D01*
X619476Y161257D01*
X618769Y160121D01*
X618770Y160113D01*
X618764Y160111D01*
X618328Y158846D01*
X618330Y158838D01*
X618325Y158836D01*
X618181Y157505D01*
X618185Y157499D01*
X618181Y157495D01*
X618291Y156329D01*
X618296Y156324D01*
X618293Y156320D01*
X618628Y155197D01*
X618634Y155193D01*
X618632Y155189D01*
X619180Y154153D01*
X619186Y154150D01*
X619185Y154145D01*
X619924Y153237D01*
X619931Y153235D01*
X619931Y153230D01*
X620833Y152483D01*
X620841Y152483D01*
X620841Y152478D01*
X621872Y151921D01*
X621879Y151922D01*
X621881Y151917D01*
X623000Y151573D01*
X623007Y151575D01*
X623010Y151571D01*
X624175Y151451D01*
X624178Y151453D01*
X624180Y151451D01*
X630180Y151451D01*
X630183Y151453D01*
G37*
G36*
X15503Y151453D02*
X15503Y151453D01*
X15505Y151451D01*
X16681Y151562D01*
X16686Y151567D01*
X16690Y151564D01*
X17822Y151902D01*
X17826Y151908D01*
X17831Y151906D01*
X18875Y152458D01*
X18878Y152465D01*
X18883Y152463D01*
X19799Y153209D01*
X19800Y153216D01*
X19806Y153216D01*
X20559Y154126D01*
X20559Y154133D01*
X20564Y154134D01*
X21125Y155173D01*
X21124Y155178D01*
X21128Y155180D01*
X21127Y155181D01*
X21129Y155182D01*
X21476Y156311D01*
X21476Y156312D01*
X21477Y156313D01*
X21474Y156317D01*
X21478Y156320D01*
X21599Y157495D01*
X21595Y157502D01*
X21599Y157506D01*
X21442Y158846D01*
X21437Y158852D01*
X21440Y158857D01*
X20989Y160128D01*
X20982Y160133D01*
X20984Y160138D01*
X20262Y161277D01*
X20254Y161280D01*
X20255Y161286D01*
X19297Y162236D01*
X19289Y162237D01*
X19288Y162243D01*
X18143Y162956D01*
X18135Y162955D01*
X18133Y162961D01*
X16857Y163401D01*
X16850Y163399D01*
X16847Y163403D01*
X15505Y163549D01*
X15502Y163547D01*
X15500Y163549D01*
X9500Y163549D01*
X9497Y163547D01*
X9494Y163549D01*
X8165Y163394D01*
X8159Y163388D01*
X8155Y163391D01*
X6894Y162944D01*
X6889Y162937D01*
X6884Y162939D01*
X5754Y162222D01*
X5751Y162215D01*
X5745Y162216D01*
X4803Y161266D01*
X4802Y161257D01*
X4796Y161257D01*
X4089Y160121D01*
X4090Y160113D01*
X4084Y160111D01*
X3648Y158846D01*
X3650Y158838D01*
X3645Y158836D01*
X3501Y157505D01*
X3505Y157499D01*
X3501Y157495D01*
X3611Y156329D01*
X3616Y156324D01*
X3613Y156320D01*
X3948Y155197D01*
X3954Y155193D01*
X3952Y155189D01*
X4500Y154153D01*
X4506Y154150D01*
X4505Y154145D01*
X5244Y153237D01*
X5251Y153235D01*
X5251Y153230D01*
X6153Y152483D01*
X6161Y152483D01*
X6161Y152478D01*
X7192Y151921D01*
X7199Y151922D01*
X7201Y151917D01*
X8320Y151573D01*
X8327Y151575D01*
X8330Y151571D01*
X9495Y151451D01*
X9498Y151453D01*
X9500Y151451D01*
X15500Y151451D01*
X15503Y151453D01*
G37*
G36*
X630183Y385133D02*
X630183Y385133D01*
X630185Y385131D01*
X631361Y385242D01*
X631366Y385247D01*
X631370Y385244D01*
X632502Y385582D01*
X632506Y385588D01*
X632511Y385586D01*
X633555Y386138D01*
X633558Y386145D01*
X633563Y386143D01*
X634479Y386889D01*
X634480Y386896D01*
X634486Y386896D01*
X635239Y387806D01*
X635239Y387813D01*
X635244Y387814D01*
X635805Y388853D01*
X635804Y388858D01*
X635808Y388860D01*
X635807Y388861D01*
X635809Y388862D01*
X636156Y389991D01*
X636156Y389992D01*
X636157Y389993D01*
X636154Y389997D01*
X636158Y390000D01*
X636279Y391175D01*
X636275Y391182D01*
X636279Y391186D01*
X636122Y392526D01*
X636117Y392532D01*
X636120Y392537D01*
X635669Y393808D01*
X635662Y393813D01*
X635664Y393818D01*
X634942Y394957D01*
X634934Y394960D01*
X634935Y394966D01*
X633977Y395916D01*
X633969Y395917D01*
X633968Y395923D01*
X632823Y396636D01*
X632815Y396635D01*
X632813Y396641D01*
X631537Y397081D01*
X631530Y397079D01*
X631527Y397083D01*
X630185Y397229D01*
X630182Y397227D01*
X630180Y397229D01*
X624180Y397229D01*
X624177Y397227D01*
X624174Y397229D01*
X622845Y397074D01*
X622839Y397068D01*
X622835Y397071D01*
X621574Y396624D01*
X621569Y396617D01*
X621564Y396619D01*
X620434Y395902D01*
X620431Y395895D01*
X620425Y395896D01*
X619483Y394946D01*
X619482Y394937D01*
X619476Y394937D01*
X618769Y393801D01*
X618770Y393793D01*
X618764Y393791D01*
X618328Y392526D01*
X618330Y392518D01*
X618325Y392516D01*
X618181Y391185D01*
X618185Y391179D01*
X618181Y391175D01*
X618291Y390009D01*
X618296Y390004D01*
X618293Y390000D01*
X618628Y388877D01*
X618634Y388873D01*
X618632Y388869D01*
X619180Y387833D01*
X619186Y387830D01*
X619185Y387825D01*
X619924Y386917D01*
X619931Y386915D01*
X619931Y386910D01*
X620833Y386163D01*
X620841Y386163D01*
X620841Y386158D01*
X621872Y385601D01*
X621879Y385602D01*
X621881Y385597D01*
X623000Y385253D01*
X623007Y385255D01*
X623010Y385251D01*
X624175Y385131D01*
X624178Y385133D01*
X624180Y385131D01*
X630180Y385131D01*
X630183Y385133D01*
G37*
G36*
X630183Y852493D02*
X630183Y852493D01*
X630185Y852491D01*
X631361Y852602D01*
X631366Y852607D01*
X631370Y852604D01*
X632502Y852942D01*
X632506Y852948D01*
X632511Y852946D01*
X633555Y853498D01*
X633558Y853505D01*
X633563Y853503D01*
X634479Y854249D01*
X634480Y854256D01*
X634486Y854256D01*
X635239Y855166D01*
X635239Y855173D01*
X635244Y855174D01*
X635805Y856213D01*
X635804Y856218D01*
X635808Y856220D01*
X635807Y856221D01*
X635809Y856222D01*
X636156Y857351D01*
X636156Y857352D01*
X636157Y857353D01*
X636154Y857357D01*
X636158Y857360D01*
X636279Y858535D01*
X636275Y858542D01*
X636279Y858546D01*
X636122Y859886D01*
X636117Y859892D01*
X636120Y859897D01*
X635669Y861168D01*
X635662Y861173D01*
X635664Y861178D01*
X634942Y862317D01*
X634934Y862320D01*
X634935Y862326D01*
X633977Y863276D01*
X633969Y863277D01*
X633968Y863283D01*
X632823Y863996D01*
X632815Y863995D01*
X632813Y864001D01*
X631537Y864441D01*
X631530Y864439D01*
X631527Y864443D01*
X630185Y864589D01*
X630182Y864587D01*
X630180Y864589D01*
X624180Y864589D01*
X624177Y864587D01*
X624174Y864589D01*
X622845Y864434D01*
X622839Y864428D01*
X622835Y864431D01*
X621574Y863984D01*
X621569Y863977D01*
X621564Y863979D01*
X620434Y863262D01*
X620431Y863255D01*
X620425Y863256D01*
X619483Y862306D01*
X619482Y862297D01*
X619476Y862297D01*
X618769Y861161D01*
X618770Y861153D01*
X618764Y861151D01*
X618328Y859886D01*
X618330Y859878D01*
X618325Y859876D01*
X618181Y858545D01*
X618185Y858539D01*
X618181Y858535D01*
X618291Y857369D01*
X618296Y857364D01*
X618293Y857360D01*
X618628Y856237D01*
X618634Y856233D01*
X618632Y856229D01*
X619180Y855193D01*
X619186Y855190D01*
X619185Y855185D01*
X619924Y854277D01*
X619931Y854275D01*
X619931Y854270D01*
X620833Y853523D01*
X620841Y853523D01*
X620841Y853518D01*
X621872Y852961D01*
X621879Y852962D01*
X621881Y852957D01*
X623000Y852613D01*
X623007Y852615D01*
X623010Y852611D01*
X624175Y852491D01*
X624178Y852493D01*
X624180Y852491D01*
X630180Y852491D01*
X630183Y852493D01*
G37*
G36*
X630183Y65053D02*
X630183Y65053D01*
X630185Y65051D01*
X631361Y65162D01*
X631366Y65167D01*
X631370Y65164D01*
X632502Y65502D01*
X632506Y65508D01*
X632511Y65506D01*
X633555Y66058D01*
X633558Y66065D01*
X633563Y66063D01*
X634479Y66809D01*
X634480Y66816D01*
X634486Y66816D01*
X635239Y67726D01*
X635239Y67733D01*
X635244Y67734D01*
X635805Y68773D01*
X635804Y68778D01*
X635808Y68780D01*
X635807Y68781D01*
X635809Y68782D01*
X636156Y69911D01*
X636156Y69912D01*
X636157Y69913D01*
X636154Y69917D01*
X636158Y69920D01*
X636279Y71095D01*
X636275Y71102D01*
X636279Y71106D01*
X636122Y72446D01*
X636117Y72452D01*
X636120Y72457D01*
X635669Y73728D01*
X635662Y73733D01*
X635664Y73738D01*
X634942Y74877D01*
X634934Y74880D01*
X634935Y74886D01*
X633977Y75836D01*
X633969Y75837D01*
X633968Y75843D01*
X632823Y76556D01*
X632815Y76555D01*
X632813Y76561D01*
X631537Y77001D01*
X631530Y76999D01*
X631527Y77003D01*
X630185Y77149D01*
X630182Y77147D01*
X630180Y77149D01*
X624180Y77149D01*
X624177Y77147D01*
X624174Y77149D01*
X622845Y76994D01*
X622839Y76988D01*
X622835Y76991D01*
X621574Y76544D01*
X621569Y76537D01*
X621564Y76539D01*
X620434Y75822D01*
X620431Y75815D01*
X620425Y75816D01*
X619483Y74866D01*
X619482Y74857D01*
X619476Y74857D01*
X618769Y73721D01*
X618770Y73713D01*
X618764Y73711D01*
X618328Y72446D01*
X618330Y72438D01*
X618325Y72436D01*
X618181Y71105D01*
X618185Y71099D01*
X618181Y71095D01*
X618291Y69929D01*
X618296Y69924D01*
X618293Y69920D01*
X618628Y68797D01*
X618634Y68793D01*
X618632Y68789D01*
X619180Y67753D01*
X619186Y67750D01*
X619185Y67745D01*
X619924Y66837D01*
X619931Y66835D01*
X619931Y66830D01*
X620833Y66083D01*
X620841Y66083D01*
X620841Y66078D01*
X621872Y65521D01*
X621879Y65522D01*
X621881Y65517D01*
X623000Y65173D01*
X623007Y65175D01*
X623010Y65171D01*
X624175Y65051D01*
X624178Y65053D01*
X624180Y65051D01*
X630180Y65051D01*
X630183Y65053D01*
G37*
G36*
X15503Y852493D02*
X15503Y852493D01*
X15505Y852491D01*
X16681Y852602D01*
X16686Y852607D01*
X16690Y852604D01*
X17822Y852942D01*
X17826Y852948D01*
X17831Y852946D01*
X18875Y853498D01*
X18878Y853505D01*
X18883Y853503D01*
X19799Y854249D01*
X19800Y854256D01*
X19806Y854256D01*
X20559Y855166D01*
X20559Y855173D01*
X20564Y855174D01*
X21125Y856213D01*
X21124Y856218D01*
X21128Y856220D01*
X21127Y856221D01*
X21129Y856222D01*
X21476Y857351D01*
X21476Y857352D01*
X21477Y857353D01*
X21474Y857357D01*
X21478Y857360D01*
X21599Y858535D01*
X21595Y858542D01*
X21599Y858546D01*
X21442Y859886D01*
X21437Y859892D01*
X21440Y859897D01*
X20989Y861168D01*
X20982Y861173D01*
X20984Y861178D01*
X20262Y862317D01*
X20254Y862320D01*
X20255Y862326D01*
X19297Y863276D01*
X19289Y863277D01*
X19288Y863283D01*
X18143Y863996D01*
X18135Y863995D01*
X18133Y864001D01*
X16857Y864441D01*
X16850Y864439D01*
X16847Y864443D01*
X15505Y864589D01*
X15502Y864587D01*
X15500Y864589D01*
X9500Y864589D01*
X9497Y864587D01*
X9494Y864589D01*
X8165Y864434D01*
X8159Y864428D01*
X8155Y864431D01*
X6894Y863984D01*
X6889Y863977D01*
X6884Y863979D01*
X5754Y863262D01*
X5751Y863255D01*
X5745Y863256D01*
X4803Y862306D01*
X4802Y862297D01*
X4796Y862297D01*
X4089Y861161D01*
X4090Y861153D01*
X4084Y861151D01*
X3648Y859886D01*
X3650Y859878D01*
X3645Y859876D01*
X3501Y858545D01*
X3505Y858539D01*
X3501Y858535D01*
X3611Y857369D01*
X3616Y857364D01*
X3613Y857360D01*
X3948Y856237D01*
X3954Y856233D01*
X3952Y856229D01*
X4500Y855193D01*
X4506Y855190D01*
X4505Y855185D01*
X5244Y854277D01*
X5251Y854275D01*
X5251Y854270D01*
X6153Y853523D01*
X6161Y853523D01*
X6161Y853518D01*
X7192Y852961D01*
X7199Y852962D01*
X7201Y852957D01*
X8320Y852613D01*
X8327Y852615D01*
X8330Y852611D01*
X9495Y852491D01*
X9498Y852493D01*
X9500Y852491D01*
X15500Y852491D01*
X15503Y852493D01*
G37*
G36*
X15503Y385133D02*
X15503Y385133D01*
X15505Y385131D01*
X16681Y385242D01*
X16686Y385247D01*
X16690Y385244D01*
X17822Y385582D01*
X17826Y385588D01*
X17831Y385586D01*
X18875Y386138D01*
X18878Y386145D01*
X18883Y386143D01*
X19799Y386889D01*
X19800Y386896D01*
X19806Y386896D01*
X20559Y387806D01*
X20559Y387813D01*
X20564Y387814D01*
X21125Y388853D01*
X21124Y388858D01*
X21128Y388860D01*
X21127Y388861D01*
X21129Y388862D01*
X21476Y389991D01*
X21476Y389992D01*
X21477Y389993D01*
X21474Y389997D01*
X21478Y390000D01*
X21599Y391175D01*
X21595Y391182D01*
X21599Y391186D01*
X21442Y392526D01*
X21437Y392532D01*
X21440Y392537D01*
X20989Y393808D01*
X20982Y393813D01*
X20984Y393818D01*
X20262Y394957D01*
X20254Y394960D01*
X20255Y394966D01*
X19297Y395916D01*
X19289Y395917D01*
X19288Y395923D01*
X18143Y396636D01*
X18135Y396635D01*
X18133Y396641D01*
X16857Y397081D01*
X16850Y397079D01*
X16847Y397083D01*
X15505Y397229D01*
X15502Y397227D01*
X15500Y397229D01*
X9500Y397229D01*
X9497Y397227D01*
X9494Y397229D01*
X8165Y397074D01*
X8159Y397068D01*
X8155Y397071D01*
X6894Y396624D01*
X6889Y396617D01*
X6884Y396619D01*
X5754Y395902D01*
X5751Y395895D01*
X5745Y395896D01*
X4803Y394946D01*
X4802Y394937D01*
X4796Y394937D01*
X4089Y393801D01*
X4090Y393793D01*
X4084Y393791D01*
X3648Y392526D01*
X3650Y392518D01*
X3645Y392516D01*
X3501Y391185D01*
X3505Y391179D01*
X3501Y391175D01*
X3611Y390009D01*
X3616Y390004D01*
X3613Y390000D01*
X3948Y388877D01*
X3954Y388873D01*
X3952Y388869D01*
X4500Y387833D01*
X4506Y387830D01*
X4505Y387825D01*
X5244Y386917D01*
X5251Y386915D01*
X5251Y386910D01*
X6153Y386163D01*
X6161Y386163D01*
X6161Y386158D01*
X7192Y385601D01*
X7199Y385602D01*
X7201Y385597D01*
X8320Y385253D01*
X8327Y385255D01*
X8330Y385251D01*
X9495Y385131D01*
X9498Y385133D01*
X9500Y385131D01*
X15500Y385131D01*
X15503Y385133D01*
G37*
G36*
X15503Y65053D02*
X15503Y65053D01*
X15505Y65051D01*
X16681Y65162D01*
X16686Y65167D01*
X16690Y65164D01*
X17822Y65502D01*
X17826Y65508D01*
X17831Y65506D01*
X18875Y66058D01*
X18878Y66065D01*
X18883Y66063D01*
X19799Y66809D01*
X19800Y66816D01*
X19806Y66816D01*
X20559Y67726D01*
X20559Y67733D01*
X20564Y67734D01*
X21125Y68773D01*
X21124Y68778D01*
X21128Y68780D01*
X21127Y68781D01*
X21129Y68782D01*
X21476Y69911D01*
X21476Y69912D01*
X21477Y69913D01*
X21474Y69917D01*
X21478Y69920D01*
X21599Y71095D01*
X21595Y71102D01*
X21599Y71106D01*
X21442Y72446D01*
X21437Y72452D01*
X21440Y72457D01*
X20989Y73728D01*
X20982Y73733D01*
X20984Y73738D01*
X20262Y74877D01*
X20254Y74880D01*
X20255Y74886D01*
X19297Y75836D01*
X19289Y75837D01*
X19288Y75843D01*
X18143Y76556D01*
X18135Y76555D01*
X18133Y76561D01*
X16857Y77001D01*
X16850Y76999D01*
X16847Y77003D01*
X15505Y77149D01*
X15502Y77147D01*
X15500Y77149D01*
X9500Y77149D01*
X9497Y77147D01*
X9494Y77149D01*
X8165Y76994D01*
X8159Y76988D01*
X8155Y76991D01*
X6894Y76544D01*
X6889Y76537D01*
X6884Y76539D01*
X5754Y75822D01*
X5751Y75815D01*
X5745Y75816D01*
X4803Y74866D01*
X4802Y74857D01*
X4796Y74857D01*
X4089Y73721D01*
X4090Y73713D01*
X4084Y73711D01*
X3648Y72446D01*
X3650Y72438D01*
X3645Y72436D01*
X3501Y71105D01*
X3505Y71099D01*
X3501Y71095D01*
X3611Y69929D01*
X3616Y69924D01*
X3613Y69920D01*
X3948Y68797D01*
X3954Y68793D01*
X3952Y68789D01*
X4500Y67753D01*
X4506Y67750D01*
X4505Y67745D01*
X5244Y66837D01*
X5251Y66835D01*
X5251Y66830D01*
X6153Y66083D01*
X6161Y66083D01*
X6161Y66078D01*
X7192Y65521D01*
X7199Y65522D01*
X7201Y65517D01*
X8320Y65173D01*
X8327Y65175D01*
X8330Y65171D01*
X9495Y65051D01*
X9498Y65053D01*
X9500Y65051D01*
X15500Y65051D01*
X15503Y65053D01*
G37*
D10*
X166370Y77390D03*
X166370Y67390D03*
X208280Y86440D03*
X208280Y96440D03*
X227410Y168148D03*
X237410Y168148D03*
X259000Y168148D03*
X249000Y168148D03*
D11*
X186055Y92640D03*
X186055Y115640D03*
X170180Y92640D03*
X170180Y115640D03*
D12*
X257610Y69530D02*
X257610Y62550D01*
X250630Y62550D01*
X250630Y69530D01*
X257610Y69530D01*
X257610Y67350D02*
X250630Y67350D01*
X275150Y69530D02*
X275150Y62550D01*
X268170Y62550D01*
X268170Y69530D01*
X275150Y69530D01*
X275150Y67350D02*
X268170Y67350D01*
X268170Y78298D02*
X268170Y85278D01*
X275150Y85278D01*
X275150Y78298D01*
X268170Y78298D01*
X268170Y83098D02*
X275150Y83098D01*
X250630Y85278D02*
X250630Y78298D01*
X250630Y85278D02*
X257610Y85278D01*
X257610Y78298D01*
X250630Y78298D01*
X250630Y83098D02*
X257610Y83098D01*
D13*
X60100Y106800D03*
X60100Y111800D03*
D14*
X60100Y82050D03*
X60100Y89800D03*
D13*
X60100Y96800D03*
X60100Y101800D03*
X60100Y121800D03*
X60100Y116800D03*
D14*
X60100Y146550D03*
X60100Y138800D03*
D13*
X60100Y131800D03*
X60100Y126800D03*
D15*
X49050Y143200D03*
X49050Y85400D03*
D16*
X167800Y156802D03*
X187800Y156802D03*
D17*
X143800Y208802D03*
X211800Y208802D03*
D18*
X121980Y214550D03*
X65980Y214550D03*
D19*
X108980Y177800D03*
X98980Y177800D03*
X88980Y177800D03*
X78980Y177800D03*
D20*
X520700Y215900D03*
X495300Y215900D03*
X469900Y215900D03*
X444500Y215900D03*
X419100Y215900D03*
X393700Y215900D03*
X368300Y215900D03*
X342900Y215900D03*
X317500Y215900D03*
X292100Y215900D03*
X266700Y215900D03*
X241300Y215900D03*
X520700Y12700D03*
X495300Y12700D03*
X469900Y12700D03*
X444500Y12700D03*
X419100Y12700D03*
X393700Y12700D03*
X368300Y12700D03*
X342900Y12700D03*
X317500Y12700D03*
X292100Y12700D03*
X266700Y12700D03*
X241300Y12700D03*
X215900Y12700D03*
X190500Y12700D03*
X165100Y12700D03*
X139700Y12700D03*
D21*
X289560Y118110D03*
X289560Y130810D03*
X289560Y143510D03*
X289560Y156210D03*
X289560Y105410D03*
X276860Y118110D03*
X276860Y130810D03*
X276860Y143510D03*
X276860Y156210D03*
X276860Y105410D03*
D22*
X81280Y24520D03*
X81280Y41520D03*
X66040Y24520D03*
X66040Y41520D03*
X151130Y58810D03*
X151130Y75810D03*
D10*
X285830Y66040D03*
X295830Y66040D03*
X295830Y82042D03*
X285830Y82042D03*
D23*
X251070Y118110D03*
X234070Y118110D03*
D24*
X361600Y116800D03*
X361600Y111800D03*
X361600Y126800D03*
X361600Y136800D03*
X361600Y146800D03*
X361600Y121800D03*
X361600Y131800D03*
X361600Y141800D03*
X361600Y151800D03*
X361600Y101800D03*
X361600Y91800D03*
X361600Y81800D03*
X361600Y76800D03*
X361600Y86800D03*
X361600Y96800D03*
X361600Y106800D03*
D25*
X416600Y56800D03*
X421600Y56800D03*
X406600Y56800D03*
X396600Y56800D03*
X386600Y56800D03*
X411600Y56800D03*
X401600Y56800D03*
X391600Y56800D03*
X381600Y56800D03*
X431600Y56800D03*
X441600Y56800D03*
X451600Y56800D03*
X456600Y56800D03*
X446600Y56800D03*
X436600Y56800D03*
X426600Y56800D03*
D24*
X476600Y111800D03*
X476600Y116800D03*
X476600Y101800D03*
X476600Y91800D03*
X476600Y81800D03*
X476600Y106800D03*
X476600Y96800D03*
X476600Y86800D03*
X476600Y76800D03*
X476600Y126800D03*
X476600Y136800D03*
X476600Y146800D03*
X476600Y151800D03*
X476600Y141800D03*
X476600Y131800D03*
X476600Y121800D03*
D25*
X421600Y171800D03*
X416600Y171800D03*
X431600Y171800D03*
X441600Y171800D03*
X451600Y171800D03*
X426600Y171800D03*
X436600Y171800D03*
X446600Y171800D03*
X456600Y171800D03*
X406600Y171800D03*
X396600Y171800D03*
X386600Y171800D03*
X381600Y171800D03*
X391600Y171800D03*
X401600Y171800D03*
X411600Y171800D03*
D26*
X255571Y135280D03*
X255571Y144780D03*
X255571Y154280D03*
X229569Y154280D03*
X229569Y135280D03*
X181309Y76810D03*
X181309Y67310D03*
X181309Y57810D03*
X207311Y57810D03*
X207311Y76810D03*
D27*
X25400Y25400D03*
X25400Y203200D03*
X558800Y203200D03*
X558800Y25400D03*
D28*
X6350Y172720D03*
X577850Y57150D03*
D10*
X481410Y48260D03*
X491410Y48260D03*
X493014Y154860D03*
X493014Y144860D03*
X337820Y64690D03*
X337820Y54690D03*
X326390Y64690D03*
X326390Y54690D03*
X360680Y64690D03*
X360680Y54690D03*
X349250Y64690D03*
X349250Y54690D03*
X481410Y58420D03*
X491410Y58420D03*
X503174Y154860D03*
X503174Y144860D03*
X381000Y184230D03*
X381000Y194230D03*
D29*
X129720Y76580D03*
X129720Y60580D03*
X88720Y60580D03*
X88720Y76580D03*
X129720Y142620D03*
X129720Y126620D03*
X88720Y126620D03*
X88720Y142620D03*
D10*
X153670Y96600D03*
X153670Y106600D03*
D23*
X96910Y41910D03*
X113910Y41910D03*
D10*
X96520Y29130D03*
X96520Y19130D03*
D23*
X95640Y93980D03*
X112640Y93980D03*
X95640Y109220D03*
X112640Y109220D03*
D10*
X513080Y154860D03*
X513080Y144860D03*
D30*
X533400Y86550D03*
X546100Y86550D03*
X558800Y86550D03*
X571500Y86550D03*
X558800Y142050D03*
X571500Y142050D03*
X546100Y142050D03*
X533400Y142050D03*
D31*
X337820Y167440D03*
X337820Y142440D03*
D32*
X318700Y121370D03*
X341700Y84370D03*
X341700Y121370D03*
X318700Y84370D03*
D10*
X319880Y158750D03*
X309880Y158750D03*
X319880Y148590D03*
X309880Y148590D03*
X319880Y138430D03*
X309880Y138430D03*
X314960Y64610D03*
X314960Y54610D03*
X514350Y77390D03*
X514350Y67390D03*
D12*
X293570Y171770D02*
X293570Y178750D01*
X300550Y178750D01*
X300550Y171770D01*
X293570Y171770D01*
X293570Y176570D02*
X300550Y176570D01*
X276030Y178750D02*
X276030Y171770D01*
X276030Y178750D02*
X283010Y178750D01*
X283010Y171770D01*
X276030Y171770D01*
X276030Y176570D02*
X283010Y176570D01*
D10*
X283290Y187960D03*
X293290Y187960D03*
X781050Y77390D03*
X781050Y67390D03*
X822960Y86440D03*
X822960Y96440D03*
X842090Y168148D03*
X852090Y168148D03*
X873680Y168148D03*
X863680Y168148D03*
D11*
X800735Y92640D03*
X800735Y115640D03*
X784860Y92640D03*
X784860Y115640D03*
D12*
X872290Y69530D02*
X872290Y62550D01*
X865310Y62550D01*
X865310Y69530D01*
X872290Y69530D01*
X872290Y67350D02*
X865310Y67350D01*
X889830Y69530D02*
X889830Y62550D01*
X882850Y62550D01*
X882850Y69530D01*
X889830Y69530D01*
X889830Y67350D02*
X882850Y67350D01*
X882850Y78298D02*
X882850Y85278D01*
X889830Y85278D01*
X889830Y78298D01*
X882850Y78298D01*
X882850Y83098D02*
X889830Y83098D01*
X865310Y85278D02*
X865310Y78298D01*
X865310Y85278D02*
X872290Y85278D01*
X872290Y78298D01*
X865310Y78298D01*
X865310Y83098D02*
X872290Y83098D01*
D13*
X674780Y106800D03*
X674780Y111800D03*
D14*
X674780Y82050D03*
X674780Y89800D03*
D13*
X674780Y96800D03*
X674780Y101800D03*
X674780Y121800D03*
X674780Y116800D03*
D14*
X674780Y146550D03*
X674780Y138800D03*
D13*
X674780Y131800D03*
X674780Y126800D03*
D15*
X663730Y143200D03*
X663730Y85400D03*
D16*
X782480Y156802D03*
X802480Y156802D03*
D17*
X758480Y208802D03*
X826480Y208802D03*
D18*
X736660Y214550D03*
X680660Y214550D03*
D19*
X723660Y177800D03*
X713660Y177800D03*
X703660Y177800D03*
X693660Y177800D03*
D20*
X1135380Y215900D03*
X1109980Y215900D03*
X1084580Y215900D03*
X1059180Y215900D03*
X1033780Y215900D03*
X1008380Y215900D03*
X982980Y215900D03*
X957580Y215900D03*
X932180Y215900D03*
X906780Y215900D03*
X881380Y215900D03*
X855980Y215900D03*
X1135380Y12700D03*
X1109980Y12700D03*
X1084580Y12700D03*
X1059180Y12700D03*
X1033780Y12700D03*
X1008380Y12700D03*
X982980Y12700D03*
X957580Y12700D03*
X932180Y12700D03*
X906780Y12700D03*
X881380Y12700D03*
X855980Y12700D03*
X830580Y12700D03*
X805180Y12700D03*
X779780Y12700D03*
X754380Y12700D03*
D21*
X904240Y118110D03*
X904240Y130810D03*
X904240Y143510D03*
X904240Y156210D03*
X904240Y105410D03*
X891540Y118110D03*
X891540Y130810D03*
X891540Y143510D03*
X891540Y156210D03*
X891540Y105410D03*
D22*
X695960Y24520D03*
X695960Y41520D03*
X680720Y24520D03*
X680720Y41520D03*
X765810Y58810D03*
X765810Y75810D03*
D10*
X900510Y66040D03*
X910510Y66040D03*
X910510Y82042D03*
X900510Y82042D03*
D23*
X865750Y118110D03*
X848750Y118110D03*
D24*
X976280Y116800D03*
X976280Y111800D03*
X976280Y126800D03*
X976280Y136800D03*
X976280Y146800D03*
X976280Y121800D03*
X976280Y131800D03*
X976280Y141800D03*
X976280Y151800D03*
X976280Y101800D03*
X976280Y91800D03*
X976280Y81800D03*
X976280Y76800D03*
X976280Y86800D03*
X976280Y96800D03*
X976280Y106800D03*
D25*
X1031280Y56800D03*
X1036280Y56800D03*
X1021280Y56800D03*
X1011280Y56800D03*
X1001280Y56800D03*
X1026280Y56800D03*
X1016280Y56800D03*
X1006280Y56800D03*
X996280Y56800D03*
X1046280Y56800D03*
X1056280Y56800D03*
X1066280Y56800D03*
X1071280Y56800D03*
X1061280Y56800D03*
X1051280Y56800D03*
X1041280Y56800D03*
D24*
X1091280Y111800D03*
X1091280Y116800D03*
X1091280Y101800D03*
X1091280Y91800D03*
X1091280Y81800D03*
X1091280Y106800D03*
X1091280Y96800D03*
X1091280Y86800D03*
X1091280Y76800D03*
X1091280Y126800D03*
X1091280Y136800D03*
X1091280Y146800D03*
X1091280Y151800D03*
X1091280Y141800D03*
X1091280Y131800D03*
X1091280Y121800D03*
D25*
X1036280Y171800D03*
X1031280Y171800D03*
X1046280Y171800D03*
X1056280Y171800D03*
X1066280Y171800D03*
X1041280Y171800D03*
X1051280Y171800D03*
X1061280Y171800D03*
X1071280Y171800D03*
X1021280Y171800D03*
X1011280Y171800D03*
X1001280Y171800D03*
X996280Y171800D03*
X1006280Y171800D03*
X1016280Y171800D03*
X1026280Y171800D03*
D26*
X870251Y135280D03*
X870251Y144780D03*
X870251Y154280D03*
X844249Y154280D03*
X844249Y135280D03*
X795989Y76810D03*
X795989Y67310D03*
X795989Y57810D03*
X821991Y57810D03*
X821991Y76810D03*
D27*
X640080Y25400D03*
X640080Y203200D03*
X1173480Y203200D03*
X1173480Y25400D03*
D28*
X621030Y172720D03*
X1192530Y57150D03*
D10*
X1096090Y48260D03*
X1106090Y48260D03*
X1107694Y154860D03*
X1107694Y144860D03*
X952500Y64690D03*
X952500Y54690D03*
X941070Y64690D03*
X941070Y54690D03*
X975360Y64690D03*
X975360Y54690D03*
X963930Y64690D03*
X963930Y54690D03*
X1096090Y58420D03*
X1106090Y58420D03*
X1117854Y154860D03*
X1117854Y144860D03*
X995680Y184230D03*
X995680Y194230D03*
D29*
X744400Y76580D03*
X744400Y60580D03*
X703400Y60580D03*
X703400Y76580D03*
X744400Y142620D03*
X744400Y126620D03*
X703400Y126620D03*
X703400Y142620D03*
D10*
X768350Y96600D03*
X768350Y106600D03*
D23*
X711590Y41910D03*
X728590Y41910D03*
D10*
X711200Y29130D03*
X711200Y19130D03*
D23*
X710320Y93980D03*
X727320Y93980D03*
X710320Y109220D03*
X727320Y109220D03*
D10*
X1127760Y154860D03*
X1127760Y144860D03*
D30*
X1148080Y86550D03*
X1160780Y86550D03*
X1173480Y86550D03*
X1186180Y86550D03*
X1173480Y142050D03*
X1186180Y142050D03*
X1160780Y142050D03*
X1148080Y142050D03*
D31*
X952500Y167440D03*
X952500Y142440D03*
D32*
X933380Y121370D03*
X956380Y84370D03*
X956380Y121370D03*
X933380Y84370D03*
D10*
X934560Y158750D03*
X924560Y158750D03*
X934560Y148590D03*
X924560Y148590D03*
X934560Y138430D03*
X924560Y138430D03*
X929640Y64610D03*
X929640Y54610D03*
X1129030Y77390D03*
X1129030Y67390D03*
D12*
X908250Y171770D02*
X908250Y178750D01*
X915230Y178750D01*
X915230Y171770D01*
X908250Y171770D01*
X908250Y176570D02*
X915230Y176570D01*
X890710Y178750D02*
X890710Y171770D01*
X890710Y178750D02*
X897690Y178750D01*
X897690Y171770D01*
X890710Y171770D01*
X890710Y176570D02*
X897690Y176570D01*
D10*
X897970Y187960D03*
X907970Y187960D03*
X166370Y311070D03*
X166370Y301070D03*
X208280Y320120D03*
X208280Y330120D03*
X227410Y401828D03*
X237410Y401828D03*
X259000Y401828D03*
X249000Y401828D03*
D11*
X186055Y326320D03*
X186055Y349320D03*
X170180Y326320D03*
X170180Y349320D03*
D12*
X257610Y303210D02*
X257610Y296230D01*
X250630Y296230D01*
X250630Y303210D01*
X257610Y303210D01*
X257610Y301030D02*
X250630Y301030D01*
X275150Y303210D02*
X275150Y296230D01*
X268170Y296230D01*
X268170Y303210D01*
X275150Y303210D01*
X275150Y301030D02*
X268170Y301030D01*
X268170Y311978D02*
X268170Y318958D01*
X275150Y318958D01*
X275150Y311978D01*
X268170Y311978D01*
X268170Y316778D02*
X275150Y316778D01*
X250630Y318958D02*
X250630Y311978D01*
X250630Y318958D02*
X257610Y318958D01*
X257610Y311978D01*
X250630Y311978D01*
X250630Y316778D02*
X257610Y316778D01*
D13*
X60100Y340480D03*
X60100Y345480D03*
D14*
X60100Y315730D03*
X60100Y323480D03*
D13*
X60100Y330480D03*
X60100Y335480D03*
X60100Y355480D03*
X60100Y350480D03*
D14*
X60100Y380230D03*
X60100Y372480D03*
D13*
X60100Y365480D03*
X60100Y360480D03*
D15*
X49050Y376880D03*
X49050Y319080D03*
D16*
X167800Y390482D03*
X187800Y390482D03*
D17*
X143800Y442482D03*
X211800Y442482D03*
D18*
X121980Y448230D03*
X65980Y448230D03*
D19*
X108980Y411480D03*
X98980Y411480D03*
X88980Y411480D03*
X78980Y411480D03*
D20*
X520700Y449580D03*
X495300Y449580D03*
X469900Y449580D03*
X444500Y449580D03*
X419100Y449580D03*
X393700Y449580D03*
X368300Y449580D03*
X342900Y449580D03*
X317500Y449580D03*
X292100Y449580D03*
X266700Y449580D03*
X241300Y449580D03*
X520700Y246380D03*
X495300Y246380D03*
X469900Y246380D03*
X444500Y246380D03*
X419100Y246380D03*
X393700Y246380D03*
X368300Y246380D03*
X342900Y246380D03*
X317500Y246380D03*
X292100Y246380D03*
X266700Y246380D03*
X241300Y246380D03*
X215900Y246380D03*
X190500Y246380D03*
X165100Y246380D03*
X139700Y246380D03*
D21*
X289560Y351790D03*
X289560Y364490D03*
X289560Y377190D03*
X289560Y389890D03*
X289560Y339090D03*
X276860Y351790D03*
X276860Y364490D03*
X276860Y377190D03*
X276860Y389890D03*
X276860Y339090D03*
D22*
X81280Y258200D03*
X81280Y275200D03*
X66040Y258200D03*
X66040Y275200D03*
X151130Y292490D03*
X151130Y309490D03*
D10*
X285830Y299720D03*
X295830Y299720D03*
X295830Y315722D03*
X285830Y315722D03*
D23*
X251070Y351790D03*
X234070Y351790D03*
D24*
X361600Y350480D03*
X361600Y345480D03*
X361600Y360480D03*
X361600Y370480D03*
X361600Y380480D03*
X361600Y355480D03*
X361600Y365480D03*
X361600Y375480D03*
X361600Y385480D03*
X361600Y335480D03*
X361600Y325480D03*
X361600Y315480D03*
X361600Y310480D03*
X361600Y320480D03*
X361600Y330480D03*
X361600Y340480D03*
D25*
X416600Y290480D03*
X421600Y290480D03*
X406600Y290480D03*
X396600Y290480D03*
X386600Y290480D03*
X411600Y290480D03*
X401600Y290480D03*
X391600Y290480D03*
X381600Y290480D03*
X431600Y290480D03*
X441600Y290480D03*
X451600Y290480D03*
X456600Y290480D03*
X446600Y290480D03*
X436600Y290480D03*
X426600Y290480D03*
D24*
X476600Y345480D03*
X476600Y350480D03*
X476600Y335480D03*
X476600Y325480D03*
X476600Y315480D03*
X476600Y340480D03*
X476600Y330480D03*
X476600Y320480D03*
X476600Y310480D03*
X476600Y360480D03*
X476600Y370480D03*
X476600Y380480D03*
X476600Y385480D03*
X476600Y375480D03*
X476600Y365480D03*
X476600Y355480D03*
D25*
X421600Y405480D03*
X416600Y405480D03*
X431600Y405480D03*
X441600Y405480D03*
X451600Y405480D03*
X426600Y405480D03*
X436600Y405480D03*
X446600Y405480D03*
X456600Y405480D03*
X406600Y405480D03*
X396600Y405480D03*
X386600Y405480D03*
X381600Y405480D03*
X391600Y405480D03*
X401600Y405480D03*
X411600Y405480D03*
D26*
X255571Y368960D03*
X255571Y378460D03*
X255571Y387960D03*
X229569Y387960D03*
X229569Y368960D03*
X181309Y310490D03*
X181309Y300990D03*
X181309Y291490D03*
X207311Y291490D03*
X207311Y310490D03*
D27*
X25400Y259080D03*
X25400Y436880D03*
X558800Y436880D03*
X558800Y259080D03*
D28*
X6350Y406400D03*
X577850Y290830D03*
D10*
X481410Y281940D03*
X491410Y281940D03*
X493014Y388540D03*
X493014Y378540D03*
X337820Y298370D03*
X337820Y288370D03*
X326390Y298370D03*
X326390Y288370D03*
X360680Y298370D03*
X360680Y288370D03*
X349250Y298370D03*
X349250Y288370D03*
X481410Y292100D03*
X491410Y292100D03*
X503174Y388540D03*
X503174Y378540D03*
X381000Y417910D03*
X381000Y427910D03*
D29*
X129720Y310260D03*
X129720Y294260D03*
X88720Y294260D03*
X88720Y310260D03*
X129720Y376300D03*
X129720Y360300D03*
X88720Y360300D03*
X88720Y376300D03*
D10*
X153670Y330280D03*
X153670Y340280D03*
D23*
X96910Y275590D03*
X113910Y275590D03*
D10*
X96520Y262810D03*
X96520Y252810D03*
D23*
X95640Y327660D03*
X112640Y327660D03*
X95640Y342900D03*
X112640Y342900D03*
D10*
X513080Y388540D03*
X513080Y378540D03*
D30*
X533400Y320230D03*
X546100Y320230D03*
X558800Y320230D03*
X571500Y320230D03*
X558800Y375730D03*
X571500Y375730D03*
X546100Y375730D03*
X533400Y375730D03*
D31*
X337820Y401120D03*
X337820Y376120D03*
D32*
X318700Y355050D03*
X341700Y318050D03*
X341700Y355050D03*
X318700Y318050D03*
D10*
X319880Y392430D03*
X309880Y392430D03*
X319880Y382270D03*
X309880Y382270D03*
X319880Y372110D03*
X309880Y372110D03*
X314960Y298290D03*
X314960Y288290D03*
X514350Y311070D03*
X514350Y301070D03*
D12*
X293570Y405450D02*
X293570Y412430D01*
X300550Y412430D01*
X300550Y405450D01*
X293570Y405450D01*
X293570Y410250D02*
X300550Y410250D01*
X276030Y412430D02*
X276030Y405450D01*
X276030Y412430D02*
X283010Y412430D01*
X283010Y405450D01*
X276030Y405450D01*
X276030Y410250D02*
X283010Y410250D01*
D10*
X283290Y421640D03*
X293290Y421640D03*
X781050Y311070D03*
X781050Y301070D03*
X822960Y320120D03*
X822960Y330120D03*
X842090Y401828D03*
X852090Y401828D03*
X873680Y401828D03*
X863680Y401828D03*
D11*
X800735Y326320D03*
X800735Y349320D03*
X784860Y326320D03*
X784860Y349320D03*
D12*
X872290Y303210D02*
X872290Y296230D01*
X865310Y296230D01*
X865310Y303210D01*
X872290Y303210D01*
X872290Y301030D02*
X865310Y301030D01*
X889830Y303210D02*
X889830Y296230D01*
X882850Y296230D01*
X882850Y303210D01*
X889830Y303210D01*
X889830Y301030D02*
X882850Y301030D01*
X882850Y311978D02*
X882850Y318958D01*
X889830Y318958D01*
X889830Y311978D01*
X882850Y311978D01*
X882850Y316778D02*
X889830Y316778D01*
X865310Y318958D02*
X865310Y311978D01*
X865310Y318958D02*
X872290Y318958D01*
X872290Y311978D01*
X865310Y311978D01*
X865310Y316778D02*
X872290Y316778D01*
D13*
X674780Y340480D03*
X674780Y345480D03*
D14*
X674780Y315730D03*
X674780Y323480D03*
D13*
X674780Y330480D03*
X674780Y335480D03*
X674780Y355480D03*
X674780Y350480D03*
D14*
X674780Y380230D03*
X674780Y372480D03*
D13*
X674780Y365480D03*
X674780Y360480D03*
D15*
X663730Y376880D03*
X663730Y319080D03*
D16*
X782480Y390482D03*
X802480Y390482D03*
D17*
X758480Y442482D03*
X826480Y442482D03*
D18*
X736660Y448230D03*
X680660Y448230D03*
D19*
X723660Y411480D03*
X713660Y411480D03*
X703660Y411480D03*
X693660Y411480D03*
D20*
X1135380Y449580D03*
X1109980Y449580D03*
X1084580Y449580D03*
X1059180Y449580D03*
X1033780Y449580D03*
X1008380Y449580D03*
X982980Y449580D03*
X957580Y449580D03*
X932180Y449580D03*
X906780Y449580D03*
X881380Y449580D03*
X855980Y449580D03*
X1135380Y246380D03*
X1109980Y246380D03*
X1084580Y246380D03*
X1059180Y246380D03*
X1033780Y246380D03*
X1008380Y246380D03*
X982980Y246380D03*
X957580Y246380D03*
X932180Y246380D03*
X906780Y246380D03*
X881380Y246380D03*
X855980Y246380D03*
X830580Y246380D03*
X805180Y246380D03*
X779780Y246380D03*
X754380Y246380D03*
D21*
X904240Y351790D03*
X904240Y364490D03*
X904240Y377190D03*
X904240Y389890D03*
X904240Y339090D03*
X891540Y351790D03*
X891540Y364490D03*
X891540Y377190D03*
X891540Y389890D03*
X891540Y339090D03*
D22*
X695960Y258200D03*
X695960Y275200D03*
X680720Y258200D03*
X680720Y275200D03*
X765810Y292490D03*
X765810Y309490D03*
D10*
X900510Y299720D03*
X910510Y299720D03*
X910510Y315722D03*
X900510Y315722D03*
D23*
X865750Y351790D03*
X848750Y351790D03*
D24*
X976280Y350480D03*
X976280Y345480D03*
X976280Y360480D03*
X976280Y370480D03*
X976280Y380480D03*
X976280Y355480D03*
X976280Y365480D03*
X976280Y375480D03*
X976280Y385480D03*
X976280Y335480D03*
X976280Y325480D03*
X976280Y315480D03*
X976280Y310480D03*
X976280Y320480D03*
X976280Y330480D03*
X976280Y340480D03*
D25*
X1031280Y290480D03*
X1036280Y290480D03*
X1021280Y290480D03*
X1011280Y290480D03*
X1001280Y290480D03*
X1026280Y290480D03*
X1016280Y290480D03*
X1006280Y290480D03*
X996280Y290480D03*
X1046280Y290480D03*
X1056280Y290480D03*
X1066280Y290480D03*
X1071280Y290480D03*
X1061280Y290480D03*
X1051280Y290480D03*
X1041280Y290480D03*
D24*
X1091280Y345480D03*
X1091280Y350480D03*
X1091280Y335480D03*
X1091280Y325480D03*
X1091280Y315480D03*
X1091280Y340480D03*
X1091280Y330480D03*
X1091280Y320480D03*
X1091280Y310480D03*
X1091280Y360480D03*
X1091280Y370480D03*
X1091280Y380480D03*
X1091280Y385480D03*
X1091280Y375480D03*
X1091280Y365480D03*
X1091280Y355480D03*
D25*
X1036280Y405480D03*
X1031280Y405480D03*
X1046280Y405480D03*
X1056280Y405480D03*
X1066280Y405480D03*
X1041280Y405480D03*
X1051280Y405480D03*
X1061280Y405480D03*
X1071280Y405480D03*
X1021280Y405480D03*
X1011280Y405480D03*
X1001280Y405480D03*
X996280Y405480D03*
X1006280Y405480D03*
X1016280Y405480D03*
X1026280Y405480D03*
D26*
X870251Y368960D03*
X870251Y378460D03*
X870251Y387960D03*
X844249Y387960D03*
X844249Y368960D03*
X795989Y310490D03*
X795989Y300990D03*
X795989Y291490D03*
X821991Y291490D03*
X821991Y310490D03*
D27*
X640080Y259080D03*
X640080Y436880D03*
X1173480Y436880D03*
X1173480Y259080D03*
D28*
X621030Y406400D03*
X1192530Y290830D03*
D10*
X1096090Y281940D03*
X1106090Y281940D03*
X1107694Y388540D03*
X1107694Y378540D03*
X952500Y298370D03*
X952500Y288370D03*
X941070Y298370D03*
X941070Y288370D03*
X975360Y298370D03*
X975360Y288370D03*
X963930Y298370D03*
X963930Y288370D03*
X1096090Y292100D03*
X1106090Y292100D03*
X1117854Y388540D03*
X1117854Y378540D03*
X995680Y417910D03*
X995680Y427910D03*
D29*
X744400Y310260D03*
X744400Y294260D03*
X703400Y294260D03*
X703400Y310260D03*
X744400Y376300D03*
X744400Y360300D03*
X703400Y360300D03*
X703400Y376300D03*
D10*
X768350Y330280D03*
X768350Y340280D03*
D23*
X711590Y275590D03*
X728590Y275590D03*
D10*
X711200Y262810D03*
X711200Y252810D03*
D23*
X710320Y327660D03*
X727320Y327660D03*
X710320Y342900D03*
X727320Y342900D03*
D10*
X1127760Y388540D03*
X1127760Y378540D03*
D30*
X1148080Y320230D03*
X1160780Y320230D03*
X1173480Y320230D03*
X1186180Y320230D03*
X1173480Y375730D03*
X1186180Y375730D03*
X1160780Y375730D03*
X1148080Y375730D03*
D31*
X952500Y401120D03*
X952500Y376120D03*
D32*
X933380Y355050D03*
X956380Y318050D03*
X956380Y355050D03*
X933380Y318050D03*
D10*
X934560Y392430D03*
X924560Y392430D03*
X934560Y382270D03*
X924560Y382270D03*
X934560Y372110D03*
X924560Y372110D03*
X929640Y298290D03*
X929640Y288290D03*
X1129030Y311070D03*
X1129030Y301070D03*
D12*
X908250Y405450D02*
X908250Y412430D01*
X915230Y412430D01*
X915230Y405450D01*
X908250Y405450D01*
X908250Y410250D02*
X915230Y410250D01*
X890710Y412430D02*
X890710Y405450D01*
X890710Y412430D02*
X897690Y412430D01*
X897690Y405450D01*
X890710Y405450D01*
X890710Y410250D02*
X897690Y410250D01*
D10*
X897970Y421640D03*
X907970Y421640D03*
X166370Y544750D03*
X166370Y534750D03*
X208280Y553800D03*
X208280Y563800D03*
X227410Y635508D03*
X237410Y635508D03*
X259000Y635508D03*
X249000Y635508D03*
D11*
X186055Y560000D03*
X186055Y583000D03*
X170180Y560000D03*
X170180Y583000D03*
D12*
X257610Y536890D02*
X257610Y529910D01*
X250630Y529910D01*
X250630Y536890D01*
X257610Y536890D01*
X257610Y534710D02*
X250630Y534710D01*
X275150Y536890D02*
X275150Y529910D01*
X268170Y529910D01*
X268170Y536890D01*
X275150Y536890D01*
X275150Y534710D02*
X268170Y534710D01*
X268170Y545658D02*
X268170Y552638D01*
X275150Y552638D01*
X275150Y545658D01*
X268170Y545658D01*
X268170Y550458D02*
X275150Y550458D01*
X250630Y552638D02*
X250630Y545658D01*
X250630Y552638D02*
X257610Y552638D01*
X257610Y545658D01*
X250630Y545658D01*
X250630Y550458D02*
X257610Y550458D01*
D13*
X60100Y574160D03*
X60100Y579160D03*
D14*
X60100Y549410D03*
X60100Y557160D03*
D13*
X60100Y564160D03*
X60100Y569160D03*
X60100Y589160D03*
X60100Y584160D03*
D14*
X60100Y613910D03*
X60100Y606160D03*
D13*
X60100Y599160D03*
X60100Y594160D03*
D15*
X49050Y610560D03*
X49050Y552760D03*
D16*
X167800Y624162D03*
X187800Y624162D03*
D17*
X143800Y676162D03*
X211800Y676162D03*
D18*
X121980Y681910D03*
X65980Y681910D03*
D19*
X108980Y645160D03*
X98980Y645160D03*
X88980Y645160D03*
X78980Y645160D03*
D20*
X520700Y683260D03*
X495300Y683260D03*
X469900Y683260D03*
X444500Y683260D03*
X419100Y683260D03*
X393700Y683260D03*
X368300Y683260D03*
X342900Y683260D03*
X317500Y683260D03*
X292100Y683260D03*
X266700Y683260D03*
X241300Y683260D03*
X520700Y480060D03*
X495300Y480060D03*
X469900Y480060D03*
X444500Y480060D03*
X419100Y480060D03*
X393700Y480060D03*
X368300Y480060D03*
X342900Y480060D03*
X317500Y480060D03*
X292100Y480060D03*
X266700Y480060D03*
X241300Y480060D03*
X215900Y480060D03*
X190500Y480060D03*
X165100Y480060D03*
X139700Y480060D03*
D21*
X289560Y585470D03*
X289560Y598170D03*
X289560Y610870D03*
X289560Y623570D03*
X289560Y572770D03*
X276860Y585470D03*
X276860Y598170D03*
X276860Y610870D03*
X276860Y623570D03*
X276860Y572770D03*
D22*
X81280Y491880D03*
X81280Y508880D03*
X66040Y491880D03*
X66040Y508880D03*
X151130Y526170D03*
X151130Y543170D03*
D10*
X285830Y533400D03*
X295830Y533400D03*
X295830Y549402D03*
X285830Y549402D03*
D23*
X251070Y585470D03*
X234070Y585470D03*
D24*
X361600Y584160D03*
X361600Y579160D03*
X361600Y594160D03*
X361600Y604160D03*
X361600Y614160D03*
X361600Y589160D03*
X361600Y599160D03*
X361600Y609160D03*
X361600Y619160D03*
X361600Y569160D03*
X361600Y559160D03*
X361600Y549160D03*
X361600Y544160D03*
X361600Y554160D03*
X361600Y564160D03*
X361600Y574160D03*
D25*
X416600Y524160D03*
X421600Y524160D03*
X406600Y524160D03*
X396600Y524160D03*
X386600Y524160D03*
X411600Y524160D03*
X401600Y524160D03*
X391600Y524160D03*
X381600Y524160D03*
X431600Y524160D03*
X441600Y524160D03*
X451600Y524160D03*
X456600Y524160D03*
X446600Y524160D03*
X436600Y524160D03*
X426600Y524160D03*
D24*
X476600Y579160D03*
X476600Y584160D03*
X476600Y569160D03*
X476600Y559160D03*
X476600Y549160D03*
X476600Y574160D03*
X476600Y564160D03*
X476600Y554160D03*
X476600Y544160D03*
X476600Y594160D03*
X476600Y604160D03*
X476600Y614160D03*
X476600Y619160D03*
X476600Y609160D03*
X476600Y599160D03*
X476600Y589160D03*
D25*
X421600Y639160D03*
X416600Y639160D03*
X431600Y639160D03*
X441600Y639160D03*
X451600Y639160D03*
X426600Y639160D03*
X436600Y639160D03*
X446600Y639160D03*
X456600Y639160D03*
X406600Y639160D03*
X396600Y639160D03*
X386600Y639160D03*
X381600Y639160D03*
X391600Y639160D03*
X401600Y639160D03*
X411600Y639160D03*
D26*
X255571Y602640D03*
X255571Y612140D03*
X255571Y621640D03*
X229569Y621640D03*
X229569Y602640D03*
X181309Y544170D03*
X181309Y534670D03*
X181309Y525170D03*
X207311Y525170D03*
X207311Y544170D03*
D27*
X25400Y492760D03*
X25400Y670560D03*
X558800Y670560D03*
X558800Y492760D03*
D28*
X6350Y640080D03*
X577850Y524510D03*
D10*
X481410Y515620D03*
X491410Y515620D03*
X493014Y622220D03*
X493014Y612220D03*
X337820Y532050D03*
X337820Y522050D03*
X326390Y532050D03*
X326390Y522050D03*
X360680Y532050D03*
X360680Y522050D03*
X349250Y532050D03*
X349250Y522050D03*
X481410Y525780D03*
X491410Y525780D03*
X503174Y622220D03*
X503174Y612220D03*
X381000Y651590D03*
X381000Y661590D03*
D29*
X129720Y543940D03*
X129720Y527940D03*
X88720Y527940D03*
X88720Y543940D03*
X129720Y609980D03*
X129720Y593980D03*
X88720Y593980D03*
X88720Y609980D03*
D10*
X153670Y563960D03*
X153670Y573960D03*
D23*
X96910Y509270D03*
X113910Y509270D03*
D10*
X96520Y496490D03*
X96520Y486490D03*
D23*
X95640Y561340D03*
X112640Y561340D03*
X95640Y576580D03*
X112640Y576580D03*
D10*
X513080Y622220D03*
X513080Y612220D03*
D30*
X533400Y553910D03*
X546100Y553910D03*
X558800Y553910D03*
X571500Y553910D03*
X558800Y609410D03*
X571500Y609410D03*
X546100Y609410D03*
X533400Y609410D03*
D31*
X337820Y634800D03*
X337820Y609800D03*
D32*
X318700Y588730D03*
X341700Y551730D03*
X341700Y588730D03*
X318700Y551730D03*
D10*
X319880Y626110D03*
X309880Y626110D03*
X319880Y615950D03*
X309880Y615950D03*
X319880Y605790D03*
X309880Y605790D03*
X314960Y531970D03*
X314960Y521970D03*
X514350Y544750D03*
X514350Y534750D03*
D12*
X293570Y639130D02*
X293570Y646110D01*
X300550Y646110D01*
X300550Y639130D01*
X293570Y639130D01*
X293570Y643930D02*
X300550Y643930D01*
X276030Y646110D02*
X276030Y639130D01*
X276030Y646110D02*
X283010Y646110D01*
X283010Y639130D01*
X276030Y639130D01*
X276030Y643930D02*
X283010Y643930D01*
D10*
X283290Y655320D03*
X293290Y655320D03*
X781050Y544750D03*
X781050Y534750D03*
X822960Y553800D03*
X822960Y563800D03*
X842090Y635508D03*
X852090Y635508D03*
X873680Y635508D03*
X863680Y635508D03*
D11*
X800735Y560000D03*
X800735Y583000D03*
X784860Y560000D03*
X784860Y583000D03*
D12*
X872290Y536890D02*
X872290Y529910D01*
X865310Y529910D01*
X865310Y536890D01*
X872290Y536890D01*
X872290Y534710D02*
X865310Y534710D01*
X889830Y536890D02*
X889830Y529910D01*
X882850Y529910D01*
X882850Y536890D01*
X889830Y536890D01*
X889830Y534710D02*
X882850Y534710D01*
X882850Y545658D02*
X882850Y552638D01*
X889830Y552638D01*
X889830Y545658D01*
X882850Y545658D01*
X882850Y550458D02*
X889830Y550458D01*
X865310Y552638D02*
X865310Y545658D01*
X865310Y552638D02*
X872290Y552638D01*
X872290Y545658D01*
X865310Y545658D01*
X865310Y550458D02*
X872290Y550458D01*
D13*
X674780Y574160D03*
X674780Y579160D03*
D14*
X674780Y549410D03*
X674780Y557160D03*
D13*
X674780Y564160D03*
X674780Y569160D03*
X674780Y589160D03*
X674780Y584160D03*
D14*
X674780Y613910D03*
X674780Y606160D03*
D13*
X674780Y599160D03*
X674780Y594160D03*
D15*
X663730Y610560D03*
X663730Y552760D03*
D16*
X782480Y624162D03*
X802480Y624162D03*
D17*
X758480Y676162D03*
X826480Y676162D03*
D18*
X736660Y681910D03*
X680660Y681910D03*
D19*
X723660Y645160D03*
X713660Y645160D03*
X703660Y645160D03*
X693660Y645160D03*
D20*
X1135380Y683260D03*
X1109980Y683260D03*
X1084580Y683260D03*
X1059180Y683260D03*
X1033780Y683260D03*
X1008380Y683260D03*
X982980Y683260D03*
X957580Y683260D03*
X932180Y683260D03*
X906780Y683260D03*
X881380Y683260D03*
X855980Y683260D03*
X1135380Y480060D03*
X1109980Y480060D03*
X1084580Y480060D03*
X1059180Y480060D03*
X1033780Y480060D03*
X1008380Y480060D03*
X982980Y480060D03*
X957580Y480060D03*
X932180Y480060D03*
X906780Y480060D03*
X881380Y480060D03*
X855980Y480060D03*
X830580Y480060D03*
X805180Y480060D03*
X779780Y480060D03*
X754380Y480060D03*
D21*
X904240Y585470D03*
X904240Y598170D03*
X904240Y610870D03*
X904240Y623570D03*
X904240Y572770D03*
X891540Y585470D03*
X891540Y598170D03*
X891540Y610870D03*
X891540Y623570D03*
X891540Y572770D03*
D22*
X695960Y491880D03*
X695960Y508880D03*
X680720Y491880D03*
X680720Y508880D03*
X765810Y526170D03*
X765810Y543170D03*
D10*
X900510Y533400D03*
X910510Y533400D03*
X910510Y549402D03*
X900510Y549402D03*
D23*
X865750Y585470D03*
X848750Y585470D03*
D24*
X976280Y584160D03*
X976280Y579160D03*
X976280Y594160D03*
X976280Y604160D03*
X976280Y614160D03*
X976280Y589160D03*
X976280Y599160D03*
X976280Y609160D03*
X976280Y619160D03*
X976280Y569160D03*
X976280Y559160D03*
X976280Y549160D03*
X976280Y544160D03*
X976280Y554160D03*
X976280Y564160D03*
X976280Y574160D03*
D25*
X1031280Y524160D03*
X1036280Y524160D03*
X1021280Y524160D03*
X1011280Y524160D03*
X1001280Y524160D03*
X1026280Y524160D03*
X1016280Y524160D03*
X1006280Y524160D03*
X996280Y524160D03*
X1046280Y524160D03*
X1056280Y524160D03*
X1066280Y524160D03*
X1071280Y524160D03*
X1061280Y524160D03*
X1051280Y524160D03*
X1041280Y524160D03*
D24*
X1091280Y579160D03*
X1091280Y584160D03*
X1091280Y569160D03*
X1091280Y559160D03*
X1091280Y549160D03*
X1091280Y574160D03*
X1091280Y564160D03*
X1091280Y554160D03*
X1091280Y544160D03*
X1091280Y594160D03*
X1091280Y604160D03*
X1091280Y614160D03*
X1091280Y619160D03*
X1091280Y609160D03*
X1091280Y599160D03*
X1091280Y589160D03*
D25*
X1036280Y639160D03*
X1031280Y639160D03*
X1046280Y639160D03*
X1056280Y639160D03*
X1066280Y639160D03*
X1041280Y639160D03*
X1051280Y639160D03*
X1061280Y639160D03*
X1071280Y639160D03*
X1021280Y639160D03*
X1011280Y639160D03*
X1001280Y639160D03*
X996280Y639160D03*
X1006280Y639160D03*
X1016280Y639160D03*
X1026280Y639160D03*
D26*
X870251Y602640D03*
X870251Y612140D03*
X870251Y621640D03*
X844249Y621640D03*
X844249Y602640D03*
X795989Y544170D03*
X795989Y534670D03*
X795989Y525170D03*
X821991Y525170D03*
X821991Y544170D03*
D27*
X640080Y492760D03*
X640080Y670560D03*
X1173480Y670560D03*
X1173480Y492760D03*
D28*
X621030Y640080D03*
X1192530Y524510D03*
D10*
X1096090Y515620D03*
X1106090Y515620D03*
X1107694Y622220D03*
X1107694Y612220D03*
X952500Y532050D03*
X952500Y522050D03*
X941070Y532050D03*
X941070Y522050D03*
X975360Y532050D03*
X975360Y522050D03*
X963930Y532050D03*
X963930Y522050D03*
X1096090Y525780D03*
X1106090Y525780D03*
X1117854Y622220D03*
X1117854Y612220D03*
X995680Y651590D03*
X995680Y661590D03*
D29*
X744400Y543940D03*
X744400Y527940D03*
X703400Y527940D03*
X703400Y543940D03*
X744400Y609980D03*
X744400Y593980D03*
X703400Y593980D03*
X703400Y609980D03*
D10*
X768350Y563960D03*
X768350Y573960D03*
D23*
X711590Y509270D03*
X728590Y509270D03*
D10*
X711200Y496490D03*
X711200Y486490D03*
D23*
X710320Y561340D03*
X727320Y561340D03*
X710320Y576580D03*
X727320Y576580D03*
D10*
X1127760Y622220D03*
X1127760Y612220D03*
D30*
X1148080Y553910D03*
X1160780Y553910D03*
X1173480Y553910D03*
X1186180Y553910D03*
X1173480Y609410D03*
X1186180Y609410D03*
X1160780Y609410D03*
X1148080Y609410D03*
D31*
X952500Y634800D03*
X952500Y609800D03*
D32*
X933380Y588730D03*
X956380Y551730D03*
X956380Y588730D03*
X933380Y551730D03*
D10*
X934560Y626110D03*
X924560Y626110D03*
X934560Y615950D03*
X924560Y615950D03*
X934560Y605790D03*
X924560Y605790D03*
X929640Y531970D03*
X929640Y521970D03*
X1129030Y544750D03*
X1129030Y534750D03*
D12*
X908250Y639130D02*
X908250Y646110D01*
X915230Y646110D01*
X915230Y639130D01*
X908250Y639130D01*
X908250Y643930D02*
X915230Y643930D01*
X890710Y646110D02*
X890710Y639130D01*
X890710Y646110D02*
X897690Y646110D01*
X897690Y639130D01*
X890710Y639130D01*
X890710Y643930D02*
X897690Y643930D01*
D10*
X897970Y655320D03*
X907970Y655320D03*
X166370Y778430D03*
X166370Y768430D03*
X208280Y787480D03*
X208280Y797480D03*
X227410Y869188D03*
X237410Y869188D03*
X259000Y869188D03*
X249000Y869188D03*
D11*
X186055Y793680D03*
X186055Y816680D03*
X170180Y793680D03*
X170180Y816680D03*
D12*
X257610Y770570D02*
X257610Y763590D01*
X250630Y763590D01*
X250630Y770570D01*
X257610Y770570D01*
X257610Y768390D02*
X250630Y768390D01*
X275150Y770570D02*
X275150Y763590D01*
X268170Y763590D01*
X268170Y770570D01*
X275150Y770570D01*
X275150Y768390D02*
X268170Y768390D01*
X268170Y779338D02*
X268170Y786318D01*
X275150Y786318D01*
X275150Y779338D01*
X268170Y779338D01*
X268170Y784138D02*
X275150Y784138D01*
X250630Y786318D02*
X250630Y779338D01*
X250630Y786318D02*
X257610Y786318D01*
X257610Y779338D01*
X250630Y779338D01*
X250630Y784138D02*
X257610Y784138D01*
D13*
X60100Y807840D03*
X60100Y812840D03*
D14*
X60100Y783090D03*
X60100Y790840D03*
D13*
X60100Y797840D03*
X60100Y802840D03*
X60100Y822840D03*
X60100Y817840D03*
D14*
X60100Y847590D03*
X60100Y839840D03*
D13*
X60100Y832840D03*
X60100Y827840D03*
D15*
X49050Y844240D03*
X49050Y786440D03*
D16*
X167800Y857842D03*
X187800Y857842D03*
D17*
X143800Y909842D03*
X211800Y909842D03*
D18*
X121980Y915590D03*
X65980Y915590D03*
D19*
X108980Y878840D03*
X98980Y878840D03*
X88980Y878840D03*
X78980Y878840D03*
D20*
X520700Y916940D03*
X495300Y916940D03*
X469900Y916940D03*
X444500Y916940D03*
X419100Y916940D03*
X393700Y916940D03*
X368300Y916940D03*
X342900Y916940D03*
X317500Y916940D03*
X292100Y916940D03*
X266700Y916940D03*
X241300Y916940D03*
X520700Y713740D03*
X495300Y713740D03*
X469900Y713740D03*
X444500Y713740D03*
X419100Y713740D03*
X393700Y713740D03*
X368300Y713740D03*
X342900Y713740D03*
X317500Y713740D03*
X292100Y713740D03*
X266700Y713740D03*
X241300Y713740D03*
X215900Y713740D03*
X190500Y713740D03*
X165100Y713740D03*
X139700Y713740D03*
D21*
X289560Y819150D03*
X289560Y831850D03*
X289560Y844550D03*
X289560Y857250D03*
X289560Y806450D03*
X276860Y819150D03*
X276860Y831850D03*
X276860Y844550D03*
X276860Y857250D03*
X276860Y806450D03*
D22*
X81280Y725560D03*
X81280Y742560D03*
X66040Y725560D03*
X66040Y742560D03*
X151130Y759850D03*
X151130Y776850D03*
D10*
X285830Y767080D03*
X295830Y767080D03*
X295830Y783082D03*
X285830Y783082D03*
D23*
X251070Y819150D03*
X234070Y819150D03*
D24*
X361600Y817840D03*
X361600Y812840D03*
X361600Y827840D03*
X361600Y837840D03*
X361600Y847840D03*
X361600Y822840D03*
X361600Y832840D03*
X361600Y842840D03*
X361600Y852840D03*
X361600Y802840D03*
X361600Y792840D03*
X361600Y782840D03*
X361600Y777840D03*
X361600Y787840D03*
X361600Y797840D03*
X361600Y807840D03*
D25*
X416600Y757840D03*
X421600Y757840D03*
X406600Y757840D03*
X396600Y757840D03*
X386600Y757840D03*
X411600Y757840D03*
X401600Y757840D03*
X391600Y757840D03*
X381600Y757840D03*
X431600Y757840D03*
X441600Y757840D03*
X451600Y757840D03*
X456600Y757840D03*
X446600Y757840D03*
X436600Y757840D03*
X426600Y757840D03*
D24*
X476600Y812840D03*
X476600Y817840D03*
X476600Y802840D03*
X476600Y792840D03*
X476600Y782840D03*
X476600Y807840D03*
X476600Y797840D03*
X476600Y787840D03*
X476600Y777840D03*
X476600Y827840D03*
X476600Y837840D03*
X476600Y847840D03*
X476600Y852840D03*
X476600Y842840D03*
X476600Y832840D03*
X476600Y822840D03*
D25*
X421600Y872840D03*
X416600Y872840D03*
X431600Y872840D03*
X441600Y872840D03*
X451600Y872840D03*
X426600Y872840D03*
X436600Y872840D03*
X446600Y872840D03*
X456600Y872840D03*
X406600Y872840D03*
X396600Y872840D03*
X386600Y872840D03*
X381600Y872840D03*
X391600Y872840D03*
X401600Y872840D03*
X411600Y872840D03*
D26*
X255571Y836320D03*
X255571Y845820D03*
X255571Y855320D03*
X229569Y855320D03*
X229569Y836320D03*
X181309Y777850D03*
X181309Y768350D03*
X181309Y758850D03*
X207311Y758850D03*
X207311Y777850D03*
D27*
X25400Y726440D03*
X25400Y904240D03*
X558800Y904240D03*
X558800Y726440D03*
D28*
X6350Y873760D03*
X577850Y758190D03*
D10*
X481410Y749300D03*
X491410Y749300D03*
X493014Y855900D03*
X493014Y845900D03*
X337820Y765730D03*
X337820Y755730D03*
X326390Y765730D03*
X326390Y755730D03*
X360680Y765730D03*
X360680Y755730D03*
X349250Y765730D03*
X349250Y755730D03*
X481410Y759460D03*
X491410Y759460D03*
X503174Y855900D03*
X503174Y845900D03*
X381000Y885270D03*
X381000Y895270D03*
D29*
X129720Y777620D03*
X129720Y761620D03*
X88720Y761620D03*
X88720Y777620D03*
X129720Y843660D03*
X129720Y827660D03*
X88720Y827660D03*
X88720Y843660D03*
D10*
X153670Y797640D03*
X153670Y807640D03*
D23*
X96910Y742950D03*
X113910Y742950D03*
D10*
X96520Y730170D03*
X96520Y720170D03*
D23*
X95640Y795020D03*
X112640Y795020D03*
X95640Y810260D03*
X112640Y810260D03*
D10*
X513080Y855900D03*
X513080Y845900D03*
D30*
X533400Y787590D03*
X546100Y787590D03*
X558800Y787590D03*
X571500Y787590D03*
X558800Y843090D03*
X571500Y843090D03*
X546100Y843090D03*
X533400Y843090D03*
D31*
X337820Y868480D03*
X337820Y843480D03*
D32*
X318700Y822410D03*
X341700Y785410D03*
X341700Y822410D03*
X318700Y785410D03*
D10*
X319880Y859790D03*
X309880Y859790D03*
X319880Y849630D03*
X309880Y849630D03*
X319880Y839470D03*
X309880Y839470D03*
X314960Y765650D03*
X314960Y755650D03*
X514350Y778430D03*
X514350Y768430D03*
D12*
X293570Y872810D02*
X293570Y879790D01*
X300550Y879790D01*
X300550Y872810D01*
X293570Y872810D01*
X293570Y877610D02*
X300550Y877610D01*
X276030Y879790D02*
X276030Y872810D01*
X276030Y879790D02*
X283010Y879790D01*
X283010Y872810D01*
X276030Y872810D01*
X276030Y877610D02*
X283010Y877610D01*
D10*
X283290Y889000D03*
X293290Y889000D03*
X781050Y778430D03*
X781050Y768430D03*
X822960Y787480D03*
X822960Y797480D03*
X842090Y869188D03*
X852090Y869188D03*
X873680Y869188D03*
X863680Y869188D03*
D11*
X800735Y793680D03*
X800735Y816680D03*
X784860Y793680D03*
X784860Y816680D03*
D12*
X872290Y770570D02*
X872290Y763590D01*
X865310Y763590D01*
X865310Y770570D01*
X872290Y770570D01*
X872290Y768390D02*
X865310Y768390D01*
X889830Y770570D02*
X889830Y763590D01*
X882850Y763590D01*
X882850Y770570D01*
X889830Y770570D01*
X889830Y768390D02*
X882850Y768390D01*
X882850Y779338D02*
X882850Y786318D01*
X889830Y786318D01*
X889830Y779338D01*
X882850Y779338D01*
X882850Y784138D02*
X889830Y784138D01*
X865310Y786318D02*
X865310Y779338D01*
X865310Y786318D02*
X872290Y786318D01*
X872290Y779338D01*
X865310Y779338D01*
X865310Y784138D02*
X872290Y784138D01*
D13*
X674780Y807840D03*
X674780Y812840D03*
D14*
X674780Y783090D03*
X674780Y790840D03*
D13*
X674780Y797840D03*
X674780Y802840D03*
X674780Y822840D03*
X674780Y817840D03*
D14*
X674780Y847590D03*
X674780Y839840D03*
D13*
X674780Y832840D03*
X674780Y827840D03*
D15*
X663730Y844240D03*
X663730Y786440D03*
D16*
X782480Y857842D03*
X802480Y857842D03*
D17*
X758480Y909842D03*
X826480Y909842D03*
D18*
X736660Y915590D03*
X680660Y915590D03*
D19*
X723660Y878840D03*
X713660Y878840D03*
X703660Y878840D03*
X693660Y878840D03*
D20*
X1135380Y916940D03*
X1109980Y916940D03*
X1084580Y916940D03*
X1059180Y916940D03*
X1033780Y916940D03*
X1008380Y916940D03*
X982980Y916940D03*
X957580Y916940D03*
X932180Y916940D03*
X906780Y916940D03*
X881380Y916940D03*
X855980Y916940D03*
X1135380Y713740D03*
X1109980Y713740D03*
X1084580Y713740D03*
X1059180Y713740D03*
X1033780Y713740D03*
X1008380Y713740D03*
X982980Y713740D03*
X957580Y713740D03*
X932180Y713740D03*
X906780Y713740D03*
X881380Y713740D03*
X855980Y713740D03*
X830580Y713740D03*
X805180Y713740D03*
X779780Y713740D03*
X754380Y713740D03*
D21*
X904240Y819150D03*
X904240Y831850D03*
X904240Y844550D03*
X904240Y857250D03*
X904240Y806450D03*
X891540Y819150D03*
X891540Y831850D03*
X891540Y844550D03*
X891540Y857250D03*
X891540Y806450D03*
D22*
X695960Y725560D03*
X695960Y742560D03*
X680720Y725560D03*
X680720Y742560D03*
X765810Y759850D03*
X765810Y776850D03*
D10*
X900510Y767080D03*
X910510Y767080D03*
X910510Y783082D03*
X900510Y783082D03*
D23*
X865750Y819150D03*
X848750Y819150D03*
D24*
X976280Y817840D03*
X976280Y812840D03*
X976280Y827840D03*
X976280Y837840D03*
X976280Y847840D03*
X976280Y822840D03*
X976280Y832840D03*
X976280Y842840D03*
X976280Y852840D03*
X976280Y802840D03*
X976280Y792840D03*
X976280Y782840D03*
X976280Y777840D03*
X976280Y787840D03*
X976280Y797840D03*
X976280Y807840D03*
D25*
X1031280Y757840D03*
X1036280Y757840D03*
X1021280Y757840D03*
X1011280Y757840D03*
X1001280Y757840D03*
X1026280Y757840D03*
X1016280Y757840D03*
X1006280Y757840D03*
X996280Y757840D03*
X1046280Y757840D03*
X1056280Y757840D03*
X1066280Y757840D03*
X1071280Y757840D03*
X1061280Y757840D03*
X1051280Y757840D03*
X1041280Y757840D03*
D24*
X1091280Y812840D03*
X1091280Y817840D03*
X1091280Y802840D03*
X1091280Y792840D03*
X1091280Y782840D03*
X1091280Y807840D03*
X1091280Y797840D03*
X1091280Y787840D03*
X1091280Y777840D03*
X1091280Y827840D03*
X1091280Y837840D03*
X1091280Y847840D03*
X1091280Y852840D03*
X1091280Y842840D03*
X1091280Y832840D03*
X1091280Y822840D03*
D25*
X1036280Y872840D03*
X1031280Y872840D03*
X1046280Y872840D03*
X1056280Y872840D03*
X1066280Y872840D03*
X1041280Y872840D03*
X1051280Y872840D03*
X1061280Y872840D03*
X1071280Y872840D03*
X1021280Y872840D03*
X1011280Y872840D03*
X1001280Y872840D03*
X996280Y872840D03*
X1006280Y872840D03*
X1016280Y872840D03*
X1026280Y872840D03*
D26*
X870251Y836320D03*
X870251Y845820D03*
X870251Y855320D03*
X844249Y855320D03*
X844249Y836320D03*
X795989Y777850D03*
X795989Y768350D03*
X795989Y758850D03*
X821991Y758850D03*
X821991Y777850D03*
D27*
X640080Y726440D03*
X640080Y904240D03*
X1173480Y904240D03*
X1173480Y726440D03*
D28*
X621030Y873760D03*
X1192530Y758190D03*
D10*
X1096090Y749300D03*
X1106090Y749300D03*
X1107694Y855900D03*
X1107694Y845900D03*
X952500Y765730D03*
X952500Y755730D03*
X941070Y765730D03*
X941070Y755730D03*
X975360Y765730D03*
X975360Y755730D03*
X963930Y765730D03*
X963930Y755730D03*
X1096090Y759460D03*
X1106090Y759460D03*
X1117854Y855900D03*
X1117854Y845900D03*
X995680Y885270D03*
X995680Y895270D03*
D29*
X744400Y777620D03*
X744400Y761620D03*
X703400Y761620D03*
X703400Y777620D03*
X744400Y843660D03*
X744400Y827660D03*
X703400Y827660D03*
X703400Y843660D03*
D10*
X768350Y797640D03*
X768350Y807640D03*
D23*
X711590Y742950D03*
X728590Y742950D03*
D10*
X711200Y730170D03*
X711200Y720170D03*
D23*
X710320Y795020D03*
X727320Y795020D03*
X710320Y810260D03*
X727320Y810260D03*
D10*
X1127760Y855900D03*
X1127760Y845900D03*
D30*
X1148080Y787590D03*
X1160780Y787590D03*
X1173480Y787590D03*
X1186180Y787590D03*
X1173480Y843090D03*
X1186180Y843090D03*
X1160780Y843090D03*
X1148080Y843090D03*
D31*
X952500Y868480D03*
X952500Y843480D03*
D32*
X933380Y822410D03*
X956380Y785410D03*
X956380Y822410D03*
X933380Y785410D03*
D10*
X934560Y859790D03*
X924560Y859790D03*
X934560Y849630D03*
X924560Y849630D03*
X934560Y839470D03*
X924560Y839470D03*
X929640Y765650D03*
X929640Y755650D03*
X1129030Y778430D03*
X1129030Y768430D03*
D12*
X908250Y872810D02*
X908250Y879790D01*
X915230Y879790D01*
X915230Y872810D01*
X908250Y872810D01*
X908250Y877610D02*
X915230Y877610D01*
X890710Y879790D02*
X890710Y872810D01*
X890710Y879790D02*
X897690Y879790D01*
X897690Y872810D01*
X890710Y872810D01*
X890710Y877610D02*
X897690Y877610D01*
D10*
X897970Y889000D03*
X907970Y889000D03*
D21*
X-51638Y918845D03*
X1250518Y918845D03*
D33*
X-60693Y68580D02*
X-60690Y68802D01*
X-60682Y69024D01*
X-60668Y69246D01*
X-60649Y69468D01*
X-60625Y69688D01*
X-60595Y69909D01*
X-60560Y70128D01*
X-60519Y70347D01*
X-60473Y70564D01*
X-60422Y70780D01*
X-60365Y70995D01*
X-60303Y71209D01*
X-60236Y71420D01*
X-60164Y71631D01*
X-60086Y71839D01*
X-60004Y72045D01*
X-59916Y72249D01*
X-59824Y72452D01*
X-59726Y72651D01*
X-59624Y72848D01*
X-59517Y73043D01*
X-59405Y73235D01*
X-59288Y73424D01*
X-59167Y73611D01*
X-59041Y73794D01*
X-58911Y73974D01*
X-58776Y74151D01*
X-58638Y74324D01*
X-58495Y74494D01*
X-58347Y74661D01*
X-58196Y74824D01*
X-58041Y74983D01*
X-57882Y75138D01*
X-57719Y75289D01*
X-57552Y75437D01*
X-57382Y75580D01*
X-57209Y75718D01*
X-57032Y75853D01*
X-56852Y75983D01*
X-56669Y76109D01*
X-56482Y76230D01*
X-56293Y76347D01*
X-56101Y76459D01*
X-55906Y76566D01*
X-55709Y76668D01*
X-55510Y76766D01*
X-55307Y76858D01*
X-55103Y76946D01*
X-54897Y77028D01*
X-54689Y77106D01*
X-54478Y77178D01*
X-54267Y77245D01*
X-54053Y77307D01*
X-53838Y77364D01*
X-53622Y77415D01*
X-53405Y77461D01*
X-53186Y77502D01*
X-52967Y77537D01*
X-52746Y77567D01*
X-52526Y77591D01*
X-52304Y77610D01*
X-52082Y77624D01*
X-51860Y77632D01*
X-51638Y77635D01*
X-51416Y77632D01*
X-51194Y77624D01*
X-50972Y77610D01*
X-50750Y77591D01*
X-50530Y77567D01*
X-50309Y77537D01*
X-50090Y77502D01*
X-49871Y77461D01*
X-49654Y77415D01*
X-49438Y77364D01*
X-49223Y77307D01*
X-49009Y77245D01*
X-48798Y77178D01*
X-48587Y77106D01*
X-48379Y77028D01*
X-48173Y76946D01*
X-47969Y76858D01*
X-47766Y76766D01*
X-47567Y76668D01*
X-47370Y76566D01*
X-47175Y76459D01*
X-46983Y76347D01*
X-46794Y76230D01*
X-46607Y76109D01*
X-46424Y75983D01*
X-46244Y75853D01*
X-46067Y75718D01*
X-45894Y75580D01*
X-45724Y75437D01*
X-45557Y75289D01*
X-45394Y75138D01*
X-45235Y74983D01*
X-45080Y74824D01*
X-44929Y74661D01*
X-44781Y74494D01*
X-44638Y74324D01*
X-44500Y74151D01*
X-44365Y73974D01*
X-44235Y73794D01*
X-44109Y73611D01*
X-43988Y73424D01*
X-43871Y73235D01*
X-43759Y73043D01*
X-43652Y72848D01*
X-43550Y72651D01*
X-43452Y72452D01*
X-43360Y72249D01*
X-43272Y72045D01*
X-43190Y71839D01*
X-43112Y71631D01*
X-43040Y71420D01*
X-42973Y71209D01*
X-42911Y70995D01*
X-42854Y70780D01*
X-42803Y70564D01*
X-42757Y70347D01*
X-42716Y70128D01*
X-42681Y69909D01*
X-42651Y69688D01*
X-42627Y69468D01*
X-42608Y69246D01*
X-42594Y69024D01*
X-42586Y68802D01*
X-42583Y68580D01*
X-42586Y68358D01*
X-42594Y68136D01*
X-42608Y67914D01*
X-42627Y67692D01*
X-42651Y67472D01*
X-42681Y67251D01*
X-42716Y67032D01*
X-42757Y66813D01*
X-42803Y66596D01*
X-42854Y66380D01*
X-42911Y66165D01*
X-42973Y65951D01*
X-43040Y65740D01*
X-43112Y65529D01*
X-43190Y65321D01*
X-43272Y65115D01*
X-43360Y64911D01*
X-43452Y64708D01*
X-43550Y64509D01*
X-43652Y64312D01*
X-43759Y64117D01*
X-43871Y63925D01*
X-43988Y63736D01*
X-44109Y63549D01*
X-44235Y63366D01*
X-44365Y63186D01*
X-44500Y63009D01*
X-44638Y62836D01*
X-44781Y62666D01*
X-44929Y62499D01*
X-45080Y62336D01*
X-45235Y62177D01*
X-45394Y62022D01*
X-45557Y61871D01*
X-45724Y61723D01*
X-45894Y61580D01*
X-46067Y61442D01*
X-46244Y61307D01*
X-46424Y61177D01*
X-46607Y61051D01*
X-46794Y60930D01*
X-46983Y60813D01*
X-47175Y60701D01*
X-47370Y60594D01*
X-47567Y60492D01*
X-47766Y60394D01*
X-47969Y60302D01*
X-48173Y60214D01*
X-48379Y60132D01*
X-48587Y60054D01*
X-48798Y59982D01*
X-49009Y59915D01*
X-49223Y59853D01*
X-49438Y59796D01*
X-49654Y59745D01*
X-49871Y59699D01*
X-50090Y59658D01*
X-50309Y59623D01*
X-50530Y59593D01*
X-50750Y59569D01*
X-50972Y59550D01*
X-51194Y59536D01*
X-51416Y59528D01*
X-51638Y59525D01*
X-51860Y59528D01*
X-52082Y59536D01*
X-52304Y59550D01*
X-52526Y59569D01*
X-52746Y59593D01*
X-52967Y59623D01*
X-53186Y59658D01*
X-53405Y59699D01*
X-53622Y59745D01*
X-53838Y59796D01*
X-54053Y59853D01*
X-54267Y59915D01*
X-54478Y59982D01*
X-54689Y60054D01*
X-54897Y60132D01*
X-55103Y60214D01*
X-55307Y60302D01*
X-55510Y60394D01*
X-55709Y60492D01*
X-55906Y60594D01*
X-56101Y60701D01*
X-56293Y60813D01*
X-56482Y60930D01*
X-56669Y61051D01*
X-56852Y61177D01*
X-57032Y61307D01*
X-57209Y61442D01*
X-57382Y61580D01*
X-57552Y61723D01*
X-57719Y61871D01*
X-57882Y62022D01*
X-58041Y62177D01*
X-58196Y62336D01*
X-58347Y62499D01*
X-58495Y62666D01*
X-58638Y62836D01*
X-58776Y63009D01*
X-58911Y63186D01*
X-59041Y63366D01*
X-59167Y63549D01*
X-59288Y63736D01*
X-59405Y63925D01*
X-59517Y64117D01*
X-59624Y64312D01*
X-59726Y64509D01*
X-59824Y64708D01*
X-59916Y64911D01*
X-60004Y65115D01*
X-60086Y65321D01*
X-60164Y65529D01*
X-60236Y65740D01*
X-60303Y65951D01*
X-60365Y66165D01*
X-60422Y66380D01*
X-60473Y66596D01*
X-60519Y66813D01*
X-60560Y67032D01*
X-60595Y67251D01*
X-60625Y67472D01*
X-60649Y67692D01*
X-60668Y67914D01*
X-60682Y68136D01*
X-60690Y68358D01*
X-60693Y68580D01*
D34*
X-51638Y68580D03*
M02*
