G04 EAGLE Gerber RS-274X export*
G75*
%MOMM*%
%FSLAX34Y34*%
%LPD*%
%INSoldermask Bottom*%
%IPPOS*%
%AMOC8*
5,1,8,0,0,1.08239X$1,22.5*%
G01*
%ADD10C,0.853200*%
%ADD11R,1.727200X1.727200*%
%ADD12C,1.203200*%
%ADD13C,3.251200*%
%ADD14C,0.838200*%
%ADD15R,1.603200X2.003200*%
%ADD16R,2.103200X1.603200*%
%ADD17R,1.703200X1.003200*%
%ADD18C,0.965200*%
%ADD19R,1.473200X0.863600*%
%ADD20C,1.270000*%
%ADD21C,1.703200*%

G36*
X895415Y55892D02*
X895415Y55892D01*
X895481Y55894D01*
X895524Y55912D01*
X895571Y55920D01*
X895628Y55954D01*
X895688Y55979D01*
X895723Y56010D01*
X895764Y56035D01*
X895806Y56086D01*
X895854Y56130D01*
X895876Y56172D01*
X895905Y56209D01*
X895926Y56271D01*
X895957Y56330D01*
X895965Y56384D01*
X895977Y56421D01*
X895976Y56461D01*
X895984Y56515D01*
X895984Y60325D01*
X895973Y60390D01*
X895971Y60456D01*
X895953Y60499D01*
X895945Y60546D01*
X895911Y60603D01*
X895886Y60663D01*
X895855Y60698D01*
X895830Y60739D01*
X895779Y60781D01*
X895735Y60829D01*
X895693Y60851D01*
X895656Y60880D01*
X895594Y60901D01*
X895535Y60932D01*
X895481Y60940D01*
X895444Y60952D01*
X895404Y60951D01*
X895350Y60959D01*
X892810Y60959D01*
X892745Y60948D01*
X892679Y60946D01*
X892636Y60928D01*
X892589Y60920D01*
X892532Y60886D01*
X892472Y60861D01*
X892437Y60830D01*
X892396Y60805D01*
X892355Y60754D01*
X892306Y60710D01*
X892284Y60668D01*
X892255Y60631D01*
X892234Y60569D01*
X892203Y60510D01*
X892195Y60456D01*
X892183Y60419D01*
X892183Y60415D01*
X892183Y60414D01*
X892184Y60379D01*
X892176Y60325D01*
X892176Y56515D01*
X892187Y56450D01*
X892189Y56384D01*
X892207Y56341D01*
X892215Y56294D01*
X892249Y56237D01*
X892274Y56177D01*
X892305Y56142D01*
X892330Y56101D01*
X892381Y56060D01*
X892425Y56011D01*
X892467Y55989D01*
X892504Y55960D01*
X892566Y55939D01*
X892625Y55908D01*
X892679Y55900D01*
X892716Y55888D01*
X892756Y55889D01*
X892810Y55881D01*
X895350Y55881D01*
X895415Y55892D01*
G37*
G36*
X280735Y55892D02*
X280735Y55892D01*
X280801Y55894D01*
X280844Y55912D01*
X280891Y55920D01*
X280948Y55954D01*
X281008Y55979D01*
X281043Y56010D01*
X281084Y56035D01*
X281126Y56086D01*
X281174Y56130D01*
X281196Y56172D01*
X281225Y56209D01*
X281246Y56271D01*
X281277Y56330D01*
X281285Y56384D01*
X281297Y56421D01*
X281296Y56461D01*
X281304Y56515D01*
X281304Y60325D01*
X281293Y60390D01*
X281291Y60456D01*
X281273Y60499D01*
X281265Y60546D01*
X281231Y60603D01*
X281206Y60663D01*
X281175Y60698D01*
X281150Y60739D01*
X281099Y60781D01*
X281055Y60829D01*
X281013Y60851D01*
X280976Y60880D01*
X280914Y60901D01*
X280855Y60932D01*
X280801Y60940D01*
X280764Y60952D01*
X280724Y60951D01*
X280670Y60959D01*
X278130Y60959D01*
X278065Y60948D01*
X277999Y60946D01*
X277956Y60928D01*
X277909Y60920D01*
X277852Y60886D01*
X277792Y60861D01*
X277757Y60830D01*
X277716Y60805D01*
X277675Y60754D01*
X277626Y60710D01*
X277604Y60668D01*
X277575Y60631D01*
X277554Y60569D01*
X277523Y60510D01*
X277515Y60456D01*
X277503Y60419D01*
X277503Y60415D01*
X277503Y60414D01*
X277504Y60379D01*
X277496Y60325D01*
X277496Y56515D01*
X277507Y56450D01*
X277509Y56384D01*
X277527Y56341D01*
X277535Y56294D01*
X277569Y56237D01*
X277594Y56177D01*
X277625Y56142D01*
X277650Y56101D01*
X277701Y56060D01*
X277745Y56011D01*
X277787Y55989D01*
X277824Y55960D01*
X277886Y55939D01*
X277945Y55908D01*
X277999Y55900D01*
X278036Y55888D01*
X278076Y55889D01*
X278130Y55881D01*
X280670Y55881D01*
X280735Y55892D01*
G37*
G36*
X895415Y756932D02*
X895415Y756932D01*
X895481Y756934D01*
X895524Y756952D01*
X895571Y756960D01*
X895628Y756994D01*
X895688Y757019D01*
X895723Y757050D01*
X895764Y757075D01*
X895806Y757126D01*
X895854Y757170D01*
X895876Y757212D01*
X895905Y757249D01*
X895926Y757311D01*
X895957Y757370D01*
X895965Y757424D01*
X895977Y757461D01*
X895976Y757501D01*
X895984Y757555D01*
X895984Y761365D01*
X895973Y761430D01*
X895971Y761496D01*
X895953Y761539D01*
X895945Y761586D01*
X895911Y761643D01*
X895886Y761703D01*
X895855Y761738D01*
X895830Y761779D01*
X895779Y761821D01*
X895735Y761869D01*
X895693Y761891D01*
X895656Y761920D01*
X895594Y761941D01*
X895535Y761972D01*
X895481Y761980D01*
X895444Y761992D01*
X895404Y761991D01*
X895350Y761999D01*
X892810Y761999D01*
X892745Y761988D01*
X892679Y761986D01*
X892636Y761968D01*
X892589Y761960D01*
X892532Y761926D01*
X892472Y761901D01*
X892437Y761870D01*
X892396Y761845D01*
X892355Y761794D01*
X892306Y761750D01*
X892284Y761708D01*
X892255Y761671D01*
X892234Y761609D01*
X892203Y761550D01*
X892195Y761496D01*
X892183Y761459D01*
X892183Y761455D01*
X892183Y761454D01*
X892184Y761419D01*
X892176Y761365D01*
X892176Y757555D01*
X892187Y757490D01*
X892189Y757424D01*
X892207Y757381D01*
X892215Y757334D01*
X892249Y757277D01*
X892274Y757217D01*
X892305Y757182D01*
X892330Y757141D01*
X892381Y757100D01*
X892425Y757051D01*
X892467Y757029D01*
X892504Y757000D01*
X892566Y756979D01*
X892625Y756948D01*
X892679Y756940D01*
X892716Y756928D01*
X892756Y756929D01*
X892810Y756921D01*
X895350Y756921D01*
X895415Y756932D01*
G37*
G36*
X280735Y756932D02*
X280735Y756932D01*
X280801Y756934D01*
X280844Y756952D01*
X280891Y756960D01*
X280948Y756994D01*
X281008Y757019D01*
X281043Y757050D01*
X281084Y757075D01*
X281126Y757126D01*
X281174Y757170D01*
X281196Y757212D01*
X281225Y757249D01*
X281246Y757311D01*
X281277Y757370D01*
X281285Y757424D01*
X281297Y757461D01*
X281296Y757501D01*
X281304Y757555D01*
X281304Y761365D01*
X281293Y761430D01*
X281291Y761496D01*
X281273Y761539D01*
X281265Y761586D01*
X281231Y761643D01*
X281206Y761703D01*
X281175Y761738D01*
X281150Y761779D01*
X281099Y761821D01*
X281055Y761869D01*
X281013Y761891D01*
X280976Y761920D01*
X280914Y761941D01*
X280855Y761972D01*
X280801Y761980D01*
X280764Y761992D01*
X280724Y761991D01*
X280670Y761999D01*
X278130Y761999D01*
X278065Y761988D01*
X277999Y761986D01*
X277956Y761968D01*
X277909Y761960D01*
X277852Y761926D01*
X277792Y761901D01*
X277757Y761870D01*
X277716Y761845D01*
X277675Y761794D01*
X277626Y761750D01*
X277604Y761708D01*
X277575Y761671D01*
X277554Y761609D01*
X277523Y761550D01*
X277515Y761496D01*
X277503Y761459D01*
X277503Y761455D01*
X277503Y761454D01*
X277504Y761419D01*
X277496Y761365D01*
X277496Y757555D01*
X277507Y757490D01*
X277509Y757424D01*
X277527Y757381D01*
X277535Y757334D01*
X277569Y757277D01*
X277594Y757217D01*
X277625Y757182D01*
X277650Y757141D01*
X277701Y757100D01*
X277745Y757051D01*
X277787Y757029D01*
X277824Y757000D01*
X277886Y756979D01*
X277945Y756948D01*
X277999Y756940D01*
X278036Y756928D01*
X278076Y756929D01*
X278130Y756921D01*
X280670Y756921D01*
X280735Y756932D01*
G37*
G36*
X895415Y523252D02*
X895415Y523252D01*
X895481Y523254D01*
X895524Y523272D01*
X895571Y523280D01*
X895628Y523314D01*
X895688Y523339D01*
X895723Y523370D01*
X895764Y523395D01*
X895806Y523446D01*
X895854Y523490D01*
X895876Y523532D01*
X895905Y523569D01*
X895926Y523631D01*
X895957Y523690D01*
X895965Y523744D01*
X895977Y523781D01*
X895976Y523821D01*
X895984Y523875D01*
X895984Y527685D01*
X895973Y527750D01*
X895971Y527816D01*
X895953Y527859D01*
X895945Y527906D01*
X895911Y527963D01*
X895886Y528023D01*
X895855Y528058D01*
X895830Y528099D01*
X895779Y528141D01*
X895735Y528189D01*
X895693Y528211D01*
X895656Y528240D01*
X895594Y528261D01*
X895535Y528292D01*
X895481Y528300D01*
X895444Y528312D01*
X895404Y528311D01*
X895350Y528319D01*
X892810Y528319D01*
X892745Y528308D01*
X892679Y528306D01*
X892636Y528288D01*
X892589Y528280D01*
X892532Y528246D01*
X892472Y528221D01*
X892437Y528190D01*
X892396Y528165D01*
X892355Y528114D01*
X892306Y528070D01*
X892284Y528028D01*
X892255Y527991D01*
X892234Y527929D01*
X892203Y527870D01*
X892195Y527816D01*
X892183Y527779D01*
X892183Y527775D01*
X892183Y527774D01*
X892184Y527739D01*
X892176Y527685D01*
X892176Y523875D01*
X892187Y523810D01*
X892189Y523744D01*
X892207Y523701D01*
X892215Y523654D01*
X892249Y523597D01*
X892274Y523537D01*
X892305Y523502D01*
X892330Y523461D01*
X892381Y523420D01*
X892425Y523371D01*
X892467Y523349D01*
X892504Y523320D01*
X892566Y523299D01*
X892625Y523268D01*
X892679Y523260D01*
X892716Y523248D01*
X892756Y523249D01*
X892810Y523241D01*
X895350Y523241D01*
X895415Y523252D01*
G37*
G36*
X280735Y523252D02*
X280735Y523252D01*
X280801Y523254D01*
X280844Y523272D01*
X280891Y523280D01*
X280948Y523314D01*
X281008Y523339D01*
X281043Y523370D01*
X281084Y523395D01*
X281126Y523446D01*
X281174Y523490D01*
X281196Y523532D01*
X281225Y523569D01*
X281246Y523631D01*
X281277Y523690D01*
X281285Y523744D01*
X281297Y523781D01*
X281296Y523821D01*
X281304Y523875D01*
X281304Y527685D01*
X281293Y527750D01*
X281291Y527816D01*
X281273Y527859D01*
X281265Y527906D01*
X281231Y527963D01*
X281206Y528023D01*
X281175Y528058D01*
X281150Y528099D01*
X281099Y528141D01*
X281055Y528189D01*
X281013Y528211D01*
X280976Y528240D01*
X280914Y528261D01*
X280855Y528292D01*
X280801Y528300D01*
X280764Y528312D01*
X280724Y528311D01*
X280670Y528319D01*
X278130Y528319D01*
X278065Y528308D01*
X277999Y528306D01*
X277956Y528288D01*
X277909Y528280D01*
X277852Y528246D01*
X277792Y528221D01*
X277757Y528190D01*
X277716Y528165D01*
X277675Y528114D01*
X277626Y528070D01*
X277604Y528028D01*
X277575Y527991D01*
X277554Y527929D01*
X277523Y527870D01*
X277515Y527816D01*
X277503Y527779D01*
X277503Y527775D01*
X277503Y527774D01*
X277504Y527739D01*
X277496Y527685D01*
X277496Y523875D01*
X277507Y523810D01*
X277509Y523744D01*
X277527Y523701D01*
X277535Y523654D01*
X277569Y523597D01*
X277594Y523537D01*
X277625Y523502D01*
X277650Y523461D01*
X277701Y523420D01*
X277745Y523371D01*
X277787Y523349D01*
X277824Y523320D01*
X277886Y523299D01*
X277945Y523268D01*
X277999Y523260D01*
X278036Y523248D01*
X278076Y523249D01*
X278130Y523241D01*
X280670Y523241D01*
X280735Y523252D01*
G37*
G36*
X895415Y289572D02*
X895415Y289572D01*
X895481Y289574D01*
X895524Y289592D01*
X895571Y289600D01*
X895628Y289634D01*
X895688Y289659D01*
X895723Y289690D01*
X895764Y289715D01*
X895806Y289766D01*
X895854Y289810D01*
X895876Y289852D01*
X895905Y289889D01*
X895926Y289951D01*
X895957Y290010D01*
X895965Y290064D01*
X895977Y290101D01*
X895976Y290141D01*
X895984Y290195D01*
X895984Y294005D01*
X895973Y294070D01*
X895971Y294136D01*
X895953Y294179D01*
X895945Y294226D01*
X895911Y294283D01*
X895886Y294343D01*
X895855Y294378D01*
X895830Y294419D01*
X895779Y294461D01*
X895735Y294509D01*
X895693Y294531D01*
X895656Y294560D01*
X895594Y294581D01*
X895535Y294612D01*
X895481Y294620D01*
X895444Y294632D01*
X895404Y294631D01*
X895350Y294639D01*
X892810Y294639D01*
X892745Y294628D01*
X892679Y294626D01*
X892636Y294608D01*
X892589Y294600D01*
X892532Y294566D01*
X892472Y294541D01*
X892437Y294510D01*
X892396Y294485D01*
X892355Y294434D01*
X892306Y294390D01*
X892284Y294348D01*
X892255Y294311D01*
X892234Y294249D01*
X892203Y294190D01*
X892195Y294136D01*
X892183Y294099D01*
X892183Y294095D01*
X892183Y294094D01*
X892184Y294059D01*
X892176Y294005D01*
X892176Y290195D01*
X892187Y290130D01*
X892189Y290064D01*
X892207Y290021D01*
X892215Y289974D01*
X892249Y289917D01*
X892274Y289857D01*
X892305Y289822D01*
X892330Y289781D01*
X892381Y289740D01*
X892425Y289691D01*
X892467Y289669D01*
X892504Y289640D01*
X892566Y289619D01*
X892625Y289588D01*
X892679Y289580D01*
X892716Y289568D01*
X892756Y289569D01*
X892810Y289561D01*
X895350Y289561D01*
X895415Y289572D01*
G37*
G36*
X280735Y289572D02*
X280735Y289572D01*
X280801Y289574D01*
X280844Y289592D01*
X280891Y289600D01*
X280948Y289634D01*
X281008Y289659D01*
X281043Y289690D01*
X281084Y289715D01*
X281126Y289766D01*
X281174Y289810D01*
X281196Y289852D01*
X281225Y289889D01*
X281246Y289951D01*
X281277Y290010D01*
X281285Y290064D01*
X281297Y290101D01*
X281296Y290141D01*
X281304Y290195D01*
X281304Y294005D01*
X281293Y294070D01*
X281291Y294136D01*
X281273Y294179D01*
X281265Y294226D01*
X281231Y294283D01*
X281206Y294343D01*
X281175Y294378D01*
X281150Y294419D01*
X281099Y294461D01*
X281055Y294509D01*
X281013Y294531D01*
X280976Y294560D01*
X280914Y294581D01*
X280855Y294612D01*
X280801Y294620D01*
X280764Y294632D01*
X280724Y294631D01*
X280670Y294639D01*
X278130Y294639D01*
X278065Y294628D01*
X277999Y294626D01*
X277956Y294608D01*
X277909Y294600D01*
X277852Y294566D01*
X277792Y294541D01*
X277757Y294510D01*
X277716Y294485D01*
X277675Y294434D01*
X277626Y294390D01*
X277604Y294348D01*
X277575Y294311D01*
X277554Y294249D01*
X277523Y294190D01*
X277515Y294136D01*
X277503Y294099D01*
X277503Y294095D01*
X277503Y294094D01*
X277504Y294059D01*
X277496Y294005D01*
X277496Y290195D01*
X277507Y290130D01*
X277509Y290064D01*
X277527Y290021D01*
X277535Y289974D01*
X277569Y289917D01*
X277594Y289857D01*
X277625Y289822D01*
X277650Y289781D01*
X277701Y289740D01*
X277745Y289691D01*
X277787Y289669D01*
X277824Y289640D01*
X277886Y289619D01*
X277945Y289588D01*
X277999Y289580D01*
X278036Y289568D01*
X278076Y289569D01*
X278130Y289561D01*
X280670Y289561D01*
X280735Y289572D01*
G37*
D10*
X49050Y143200D03*
X49050Y85400D03*
D11*
X520700Y215900D03*
X495300Y215900D03*
X469900Y215900D03*
X444500Y215900D03*
X419100Y215900D03*
X393700Y215900D03*
X368300Y215900D03*
X342900Y215900D03*
X317500Y215900D03*
X292100Y215900D03*
X266700Y215900D03*
X241300Y215900D03*
X520700Y12700D03*
X495300Y12700D03*
X469900Y12700D03*
X444500Y12700D03*
X419100Y12700D03*
X393700Y12700D03*
X368300Y12700D03*
X342900Y12700D03*
X317500Y12700D03*
X292100Y12700D03*
X266700Y12700D03*
X241300Y12700D03*
X215900Y12700D03*
X190500Y12700D03*
X165100Y12700D03*
X139700Y12700D03*
D12*
X289560Y118110D03*
X289560Y130810D03*
X289560Y143510D03*
X289560Y156210D03*
X289560Y105410D03*
X276860Y118110D03*
X276860Y130810D03*
X276860Y143510D03*
X276860Y156210D03*
X276860Y105410D03*
D13*
X25400Y25400D03*
X25400Y203200D03*
X558800Y203200D03*
X558800Y25400D03*
D14*
X6350Y172720D03*
X577850Y57150D03*
D15*
X387540Y91410D03*
X387540Y148410D03*
D16*
X519040Y164410D03*
X529040Y32910D03*
D17*
X490540Y79510D03*
X486540Y90510D03*
X490540Y101510D03*
X492540Y112510D03*
X490540Y123510D03*
X492540Y134510D03*
X490540Y145510D03*
X490540Y156510D03*
D18*
X317500Y152400D03*
X317500Y127000D03*
D19*
X279400Y63627D03*
X279400Y53213D03*
D18*
X345440Y152400D03*
D10*
X663730Y143200D03*
X663730Y85400D03*
D11*
X1135380Y215900D03*
X1109980Y215900D03*
X1084580Y215900D03*
X1059180Y215900D03*
X1033780Y215900D03*
X1008380Y215900D03*
X982980Y215900D03*
X957580Y215900D03*
X932180Y215900D03*
X906780Y215900D03*
X881380Y215900D03*
X855980Y215900D03*
X1135380Y12700D03*
X1109980Y12700D03*
X1084580Y12700D03*
X1059180Y12700D03*
X1033780Y12700D03*
X1008380Y12700D03*
X982980Y12700D03*
X957580Y12700D03*
X932180Y12700D03*
X906780Y12700D03*
X881380Y12700D03*
X855980Y12700D03*
X830580Y12700D03*
X805180Y12700D03*
X779780Y12700D03*
X754380Y12700D03*
D12*
X904240Y118110D03*
X904240Y130810D03*
X904240Y143510D03*
X904240Y156210D03*
X904240Y105410D03*
X891540Y118110D03*
X891540Y130810D03*
X891540Y143510D03*
X891540Y156210D03*
X891540Y105410D03*
D13*
X640080Y25400D03*
X640080Y203200D03*
X1173480Y203200D03*
X1173480Y25400D03*
D14*
X621030Y172720D03*
X1192530Y57150D03*
D15*
X1002220Y91410D03*
X1002220Y148410D03*
D16*
X1133720Y164410D03*
X1143720Y32910D03*
D17*
X1105220Y79510D03*
X1101220Y90510D03*
X1105220Y101510D03*
X1107220Y112510D03*
X1105220Y123510D03*
X1107220Y134510D03*
X1105220Y145510D03*
X1105220Y156510D03*
D18*
X932180Y152400D03*
X932180Y127000D03*
D19*
X894080Y63627D03*
X894080Y53213D03*
D18*
X960120Y152400D03*
D10*
X49050Y376880D03*
X49050Y319080D03*
D11*
X520700Y449580D03*
X495300Y449580D03*
X469900Y449580D03*
X444500Y449580D03*
X419100Y449580D03*
X393700Y449580D03*
X368300Y449580D03*
X342900Y449580D03*
X317500Y449580D03*
X292100Y449580D03*
X266700Y449580D03*
X241300Y449580D03*
X520700Y246380D03*
X495300Y246380D03*
X469900Y246380D03*
X444500Y246380D03*
X419100Y246380D03*
X393700Y246380D03*
X368300Y246380D03*
X342900Y246380D03*
X317500Y246380D03*
X292100Y246380D03*
X266700Y246380D03*
X241300Y246380D03*
X215900Y246380D03*
X190500Y246380D03*
X165100Y246380D03*
X139700Y246380D03*
D12*
X289560Y351790D03*
X289560Y364490D03*
X289560Y377190D03*
X289560Y389890D03*
X289560Y339090D03*
X276860Y351790D03*
X276860Y364490D03*
X276860Y377190D03*
X276860Y389890D03*
X276860Y339090D03*
D13*
X25400Y259080D03*
X25400Y436880D03*
X558800Y436880D03*
X558800Y259080D03*
D14*
X6350Y406400D03*
X577850Y290830D03*
D15*
X387540Y325090D03*
X387540Y382090D03*
D16*
X519040Y398090D03*
X529040Y266590D03*
D17*
X490540Y313190D03*
X486540Y324190D03*
X490540Y335190D03*
X492540Y346190D03*
X490540Y357190D03*
X492540Y368190D03*
X490540Y379190D03*
X490540Y390190D03*
D18*
X317500Y386080D03*
X317500Y360680D03*
D19*
X279400Y297307D03*
X279400Y286893D03*
D18*
X345440Y386080D03*
D10*
X663730Y376880D03*
X663730Y319080D03*
D11*
X1135380Y449580D03*
X1109980Y449580D03*
X1084580Y449580D03*
X1059180Y449580D03*
X1033780Y449580D03*
X1008380Y449580D03*
X982980Y449580D03*
X957580Y449580D03*
X932180Y449580D03*
X906780Y449580D03*
X881380Y449580D03*
X855980Y449580D03*
X1135380Y246380D03*
X1109980Y246380D03*
X1084580Y246380D03*
X1059180Y246380D03*
X1033780Y246380D03*
X1008380Y246380D03*
X982980Y246380D03*
X957580Y246380D03*
X932180Y246380D03*
X906780Y246380D03*
X881380Y246380D03*
X855980Y246380D03*
X830580Y246380D03*
X805180Y246380D03*
X779780Y246380D03*
X754380Y246380D03*
D12*
X904240Y351790D03*
X904240Y364490D03*
X904240Y377190D03*
X904240Y389890D03*
X904240Y339090D03*
X891540Y351790D03*
X891540Y364490D03*
X891540Y377190D03*
X891540Y389890D03*
X891540Y339090D03*
D13*
X640080Y259080D03*
X640080Y436880D03*
X1173480Y436880D03*
X1173480Y259080D03*
D14*
X621030Y406400D03*
X1192530Y290830D03*
D15*
X1002220Y325090D03*
X1002220Y382090D03*
D16*
X1133720Y398090D03*
X1143720Y266590D03*
D17*
X1105220Y313190D03*
X1101220Y324190D03*
X1105220Y335190D03*
X1107220Y346190D03*
X1105220Y357190D03*
X1107220Y368190D03*
X1105220Y379190D03*
X1105220Y390190D03*
D18*
X932180Y386080D03*
X932180Y360680D03*
D19*
X894080Y297307D03*
X894080Y286893D03*
D18*
X960120Y386080D03*
D10*
X49050Y610560D03*
X49050Y552760D03*
D11*
X520700Y683260D03*
X495300Y683260D03*
X469900Y683260D03*
X444500Y683260D03*
X419100Y683260D03*
X393700Y683260D03*
X368300Y683260D03*
X342900Y683260D03*
X317500Y683260D03*
X292100Y683260D03*
X266700Y683260D03*
X241300Y683260D03*
X520700Y480060D03*
X495300Y480060D03*
X469900Y480060D03*
X444500Y480060D03*
X419100Y480060D03*
X393700Y480060D03*
X368300Y480060D03*
X342900Y480060D03*
X317500Y480060D03*
X292100Y480060D03*
X266700Y480060D03*
X241300Y480060D03*
X215900Y480060D03*
X190500Y480060D03*
X165100Y480060D03*
X139700Y480060D03*
D12*
X289560Y585470D03*
X289560Y598170D03*
X289560Y610870D03*
X289560Y623570D03*
X289560Y572770D03*
X276860Y585470D03*
X276860Y598170D03*
X276860Y610870D03*
X276860Y623570D03*
X276860Y572770D03*
D13*
X25400Y492760D03*
X25400Y670560D03*
X558800Y670560D03*
X558800Y492760D03*
D14*
X6350Y640080D03*
X577850Y524510D03*
D15*
X387540Y558770D03*
X387540Y615770D03*
D16*
X519040Y631770D03*
X529040Y500270D03*
D17*
X490540Y546870D03*
X486540Y557870D03*
X490540Y568870D03*
X492540Y579870D03*
X490540Y590870D03*
X492540Y601870D03*
X490540Y612870D03*
X490540Y623870D03*
D18*
X317500Y619760D03*
X317500Y594360D03*
D19*
X279400Y530987D03*
X279400Y520573D03*
D18*
X345440Y619760D03*
D10*
X663730Y610560D03*
X663730Y552760D03*
D11*
X1135380Y683260D03*
X1109980Y683260D03*
X1084580Y683260D03*
X1059180Y683260D03*
X1033780Y683260D03*
X1008380Y683260D03*
X982980Y683260D03*
X957580Y683260D03*
X932180Y683260D03*
X906780Y683260D03*
X881380Y683260D03*
X855980Y683260D03*
X1135380Y480060D03*
X1109980Y480060D03*
X1084580Y480060D03*
X1059180Y480060D03*
X1033780Y480060D03*
X1008380Y480060D03*
X982980Y480060D03*
X957580Y480060D03*
X932180Y480060D03*
X906780Y480060D03*
X881380Y480060D03*
X855980Y480060D03*
X830580Y480060D03*
X805180Y480060D03*
X779780Y480060D03*
X754380Y480060D03*
D12*
X904240Y585470D03*
X904240Y598170D03*
X904240Y610870D03*
X904240Y623570D03*
X904240Y572770D03*
X891540Y585470D03*
X891540Y598170D03*
X891540Y610870D03*
X891540Y623570D03*
X891540Y572770D03*
D13*
X640080Y492760D03*
X640080Y670560D03*
X1173480Y670560D03*
X1173480Y492760D03*
D14*
X621030Y640080D03*
X1192530Y524510D03*
D15*
X1002220Y558770D03*
X1002220Y615770D03*
D16*
X1133720Y631770D03*
X1143720Y500270D03*
D17*
X1105220Y546870D03*
X1101220Y557870D03*
X1105220Y568870D03*
X1107220Y579870D03*
X1105220Y590870D03*
X1107220Y601870D03*
X1105220Y612870D03*
X1105220Y623870D03*
D18*
X932180Y619760D03*
X932180Y594360D03*
D19*
X894080Y530987D03*
X894080Y520573D03*
D18*
X960120Y619760D03*
D10*
X49050Y844240D03*
X49050Y786440D03*
D11*
X520700Y916940D03*
X495300Y916940D03*
X469900Y916940D03*
X444500Y916940D03*
X419100Y916940D03*
X393700Y916940D03*
X368300Y916940D03*
X342900Y916940D03*
X317500Y916940D03*
X292100Y916940D03*
X266700Y916940D03*
X241300Y916940D03*
X520700Y713740D03*
X495300Y713740D03*
X469900Y713740D03*
X444500Y713740D03*
X419100Y713740D03*
X393700Y713740D03*
X368300Y713740D03*
X342900Y713740D03*
X317500Y713740D03*
X292100Y713740D03*
X266700Y713740D03*
X241300Y713740D03*
X215900Y713740D03*
X190500Y713740D03*
X165100Y713740D03*
X139700Y713740D03*
D12*
X289560Y819150D03*
X289560Y831850D03*
X289560Y844550D03*
X289560Y857250D03*
X289560Y806450D03*
X276860Y819150D03*
X276860Y831850D03*
X276860Y844550D03*
X276860Y857250D03*
X276860Y806450D03*
D13*
X25400Y726440D03*
X25400Y904240D03*
X558800Y904240D03*
X558800Y726440D03*
D14*
X6350Y873760D03*
X577850Y758190D03*
D15*
X387540Y792450D03*
X387540Y849450D03*
D16*
X519040Y865450D03*
X529040Y733950D03*
D17*
X490540Y780550D03*
X486540Y791550D03*
X490540Y802550D03*
X492540Y813550D03*
X490540Y824550D03*
X492540Y835550D03*
X490540Y846550D03*
X490540Y857550D03*
D18*
X317500Y853440D03*
X317500Y828040D03*
D19*
X279400Y764667D03*
X279400Y754253D03*
D18*
X345440Y853440D03*
D10*
X663730Y844240D03*
X663730Y786440D03*
D11*
X1135380Y916940D03*
X1109980Y916940D03*
X1084580Y916940D03*
X1059180Y916940D03*
X1033780Y916940D03*
X1008380Y916940D03*
X982980Y916940D03*
X957580Y916940D03*
X932180Y916940D03*
X906780Y916940D03*
X881380Y916940D03*
X855980Y916940D03*
X1135380Y713740D03*
X1109980Y713740D03*
X1084580Y713740D03*
X1059180Y713740D03*
X1033780Y713740D03*
X1008380Y713740D03*
X982980Y713740D03*
X957580Y713740D03*
X932180Y713740D03*
X906780Y713740D03*
X881380Y713740D03*
X855980Y713740D03*
X830580Y713740D03*
X805180Y713740D03*
X779780Y713740D03*
X754380Y713740D03*
D12*
X904240Y819150D03*
X904240Y831850D03*
X904240Y844550D03*
X904240Y857250D03*
X904240Y806450D03*
X891540Y819150D03*
X891540Y831850D03*
X891540Y844550D03*
X891540Y857250D03*
X891540Y806450D03*
D13*
X640080Y726440D03*
X640080Y904240D03*
X1173480Y904240D03*
X1173480Y726440D03*
D14*
X621030Y873760D03*
X1192530Y758190D03*
D15*
X1002220Y792450D03*
X1002220Y849450D03*
D16*
X1133720Y865450D03*
X1143720Y733950D03*
D17*
X1105220Y780550D03*
X1101220Y791550D03*
X1105220Y802550D03*
X1107220Y813550D03*
X1105220Y824550D03*
X1107220Y835550D03*
X1105220Y846550D03*
X1105220Y857550D03*
D18*
X932180Y853440D03*
X932180Y828040D03*
D19*
X894080Y764667D03*
X894080Y754253D03*
D18*
X960120Y853440D03*
D12*
X-51638Y918845D03*
X1250518Y918845D03*
D20*
X-60693Y68580D02*
X-60690Y68802D01*
X-60682Y69024D01*
X-60668Y69246D01*
X-60649Y69468D01*
X-60625Y69688D01*
X-60595Y69909D01*
X-60560Y70128D01*
X-60519Y70347D01*
X-60473Y70564D01*
X-60422Y70780D01*
X-60365Y70995D01*
X-60303Y71209D01*
X-60236Y71420D01*
X-60164Y71631D01*
X-60086Y71839D01*
X-60004Y72045D01*
X-59916Y72249D01*
X-59824Y72452D01*
X-59726Y72651D01*
X-59624Y72848D01*
X-59517Y73043D01*
X-59405Y73235D01*
X-59288Y73424D01*
X-59167Y73611D01*
X-59041Y73794D01*
X-58911Y73974D01*
X-58776Y74151D01*
X-58638Y74324D01*
X-58495Y74494D01*
X-58347Y74661D01*
X-58196Y74824D01*
X-58041Y74983D01*
X-57882Y75138D01*
X-57719Y75289D01*
X-57552Y75437D01*
X-57382Y75580D01*
X-57209Y75718D01*
X-57032Y75853D01*
X-56852Y75983D01*
X-56669Y76109D01*
X-56482Y76230D01*
X-56293Y76347D01*
X-56101Y76459D01*
X-55906Y76566D01*
X-55709Y76668D01*
X-55510Y76766D01*
X-55307Y76858D01*
X-55103Y76946D01*
X-54897Y77028D01*
X-54689Y77106D01*
X-54478Y77178D01*
X-54267Y77245D01*
X-54053Y77307D01*
X-53838Y77364D01*
X-53622Y77415D01*
X-53405Y77461D01*
X-53186Y77502D01*
X-52967Y77537D01*
X-52746Y77567D01*
X-52526Y77591D01*
X-52304Y77610D01*
X-52082Y77624D01*
X-51860Y77632D01*
X-51638Y77635D01*
X-51416Y77632D01*
X-51194Y77624D01*
X-50972Y77610D01*
X-50750Y77591D01*
X-50530Y77567D01*
X-50309Y77537D01*
X-50090Y77502D01*
X-49871Y77461D01*
X-49654Y77415D01*
X-49438Y77364D01*
X-49223Y77307D01*
X-49009Y77245D01*
X-48798Y77178D01*
X-48587Y77106D01*
X-48379Y77028D01*
X-48173Y76946D01*
X-47969Y76858D01*
X-47766Y76766D01*
X-47567Y76668D01*
X-47370Y76566D01*
X-47175Y76459D01*
X-46983Y76347D01*
X-46794Y76230D01*
X-46607Y76109D01*
X-46424Y75983D01*
X-46244Y75853D01*
X-46067Y75718D01*
X-45894Y75580D01*
X-45724Y75437D01*
X-45557Y75289D01*
X-45394Y75138D01*
X-45235Y74983D01*
X-45080Y74824D01*
X-44929Y74661D01*
X-44781Y74494D01*
X-44638Y74324D01*
X-44500Y74151D01*
X-44365Y73974D01*
X-44235Y73794D01*
X-44109Y73611D01*
X-43988Y73424D01*
X-43871Y73235D01*
X-43759Y73043D01*
X-43652Y72848D01*
X-43550Y72651D01*
X-43452Y72452D01*
X-43360Y72249D01*
X-43272Y72045D01*
X-43190Y71839D01*
X-43112Y71631D01*
X-43040Y71420D01*
X-42973Y71209D01*
X-42911Y70995D01*
X-42854Y70780D01*
X-42803Y70564D01*
X-42757Y70347D01*
X-42716Y70128D01*
X-42681Y69909D01*
X-42651Y69688D01*
X-42627Y69468D01*
X-42608Y69246D01*
X-42594Y69024D01*
X-42586Y68802D01*
X-42583Y68580D01*
X-42586Y68358D01*
X-42594Y68136D01*
X-42608Y67914D01*
X-42627Y67692D01*
X-42651Y67472D01*
X-42681Y67251D01*
X-42716Y67032D01*
X-42757Y66813D01*
X-42803Y66596D01*
X-42854Y66380D01*
X-42911Y66165D01*
X-42973Y65951D01*
X-43040Y65740D01*
X-43112Y65529D01*
X-43190Y65321D01*
X-43272Y65115D01*
X-43360Y64911D01*
X-43452Y64708D01*
X-43550Y64509D01*
X-43652Y64312D01*
X-43759Y64117D01*
X-43871Y63925D01*
X-43988Y63736D01*
X-44109Y63549D01*
X-44235Y63366D01*
X-44365Y63186D01*
X-44500Y63009D01*
X-44638Y62836D01*
X-44781Y62666D01*
X-44929Y62499D01*
X-45080Y62336D01*
X-45235Y62177D01*
X-45394Y62022D01*
X-45557Y61871D01*
X-45724Y61723D01*
X-45894Y61580D01*
X-46067Y61442D01*
X-46244Y61307D01*
X-46424Y61177D01*
X-46607Y61051D01*
X-46794Y60930D01*
X-46983Y60813D01*
X-47175Y60701D01*
X-47370Y60594D01*
X-47567Y60492D01*
X-47766Y60394D01*
X-47969Y60302D01*
X-48173Y60214D01*
X-48379Y60132D01*
X-48587Y60054D01*
X-48798Y59982D01*
X-49009Y59915D01*
X-49223Y59853D01*
X-49438Y59796D01*
X-49654Y59745D01*
X-49871Y59699D01*
X-50090Y59658D01*
X-50309Y59623D01*
X-50530Y59593D01*
X-50750Y59569D01*
X-50972Y59550D01*
X-51194Y59536D01*
X-51416Y59528D01*
X-51638Y59525D01*
X-51860Y59528D01*
X-52082Y59536D01*
X-52304Y59550D01*
X-52526Y59569D01*
X-52746Y59593D01*
X-52967Y59623D01*
X-53186Y59658D01*
X-53405Y59699D01*
X-53622Y59745D01*
X-53838Y59796D01*
X-54053Y59853D01*
X-54267Y59915D01*
X-54478Y59982D01*
X-54689Y60054D01*
X-54897Y60132D01*
X-55103Y60214D01*
X-55307Y60302D01*
X-55510Y60394D01*
X-55709Y60492D01*
X-55906Y60594D01*
X-56101Y60701D01*
X-56293Y60813D01*
X-56482Y60930D01*
X-56669Y61051D01*
X-56852Y61177D01*
X-57032Y61307D01*
X-57209Y61442D01*
X-57382Y61580D01*
X-57552Y61723D01*
X-57719Y61871D01*
X-57882Y62022D01*
X-58041Y62177D01*
X-58196Y62336D01*
X-58347Y62499D01*
X-58495Y62666D01*
X-58638Y62836D01*
X-58776Y63009D01*
X-58911Y63186D01*
X-59041Y63366D01*
X-59167Y63549D01*
X-59288Y63736D01*
X-59405Y63925D01*
X-59517Y64117D01*
X-59624Y64312D01*
X-59726Y64509D01*
X-59824Y64708D01*
X-59916Y64911D01*
X-60004Y65115D01*
X-60086Y65321D01*
X-60164Y65529D01*
X-60236Y65740D01*
X-60303Y65951D01*
X-60365Y66165D01*
X-60422Y66380D01*
X-60473Y66596D01*
X-60519Y66813D01*
X-60560Y67032D01*
X-60595Y67251D01*
X-60625Y67472D01*
X-60649Y67692D01*
X-60668Y67914D01*
X-60682Y68136D01*
X-60690Y68358D01*
X-60693Y68580D01*
D21*
X-51638Y68580D03*
M02*
