G04 EAGLE Gerber RS-274X export*
G75*
%MOMM*%
%FSLAX34Y34*%
%LPD*%
%INSolderpaste Bottom*%
%IPPOS*%
%AMOC8*
5,1,8,0,0,1.08239X$1,22.5*%
G01*
%ADD10R,1.400000X1.800000*%
%ADD11R,1.900000X1.400000*%
%ADD12R,1.500000X0.800000*%


D10*
X387540Y91410D03*
X387540Y148410D03*
D11*
X519040Y164410D03*
X529040Y32910D03*
D12*
X490540Y79510D03*
X486540Y90510D03*
X490540Y101510D03*
X492540Y112510D03*
X490540Y123510D03*
X492540Y134510D03*
X490540Y145510D03*
X490540Y156510D03*
D10*
X1002220Y91410D03*
X1002220Y148410D03*
D11*
X1133720Y164410D03*
X1143720Y32910D03*
D12*
X1105220Y79510D03*
X1101220Y90510D03*
X1105220Y101510D03*
X1107220Y112510D03*
X1105220Y123510D03*
X1107220Y134510D03*
X1105220Y145510D03*
X1105220Y156510D03*
D10*
X387540Y325090D03*
X387540Y382090D03*
D11*
X519040Y398090D03*
X529040Y266590D03*
D12*
X490540Y313190D03*
X486540Y324190D03*
X490540Y335190D03*
X492540Y346190D03*
X490540Y357190D03*
X492540Y368190D03*
X490540Y379190D03*
X490540Y390190D03*
D10*
X1002220Y325090D03*
X1002220Y382090D03*
D11*
X1133720Y398090D03*
X1143720Y266590D03*
D12*
X1105220Y313190D03*
X1101220Y324190D03*
X1105220Y335190D03*
X1107220Y346190D03*
X1105220Y357190D03*
X1107220Y368190D03*
X1105220Y379190D03*
X1105220Y390190D03*
D10*
X387540Y558770D03*
X387540Y615770D03*
D11*
X519040Y631770D03*
X529040Y500270D03*
D12*
X490540Y546870D03*
X486540Y557870D03*
X490540Y568870D03*
X492540Y579870D03*
X490540Y590870D03*
X492540Y601870D03*
X490540Y612870D03*
X490540Y623870D03*
D10*
X1002220Y558770D03*
X1002220Y615770D03*
D11*
X1133720Y631770D03*
X1143720Y500270D03*
D12*
X1105220Y546870D03*
X1101220Y557870D03*
X1105220Y568870D03*
X1107220Y579870D03*
X1105220Y590870D03*
X1107220Y601870D03*
X1105220Y612870D03*
X1105220Y623870D03*
D10*
X387540Y792450D03*
X387540Y849450D03*
D11*
X519040Y865450D03*
X529040Y733950D03*
D12*
X490540Y780550D03*
X486540Y791550D03*
X490540Y802550D03*
X492540Y813550D03*
X490540Y824550D03*
X492540Y835550D03*
X490540Y846550D03*
X490540Y857550D03*
D10*
X1002220Y792450D03*
X1002220Y849450D03*
D11*
X1133720Y865450D03*
X1143720Y733950D03*
D12*
X1105220Y780550D03*
X1101220Y791550D03*
X1105220Y802550D03*
X1107220Y813550D03*
X1105220Y824550D03*
X1107220Y835550D03*
X1105220Y846550D03*
X1105220Y857550D03*
M02*
