M48
;GenerationSoftware,Autodesk,EAGLE,9.6.2*%
;CreationDate,2021-02-03T16:23:18Z*%
FMAT,2
ICI,OFF
METRIC,TZ,000.000
T6C0.305
T5C0.400
T4C0.508
T3C0.650
T2C1.016
T1C3.048
%
G90
M71
T1
X178816Y96012
X178816Y20320
X55880Y72644
X125476Y96012
X2540Y2540
X2540Y20320
X55880Y20320
X55880Y2540
X64008Y96012
X64008Y72644
X64008Y2540
X64008Y20320
X117348Y20320
X117348Y2540
X64008Y90424
X117348Y90424
X125476Y2540
X125476Y20320
X178816Y2540
X117348Y72644
X64008Y113792
X2540Y25908
X2540Y43688
X55880Y43688
X55880Y25908
X117348Y113792
X125476Y72644
X64008Y25908
X64008Y43688
X117348Y43688
X117348Y25908
X125476Y90424
X178816Y90424
X125476Y25908
X125476Y43688
X178816Y43688
X178816Y25908
X178816Y72644
X117348Y96012
X2540Y49276
X2540Y67056
X55880Y67056
X55880Y49276
X125476Y113792
X2540Y96012
X64008Y49276
X64008Y67056
X117348Y67056
X117348Y49276
X2540Y113792
X55880Y113792
X125476Y49276
X125476Y67056
X178816Y67056
X178816Y49276
X55880Y96012
X178816Y113792
X2540Y72644
X2540Y90424
X55880Y90424
T2
X88138Y71374
X85598Y71374
X83058Y71374
X80518Y71374
X77978Y71374
X75438Y71374
X175006Y91694
X172466Y91694
X169926Y91694
X167386Y91694
X164846Y91694
X162306Y91694
X159766Y91694
X157226Y91694
X154686Y91694
X152146Y91694
X149606Y91694
X147066Y91694
X175006Y71374
X172466Y71374
X169926Y71374
X167386Y71374
X164846Y71374
X162306Y71374
X159766Y71374
X157226Y71374
X154686Y71374
X152146Y71374
X149606Y71374
X147066Y71374
X172466Y21590
X144526Y71374
X141986Y71374
X139446Y71374
X136906Y71374
X52070Y21590
X49530Y21590
X46990Y21590
X44450Y21590
X41910Y21590
X39370Y21590
X36830Y21590
X34290Y21590
X31750Y21590
X29210Y21590
X26670Y21590
X24130Y21590
X52070Y1270
X49530Y1270
X46990Y1270
X44450Y1270
X41910Y1270
X39370Y1270
X36830Y1270
X34290Y1270
X31750Y1270
X29210Y1270
X26670Y1270
X24130Y1270
X21590Y1270
X19050Y1270
X16510Y1270
X13970Y1270
X52070Y115062
X49530Y115062
X46990Y115062
X44450Y115062
X41910Y115062
X39370Y115062
X36830Y115062
X34290Y115062
X31750Y115062
X29210Y115062
X26670Y115062
X24130Y115062
X52070Y94742
X49530Y94742
X113538Y21590
X110998Y21590
X108458Y21590
X105918Y21590
X103378Y21590
X100838Y21590
X98298Y21590
X95758Y21590
X93218Y21590
X90678Y21590
X88138Y21590
X85598Y21590
X113538Y1270
X110998Y1270
X108458Y1270
X105918Y1270
X103378Y1270
X100838Y1270
X98298Y1270
X95758Y1270
X93218Y1270
X90678Y1270
X88138Y1270
X85598Y1270
X83058Y1270
X80518Y1270
X77978Y1270
X75438Y1270
X46990Y94742
X44450Y94742
X41910Y94742
X39370Y94742
X36830Y94742
X34290Y94742
X31750Y94742
X29210Y94742
X26670Y94742
X24130Y94742
X21590Y94742
X19050Y94742
X16510Y94742
X13970Y94742
X175006Y21590
X113538Y115062
X169926Y21590
X167386Y21590
X164846Y21590
X162306Y21590
X159766Y21590
X157226Y21590
X154686Y21590
X152146Y21590
X149606Y21590
X147066Y21590
X175006Y1270
X172466Y1270
X169926Y1270
X167386Y1270
X164846Y1270
X162306Y1270
X159766Y1270
X157226Y1270
X154686Y1270
X152146Y1270
X149606Y1270
X147066Y1270
X144526Y1270
X141986Y1270
X139446Y1270
X136906Y1270
X110998Y115062
X108458Y115062
X105918Y115062
X103378Y115062
X100838Y115062
X98298Y115062
X95758Y115062
X93218Y115062
X90678Y115062
X88138Y115062
X85598Y115062
X113538Y94742
X110998Y94742
X108458Y94742
X52070Y44958
X49530Y44958
X46990Y44958
X44450Y44958
X41910Y44958
X39370Y44958
X36830Y44958
X34290Y44958
X31750Y44958
X29210Y44958
X26670Y44958
X24130Y44958
X52070Y24638
X49530Y24638
X46990Y24638
X44450Y24638
X41910Y24638
X39370Y24638
X36830Y24638
X34290Y24638
X31750Y24638
X29210Y24638
X26670Y24638
X24130Y24638
X21590Y24638
X19050Y24638
X16510Y24638
X13970Y24638
X105918Y94742
X103378Y94742
X100838Y94742
X49530Y71374
X98298Y94742
X95758Y94742
X93218Y94742
X90678Y94742
X88138Y94742
X85598Y94742
X83058Y94742
X80518Y94742
X77978Y94742
X75438Y94742
X113538Y44958
X110998Y44958
X108458Y44958
X105918Y44958
X103378Y44958
X100838Y44958
X98298Y44958
X95758Y44958
X93218Y44958
X90678Y44958
X88138Y44958
X85598Y44958
X113538Y24638
X110998Y24638
X108458Y24638
X105918Y24638
X103378Y24638
X100838Y24638
X98298Y24638
X95758Y24638
X93218Y24638
X90678Y24638
X88138Y24638
X85598Y24638
X83058Y24638
X80518Y24638
X77978Y24638
X75438Y24638
X175006Y115062
X172466Y115062
X169926Y115062
X167386Y115062
X164846Y115062
X162306Y115062
X159766Y115062
X157226Y115062
X154686Y115062
X152146Y115062
X149606Y115062
X147066Y115062
X175006Y94742
X172466Y94742
X175006Y44958
X172466Y44958
X169926Y44958
X167386Y44958
X164846Y44958
X162306Y44958
X159766Y44958
X157226Y44958
X154686Y44958
X152146Y44958
X149606Y44958
X147066Y44958
X175006Y24638
X172466Y24638
X169926Y24638
X167386Y24638
X164846Y24638
X162306Y24638
X159766Y24638
X157226Y24638
X154686Y24638
X152146Y24638
X149606Y24638
X147066Y24638
X144526Y24638
X141986Y24638
X139446Y24638
X136906Y24638
X169926Y94742
X167386Y94742
X164846Y94742
X162306Y94742
X159766Y94742
X157226Y94742
X154686Y94742
X152146Y94742
X149606Y94742
X147066Y94742
X144526Y94742
X141986Y94742
X139446Y94742
X136906Y94742
X52070Y68326
X49530Y68326
X46990Y68326
X44450Y68326
X41910Y68326
X39370Y68326
X36830Y68326
X34290Y68326
X31750Y68326
X29210Y68326
X26670Y68326
X24130Y68326
X52070Y48006
X49530Y48006
X46990Y48006
X44450Y48006
X41910Y48006
X39370Y48006
X36830Y48006
X34290Y48006
X31750Y48006
X29210Y48006
X26670Y48006
X24130Y48006
X21590Y48006
X19050Y48006
X16510Y48006
X13970Y48006
X113538Y68326
X110998Y68326
X108458Y68326
X105918Y68326
X103378Y68326
X100838Y68326
X98298Y68326
X95758Y68326
X93218Y68326
X90678Y68326
X88138Y68326
X85598Y68326
X113538Y48006
X110998Y48006
X108458Y48006
X105918Y48006
X103378Y48006
X100838Y48006
X98298Y48006
X95758Y48006
X93218Y48006
X90678Y48006
X88138Y48006
X85598Y48006
X83058Y48006
X80518Y48006
X77978Y48006
X75438Y48006
X175006Y68326
X172466Y68326
X169926Y68326
X167386Y68326
X164846Y68326
X162306Y68326
X159766Y68326
X157226Y68326
X154686Y68326
X152146Y68326
X149606Y68326
X147066Y68326
X175006Y48006
X172466Y48006
X169926Y48006
X167386Y48006
X164846Y48006
X162306Y48006
X159766Y48006
X157226Y48006
X154686Y48006
X152146Y48006
X149606Y48006
X147066Y48006
X144526Y48006
X141986Y48006
X139446Y48006
X136906Y48006
X52070Y91694
X49530Y91694
X46990Y91694
X44450Y91694
X41910Y91694
X39370Y91694
X36830Y91694
X34290Y91694
X31750Y91694
X29210Y91694
X26670Y91694
X24130Y91694
X52070Y71374
X46990Y71374
X44450Y71374
X41910Y71374
X39370Y71374
X36830Y71374
X34290Y71374
X31750Y71374
X29210Y71374
X26670Y71374
X24130Y71374
X21590Y71374
X19050Y71374
X16510Y71374
X13970Y71374
X113538Y91694
X110998Y91694
X108458Y91694
X105918Y91694
X103378Y91694
X100838Y91694
X98298Y91694
X95758Y91694
X93218Y91694
X90678Y91694
X88138Y91694
X85598Y91694
X113538Y71374
X110998Y71374
X108458Y71374
X105918Y71374
X103378Y71374
X100838Y71374
X98298Y71374
X95758Y71374
X93218Y71374
X90678Y71374
T3
X4905Y14320
X4905Y8540
X66373Y14320
X66373Y8540
X127841Y14320
X127841Y8540
X4905Y37688
X4905Y31908
X66373Y37688
X66373Y31908
X127841Y37688
X127841Y31908
X4905Y61056
X4905Y55276
X66373Y61056
X66373Y55276
X127841Y61056
X127841Y55276
X4905Y84424
X4905Y78644
X66373Y84424
X66373Y78644
X127841Y84424
X127841Y78644
X4905Y107792
X4905Y102012
X66373Y107792
X66373Y102012
X127841Y107792
X127841Y102012
T4
X151892Y59817
X28956Y83185
X28956Y84455
X28956Y85725
X28956Y11811
X28956Y13081
X28956Y14351
X28956Y15621
X28956Y10541
X27686Y11811
X27686Y13081
X27686Y14351
X27686Y15621
X27686Y10541
X28956Y80645
X27686Y81915
X27686Y83185
X27686Y85725
X90424Y11811
X90424Y13081
X90424Y14351
X90424Y15621
X90424Y10541
X89154Y11811
X89154Y13081
X89154Y14351
X89154Y15621
X89154Y10541
X27686Y80645
X151892Y81915
X151892Y83185
X151892Y84455
X28956Y38989
X151892Y11811
X151892Y13081
X151892Y14351
X151892Y15621
X151892Y10541
X150622Y11811
X150622Y13081
X150622Y14351
X150622Y15621
X150622Y10541
X151892Y85725
X151892Y80645
X150622Y81915
X150622Y83185
X28956Y35179
X28956Y36449
X28956Y37719
X28956Y33909
X27686Y35179
X27686Y36449
X27686Y37719
X27686Y38989
X27686Y33909
X150622Y84455
X150622Y85725
X150622Y80645
X151892Y105283
X90424Y35179
X90424Y36449
X90424Y37719
X90424Y38989
X90424Y33909
X89154Y35179
X89154Y36449
X89154Y37719
X89154Y38989
X89154Y33909
X151892Y106553
X151892Y107823
X151892Y109093
X151892Y104013
X151892Y35179
X151892Y36449
X151892Y37719
X151892Y38989
X151892Y33909
X150622Y35179
X150622Y36449
X150622Y37719
X150622Y38989
X150622Y33909
X150622Y105283
X150622Y106553
X150622Y107823
X150622Y109093
X150622Y104013
X151892Y58547
X27686Y84455
X151892Y61087
X151892Y62357
X151892Y57277
X150622Y58547
X150622Y59817
X150622Y61087
X150622Y62357
X150622Y57277
X28956Y58547
X28956Y59817
X28956Y61087
X28956Y62357
X28956Y57277
X27686Y58547
X27686Y59817
X27686Y61087
X27686Y62357
X27686Y57277
X28956Y105283
X28956Y106553
X28956Y107823
X28956Y109093
X28956Y104013
X27686Y105283
X27686Y106553
X27686Y107823
X27686Y109093
X27686Y104013
X90424Y81915
X90424Y83185
X90424Y84455
X90424Y85725
X90424Y80645
X89154Y81915
X89154Y83185
X89154Y84455
X89154Y85725
X89154Y80645
X90424Y58547
X90424Y59817
X90424Y61087
X90424Y62357
X90424Y57277
X89154Y58547
X89154Y59817
X89154Y61087
X89154Y62357
X89154Y57277
X90424Y105283
X90424Y106553
X90424Y107823
X90424Y109093
X90424Y104013
X89154Y105283
X89154Y106553
X89154Y107823
X89154Y109093
X89154Y104013
X28956Y81915
T5
X1255Y7112
X5435Y7112
X5435Y15748
X62723Y15748
X62723Y7112
X66903Y7112
X66903Y15748
X124191Y15748
X124191Y7112
X128371Y7112
X128371Y15748
X1255Y39116
X1255Y30480
X5435Y30480
X5435Y39116
X62723Y39116
X62723Y30480
X66903Y30480
X66903Y39116
X124191Y39116
X124191Y30480
X128371Y30480
X128371Y39116
X1255Y62484
X1255Y53848
X5435Y53848
X5435Y62484
X128371Y62484
X124191Y62484
X1255Y15748
X124191Y53848
X128371Y53848
X62723Y85852
X62723Y77216
X66903Y77216
X66903Y85852
X66903Y100584
X124191Y85852
X124191Y77216
X128371Y77216
X128371Y85852
X66903Y62484
X66903Y109220
X1255Y77216
X62723Y62484
X62723Y53848
X1255Y109220
X1255Y100584
X5435Y100584
X5435Y109220
X124191Y109220
X124191Y100584
X128371Y100584
X128371Y109220
X66903Y53848
X5435Y77216
X5435Y85852
X1255Y85852
X62723Y109220
X62723Y100584
T6
X30074Y75540
X37186Y75667
X33071Y88722
X57150Y77622
X41910Y80264
X50648Y83744
X50724Y82880
X22835Y74295
X9898Y84366
X36906Y76606
X39319Y76733
X15342Y74422
X4826Y79629
X4826Y83439
X21717Y85598
X17018Y82677
X22733Y89814
X25925Y86208
X37236Y82525
X10795Y77813
X44958Y82601
X43358Y82118
X13335Y79883
X44907Y81356
X12954Y80670
X45336Y80851
X54762Y86919
X54686Y77724
X53340Y85979
X53315Y77843
X46431Y87554
X47168Y87503
X8001Y89662
X43180Y90297
X40640Y89611
X8890Y89154
X41148Y77673
X41910Y78181
X42926Y78156
X45720Y73025
X10033Y82766
X40767Y79096
X42425Y84024
X43078Y83490
X51384Y80848
X50420Y80772
X43389Y85464
X42774Y84836
X30480Y76327
X35179Y85979
X96393Y80264
X86487Y87757
X68453Y78359
X69469Y85344
X67945Y71247
X69723Y71247
X72136Y72136
X80899Y76860
X73406Y76962
X73914Y87757
X76759Y86919
X76759Y85623
X83388Y82753
X85725Y84074
X94463Y80112
X91618Y85547
X73990Y78842
X112217Y79883
X111887Y75082
X92050Y77191
X85598Y75565
X63957Y84633
X63551Y78613
X68783Y83109
X67691Y87452
X101752Y85420
X105359Y73279
X91542Y75540
X98654Y75667
X94539Y88722
X118618Y77622
X103378Y80264
X112116Y83744
X112192Y82880
X84303Y74295
X71366Y84366
X98374Y76606
X100787Y76733
X76810Y74422
X66294Y79629
X66294Y83439
X83185Y85598
X78486Y82677
X84201Y89814
X87393Y86208
X98704Y82525
X72263Y77813
X106426Y82601
X104826Y82118
X74803Y79883
X106375Y81356
X74422Y80670
X106804Y80851
X116230Y86919
X116154Y77724
X114808Y85979
X114783Y77843
X107899Y87554
X108636Y87503
X69469Y89662
X104648Y90297
X102108Y89611
X70358Y89154
X102616Y77673
X103378Y78181
X104394Y78156
X107188Y73025
X71501Y82766
X102235Y79096
X103893Y84024
X104546Y83490
X112852Y80848
X111888Y80772
X104857Y85464
X104242Y84836
X91948Y76327
X96647Y85979
X157861Y80264
X147955Y87757
X129921Y78359
X130937Y85344
X129413Y71247
X131191Y71247
X133604Y72136
X142367Y76860
X134874Y76962
X135382Y87757
X138227Y86919
X138227Y85623
X144856Y82753
X147193Y84074
X155931Y80112
X153086Y85547
X135458Y78842
X173685Y79883
X173355Y75082
X153518Y77191
X147066Y75565
X125425Y84633
X125019Y78613
X130251Y83109
X129159Y87452
X163220Y85420
X166827Y73279
X153010Y75540
X160122Y75667
X156007Y88722
X180086Y77622
X164846Y80264
X173584Y83744
X173660Y82880
X145771Y74295
X132834Y84366
X159842Y76606
X162255Y76733
X138278Y74422
X127762Y79629
X127762Y83439
X144653Y85598
X139954Y82677
X145669Y89814
X148861Y86208
X160172Y82525
X133731Y77813
X167894Y82601
X166294Y82118
X136271Y79883
X167843Y81356
X135890Y80670
X168272Y80851
X177698Y86919
X177622Y77724
X176276Y85979
X176251Y77843
X169367Y87554
X170104Y87503
X130937Y89662
X166116Y90297
X163576Y89611
X131826Y89154
X164084Y77673
X164846Y78181
X165862Y78156
X168656Y73025
X132969Y82766
X163703Y79096
X165361Y84024
X166014Y83490
X174320Y80848
X173356Y80772
X166325Y85464
X165710Y84836
X153416Y76327
X158115Y85979
X34925Y103632
X25019Y111125
X6985Y101727
X8001Y108712
X6477Y94615
X8255Y94615
X10668Y95504
X19431Y100228
X11938Y100330
X12446Y111125
X15291Y110287
X15291Y108991
X21920Y106121
X8001Y38608
X32995Y103480
X30150Y108915
X12522Y102210
X50749Y103251
X50419Y98450
X30582Y100559
X24130Y98933
X2489Y108001
X2083Y101981
X7315Y106477
X6223Y110820
X40284Y108788
X43891Y96647
X30074Y98908
X37186Y99035
X33071Y112090
X57150Y100990
X41910Y103632
X50648Y107112
X50724Y106248
X22835Y97663
X9898Y107734
X36906Y99974
X39319Y100101
X15342Y97790
X4826Y102997
X4826Y106807
X21717Y108966
X17018Y106045
X22733Y113182
X25925Y109576
X37236Y105893
X10795Y101181
X44958Y105969
X43358Y105486
X13335Y103251
X44907Y104724
X12954Y104038
X45336Y104219
X54762Y110287
X54686Y101092
X53340Y109347
X53315Y101211
X46431Y110922
X47168Y110871
X8001Y113030
X43180Y113665
X40640Y112979
X8890Y112522
X41148Y101041
X41910Y101549
X42926Y101524
X45720Y96393
X10033Y106134
X40767Y102464
X42425Y107392
X43078Y106858
X51384Y104216
X50420Y104140
X43389Y108832
X42774Y108204
X30480Y99695
X35179Y109347
X96393Y103632
X86487Y111125
X68453Y101727
X69469Y108712
X67945Y94615
X69723Y94615
X72136Y95504
X80899Y100228
X73406Y100330
X73914Y111125
X76759Y110287
X76759Y108991
X83388Y106121
X85725Y107442
X94463Y103480
X91618Y108915
X73990Y102210
X112217Y103251
X111887Y98450
X92050Y100559
X85598Y98933
X63957Y108001
X63551Y101981
X68783Y106477
X67691Y110820
X101752Y108788
X105359Y96647
X91542Y98908
X98654Y99035
X94539Y112090
X118618Y100990
X103378Y103632
X112116Y107112
X112192Y106248
X84303Y97663
X71366Y107734
X98374Y99974
X100787Y100101
X76810Y97790
X66294Y102997
X66294Y106807
X83185Y108966
X78486Y106045
X84201Y113182
X87393Y109576
X98704Y105893
X72263Y101181
X106426Y105969
X104826Y105486
X74803Y103251
X106375Y104724
X74422Y104038
X106804Y104219
X116230Y110287
X116154Y101092
X114808Y109347
X114783Y101211
X107899Y110922
X108636Y110871
X69469Y113030
X104648Y113665
X102108Y112979
X70358Y112522
X102616Y101041
X103378Y101549
X104394Y101524
X107188Y96393
X71501Y106134
X102235Y102464
X103893Y107392
X104546Y106858
X112852Y104216
X111888Y104140
X104857Y108832
X104242Y108204
X91948Y99695
X96647Y109347
X157861Y103632
X147955Y111125
X129921Y101727
X130937Y108712
X129413Y94615
X131191Y94615
X133604Y95504
X142367Y100228
X134874Y100330
X135382Y111125
X138227Y110287
X138227Y108991
X144856Y106121
X147193Y107442
X155931Y103480
X153086Y108915
X135458Y102210
X173685Y103251
X173355Y98450
X153518Y100559
X147066Y98933
X125425Y108001
X125019Y101981
X130251Y106477
X129159Y110820
X163220Y108788
X166827Y96647
X153010Y98908
X160122Y99035
X156007Y112090
X180086Y100990
X164846Y103632
X173584Y107112
X173660Y106248
X145771Y97663
X132834Y107734
X159842Y99974
X162255Y100101
X138278Y97790
X127762Y102997
X127762Y106807
X144653Y108966
X139954Y106045
X145669Y113182
X148861Y109576
X160172Y105893
X133731Y101181
X167894Y105969
X166294Y105486
X136271Y103251
X167843Y104724
X135890Y104038
X168272Y104219
X177698Y110287
X177622Y101092
X176276Y109347
X176251Y101211
X169367Y110922
X170104Y110871
X130937Y113030
X166116Y113665
X163576Y112979
X131826Y112522
X164084Y101041
X164846Y101549
X165862Y101524
X168656Y96393
X132969Y106134
X163703Y102464
X165361Y107392
X166014Y106858
X174320Y104216
X173356Y104140
X166325Y108832
X165710Y108204
X153416Y99695
X158115Y109347
X34925Y10160
X25019Y17653
X6985Y8255
X8001Y15240
X6477Y1143
X8255Y1143
X10668Y2032
X19431Y6756
X11938Y6858
X12446Y17653
X15291Y16815
X15291Y15519
X21920Y12649
X24257Y13970
X32995Y10008
X30150Y15443
X24257Y107442
X12522Y8738
X50749Y9779
X50419Y4978
X30582Y7087
X24130Y5461
X2489Y14529
X2083Y8509
X7315Y13005
X6223Y17348
X40284Y15316
X43891Y3175
X30074Y5436
X37186Y5563
X33071Y18618
X57150Y7518
X41910Y10160
X50648Y13640
X50724Y12776
X22835Y4191
X9898Y14262
X36906Y6502
X39319Y6629
X15342Y4318
X4826Y9525
X4826Y13335
X21717Y15494
X17018Y12573
X22733Y19710
X25925Y16104
X37236Y12421
X10795Y7709
X44958Y12497
X43358Y12014
X13335Y9779
X44907Y11252
X12954Y10566
X45336Y10747
X54762Y16815
X54686Y7620
X53340Y15875
X53315Y7739
X46431Y17450
X47168Y17399
X8001Y19558
X43180Y20193
X40640Y19507
X8890Y19050
X41148Y7569
X41910Y8077
X42926Y8052
X45720Y2921
X10033Y12662
X40767Y8992
X42425Y13920
X43078Y13386
X51384Y10744
X50420Y10668
X43389Y15360
X42774Y14732
X30480Y6223
X35179Y15875
X96393Y10160
X86487Y17653
X68453Y8255
X69469Y15240
X67945Y1143
X69723Y1143
X72136Y2032
X80899Y6756
X73406Y6858
X73914Y17653
X76759Y16815
X76759Y15519
X83388Y12649
X85725Y13970
X94463Y10008
X91618Y15443
X73990Y8738
X112217Y9779
X111887Y4978
X92050Y7087
X85598Y5461
X63957Y14529
X63551Y8509
X68783Y13005
X67691Y17348
X101752Y15316
X105359Y3175
X91542Y5436
X98654Y5563
X94539Y18618
X118618Y7518
X103378Y10160
X112116Y13640
X112192Y12776
X84303Y4191
X71366Y14262
X98374Y6502
X100787Y6629
X76810Y4318
X66294Y9525
X66294Y13335
X83185Y15494
X78486Y12573
X84201Y19710
X87393Y16104
X98704Y12421
X72263Y7709
X106426Y12497
X104826Y12014
X74803Y9779
X106375Y11252
X74422Y10566
X106804Y10747
X116230Y16815
X116154Y7620
X114808Y15875
X114783Y7739
X107899Y17450
X108636Y17399
X69469Y19558
X104648Y20193
X102108Y19507
X70358Y19050
X102616Y7569
X103378Y8077
X104394Y8052
X107188Y2921
X71501Y12662
X102235Y8992
X103893Y13920
X104546Y13386
X112852Y10744
X111888Y10668
X104857Y15360
X104242Y14732
X91948Y6223
X96647Y15875
X157861Y10160
X147955Y17653
X129921Y8255
X130937Y15240
X129413Y1143
X131191Y1143
X133604Y2032
X142367Y6756
X134874Y6858
X135382Y17653
X138227Y16815
X138227Y15519
X144856Y12649
X147193Y13970
X155931Y10008
X153086Y15443
X135458Y8738
X173685Y9779
X173355Y4978
X153518Y7087
X147066Y5461
X125425Y14529
X125019Y8509
X130251Y13005
X129159Y17348
X163220Y15316
X166827Y3175
X153010Y5436
X160122Y5563
X156007Y18618
X180086Y7518
X164846Y10160
X173584Y13640
X173660Y12776
X145771Y4191
X132834Y14262
X159842Y6502
X162255Y6629
X138278Y4318
X127762Y9525
X127762Y13335
X144653Y15494
X139954Y12573
X145669Y19710
X148861Y16104
X160172Y12421
X133731Y7709
X167894Y12497
X166294Y12014
X136271Y9779
X167843Y11252
X135890Y10566
X168272Y10747
X177698Y16815
X177622Y7620
X176276Y15875
X176251Y7739
X169367Y17450
X170104Y17399
X130937Y19558
X166116Y20193
X163576Y19507
X131826Y19050
X164084Y7569
X164846Y8077
X165862Y8052
X168656Y2921
X132969Y12662
X163703Y8992
X165361Y13920
X166014Y13386
X174320Y10744
X173356Y10668
X166325Y15360
X165710Y14732
X153416Y6223
X158115Y15875
X34925Y33528
X25019Y41021
X6985Y31623
X6477Y24511
X8255Y24511
X10668Y25400
X19431Y30124
X11938Y30226
X12446Y41021
X15291Y40183
X15291Y38887
X21920Y36017
X24257Y37338
X32995Y33376
X30150Y38811
X12522Y32106
X50749Y33147
X50419Y28346
X30582Y30455
X24130Y28829
X2489Y37897
X2083Y31877
X7315Y36373
X6223Y40716
X40284Y38684
X43891Y26543
X30074Y28804
X37186Y28931
X33071Y41986
X57150Y30886
X41910Y33528
X50648Y37008
X50724Y36144
X22835Y27559
X9898Y37630
X36906Y29870
X39319Y29997
X15342Y27686
X4826Y32893
X4826Y36703
X21717Y38862
X17018Y35941
X22733Y43078
X25925Y39472
X37236Y35789
X10795Y31077
X44958Y35865
X43358Y35382
X13335Y33147
X44907Y34620
X12954Y33934
X45336Y34115
X54762Y40183
X54686Y30988
X53340Y39243
X53315Y31107
X46431Y40818
X47168Y40767
X8001Y42926
X43180Y43561
X40640Y42875
X8890Y42418
X41148Y30937
X41910Y31445
X42926Y31420
X45720Y26289
X10033Y36030
X40767Y32360
X42425Y37288
X43078Y36754
X51384Y34112
X50420Y34036
X43389Y38728
X42774Y38100
X30480Y29591
X35179Y39243
X96393Y33528
X86487Y41021
X68453Y31623
X69469Y38608
X67945Y24511
X69723Y24511
X72136Y25400
X80899Y30124
X73406Y30226
X73914Y41021
X76759Y40183
X76759Y38887
X83388Y36017
X85725Y37338
X94463Y33376
X91618Y38811
X73990Y32106
X112217Y33147
X111887Y28346
X92050Y30455
X85598Y28829
X63957Y37897
X63551Y31877
X68783Y36373
X67691Y40716
X101752Y38684
X105359Y26543
X91542Y28804
X98654Y28931
X94539Y41986
X118618Y30886
X103378Y33528
X112116Y37008
X112192Y36144
X84303Y27559
X71366Y37630
X98374Y29870
X100787Y29997
X76810Y27686
X66294Y32893
X66294Y36703
X83185Y38862
X78486Y35941
X84201Y43078
X87393Y39472
X98704Y35789
X72263Y31077
X106426Y35865
X104826Y35382
X74803Y33147
X106375Y34620
X74422Y33934
X106804Y34115
X116230Y40183
X116154Y30988
X114808Y39243
X114783Y31107
X107899Y40818
X108636Y40767
X69469Y42926
X104648Y43561
X102108Y42875
X70358Y42418
X102616Y30937
X103378Y31445
X104394Y31420
X107188Y26289
X71501Y36030
X102235Y32360
X103893Y37288
X104546Y36754
X112852Y34112
X111888Y34036
X104857Y38728
X104242Y38100
X91948Y29591
X96647Y39243
X157861Y33528
X147955Y41021
X129921Y31623
X130937Y38608
X129413Y24511
X131191Y24511
X133604Y25400
X142367Y30124
X134874Y30226
X135382Y41021
X138227Y40183
X138227Y38887
X144856Y36017
X147193Y37338
X155931Y33376
X153086Y38811
X135458Y32106
X173685Y33147
X173355Y28346
X153518Y30455
X147066Y28829
X125425Y37897
X125019Y31877
X130251Y36373
X129159Y40716
X163220Y38684
X166827Y26543
X153010Y28804
X160122Y28931
X156007Y41986
X180086Y30886
X164846Y33528
X173584Y37008
X173660Y36144
X145771Y27559
X132834Y37630
X159842Y29870
X162255Y29997
X138278Y27686
X127762Y32893
X127762Y36703
X144653Y38862
X139954Y35941
X145669Y43078
X148861Y39472
X160172Y35789
X133731Y31077
X167894Y35865
X166294Y35382
X136271Y33147
X167843Y34620
X135890Y33934
X168272Y34115
X177698Y40183
X177622Y30988
X176276Y39243
X176251Y31107
X169367Y40818
X170104Y40767
X130937Y42926
X166116Y43561
X163576Y42875
X131826Y42418
X164084Y30937
X164846Y31445
X165862Y31420
X168656Y26289
X132969Y36030
X163703Y32360
X165361Y37288
X166014Y36754
X174320Y34112
X173356Y34036
X166325Y38728
X165710Y38100
X153416Y29591
X158115Y39243
X34925Y56896
X25019Y64389
X6985Y54991
X8001Y61976
X6477Y47879
X8255Y47879
X10668Y48768
X19431Y53492
X11938Y53594
X12446Y64389
X15291Y63551
X15291Y62255
X21920Y59385
X24257Y60706
X32995Y56744
X30150Y62179
X12522Y55474
X50749Y56515
X50419Y51714
X30582Y53823
X24130Y52197
X2489Y61265
X2083Y55245
X15291Y86919
X7315Y59741
X6223Y64084
X40284Y62052
X43891Y49911
X30074Y52172
X37186Y52299
X33071Y65354
X57150Y54254
X41910Y56896
X50648Y60376
X50724Y59512
X22835Y50927
X9898Y60998
X36906Y53238
X39319Y53365
X15342Y51054
X4826Y56261
X4826Y60071
X21717Y62230
X17018Y59309
X22733Y66446
X25925Y62840
X37236Y59157
X10795Y54445
X44958Y59233
X43358Y58750
X13335Y56515
X44907Y57988
X12954Y57302
X45336Y57483
X54762Y63551
X54686Y54356
X53340Y62611
X53315Y54475
X46431Y64186
X47168Y64135
X8001Y66294
X43180Y66929
X40640Y66243
X8890Y65786
X41148Y54305
X41910Y54813
X42926Y54788
X45720Y49657
X10033Y59398
X40767Y55728
X42425Y60656
X43078Y60122
X51384Y57480
X50420Y57404
X43389Y62096
X42774Y61468
X30480Y52959
X35179Y62611
X96393Y56896
X86487Y64389
X68453Y54991
X69469Y61976
X67945Y47879
X69723Y47879
X72136Y48768
X80899Y53492
X73406Y53594
X73914Y64389
X76759Y63551
X76759Y62255
X83388Y59385
X85725Y60706
X94463Y56744
X91618Y62179
X73990Y55474
X112217Y56515
X111887Y51714
X92050Y53823
X85598Y52197
X63957Y61265
X63551Y55245
X68783Y59741
X67691Y64084
X101752Y62052
X105359Y49911
X91542Y52172
X98654Y52299
X94539Y65354
X118618Y54254
X103378Y56896
X112116Y60376
X112192Y59512
X84303Y50927
X71366Y60998
X98374Y53238
X100787Y53365
X76810Y51054
X66294Y56261
X66294Y60071
X83185Y62230
X78486Y59309
X84201Y66446
X87393Y62840
X98704Y59157
X72263Y54445
X106426Y59233
X104826Y58750
X74803Y56515
X106375Y57988
X74422Y57302
X106804Y57483
X116230Y63551
X116154Y54356
X114808Y62611
X114783Y54475
X107899Y64186
X108636Y64135
X69469Y66294
X104648Y66929
X102108Y66243
X70358Y65786
X102616Y54305
X103378Y54813
X104394Y54788
X107188Y49657
X71501Y59398
X102235Y55728
X103893Y60656
X104546Y60122
X112852Y57480
X111888Y57404
X104857Y62096
X104242Y61468
X91948Y52959
X96647Y62611
X157861Y56896
X147955Y64389
X129921Y54991
X130937Y61976
X129413Y47879
X131191Y47879
X133604Y48768
X142367Y53492
X134874Y53594
X135382Y64389
X138227Y63551
X138227Y62255
X144856Y59385
X147193Y60706
X155931Y56744
X153086Y62179
X135458Y55474
X173685Y56515
X173355Y51714
X153518Y53823
X147066Y52197
X125425Y61265
X125019Y55245
X130251Y59741
X129159Y64084
X163220Y62052
X166827Y49911
X153010Y52172
X160122Y52299
X156007Y65354
X180086Y54254
X164846Y56896
X173584Y60376
X173660Y59512
X145771Y50927
X132834Y60998
X159842Y53238
X162255Y53365
X138278Y51054
X127762Y56261
X127762Y60071
X144653Y62230
X139954Y59309
X145669Y66446
X148861Y62840
X160172Y59157
X133731Y54445
X167894Y59233
X166294Y58750
X136271Y56515
X167843Y57988
X135890Y57302
X168272Y57483
X177698Y63551
X177622Y54356
X176276Y62611
X176251Y54475
X169367Y64186
X170104Y64135
X130937Y66294
X166116Y66929
X163576Y66243
X131826Y65786
X164084Y54305
X164846Y54813
X165862Y54788
X168656Y49657
X132969Y59398
X163703Y55728
X165361Y60656
X166014Y60122
X174320Y57480
X173356Y57404
X166325Y62096
X165710Y61468
X153416Y52959
X158115Y62611
X34925Y80264
X25019Y87757
X6985Y78359
X8001Y85344
X6477Y71247
X8255Y71247
X10668Y72136
X19431Y76860
X11938Y76962
X12446Y87757
X15291Y85623
X21920Y82753
X24257Y84074
X32995Y80112
X30150Y85547
X12522Y78842
X50749Y79883
X50419Y75082
X30582Y77191
X24130Y75565
X2489Y84633
X2083Y78613
X7315Y83109
X6223Y87452
X40284Y85420
X43891Y73279
M30