G04 EAGLE Gerber RS-274X export*
G75*
%MOMM*%
%FSLAX34Y34*%
%LPD*%
%INSolderpaste Top*%
%IPPOS*%
%AMOC8*
5,1,8,0,0,1.08239X$1,22.5*%
G01*
%ADD10R,0.600000X0.600000*%
%ADD11R,0.830000X0.630000*%
%ADD12C,0.300000*%
%ADD13R,1.000000X0.300000*%
%ADD14R,1.000000X0.600000*%
%ADD15R,1.000000X4.600000*%
%ADD16R,1.600000X3.400000*%
%ADD17R,1.200000X2.000000*%
%ADD18R,0.600000X1.350000*%
%ADD19R,1.000000X1.100000*%
%ADD20R,1.100000X1.000000*%
%ADD21R,1.000000X0.220000*%
%ADD22R,0.220000X1.000000*%
%ADD23R,1.200000X0.550000*%
%ADD24R,0.900000X1.000000*%
%ADD25R,0.500000X0.850000*%
%ADD26R,0.800000X0.800000*%
%ADD27R,1.800000X1.000000*%
%ADD28R,1.100000X1.900000*%

G36*
X60305Y767094D02*
X60305Y767094D01*
X60308Y767091D01*
X61403Y767271D01*
X61409Y767277D01*
X61414Y767274D01*
X62442Y767693D01*
X62446Y767700D01*
X62451Y767698D01*
X63360Y768336D01*
X63363Y768343D01*
X63368Y768343D01*
X64112Y769166D01*
X64113Y769174D01*
X64119Y769175D01*
X64661Y770143D01*
X64660Y770152D01*
X64666Y770154D01*
X64979Y771218D01*
X64976Y771226D01*
X64981Y771229D01*
X65049Y772337D01*
X65045Y772344D01*
X65049Y772347D01*
X64879Y773455D01*
X64873Y773461D01*
X64876Y773466D01*
X64464Y774508D01*
X64457Y774512D01*
X64459Y774517D01*
X63825Y775442D01*
X63817Y775444D01*
X63818Y775450D01*
X62995Y776210D01*
X62986Y776211D01*
X62986Y776217D01*
X62014Y776774D01*
X62006Y776773D01*
X62004Y776779D01*
X60932Y777106D01*
X60924Y777103D01*
X60921Y777108D01*
X59804Y777189D01*
X59801Y777188D01*
X59800Y777189D01*
X47800Y777189D01*
X47797Y777187D01*
X47790Y777187D01*
X47789Y777188D01*
X46845Y776969D01*
X46839Y776963D01*
X46834Y776965D01*
X45962Y776542D01*
X45959Y776534D01*
X45953Y776536D01*
X45197Y775929D01*
X45195Y775921D01*
X45189Y775921D01*
X44588Y775161D01*
X44588Y775152D01*
X44582Y775151D01*
X44164Y774276D01*
X44166Y774268D01*
X44161Y774266D01*
X43949Y773320D01*
X43952Y773313D01*
X43947Y773309D01*
X43951Y772340D01*
X43951Y772339D01*
X43970Y771271D01*
X43975Y771264D01*
X43971Y771260D01*
X44227Y770223D01*
X44234Y770218D01*
X44231Y770212D01*
X44712Y769258D01*
X44719Y769255D01*
X44718Y769249D01*
X45399Y768426D01*
X45407Y768424D01*
X45407Y768418D01*
X46254Y767767D01*
X46262Y767767D01*
X46263Y767761D01*
X47234Y767314D01*
X47242Y767316D01*
X47244Y767311D01*
X48290Y767092D01*
X48297Y767095D01*
X48300Y767091D01*
X60300Y767091D01*
X60305Y767094D01*
G37*
G36*
X674985Y767094D02*
X674985Y767094D01*
X674988Y767091D01*
X676083Y767271D01*
X676089Y767277D01*
X676094Y767274D01*
X677122Y767693D01*
X677126Y767700D01*
X677131Y767698D01*
X678040Y768336D01*
X678043Y768343D01*
X678048Y768343D01*
X678792Y769166D01*
X678793Y769174D01*
X678799Y769175D01*
X679341Y770143D01*
X679340Y770152D01*
X679346Y770154D01*
X679659Y771218D01*
X679656Y771226D01*
X679661Y771229D01*
X679729Y772337D01*
X679725Y772344D01*
X679729Y772347D01*
X679559Y773455D01*
X679553Y773461D01*
X679556Y773466D01*
X679144Y774508D01*
X679137Y774512D01*
X679139Y774517D01*
X678505Y775442D01*
X678497Y775444D01*
X678498Y775450D01*
X677675Y776210D01*
X677666Y776211D01*
X677666Y776217D01*
X676694Y776774D01*
X676686Y776773D01*
X676684Y776779D01*
X675612Y777106D01*
X675604Y777103D01*
X675601Y777108D01*
X674484Y777189D01*
X674481Y777188D01*
X674480Y777189D01*
X662480Y777189D01*
X662477Y777187D01*
X662470Y777187D01*
X662469Y777188D01*
X661525Y776969D01*
X661519Y776963D01*
X661514Y776965D01*
X660642Y776542D01*
X660639Y776534D01*
X660633Y776536D01*
X659877Y775929D01*
X659875Y775921D01*
X659869Y775921D01*
X659268Y775161D01*
X659268Y775152D01*
X659262Y775151D01*
X658844Y774276D01*
X658846Y774268D01*
X658841Y774266D01*
X658629Y773320D01*
X658632Y773313D01*
X658627Y773309D01*
X658631Y772340D01*
X658631Y772339D01*
X658650Y771271D01*
X658655Y771264D01*
X658651Y771260D01*
X658907Y770223D01*
X658914Y770218D01*
X658911Y770212D01*
X659392Y769258D01*
X659399Y769255D01*
X659398Y769249D01*
X660079Y768426D01*
X660087Y768424D01*
X660087Y768418D01*
X660934Y767767D01*
X660942Y767767D01*
X660943Y767761D01*
X661914Y767314D01*
X661922Y767316D01*
X661924Y767311D01*
X662970Y767092D01*
X662977Y767095D01*
X662980Y767091D01*
X674980Y767091D01*
X674985Y767094D01*
G37*
G36*
X60305Y533414D02*
X60305Y533414D01*
X60308Y533411D01*
X61403Y533591D01*
X61409Y533597D01*
X61414Y533594D01*
X62442Y534013D01*
X62446Y534020D01*
X62451Y534018D01*
X63360Y534656D01*
X63363Y534663D01*
X63368Y534663D01*
X64112Y535486D01*
X64113Y535494D01*
X64119Y535495D01*
X64661Y536463D01*
X64660Y536472D01*
X64666Y536474D01*
X64979Y537538D01*
X64976Y537546D01*
X64981Y537549D01*
X65049Y538657D01*
X65045Y538664D01*
X65049Y538667D01*
X64879Y539775D01*
X64873Y539781D01*
X64876Y539786D01*
X64464Y540828D01*
X64457Y540832D01*
X64459Y540837D01*
X63825Y541762D01*
X63817Y541764D01*
X63818Y541770D01*
X62995Y542530D01*
X62986Y542531D01*
X62986Y542537D01*
X62014Y543094D01*
X62006Y543093D01*
X62004Y543099D01*
X60932Y543426D01*
X60924Y543423D01*
X60921Y543428D01*
X59804Y543509D01*
X59801Y543508D01*
X59800Y543509D01*
X47800Y543509D01*
X47797Y543507D01*
X47790Y543507D01*
X47789Y543508D01*
X46845Y543289D01*
X46839Y543283D01*
X46834Y543285D01*
X45962Y542862D01*
X45959Y542854D01*
X45953Y542856D01*
X45197Y542249D01*
X45195Y542241D01*
X45189Y542241D01*
X44588Y541481D01*
X44588Y541472D01*
X44582Y541471D01*
X44164Y540596D01*
X44166Y540588D01*
X44161Y540586D01*
X43949Y539640D01*
X43952Y539633D01*
X43947Y539629D01*
X43951Y538660D01*
X43951Y538659D01*
X43970Y537591D01*
X43975Y537584D01*
X43971Y537580D01*
X44227Y536543D01*
X44234Y536538D01*
X44231Y536532D01*
X44712Y535578D01*
X44719Y535575D01*
X44718Y535569D01*
X45399Y534746D01*
X45407Y534744D01*
X45407Y534738D01*
X46254Y534087D01*
X46262Y534087D01*
X46263Y534081D01*
X47234Y533634D01*
X47242Y533636D01*
X47244Y533631D01*
X48290Y533412D01*
X48297Y533415D01*
X48300Y533411D01*
X60300Y533411D01*
X60305Y533414D01*
G37*
G36*
X674985Y533414D02*
X674985Y533414D01*
X674988Y533411D01*
X676083Y533591D01*
X676089Y533597D01*
X676094Y533594D01*
X677122Y534013D01*
X677126Y534020D01*
X677131Y534018D01*
X678040Y534656D01*
X678043Y534663D01*
X678048Y534663D01*
X678792Y535486D01*
X678793Y535494D01*
X678799Y535495D01*
X679341Y536463D01*
X679340Y536472D01*
X679346Y536474D01*
X679659Y537538D01*
X679656Y537546D01*
X679661Y537549D01*
X679729Y538657D01*
X679725Y538664D01*
X679729Y538667D01*
X679559Y539775D01*
X679553Y539781D01*
X679556Y539786D01*
X679144Y540828D01*
X679137Y540832D01*
X679139Y540837D01*
X678505Y541762D01*
X678497Y541764D01*
X678498Y541770D01*
X677675Y542530D01*
X677666Y542531D01*
X677666Y542537D01*
X676694Y543094D01*
X676686Y543093D01*
X676684Y543099D01*
X675612Y543426D01*
X675604Y543423D01*
X675601Y543428D01*
X674484Y543509D01*
X674481Y543508D01*
X674480Y543509D01*
X662480Y543509D01*
X662477Y543507D01*
X662470Y543507D01*
X662469Y543508D01*
X661525Y543289D01*
X661519Y543283D01*
X661514Y543285D01*
X660642Y542862D01*
X660639Y542854D01*
X660633Y542856D01*
X659877Y542249D01*
X659875Y542241D01*
X659869Y542241D01*
X659268Y541481D01*
X659268Y541472D01*
X659262Y541471D01*
X658844Y540596D01*
X658846Y540588D01*
X658841Y540586D01*
X658629Y539640D01*
X658632Y539633D01*
X658627Y539629D01*
X658631Y538660D01*
X658631Y538659D01*
X658650Y537591D01*
X658655Y537584D01*
X658651Y537580D01*
X658907Y536543D01*
X658914Y536538D01*
X658911Y536532D01*
X659392Y535578D01*
X659399Y535575D01*
X659398Y535569D01*
X660079Y534746D01*
X660087Y534744D01*
X660087Y534738D01*
X660934Y534087D01*
X660942Y534087D01*
X660943Y534081D01*
X661914Y533634D01*
X661922Y533636D01*
X661924Y533631D01*
X662970Y533412D01*
X662977Y533415D01*
X662980Y533411D01*
X674980Y533411D01*
X674985Y533414D01*
G37*
G36*
X60305Y299734D02*
X60305Y299734D01*
X60308Y299731D01*
X61403Y299911D01*
X61409Y299917D01*
X61414Y299914D01*
X62442Y300333D01*
X62446Y300340D01*
X62451Y300338D01*
X63360Y300976D01*
X63363Y300983D01*
X63368Y300983D01*
X64112Y301806D01*
X64113Y301814D01*
X64119Y301815D01*
X64661Y302783D01*
X64660Y302792D01*
X64666Y302794D01*
X64979Y303858D01*
X64976Y303866D01*
X64981Y303869D01*
X65049Y304977D01*
X65045Y304984D01*
X65049Y304987D01*
X64879Y306095D01*
X64873Y306101D01*
X64876Y306106D01*
X64464Y307148D01*
X64457Y307152D01*
X64459Y307157D01*
X63825Y308082D01*
X63817Y308084D01*
X63818Y308090D01*
X62995Y308850D01*
X62986Y308851D01*
X62986Y308857D01*
X62014Y309414D01*
X62006Y309413D01*
X62004Y309419D01*
X60932Y309746D01*
X60924Y309743D01*
X60921Y309748D01*
X59804Y309829D01*
X59801Y309828D01*
X59800Y309829D01*
X47800Y309829D01*
X47797Y309827D01*
X47790Y309827D01*
X47789Y309828D01*
X46845Y309609D01*
X46839Y309603D01*
X46834Y309605D01*
X45962Y309182D01*
X45959Y309174D01*
X45953Y309176D01*
X45197Y308569D01*
X45195Y308561D01*
X45189Y308561D01*
X44588Y307801D01*
X44588Y307792D01*
X44582Y307791D01*
X44164Y306916D01*
X44166Y306908D01*
X44161Y306906D01*
X43949Y305960D01*
X43952Y305953D01*
X43947Y305949D01*
X43951Y304980D01*
X43951Y304979D01*
X43970Y303911D01*
X43975Y303904D01*
X43971Y303900D01*
X44227Y302863D01*
X44234Y302858D01*
X44231Y302852D01*
X44712Y301898D01*
X44719Y301895D01*
X44718Y301889D01*
X45399Y301066D01*
X45407Y301064D01*
X45407Y301058D01*
X46254Y300407D01*
X46262Y300407D01*
X46263Y300401D01*
X47234Y299954D01*
X47242Y299956D01*
X47244Y299951D01*
X48290Y299732D01*
X48297Y299735D01*
X48300Y299731D01*
X60300Y299731D01*
X60305Y299734D01*
G37*
G36*
X674985Y299734D02*
X674985Y299734D01*
X674988Y299731D01*
X676083Y299911D01*
X676089Y299917D01*
X676094Y299914D01*
X677122Y300333D01*
X677126Y300340D01*
X677131Y300338D01*
X678040Y300976D01*
X678043Y300983D01*
X678048Y300983D01*
X678792Y301806D01*
X678793Y301814D01*
X678799Y301815D01*
X679341Y302783D01*
X679340Y302792D01*
X679346Y302794D01*
X679659Y303858D01*
X679656Y303866D01*
X679661Y303869D01*
X679729Y304977D01*
X679725Y304984D01*
X679729Y304987D01*
X679559Y306095D01*
X679553Y306101D01*
X679556Y306106D01*
X679144Y307148D01*
X679137Y307152D01*
X679139Y307157D01*
X678505Y308082D01*
X678497Y308084D01*
X678498Y308090D01*
X677675Y308850D01*
X677666Y308851D01*
X677666Y308857D01*
X676694Y309414D01*
X676686Y309413D01*
X676684Y309419D01*
X675612Y309746D01*
X675604Y309743D01*
X675601Y309748D01*
X674484Y309829D01*
X674481Y309828D01*
X674480Y309829D01*
X662480Y309829D01*
X662477Y309827D01*
X662470Y309827D01*
X662469Y309828D01*
X661525Y309609D01*
X661519Y309603D01*
X661514Y309605D01*
X660642Y309182D01*
X660639Y309174D01*
X660633Y309176D01*
X659877Y308569D01*
X659875Y308561D01*
X659869Y308561D01*
X659268Y307801D01*
X659268Y307792D01*
X659262Y307791D01*
X658844Y306916D01*
X658846Y306908D01*
X658841Y306906D01*
X658629Y305960D01*
X658632Y305953D01*
X658627Y305949D01*
X658631Y304980D01*
X658631Y304979D01*
X658650Y303911D01*
X658655Y303904D01*
X658651Y303900D01*
X658907Y302863D01*
X658914Y302858D01*
X658911Y302852D01*
X659392Y301898D01*
X659399Y301895D01*
X659398Y301889D01*
X660079Y301066D01*
X660087Y301064D01*
X660087Y301058D01*
X660934Y300407D01*
X660942Y300407D01*
X660943Y300401D01*
X661914Y299954D01*
X661922Y299956D01*
X661924Y299951D01*
X662970Y299732D01*
X662977Y299735D01*
X662980Y299731D01*
X674980Y299731D01*
X674985Y299734D01*
G37*
G36*
X674985Y66054D02*
X674985Y66054D01*
X674988Y66051D01*
X676083Y66231D01*
X676089Y66237D01*
X676094Y66234D01*
X677122Y66653D01*
X677126Y66660D01*
X677131Y66658D01*
X678040Y67296D01*
X678043Y67303D01*
X678048Y67303D01*
X678792Y68126D01*
X678793Y68134D01*
X678799Y68135D01*
X679341Y69103D01*
X679340Y69112D01*
X679346Y69114D01*
X679659Y70178D01*
X679656Y70186D01*
X679661Y70189D01*
X679729Y71297D01*
X679725Y71304D01*
X679729Y71307D01*
X679559Y72415D01*
X679553Y72421D01*
X679556Y72426D01*
X679144Y73468D01*
X679137Y73472D01*
X679139Y73477D01*
X678505Y74402D01*
X678497Y74404D01*
X678498Y74410D01*
X677675Y75170D01*
X677666Y75171D01*
X677666Y75177D01*
X676694Y75734D01*
X676686Y75733D01*
X676684Y75739D01*
X675612Y76066D01*
X675604Y76063D01*
X675601Y76068D01*
X674484Y76149D01*
X674481Y76148D01*
X674480Y76149D01*
X662480Y76149D01*
X662477Y76147D01*
X662470Y76147D01*
X662469Y76148D01*
X661525Y75929D01*
X661519Y75923D01*
X661514Y75925D01*
X660642Y75502D01*
X660639Y75494D01*
X660633Y75496D01*
X659877Y74889D01*
X659875Y74881D01*
X659869Y74881D01*
X659268Y74121D01*
X659268Y74112D01*
X659262Y74111D01*
X658844Y73236D01*
X658846Y73228D01*
X658841Y73226D01*
X658629Y72280D01*
X658632Y72273D01*
X658627Y72269D01*
X658631Y71300D01*
X658631Y71299D01*
X658650Y70231D01*
X658655Y70224D01*
X658651Y70220D01*
X658907Y69183D01*
X658914Y69178D01*
X658911Y69172D01*
X659392Y68218D01*
X659399Y68215D01*
X659398Y68209D01*
X660079Y67386D01*
X660087Y67384D01*
X660087Y67378D01*
X660934Y66727D01*
X660942Y66727D01*
X660943Y66721D01*
X661914Y66274D01*
X661922Y66276D01*
X661924Y66271D01*
X662970Y66052D01*
X662977Y66055D01*
X662980Y66051D01*
X674980Y66051D01*
X674985Y66054D01*
G37*
G36*
X60305Y66054D02*
X60305Y66054D01*
X60308Y66051D01*
X61403Y66231D01*
X61409Y66237D01*
X61414Y66234D01*
X62442Y66653D01*
X62446Y66660D01*
X62451Y66658D01*
X63360Y67296D01*
X63363Y67303D01*
X63368Y67303D01*
X64112Y68126D01*
X64113Y68134D01*
X64119Y68135D01*
X64661Y69103D01*
X64660Y69112D01*
X64666Y69114D01*
X64979Y70178D01*
X64976Y70186D01*
X64981Y70189D01*
X65049Y71297D01*
X65045Y71304D01*
X65049Y71307D01*
X64879Y72415D01*
X64873Y72421D01*
X64876Y72426D01*
X64464Y73468D01*
X64457Y73472D01*
X64459Y73477D01*
X63825Y74402D01*
X63817Y74404D01*
X63818Y74410D01*
X62995Y75170D01*
X62986Y75171D01*
X62986Y75177D01*
X62014Y75734D01*
X62006Y75733D01*
X62004Y75739D01*
X60932Y76066D01*
X60924Y76063D01*
X60921Y76068D01*
X59804Y76149D01*
X59801Y76148D01*
X59800Y76149D01*
X47800Y76149D01*
X47797Y76147D01*
X47790Y76147D01*
X47789Y76148D01*
X46845Y75929D01*
X46839Y75923D01*
X46834Y75925D01*
X45962Y75502D01*
X45959Y75494D01*
X45953Y75496D01*
X45197Y74889D01*
X45195Y74881D01*
X45189Y74881D01*
X44588Y74121D01*
X44588Y74112D01*
X44582Y74111D01*
X44164Y73236D01*
X44166Y73228D01*
X44161Y73226D01*
X43949Y72280D01*
X43952Y72273D01*
X43947Y72269D01*
X43951Y71300D01*
X43951Y71299D01*
X43970Y70231D01*
X43975Y70224D01*
X43971Y70220D01*
X44227Y69183D01*
X44234Y69178D01*
X44231Y69172D01*
X44712Y68218D01*
X44719Y68215D01*
X44718Y68209D01*
X45399Y67386D01*
X45407Y67384D01*
X45407Y67378D01*
X46254Y66727D01*
X46262Y66727D01*
X46263Y66721D01*
X47234Y66274D01*
X47242Y66276D01*
X47244Y66271D01*
X48290Y66052D01*
X48297Y66055D01*
X48300Y66051D01*
X60300Y66051D01*
X60305Y66054D01*
G37*
G36*
X674985Y853495D02*
X674985Y853495D01*
X674988Y853491D01*
X676094Y853684D01*
X676099Y853689D01*
X676099Y853690D01*
X676104Y853687D01*
X677139Y854120D01*
X677143Y854127D01*
X677148Y854125D01*
X678061Y854778D01*
X678063Y854786D01*
X678069Y854785D01*
X678813Y855624D01*
X678814Y855633D01*
X678819Y855633D01*
X679358Y856617D01*
X679357Y856625D01*
X679358Y856626D01*
X679362Y856627D01*
X679363Y856629D01*
X679545Y857270D01*
X679669Y857706D01*
X679667Y857711D01*
X679669Y857713D01*
X679667Y857715D01*
X679671Y857717D01*
X679729Y858837D01*
X679726Y858842D01*
X679729Y858846D01*
X679611Y859891D01*
X679605Y859897D01*
X679609Y859902D01*
X679261Y860896D01*
X679254Y860900D01*
X679256Y860905D01*
X678696Y861797D01*
X678689Y861800D01*
X678689Y861805D01*
X677945Y862549D01*
X677937Y862551D01*
X677937Y862556D01*
X677045Y863116D01*
X677037Y863116D01*
X677036Y863121D01*
X676042Y863469D01*
X676034Y863466D01*
X676031Y863471D01*
X674986Y863589D01*
X674982Y863587D01*
X674980Y863589D01*
X662980Y863589D01*
X662977Y863587D01*
X662974Y863587D01*
X662972Y863589D01*
X661976Y863431D01*
X661970Y863425D01*
X661965Y863428D01*
X661029Y863053D01*
X661025Y863046D01*
X661019Y863048D01*
X660190Y862474D01*
X660187Y862466D01*
X660182Y862467D01*
X659501Y861723D01*
X659500Y861714D01*
X659494Y861714D01*
X658996Y860837D01*
X658997Y860829D01*
X658992Y860826D01*
X658804Y860202D01*
X658701Y859861D01*
X658702Y859858D01*
X658701Y859857D01*
X658704Y859853D01*
X658699Y859850D01*
X658631Y858843D01*
X658632Y858841D01*
X658631Y858840D01*
X658640Y857759D01*
X658645Y857752D01*
X658641Y857748D01*
X658891Y856696D01*
X658897Y856691D01*
X658894Y856686D01*
X659371Y855716D01*
X659379Y855713D01*
X659377Y855707D01*
X660058Y854868D01*
X660066Y854866D01*
X660066Y854860D01*
X660917Y854194D01*
X660925Y854193D01*
X660926Y854188D01*
X661903Y853727D01*
X661911Y853729D01*
X661914Y853724D01*
X662969Y853492D01*
X662977Y853495D01*
X662980Y853491D01*
X674980Y853491D01*
X674985Y853495D01*
G37*
G36*
X60305Y853495D02*
X60305Y853495D01*
X60308Y853491D01*
X61414Y853684D01*
X61419Y853689D01*
X61419Y853690D01*
X61424Y853687D01*
X62459Y854120D01*
X62463Y854127D01*
X62468Y854125D01*
X63381Y854778D01*
X63383Y854786D01*
X63389Y854785D01*
X64133Y855624D01*
X64134Y855633D01*
X64139Y855633D01*
X64678Y856617D01*
X64677Y856625D01*
X64678Y856626D01*
X64682Y856627D01*
X64683Y856629D01*
X64865Y857270D01*
X64989Y857706D01*
X64987Y857711D01*
X64989Y857713D01*
X64987Y857715D01*
X64991Y857717D01*
X65049Y858837D01*
X65046Y858842D01*
X65049Y858846D01*
X64931Y859891D01*
X64925Y859897D01*
X64929Y859902D01*
X64581Y860896D01*
X64574Y860900D01*
X64576Y860905D01*
X64016Y861797D01*
X64009Y861800D01*
X64009Y861805D01*
X63265Y862549D01*
X63257Y862551D01*
X63257Y862556D01*
X62365Y863116D01*
X62357Y863116D01*
X62356Y863121D01*
X61362Y863469D01*
X61354Y863466D01*
X61351Y863471D01*
X60306Y863589D01*
X60302Y863587D01*
X60300Y863589D01*
X48300Y863589D01*
X48297Y863587D01*
X48294Y863587D01*
X48292Y863589D01*
X47296Y863431D01*
X47290Y863425D01*
X47285Y863428D01*
X46349Y863053D01*
X46345Y863046D01*
X46339Y863048D01*
X45510Y862474D01*
X45507Y862466D01*
X45502Y862467D01*
X44821Y861723D01*
X44820Y861714D01*
X44814Y861714D01*
X44316Y860837D01*
X44317Y860829D01*
X44312Y860826D01*
X44124Y860202D01*
X44021Y859861D01*
X44022Y859858D01*
X44021Y859857D01*
X44024Y859853D01*
X44019Y859850D01*
X43951Y858843D01*
X43952Y858841D01*
X43951Y858840D01*
X43960Y857759D01*
X43965Y857752D01*
X43961Y857748D01*
X44211Y856696D01*
X44217Y856691D01*
X44214Y856686D01*
X44691Y855716D01*
X44699Y855713D01*
X44697Y855707D01*
X45378Y854868D01*
X45386Y854866D01*
X45386Y854860D01*
X46237Y854194D01*
X46245Y854193D01*
X46246Y854188D01*
X47223Y853727D01*
X47231Y853729D01*
X47234Y853724D01*
X48289Y853492D01*
X48297Y853495D01*
X48300Y853491D01*
X60300Y853491D01*
X60305Y853495D01*
G37*
G36*
X60305Y619815D02*
X60305Y619815D01*
X60308Y619811D01*
X61414Y620004D01*
X61419Y620009D01*
X61419Y620010D01*
X61424Y620007D01*
X62459Y620440D01*
X62463Y620447D01*
X62468Y620445D01*
X63381Y621098D01*
X63383Y621106D01*
X63389Y621105D01*
X64133Y621944D01*
X64134Y621953D01*
X64139Y621953D01*
X64678Y622937D01*
X64677Y622945D01*
X64678Y622946D01*
X64682Y622947D01*
X64683Y622949D01*
X64865Y623590D01*
X64989Y624026D01*
X64987Y624031D01*
X64989Y624033D01*
X64987Y624035D01*
X64991Y624037D01*
X65049Y625157D01*
X65046Y625162D01*
X65049Y625166D01*
X64931Y626211D01*
X64925Y626217D01*
X64929Y626222D01*
X64581Y627216D01*
X64574Y627220D01*
X64576Y627225D01*
X64016Y628117D01*
X64009Y628120D01*
X64009Y628125D01*
X63265Y628869D01*
X63257Y628871D01*
X63257Y628876D01*
X62365Y629436D01*
X62357Y629436D01*
X62356Y629441D01*
X61362Y629789D01*
X61354Y629786D01*
X61351Y629791D01*
X60306Y629909D01*
X60302Y629907D01*
X60300Y629909D01*
X48300Y629909D01*
X48297Y629907D01*
X48294Y629907D01*
X48292Y629909D01*
X47296Y629751D01*
X47290Y629745D01*
X47285Y629748D01*
X46349Y629373D01*
X46345Y629366D01*
X46339Y629368D01*
X45510Y628794D01*
X45507Y628786D01*
X45502Y628787D01*
X44821Y628043D01*
X44820Y628034D01*
X44814Y628034D01*
X44316Y627157D01*
X44317Y627149D01*
X44312Y627146D01*
X44124Y626522D01*
X44021Y626181D01*
X44022Y626178D01*
X44021Y626177D01*
X44024Y626173D01*
X44019Y626170D01*
X43951Y625163D01*
X43952Y625161D01*
X43951Y625160D01*
X43960Y624079D01*
X43965Y624072D01*
X43961Y624068D01*
X44211Y623016D01*
X44217Y623011D01*
X44214Y623006D01*
X44691Y622036D01*
X44699Y622033D01*
X44697Y622027D01*
X45378Y621188D01*
X45386Y621186D01*
X45386Y621180D01*
X46237Y620514D01*
X46245Y620513D01*
X46246Y620508D01*
X47223Y620047D01*
X47231Y620049D01*
X47234Y620044D01*
X48289Y619812D01*
X48297Y619815D01*
X48300Y619811D01*
X60300Y619811D01*
X60305Y619815D01*
G37*
G36*
X674985Y619815D02*
X674985Y619815D01*
X674988Y619811D01*
X676094Y620004D01*
X676099Y620009D01*
X676099Y620010D01*
X676104Y620007D01*
X677139Y620440D01*
X677143Y620447D01*
X677148Y620445D01*
X678061Y621098D01*
X678063Y621106D01*
X678069Y621105D01*
X678813Y621944D01*
X678814Y621953D01*
X678819Y621953D01*
X679358Y622937D01*
X679357Y622945D01*
X679358Y622946D01*
X679362Y622947D01*
X679363Y622949D01*
X679545Y623590D01*
X679669Y624026D01*
X679667Y624031D01*
X679669Y624033D01*
X679667Y624035D01*
X679671Y624037D01*
X679729Y625157D01*
X679726Y625162D01*
X679729Y625166D01*
X679611Y626211D01*
X679605Y626217D01*
X679609Y626222D01*
X679261Y627216D01*
X679254Y627220D01*
X679256Y627225D01*
X678696Y628117D01*
X678689Y628120D01*
X678689Y628125D01*
X677945Y628869D01*
X677937Y628871D01*
X677937Y628876D01*
X677045Y629436D01*
X677037Y629436D01*
X677036Y629441D01*
X676042Y629789D01*
X676034Y629786D01*
X676031Y629791D01*
X674986Y629909D01*
X674982Y629907D01*
X674980Y629909D01*
X662980Y629909D01*
X662977Y629907D01*
X662974Y629907D01*
X662972Y629909D01*
X661976Y629751D01*
X661970Y629745D01*
X661965Y629748D01*
X661029Y629373D01*
X661025Y629366D01*
X661019Y629368D01*
X660190Y628794D01*
X660187Y628786D01*
X660182Y628787D01*
X659501Y628043D01*
X659500Y628034D01*
X659494Y628034D01*
X658996Y627157D01*
X658997Y627149D01*
X658992Y627146D01*
X658804Y626522D01*
X658701Y626181D01*
X658702Y626178D01*
X658701Y626177D01*
X658704Y626173D01*
X658699Y626170D01*
X658631Y625163D01*
X658632Y625161D01*
X658631Y625160D01*
X658640Y624079D01*
X658645Y624072D01*
X658641Y624068D01*
X658891Y623016D01*
X658897Y623011D01*
X658894Y623006D01*
X659371Y622036D01*
X659379Y622033D01*
X659377Y622027D01*
X660058Y621188D01*
X660066Y621186D01*
X660066Y621180D01*
X660917Y620514D01*
X660925Y620513D01*
X660926Y620508D01*
X661903Y620047D01*
X661911Y620049D01*
X661914Y620044D01*
X662969Y619812D01*
X662977Y619815D01*
X662980Y619811D01*
X674980Y619811D01*
X674985Y619815D01*
G37*
G36*
X674985Y386135D02*
X674985Y386135D01*
X674988Y386131D01*
X676094Y386324D01*
X676099Y386329D01*
X676099Y386330D01*
X676104Y386327D01*
X677139Y386760D01*
X677143Y386767D01*
X677148Y386765D01*
X678061Y387418D01*
X678063Y387426D01*
X678069Y387425D01*
X678813Y388264D01*
X678814Y388273D01*
X678819Y388273D01*
X679358Y389257D01*
X679357Y389265D01*
X679358Y389266D01*
X679362Y389267D01*
X679363Y389269D01*
X679545Y389910D01*
X679669Y390346D01*
X679667Y390351D01*
X679669Y390353D01*
X679667Y390355D01*
X679671Y390357D01*
X679729Y391477D01*
X679726Y391482D01*
X679729Y391486D01*
X679611Y392531D01*
X679605Y392537D01*
X679609Y392542D01*
X679261Y393536D01*
X679254Y393540D01*
X679256Y393545D01*
X678696Y394437D01*
X678689Y394440D01*
X678689Y394445D01*
X677945Y395189D01*
X677937Y395191D01*
X677937Y395196D01*
X677045Y395756D01*
X677037Y395756D01*
X677036Y395761D01*
X676042Y396109D01*
X676034Y396106D01*
X676031Y396111D01*
X674986Y396229D01*
X674982Y396227D01*
X674980Y396229D01*
X662980Y396229D01*
X662977Y396227D01*
X662974Y396227D01*
X662972Y396229D01*
X661976Y396071D01*
X661970Y396065D01*
X661965Y396068D01*
X661029Y395693D01*
X661025Y395686D01*
X661019Y395688D01*
X660190Y395114D01*
X660187Y395106D01*
X660182Y395107D01*
X659501Y394363D01*
X659500Y394354D01*
X659494Y394354D01*
X658996Y393477D01*
X658997Y393469D01*
X658992Y393466D01*
X658804Y392842D01*
X658701Y392501D01*
X658702Y392498D01*
X658701Y392497D01*
X658704Y392493D01*
X658699Y392490D01*
X658631Y391483D01*
X658632Y391481D01*
X658631Y391480D01*
X658640Y390399D01*
X658645Y390392D01*
X658641Y390388D01*
X658891Y389336D01*
X658897Y389331D01*
X658894Y389326D01*
X659371Y388356D01*
X659379Y388353D01*
X659377Y388347D01*
X660058Y387508D01*
X660066Y387506D01*
X660066Y387500D01*
X660917Y386834D01*
X660925Y386833D01*
X660926Y386828D01*
X661903Y386367D01*
X661911Y386369D01*
X661914Y386364D01*
X662969Y386132D01*
X662977Y386135D01*
X662980Y386131D01*
X674980Y386131D01*
X674985Y386135D01*
G37*
G36*
X60305Y386135D02*
X60305Y386135D01*
X60308Y386131D01*
X61414Y386324D01*
X61419Y386329D01*
X61419Y386330D01*
X61424Y386327D01*
X62459Y386760D01*
X62463Y386767D01*
X62468Y386765D01*
X63381Y387418D01*
X63383Y387426D01*
X63389Y387425D01*
X64133Y388264D01*
X64134Y388273D01*
X64139Y388273D01*
X64678Y389257D01*
X64677Y389265D01*
X64678Y389266D01*
X64682Y389267D01*
X64683Y389269D01*
X64865Y389910D01*
X64989Y390346D01*
X64987Y390351D01*
X64989Y390353D01*
X64987Y390355D01*
X64991Y390357D01*
X65049Y391477D01*
X65046Y391482D01*
X65049Y391486D01*
X64931Y392531D01*
X64925Y392537D01*
X64929Y392542D01*
X64581Y393536D01*
X64574Y393540D01*
X64576Y393545D01*
X64016Y394437D01*
X64009Y394440D01*
X64009Y394445D01*
X63265Y395189D01*
X63257Y395191D01*
X63257Y395196D01*
X62365Y395756D01*
X62357Y395756D01*
X62356Y395761D01*
X61362Y396109D01*
X61354Y396106D01*
X61351Y396111D01*
X60306Y396229D01*
X60302Y396227D01*
X60300Y396229D01*
X48300Y396229D01*
X48297Y396227D01*
X48294Y396227D01*
X48292Y396229D01*
X47296Y396071D01*
X47290Y396065D01*
X47285Y396068D01*
X46349Y395693D01*
X46345Y395686D01*
X46339Y395688D01*
X45510Y395114D01*
X45507Y395106D01*
X45502Y395107D01*
X44821Y394363D01*
X44820Y394354D01*
X44814Y394354D01*
X44316Y393477D01*
X44317Y393469D01*
X44312Y393466D01*
X44124Y392842D01*
X44021Y392501D01*
X44022Y392498D01*
X44021Y392497D01*
X44024Y392493D01*
X44019Y392490D01*
X43951Y391483D01*
X43952Y391481D01*
X43951Y391480D01*
X43960Y390399D01*
X43965Y390392D01*
X43961Y390388D01*
X44211Y389336D01*
X44217Y389331D01*
X44214Y389326D01*
X44691Y388356D01*
X44699Y388353D01*
X44697Y388347D01*
X45378Y387508D01*
X45386Y387506D01*
X45386Y387500D01*
X46237Y386834D01*
X46245Y386833D01*
X46246Y386828D01*
X47223Y386367D01*
X47231Y386369D01*
X47234Y386364D01*
X48289Y386132D01*
X48297Y386135D01*
X48300Y386131D01*
X60300Y386131D01*
X60305Y386135D01*
G37*
G36*
X60305Y152455D02*
X60305Y152455D01*
X60308Y152451D01*
X61414Y152644D01*
X61419Y152649D01*
X61419Y152650D01*
X61424Y152647D01*
X62459Y153080D01*
X62463Y153087D01*
X62468Y153085D01*
X63381Y153738D01*
X63383Y153746D01*
X63389Y153745D01*
X64133Y154584D01*
X64134Y154593D01*
X64139Y154593D01*
X64678Y155577D01*
X64677Y155585D01*
X64678Y155586D01*
X64682Y155587D01*
X64683Y155589D01*
X64865Y156230D01*
X64989Y156666D01*
X64987Y156671D01*
X64989Y156673D01*
X64987Y156675D01*
X64991Y156677D01*
X65049Y157797D01*
X65046Y157802D01*
X65049Y157806D01*
X64931Y158851D01*
X64925Y158857D01*
X64929Y158862D01*
X64581Y159856D01*
X64574Y159860D01*
X64576Y159865D01*
X64016Y160757D01*
X64009Y160760D01*
X64009Y160765D01*
X63265Y161509D01*
X63257Y161511D01*
X63257Y161516D01*
X62365Y162076D01*
X62357Y162076D01*
X62356Y162081D01*
X61362Y162429D01*
X61354Y162426D01*
X61351Y162431D01*
X60306Y162549D01*
X60302Y162547D01*
X60300Y162549D01*
X48300Y162549D01*
X48297Y162547D01*
X48294Y162547D01*
X48292Y162549D01*
X47296Y162391D01*
X47290Y162385D01*
X47285Y162388D01*
X46349Y162013D01*
X46345Y162006D01*
X46339Y162008D01*
X45510Y161434D01*
X45507Y161426D01*
X45502Y161427D01*
X44821Y160683D01*
X44820Y160674D01*
X44814Y160674D01*
X44316Y159797D01*
X44317Y159789D01*
X44312Y159786D01*
X44124Y159162D01*
X44021Y158821D01*
X44022Y158818D01*
X44021Y158817D01*
X44024Y158813D01*
X44019Y158810D01*
X43951Y157803D01*
X43952Y157801D01*
X43951Y157800D01*
X43960Y156719D01*
X43965Y156712D01*
X43961Y156708D01*
X44211Y155656D01*
X44217Y155651D01*
X44214Y155646D01*
X44691Y154676D01*
X44699Y154673D01*
X44697Y154667D01*
X45378Y153828D01*
X45386Y153826D01*
X45386Y153820D01*
X46237Y153154D01*
X46245Y153153D01*
X46246Y153148D01*
X47223Y152687D01*
X47231Y152689D01*
X47234Y152684D01*
X48289Y152452D01*
X48297Y152455D01*
X48300Y152451D01*
X60300Y152451D01*
X60305Y152455D01*
G37*
G36*
X674985Y152455D02*
X674985Y152455D01*
X674988Y152451D01*
X676094Y152644D01*
X676099Y152649D01*
X676099Y152650D01*
X676104Y152647D01*
X677139Y153080D01*
X677143Y153087D01*
X677148Y153085D01*
X678061Y153738D01*
X678063Y153746D01*
X678069Y153745D01*
X678813Y154584D01*
X678814Y154593D01*
X678819Y154593D01*
X679358Y155577D01*
X679357Y155585D01*
X679358Y155586D01*
X679362Y155587D01*
X679363Y155589D01*
X679545Y156230D01*
X679669Y156666D01*
X679667Y156671D01*
X679669Y156673D01*
X679667Y156675D01*
X679671Y156677D01*
X679729Y157797D01*
X679726Y157802D01*
X679729Y157806D01*
X679611Y158851D01*
X679605Y158857D01*
X679609Y158862D01*
X679261Y159856D01*
X679254Y159860D01*
X679256Y159865D01*
X678696Y160757D01*
X678689Y160760D01*
X678689Y160765D01*
X677945Y161509D01*
X677937Y161511D01*
X677937Y161516D01*
X677045Y162076D01*
X677037Y162076D01*
X677036Y162081D01*
X676042Y162429D01*
X676034Y162426D01*
X676031Y162431D01*
X674986Y162549D01*
X674982Y162547D01*
X674980Y162549D01*
X662980Y162549D01*
X662977Y162547D01*
X662974Y162547D01*
X662972Y162549D01*
X661976Y162391D01*
X661970Y162385D01*
X661965Y162388D01*
X661029Y162013D01*
X661025Y162006D01*
X661019Y162008D01*
X660190Y161434D01*
X660187Y161426D01*
X660182Y161427D01*
X659501Y160683D01*
X659500Y160674D01*
X659494Y160674D01*
X658996Y159797D01*
X658997Y159789D01*
X658992Y159786D01*
X658804Y159162D01*
X658701Y158821D01*
X658702Y158818D01*
X658701Y158817D01*
X658704Y158813D01*
X658699Y158810D01*
X658631Y157803D01*
X658632Y157801D01*
X658631Y157800D01*
X658640Y156719D01*
X658645Y156712D01*
X658641Y156708D01*
X658891Y155656D01*
X658897Y155651D01*
X658894Y155646D01*
X659371Y154676D01*
X659379Y154673D01*
X659377Y154667D01*
X660058Y153828D01*
X660066Y153826D01*
X660066Y153820D01*
X660917Y153154D01*
X660925Y153153D01*
X660926Y153148D01*
X661903Y152687D01*
X661911Y152689D01*
X661914Y152684D01*
X662969Y152452D01*
X662977Y152455D01*
X662980Y152451D01*
X674980Y152451D01*
X674985Y152455D01*
G37*
G36*
X15504Y767094D02*
X15504Y767094D01*
X15506Y767091D01*
X16639Y767241D01*
X16645Y767247D01*
X16650Y767244D01*
X17720Y767642D01*
X17724Y767649D01*
X17730Y767647D01*
X18685Y768274D01*
X18688Y768282D01*
X18693Y768281D01*
X19485Y769104D01*
X19486Y769112D01*
X19492Y769113D01*
X20081Y770092D01*
X20080Y770100D01*
X20085Y770102D01*
X20441Y771187D01*
X20439Y771195D01*
X20443Y771198D01*
X20549Y772335D01*
X20544Y772344D01*
X20548Y772349D01*
X20341Y773486D01*
X20335Y773492D01*
X20338Y773497D01*
X19883Y774559D01*
X19876Y774563D01*
X19878Y774569D01*
X19198Y775504D01*
X19190Y775506D01*
X19191Y775512D01*
X18320Y776272D01*
X18312Y776272D01*
X18311Y776278D01*
X17292Y776825D01*
X17284Y776824D01*
X17282Y776829D01*
X16168Y777136D01*
X16160Y777133D01*
X16157Y777138D01*
X15002Y777189D01*
X15001Y777188D01*
X15000Y777189D01*
X9000Y777189D01*
X8997Y777187D01*
X8992Y777187D01*
X8991Y777188D01*
X7910Y776976D01*
X7905Y776970D01*
X7900Y776973D01*
X6894Y776526D01*
X6890Y776519D01*
X6884Y776521D01*
X6003Y775861D01*
X6000Y775853D01*
X5995Y775853D01*
X5282Y775014D01*
X5282Y775006D01*
X5276Y775005D01*
X4768Y774028D01*
X4769Y774020D01*
X4764Y774018D01*
X4486Y772953D01*
X4489Y772945D01*
X4485Y772942D01*
X4451Y771842D01*
X4455Y771836D01*
X4451Y771833D01*
X4606Y770758D01*
X4612Y770752D01*
X4609Y770747D01*
X4999Y769733D01*
X5006Y769729D01*
X5005Y769723D01*
X5611Y768821D01*
X5619Y768819D01*
X5618Y768813D01*
X6410Y768069D01*
X6418Y768068D01*
X6418Y768062D01*
X7356Y767513D01*
X7364Y767514D01*
X7366Y767508D01*
X8402Y767181D01*
X8410Y767184D01*
X8413Y767179D01*
X9496Y767091D01*
X9499Y767093D01*
X9500Y767091D01*
X15500Y767091D01*
X15504Y767094D01*
G37*
G36*
X630184Y767094D02*
X630184Y767094D01*
X630186Y767091D01*
X631319Y767241D01*
X631325Y767247D01*
X631330Y767244D01*
X632400Y767642D01*
X632404Y767649D01*
X632410Y767647D01*
X633365Y768274D01*
X633368Y768282D01*
X633373Y768281D01*
X634165Y769104D01*
X634166Y769112D01*
X634172Y769113D01*
X634761Y770092D01*
X634760Y770100D01*
X634765Y770102D01*
X635121Y771187D01*
X635119Y771195D01*
X635123Y771198D01*
X635229Y772335D01*
X635224Y772344D01*
X635228Y772349D01*
X635021Y773486D01*
X635015Y773492D01*
X635018Y773497D01*
X634563Y774559D01*
X634556Y774563D01*
X634558Y774569D01*
X633878Y775504D01*
X633870Y775506D01*
X633871Y775512D01*
X633000Y776272D01*
X632992Y776272D01*
X632991Y776278D01*
X631972Y776825D01*
X631964Y776824D01*
X631962Y776829D01*
X630848Y777136D01*
X630840Y777133D01*
X630837Y777138D01*
X629682Y777189D01*
X629681Y777188D01*
X629680Y777189D01*
X623680Y777189D01*
X623677Y777187D01*
X623672Y777187D01*
X623671Y777188D01*
X622590Y776976D01*
X622585Y776970D01*
X622580Y776973D01*
X621574Y776526D01*
X621570Y776519D01*
X621564Y776521D01*
X620683Y775861D01*
X620680Y775853D01*
X620675Y775853D01*
X619962Y775014D01*
X619962Y775006D01*
X619956Y775005D01*
X619448Y774028D01*
X619449Y774020D01*
X619444Y774018D01*
X619166Y772953D01*
X619169Y772945D01*
X619165Y772942D01*
X619131Y771842D01*
X619135Y771836D01*
X619131Y771833D01*
X619286Y770758D01*
X619292Y770752D01*
X619289Y770747D01*
X619679Y769733D01*
X619686Y769729D01*
X619685Y769723D01*
X620291Y768821D01*
X620299Y768819D01*
X620298Y768813D01*
X621090Y768069D01*
X621098Y768068D01*
X621098Y768062D01*
X622036Y767513D01*
X622044Y767514D01*
X622046Y767508D01*
X623082Y767181D01*
X623090Y767184D01*
X623093Y767179D01*
X624176Y767091D01*
X624179Y767093D01*
X624180Y767091D01*
X630180Y767091D01*
X630184Y767094D01*
G37*
G36*
X630184Y533414D02*
X630184Y533414D01*
X630186Y533411D01*
X631319Y533561D01*
X631325Y533567D01*
X631330Y533564D01*
X632400Y533962D01*
X632404Y533969D01*
X632410Y533967D01*
X633365Y534594D01*
X633368Y534602D01*
X633373Y534601D01*
X634165Y535424D01*
X634166Y535432D01*
X634172Y535433D01*
X634761Y536412D01*
X634760Y536420D01*
X634765Y536422D01*
X635121Y537507D01*
X635119Y537515D01*
X635123Y537518D01*
X635229Y538655D01*
X635224Y538664D01*
X635228Y538669D01*
X635021Y539806D01*
X635015Y539812D01*
X635018Y539817D01*
X634563Y540879D01*
X634556Y540883D01*
X634558Y540889D01*
X633878Y541824D01*
X633870Y541826D01*
X633871Y541832D01*
X633000Y542592D01*
X632992Y542592D01*
X632991Y542598D01*
X631972Y543145D01*
X631964Y543144D01*
X631962Y543149D01*
X630848Y543456D01*
X630840Y543453D01*
X630837Y543458D01*
X629682Y543509D01*
X629681Y543508D01*
X629680Y543509D01*
X623680Y543509D01*
X623677Y543507D01*
X623672Y543507D01*
X623671Y543508D01*
X622590Y543296D01*
X622585Y543290D01*
X622580Y543293D01*
X621574Y542846D01*
X621570Y542839D01*
X621564Y542841D01*
X620683Y542181D01*
X620680Y542173D01*
X620675Y542173D01*
X619962Y541334D01*
X619962Y541326D01*
X619956Y541325D01*
X619448Y540348D01*
X619449Y540340D01*
X619444Y540338D01*
X619166Y539273D01*
X619169Y539265D01*
X619165Y539262D01*
X619131Y538162D01*
X619135Y538156D01*
X619131Y538153D01*
X619286Y537078D01*
X619292Y537072D01*
X619289Y537067D01*
X619679Y536053D01*
X619686Y536049D01*
X619685Y536043D01*
X620291Y535141D01*
X620299Y535139D01*
X620298Y535133D01*
X621090Y534389D01*
X621098Y534388D01*
X621098Y534382D01*
X622036Y533833D01*
X622044Y533834D01*
X622046Y533828D01*
X623082Y533501D01*
X623090Y533504D01*
X623093Y533499D01*
X624176Y533411D01*
X624179Y533413D01*
X624180Y533411D01*
X630180Y533411D01*
X630184Y533414D01*
G37*
G36*
X15504Y533414D02*
X15504Y533414D01*
X15506Y533411D01*
X16639Y533561D01*
X16645Y533567D01*
X16650Y533564D01*
X17720Y533962D01*
X17724Y533969D01*
X17730Y533967D01*
X18685Y534594D01*
X18688Y534602D01*
X18693Y534601D01*
X19485Y535424D01*
X19486Y535432D01*
X19492Y535433D01*
X20081Y536412D01*
X20080Y536420D01*
X20085Y536422D01*
X20441Y537507D01*
X20439Y537515D01*
X20443Y537518D01*
X20549Y538655D01*
X20544Y538664D01*
X20548Y538669D01*
X20341Y539806D01*
X20335Y539812D01*
X20338Y539817D01*
X19883Y540879D01*
X19876Y540883D01*
X19878Y540889D01*
X19198Y541824D01*
X19190Y541826D01*
X19191Y541832D01*
X18320Y542592D01*
X18312Y542592D01*
X18311Y542598D01*
X17292Y543145D01*
X17284Y543144D01*
X17282Y543149D01*
X16168Y543456D01*
X16160Y543453D01*
X16157Y543458D01*
X15002Y543509D01*
X15001Y543508D01*
X15000Y543509D01*
X9000Y543509D01*
X8997Y543507D01*
X8992Y543507D01*
X8991Y543508D01*
X7910Y543296D01*
X7905Y543290D01*
X7900Y543293D01*
X6894Y542846D01*
X6890Y542839D01*
X6884Y542841D01*
X6003Y542181D01*
X6000Y542173D01*
X5995Y542173D01*
X5282Y541334D01*
X5282Y541326D01*
X5276Y541325D01*
X4768Y540348D01*
X4769Y540340D01*
X4764Y540338D01*
X4486Y539273D01*
X4489Y539265D01*
X4485Y539262D01*
X4451Y538162D01*
X4455Y538156D01*
X4451Y538153D01*
X4606Y537078D01*
X4612Y537072D01*
X4609Y537067D01*
X4999Y536053D01*
X5006Y536049D01*
X5005Y536043D01*
X5611Y535141D01*
X5619Y535139D01*
X5618Y535133D01*
X6410Y534389D01*
X6418Y534388D01*
X6418Y534382D01*
X7356Y533833D01*
X7364Y533834D01*
X7366Y533828D01*
X8402Y533501D01*
X8410Y533504D01*
X8413Y533499D01*
X9496Y533411D01*
X9499Y533413D01*
X9500Y533411D01*
X15500Y533411D01*
X15504Y533414D01*
G37*
G36*
X15504Y299734D02*
X15504Y299734D01*
X15506Y299731D01*
X16639Y299881D01*
X16645Y299887D01*
X16650Y299884D01*
X17720Y300282D01*
X17724Y300289D01*
X17730Y300287D01*
X18685Y300914D01*
X18688Y300922D01*
X18693Y300921D01*
X19485Y301744D01*
X19486Y301752D01*
X19492Y301753D01*
X20081Y302732D01*
X20080Y302740D01*
X20085Y302742D01*
X20441Y303827D01*
X20439Y303835D01*
X20443Y303838D01*
X20549Y304975D01*
X20544Y304984D01*
X20548Y304989D01*
X20341Y306126D01*
X20335Y306132D01*
X20338Y306137D01*
X19883Y307199D01*
X19876Y307203D01*
X19878Y307209D01*
X19198Y308144D01*
X19190Y308146D01*
X19191Y308152D01*
X18320Y308912D01*
X18312Y308912D01*
X18311Y308918D01*
X17292Y309465D01*
X17284Y309464D01*
X17282Y309469D01*
X16168Y309776D01*
X16160Y309773D01*
X16157Y309778D01*
X15002Y309829D01*
X15001Y309828D01*
X15000Y309829D01*
X9000Y309829D01*
X8997Y309827D01*
X8992Y309827D01*
X8991Y309828D01*
X7910Y309616D01*
X7905Y309610D01*
X7900Y309613D01*
X6894Y309166D01*
X6890Y309159D01*
X6884Y309161D01*
X6003Y308501D01*
X6000Y308493D01*
X5995Y308493D01*
X5282Y307654D01*
X5282Y307646D01*
X5276Y307645D01*
X4768Y306668D01*
X4769Y306660D01*
X4764Y306658D01*
X4486Y305593D01*
X4489Y305585D01*
X4485Y305582D01*
X4451Y304482D01*
X4455Y304476D01*
X4451Y304473D01*
X4606Y303398D01*
X4612Y303392D01*
X4609Y303387D01*
X4999Y302373D01*
X5006Y302369D01*
X5005Y302363D01*
X5611Y301461D01*
X5619Y301459D01*
X5618Y301453D01*
X6410Y300709D01*
X6418Y300708D01*
X6418Y300702D01*
X7356Y300153D01*
X7364Y300154D01*
X7366Y300148D01*
X8402Y299821D01*
X8410Y299824D01*
X8413Y299819D01*
X9496Y299731D01*
X9499Y299733D01*
X9500Y299731D01*
X15500Y299731D01*
X15504Y299734D01*
G37*
G36*
X630184Y299734D02*
X630184Y299734D01*
X630186Y299731D01*
X631319Y299881D01*
X631325Y299887D01*
X631330Y299884D01*
X632400Y300282D01*
X632404Y300289D01*
X632410Y300287D01*
X633365Y300914D01*
X633368Y300922D01*
X633373Y300921D01*
X634165Y301744D01*
X634166Y301752D01*
X634172Y301753D01*
X634761Y302732D01*
X634760Y302740D01*
X634765Y302742D01*
X635121Y303827D01*
X635119Y303835D01*
X635123Y303838D01*
X635229Y304975D01*
X635224Y304984D01*
X635228Y304989D01*
X635021Y306126D01*
X635015Y306132D01*
X635018Y306137D01*
X634563Y307199D01*
X634556Y307203D01*
X634558Y307209D01*
X633878Y308144D01*
X633870Y308146D01*
X633871Y308152D01*
X633000Y308912D01*
X632992Y308912D01*
X632991Y308918D01*
X631972Y309465D01*
X631964Y309464D01*
X631962Y309469D01*
X630848Y309776D01*
X630840Y309773D01*
X630837Y309778D01*
X629682Y309829D01*
X629681Y309828D01*
X629680Y309829D01*
X623680Y309829D01*
X623677Y309827D01*
X623672Y309827D01*
X623671Y309828D01*
X622590Y309616D01*
X622585Y309610D01*
X622580Y309613D01*
X621574Y309166D01*
X621570Y309159D01*
X621564Y309161D01*
X620683Y308501D01*
X620680Y308493D01*
X620675Y308493D01*
X619962Y307654D01*
X619962Y307646D01*
X619956Y307645D01*
X619448Y306668D01*
X619449Y306660D01*
X619444Y306658D01*
X619166Y305593D01*
X619169Y305585D01*
X619165Y305582D01*
X619131Y304482D01*
X619135Y304476D01*
X619131Y304473D01*
X619286Y303398D01*
X619292Y303392D01*
X619289Y303387D01*
X619679Y302373D01*
X619686Y302369D01*
X619685Y302363D01*
X620291Y301461D01*
X620299Y301459D01*
X620298Y301453D01*
X621090Y300709D01*
X621098Y300708D01*
X621098Y300702D01*
X622036Y300153D01*
X622044Y300154D01*
X622046Y300148D01*
X623082Y299821D01*
X623090Y299824D01*
X623093Y299819D01*
X624176Y299731D01*
X624179Y299733D01*
X624180Y299731D01*
X630180Y299731D01*
X630184Y299734D01*
G37*
G36*
X630184Y66054D02*
X630184Y66054D01*
X630186Y66051D01*
X631319Y66201D01*
X631325Y66207D01*
X631330Y66204D01*
X632400Y66602D01*
X632404Y66609D01*
X632410Y66607D01*
X633365Y67234D01*
X633368Y67242D01*
X633373Y67241D01*
X634165Y68064D01*
X634166Y68072D01*
X634172Y68073D01*
X634761Y69052D01*
X634760Y69060D01*
X634765Y69062D01*
X635121Y70147D01*
X635119Y70155D01*
X635123Y70158D01*
X635229Y71295D01*
X635224Y71304D01*
X635228Y71309D01*
X635021Y72446D01*
X635015Y72452D01*
X635018Y72457D01*
X634563Y73519D01*
X634556Y73523D01*
X634558Y73529D01*
X633878Y74464D01*
X633870Y74466D01*
X633871Y74472D01*
X633000Y75232D01*
X632992Y75232D01*
X632991Y75238D01*
X631972Y75785D01*
X631964Y75784D01*
X631962Y75789D01*
X630848Y76096D01*
X630840Y76093D01*
X630837Y76098D01*
X629682Y76149D01*
X629681Y76148D01*
X629680Y76149D01*
X623680Y76149D01*
X623677Y76147D01*
X623672Y76147D01*
X623671Y76148D01*
X622590Y75936D01*
X622585Y75930D01*
X622580Y75933D01*
X621574Y75486D01*
X621570Y75479D01*
X621564Y75481D01*
X620683Y74821D01*
X620680Y74813D01*
X620675Y74813D01*
X619962Y73974D01*
X619962Y73966D01*
X619956Y73965D01*
X619448Y72988D01*
X619449Y72980D01*
X619444Y72978D01*
X619166Y71913D01*
X619169Y71905D01*
X619165Y71902D01*
X619131Y70802D01*
X619135Y70796D01*
X619131Y70793D01*
X619286Y69718D01*
X619292Y69712D01*
X619289Y69707D01*
X619679Y68693D01*
X619686Y68689D01*
X619685Y68683D01*
X620291Y67781D01*
X620299Y67779D01*
X620298Y67773D01*
X621090Y67029D01*
X621098Y67028D01*
X621098Y67022D01*
X622036Y66473D01*
X622044Y66474D01*
X622046Y66468D01*
X623082Y66141D01*
X623090Y66144D01*
X623093Y66139D01*
X624176Y66051D01*
X624179Y66053D01*
X624180Y66051D01*
X630180Y66051D01*
X630184Y66054D01*
G37*
G36*
X15504Y66054D02*
X15504Y66054D01*
X15506Y66051D01*
X16639Y66201D01*
X16645Y66207D01*
X16650Y66204D01*
X17720Y66602D01*
X17724Y66609D01*
X17730Y66607D01*
X18685Y67234D01*
X18688Y67242D01*
X18693Y67241D01*
X19485Y68064D01*
X19486Y68072D01*
X19492Y68073D01*
X20081Y69052D01*
X20080Y69060D01*
X20085Y69062D01*
X20441Y70147D01*
X20439Y70155D01*
X20443Y70158D01*
X20549Y71295D01*
X20544Y71304D01*
X20548Y71309D01*
X20341Y72446D01*
X20335Y72452D01*
X20338Y72457D01*
X19883Y73519D01*
X19876Y73523D01*
X19878Y73529D01*
X19198Y74464D01*
X19190Y74466D01*
X19191Y74472D01*
X18320Y75232D01*
X18312Y75232D01*
X18311Y75238D01*
X17292Y75785D01*
X17284Y75784D01*
X17282Y75789D01*
X16168Y76096D01*
X16160Y76093D01*
X16157Y76098D01*
X15002Y76149D01*
X15001Y76148D01*
X15000Y76149D01*
X9000Y76149D01*
X8997Y76147D01*
X8992Y76147D01*
X8991Y76148D01*
X7910Y75936D01*
X7905Y75930D01*
X7900Y75933D01*
X6894Y75486D01*
X6890Y75479D01*
X6884Y75481D01*
X6003Y74821D01*
X6000Y74813D01*
X5995Y74813D01*
X5282Y73974D01*
X5282Y73966D01*
X5276Y73965D01*
X4768Y72988D01*
X4769Y72980D01*
X4764Y72978D01*
X4486Y71913D01*
X4489Y71905D01*
X4485Y71902D01*
X4451Y70802D01*
X4455Y70796D01*
X4451Y70793D01*
X4606Y69718D01*
X4612Y69712D01*
X4609Y69707D01*
X4999Y68693D01*
X5006Y68689D01*
X5005Y68683D01*
X5611Y67781D01*
X5619Y67779D01*
X5618Y67773D01*
X6410Y67029D01*
X6418Y67028D01*
X6418Y67022D01*
X7356Y66473D01*
X7364Y66474D01*
X7366Y66468D01*
X8402Y66141D01*
X8410Y66144D01*
X8413Y66139D01*
X9496Y66051D01*
X9499Y66053D01*
X9500Y66051D01*
X15500Y66051D01*
X15504Y66054D01*
G37*
G36*
X630183Y853493D02*
X630183Y853493D01*
X630185Y853491D01*
X631277Y853592D01*
X631283Y853597D01*
X631288Y853594D01*
X632331Y853935D01*
X632336Y853942D01*
X632341Y853940D01*
X633282Y854504D01*
X633285Y854512D01*
X633291Y854511D01*
X634083Y855271D01*
X634084Y855279D01*
X634090Y855280D01*
X634693Y856197D01*
X634692Y856205D01*
X634698Y856207D01*
X635081Y857235D01*
X635079Y857243D01*
X635084Y857246D01*
X635229Y858334D01*
X635225Y858341D01*
X635229Y858345D01*
X635123Y859482D01*
X635118Y859488D01*
X635121Y859493D01*
X634765Y860578D01*
X634758Y860583D01*
X634761Y860588D01*
X634172Y861567D01*
X634164Y861570D01*
X634165Y861576D01*
X633373Y862399D01*
X633365Y862400D01*
X633365Y862406D01*
X632410Y863033D01*
X632402Y863032D01*
X632400Y863038D01*
X631330Y863436D01*
X631322Y863434D01*
X631319Y863439D01*
X630186Y863589D01*
X630183Y863587D01*
X630182Y863587D01*
X630180Y863589D01*
X624180Y863589D01*
X624177Y863587D01*
X624175Y863587D01*
X624174Y863589D01*
X623041Y863439D01*
X623035Y863433D01*
X623030Y863436D01*
X621960Y863038D01*
X621956Y863031D01*
X621950Y863033D01*
X620995Y862406D01*
X620992Y862398D01*
X620987Y862399D01*
X620195Y861576D01*
X620194Y861568D01*
X620188Y861567D01*
X619599Y860588D01*
X619600Y860580D01*
X619595Y860578D01*
X619239Y859493D01*
X619242Y859485D01*
X619237Y859482D01*
X619131Y858345D01*
X619135Y858338D01*
X619131Y858334D01*
X619276Y857246D01*
X619282Y857240D01*
X619279Y857235D01*
X619663Y856207D01*
X619669Y856202D01*
X619668Y856197D01*
X620270Y855280D01*
X620278Y855277D01*
X620277Y855271D01*
X621069Y854511D01*
X621077Y854510D01*
X621078Y854504D01*
X622019Y853940D01*
X622027Y853941D01*
X622029Y853935D01*
X623072Y853594D01*
X623080Y853596D01*
X623083Y853592D01*
X624176Y853491D01*
X624178Y853493D01*
X624180Y853491D01*
X630180Y853491D01*
X630183Y853493D01*
G37*
G36*
X15503Y853493D02*
X15503Y853493D01*
X15505Y853491D01*
X16597Y853592D01*
X16603Y853597D01*
X16608Y853594D01*
X17651Y853935D01*
X17656Y853942D01*
X17661Y853940D01*
X18602Y854504D01*
X18605Y854512D01*
X18611Y854511D01*
X19403Y855271D01*
X19404Y855279D01*
X19410Y855280D01*
X20013Y856197D01*
X20012Y856205D01*
X20018Y856207D01*
X20401Y857235D01*
X20399Y857243D01*
X20404Y857246D01*
X20549Y858334D01*
X20545Y858341D01*
X20549Y858345D01*
X20443Y859482D01*
X20438Y859488D01*
X20441Y859493D01*
X20085Y860578D01*
X20078Y860583D01*
X20081Y860588D01*
X19492Y861567D01*
X19484Y861570D01*
X19485Y861576D01*
X18693Y862399D01*
X18685Y862400D01*
X18685Y862406D01*
X17730Y863033D01*
X17722Y863032D01*
X17720Y863038D01*
X16650Y863436D01*
X16642Y863434D01*
X16639Y863439D01*
X15506Y863589D01*
X15503Y863587D01*
X15502Y863587D01*
X15500Y863589D01*
X9500Y863589D01*
X9497Y863587D01*
X9495Y863587D01*
X9494Y863589D01*
X8361Y863439D01*
X8355Y863433D01*
X8350Y863436D01*
X7280Y863038D01*
X7276Y863031D01*
X7270Y863033D01*
X6315Y862406D01*
X6312Y862398D01*
X6307Y862399D01*
X5515Y861576D01*
X5514Y861568D01*
X5508Y861567D01*
X4919Y860588D01*
X4920Y860580D01*
X4915Y860578D01*
X4559Y859493D01*
X4562Y859485D01*
X4557Y859482D01*
X4451Y858345D01*
X4455Y858338D01*
X4451Y858334D01*
X4596Y857246D01*
X4602Y857240D01*
X4599Y857235D01*
X4983Y856207D01*
X4989Y856202D01*
X4988Y856197D01*
X5590Y855280D01*
X5598Y855277D01*
X5597Y855271D01*
X6389Y854511D01*
X6397Y854510D01*
X6398Y854504D01*
X7339Y853940D01*
X7347Y853941D01*
X7349Y853935D01*
X8392Y853594D01*
X8400Y853596D01*
X8403Y853592D01*
X9496Y853491D01*
X9498Y853493D01*
X9500Y853491D01*
X15500Y853491D01*
X15503Y853493D01*
G37*
G36*
X630183Y619813D02*
X630183Y619813D01*
X630185Y619811D01*
X631277Y619912D01*
X631283Y619917D01*
X631288Y619914D01*
X632331Y620255D01*
X632336Y620262D01*
X632341Y620260D01*
X633282Y620824D01*
X633285Y620832D01*
X633291Y620831D01*
X634083Y621591D01*
X634084Y621599D01*
X634090Y621600D01*
X634693Y622517D01*
X634692Y622525D01*
X634698Y622527D01*
X635081Y623555D01*
X635079Y623563D01*
X635084Y623566D01*
X635229Y624654D01*
X635225Y624661D01*
X635229Y624665D01*
X635123Y625802D01*
X635118Y625808D01*
X635121Y625813D01*
X634765Y626898D01*
X634758Y626903D01*
X634761Y626908D01*
X634172Y627887D01*
X634164Y627890D01*
X634165Y627896D01*
X633373Y628719D01*
X633365Y628720D01*
X633365Y628726D01*
X632410Y629353D01*
X632402Y629352D01*
X632400Y629358D01*
X631330Y629756D01*
X631322Y629754D01*
X631319Y629759D01*
X630186Y629909D01*
X630183Y629907D01*
X630182Y629907D01*
X630180Y629909D01*
X624180Y629909D01*
X624177Y629907D01*
X624175Y629907D01*
X624174Y629909D01*
X623041Y629759D01*
X623035Y629753D01*
X623030Y629756D01*
X621960Y629358D01*
X621956Y629351D01*
X621950Y629353D01*
X620995Y628726D01*
X620992Y628718D01*
X620987Y628719D01*
X620195Y627896D01*
X620194Y627888D01*
X620188Y627887D01*
X619599Y626908D01*
X619600Y626900D01*
X619595Y626898D01*
X619239Y625813D01*
X619242Y625805D01*
X619237Y625802D01*
X619131Y624665D01*
X619135Y624658D01*
X619131Y624654D01*
X619276Y623566D01*
X619282Y623560D01*
X619279Y623555D01*
X619663Y622527D01*
X619669Y622522D01*
X619668Y622517D01*
X620270Y621600D01*
X620278Y621597D01*
X620277Y621591D01*
X621069Y620831D01*
X621077Y620830D01*
X621078Y620824D01*
X622019Y620260D01*
X622027Y620261D01*
X622029Y620255D01*
X623072Y619914D01*
X623080Y619916D01*
X623083Y619912D01*
X624176Y619811D01*
X624178Y619813D01*
X624180Y619811D01*
X630180Y619811D01*
X630183Y619813D01*
G37*
G36*
X15503Y619813D02*
X15503Y619813D01*
X15505Y619811D01*
X16597Y619912D01*
X16603Y619917D01*
X16608Y619914D01*
X17651Y620255D01*
X17656Y620262D01*
X17661Y620260D01*
X18602Y620824D01*
X18605Y620832D01*
X18611Y620831D01*
X19403Y621591D01*
X19404Y621599D01*
X19410Y621600D01*
X20013Y622517D01*
X20012Y622525D01*
X20018Y622527D01*
X20401Y623555D01*
X20399Y623563D01*
X20404Y623566D01*
X20549Y624654D01*
X20545Y624661D01*
X20549Y624665D01*
X20443Y625802D01*
X20438Y625808D01*
X20441Y625813D01*
X20085Y626898D01*
X20078Y626903D01*
X20081Y626908D01*
X19492Y627887D01*
X19484Y627890D01*
X19485Y627896D01*
X18693Y628719D01*
X18685Y628720D01*
X18685Y628726D01*
X17730Y629353D01*
X17722Y629352D01*
X17720Y629358D01*
X16650Y629756D01*
X16642Y629754D01*
X16639Y629759D01*
X15506Y629909D01*
X15503Y629907D01*
X15502Y629907D01*
X15500Y629909D01*
X9500Y629909D01*
X9497Y629907D01*
X9495Y629907D01*
X9494Y629909D01*
X8361Y629759D01*
X8355Y629753D01*
X8350Y629756D01*
X7280Y629358D01*
X7276Y629351D01*
X7270Y629353D01*
X6315Y628726D01*
X6312Y628718D01*
X6307Y628719D01*
X5515Y627896D01*
X5514Y627888D01*
X5508Y627887D01*
X4919Y626908D01*
X4920Y626900D01*
X4915Y626898D01*
X4559Y625813D01*
X4562Y625805D01*
X4557Y625802D01*
X4451Y624665D01*
X4455Y624658D01*
X4451Y624654D01*
X4596Y623566D01*
X4602Y623560D01*
X4599Y623555D01*
X4983Y622527D01*
X4989Y622522D01*
X4988Y622517D01*
X5590Y621600D01*
X5598Y621597D01*
X5597Y621591D01*
X6389Y620831D01*
X6397Y620830D01*
X6398Y620824D01*
X7339Y620260D01*
X7347Y620261D01*
X7349Y620255D01*
X8392Y619914D01*
X8400Y619916D01*
X8403Y619912D01*
X9496Y619811D01*
X9498Y619813D01*
X9500Y619811D01*
X15500Y619811D01*
X15503Y619813D01*
G37*
G36*
X630183Y386133D02*
X630183Y386133D01*
X630185Y386131D01*
X631277Y386232D01*
X631283Y386237D01*
X631288Y386234D01*
X632331Y386575D01*
X632336Y386582D01*
X632341Y386580D01*
X633282Y387144D01*
X633285Y387152D01*
X633291Y387151D01*
X634083Y387911D01*
X634084Y387919D01*
X634090Y387920D01*
X634693Y388837D01*
X634692Y388845D01*
X634698Y388847D01*
X635081Y389875D01*
X635079Y389883D01*
X635084Y389886D01*
X635229Y390974D01*
X635225Y390981D01*
X635229Y390985D01*
X635123Y392122D01*
X635118Y392128D01*
X635121Y392133D01*
X634765Y393218D01*
X634758Y393223D01*
X634761Y393228D01*
X634172Y394207D01*
X634164Y394210D01*
X634165Y394216D01*
X633373Y395039D01*
X633365Y395040D01*
X633365Y395046D01*
X632410Y395673D01*
X632402Y395672D01*
X632400Y395678D01*
X631330Y396076D01*
X631322Y396074D01*
X631319Y396079D01*
X630186Y396229D01*
X630183Y396227D01*
X630182Y396227D01*
X630180Y396229D01*
X624180Y396229D01*
X624177Y396227D01*
X624175Y396227D01*
X624174Y396229D01*
X623041Y396079D01*
X623035Y396073D01*
X623030Y396076D01*
X621960Y395678D01*
X621956Y395671D01*
X621950Y395673D01*
X620995Y395046D01*
X620992Y395038D01*
X620987Y395039D01*
X620195Y394216D01*
X620194Y394208D01*
X620188Y394207D01*
X619599Y393228D01*
X619600Y393220D01*
X619595Y393218D01*
X619239Y392133D01*
X619242Y392125D01*
X619237Y392122D01*
X619131Y390985D01*
X619135Y390978D01*
X619131Y390974D01*
X619276Y389886D01*
X619282Y389880D01*
X619279Y389875D01*
X619663Y388847D01*
X619669Y388842D01*
X619668Y388837D01*
X620270Y387920D01*
X620278Y387917D01*
X620277Y387911D01*
X621069Y387151D01*
X621077Y387150D01*
X621078Y387144D01*
X622019Y386580D01*
X622027Y386581D01*
X622029Y386575D01*
X623072Y386234D01*
X623080Y386236D01*
X623083Y386232D01*
X624176Y386131D01*
X624178Y386133D01*
X624180Y386131D01*
X630180Y386131D01*
X630183Y386133D01*
G37*
G36*
X15503Y386133D02*
X15503Y386133D01*
X15505Y386131D01*
X16597Y386232D01*
X16603Y386237D01*
X16608Y386234D01*
X17651Y386575D01*
X17656Y386582D01*
X17661Y386580D01*
X18602Y387144D01*
X18605Y387152D01*
X18611Y387151D01*
X19403Y387911D01*
X19404Y387919D01*
X19410Y387920D01*
X20013Y388837D01*
X20012Y388845D01*
X20018Y388847D01*
X20401Y389875D01*
X20399Y389883D01*
X20404Y389886D01*
X20549Y390974D01*
X20545Y390981D01*
X20549Y390985D01*
X20443Y392122D01*
X20438Y392128D01*
X20441Y392133D01*
X20085Y393218D01*
X20078Y393223D01*
X20081Y393228D01*
X19492Y394207D01*
X19484Y394210D01*
X19485Y394216D01*
X18693Y395039D01*
X18685Y395040D01*
X18685Y395046D01*
X17730Y395673D01*
X17722Y395672D01*
X17720Y395678D01*
X16650Y396076D01*
X16642Y396074D01*
X16639Y396079D01*
X15506Y396229D01*
X15503Y396227D01*
X15502Y396227D01*
X15500Y396229D01*
X9500Y396229D01*
X9497Y396227D01*
X9495Y396227D01*
X9494Y396229D01*
X8361Y396079D01*
X8355Y396073D01*
X8350Y396076D01*
X7280Y395678D01*
X7276Y395671D01*
X7270Y395673D01*
X6315Y395046D01*
X6312Y395038D01*
X6307Y395039D01*
X5515Y394216D01*
X5514Y394208D01*
X5508Y394207D01*
X4919Y393228D01*
X4920Y393220D01*
X4915Y393218D01*
X4559Y392133D01*
X4562Y392125D01*
X4557Y392122D01*
X4451Y390985D01*
X4455Y390978D01*
X4451Y390974D01*
X4596Y389886D01*
X4602Y389880D01*
X4599Y389875D01*
X4983Y388847D01*
X4989Y388842D01*
X4988Y388837D01*
X5590Y387920D01*
X5598Y387917D01*
X5597Y387911D01*
X6389Y387151D01*
X6397Y387150D01*
X6398Y387144D01*
X7339Y386580D01*
X7347Y386581D01*
X7349Y386575D01*
X8392Y386234D01*
X8400Y386236D01*
X8403Y386232D01*
X9496Y386131D01*
X9498Y386133D01*
X9500Y386131D01*
X15500Y386131D01*
X15503Y386133D01*
G37*
G36*
X15503Y152453D02*
X15503Y152453D01*
X15505Y152451D01*
X16597Y152552D01*
X16603Y152557D01*
X16608Y152554D01*
X17651Y152895D01*
X17656Y152902D01*
X17661Y152900D01*
X18602Y153464D01*
X18605Y153472D01*
X18611Y153471D01*
X19403Y154231D01*
X19404Y154239D01*
X19410Y154240D01*
X20013Y155157D01*
X20012Y155165D01*
X20018Y155167D01*
X20401Y156195D01*
X20399Y156203D01*
X20404Y156206D01*
X20549Y157294D01*
X20545Y157301D01*
X20549Y157305D01*
X20443Y158442D01*
X20438Y158448D01*
X20441Y158453D01*
X20085Y159538D01*
X20078Y159543D01*
X20081Y159548D01*
X19492Y160527D01*
X19484Y160530D01*
X19485Y160536D01*
X18693Y161359D01*
X18685Y161360D01*
X18685Y161366D01*
X17730Y161993D01*
X17722Y161992D01*
X17720Y161998D01*
X16650Y162396D01*
X16642Y162394D01*
X16639Y162399D01*
X15506Y162549D01*
X15503Y162547D01*
X15502Y162547D01*
X15500Y162549D01*
X9500Y162549D01*
X9497Y162547D01*
X9495Y162547D01*
X9494Y162549D01*
X8361Y162399D01*
X8355Y162393D01*
X8350Y162396D01*
X7280Y161998D01*
X7276Y161991D01*
X7270Y161993D01*
X6315Y161366D01*
X6312Y161358D01*
X6307Y161359D01*
X5515Y160536D01*
X5514Y160528D01*
X5508Y160527D01*
X4919Y159548D01*
X4920Y159540D01*
X4915Y159538D01*
X4559Y158453D01*
X4562Y158445D01*
X4557Y158442D01*
X4451Y157305D01*
X4455Y157298D01*
X4451Y157294D01*
X4596Y156206D01*
X4602Y156200D01*
X4599Y156195D01*
X4983Y155167D01*
X4989Y155162D01*
X4988Y155157D01*
X5590Y154240D01*
X5598Y154237D01*
X5597Y154231D01*
X6389Y153471D01*
X6397Y153470D01*
X6398Y153464D01*
X7339Y152900D01*
X7347Y152901D01*
X7349Y152895D01*
X8392Y152554D01*
X8400Y152556D01*
X8403Y152552D01*
X9496Y152451D01*
X9498Y152453D01*
X9500Y152451D01*
X15500Y152451D01*
X15503Y152453D01*
G37*
G36*
X630183Y152453D02*
X630183Y152453D01*
X630185Y152451D01*
X631277Y152552D01*
X631283Y152557D01*
X631288Y152554D01*
X632331Y152895D01*
X632336Y152902D01*
X632341Y152900D01*
X633282Y153464D01*
X633285Y153472D01*
X633291Y153471D01*
X634083Y154231D01*
X634084Y154239D01*
X634090Y154240D01*
X634693Y155157D01*
X634692Y155165D01*
X634698Y155167D01*
X635081Y156195D01*
X635079Y156203D01*
X635084Y156206D01*
X635229Y157294D01*
X635225Y157301D01*
X635229Y157305D01*
X635123Y158442D01*
X635118Y158448D01*
X635121Y158453D01*
X634765Y159538D01*
X634758Y159543D01*
X634761Y159548D01*
X634172Y160527D01*
X634164Y160530D01*
X634165Y160536D01*
X633373Y161359D01*
X633365Y161360D01*
X633365Y161366D01*
X632410Y161993D01*
X632402Y161992D01*
X632400Y161998D01*
X631330Y162396D01*
X631322Y162394D01*
X631319Y162399D01*
X630186Y162549D01*
X630183Y162547D01*
X630182Y162547D01*
X630180Y162549D01*
X624180Y162549D01*
X624177Y162547D01*
X624175Y162547D01*
X624174Y162549D01*
X623041Y162399D01*
X623035Y162393D01*
X623030Y162396D01*
X621960Y161998D01*
X621956Y161991D01*
X621950Y161993D01*
X620995Y161366D01*
X620992Y161358D01*
X620987Y161359D01*
X620195Y160536D01*
X620194Y160528D01*
X620188Y160527D01*
X619599Y159548D01*
X619600Y159540D01*
X619595Y159538D01*
X619239Y158453D01*
X619242Y158445D01*
X619237Y158442D01*
X619131Y157305D01*
X619135Y157298D01*
X619131Y157294D01*
X619276Y156206D01*
X619282Y156200D01*
X619279Y156195D01*
X619663Y155167D01*
X619669Y155162D01*
X619668Y155157D01*
X620270Y154240D01*
X620278Y154237D01*
X620277Y154231D01*
X621069Y153471D01*
X621077Y153470D01*
X621078Y153464D01*
X622019Y152900D01*
X622027Y152901D01*
X622029Y152895D01*
X623072Y152554D01*
X623080Y152556D01*
X623083Y152552D01*
X624176Y152451D01*
X624178Y152453D01*
X624180Y152451D01*
X630180Y152451D01*
X630183Y152453D01*
G37*
D10*
X166370Y77390D03*
X166370Y67390D03*
X208280Y86440D03*
X208280Y96440D03*
X227410Y168148D03*
X237410Y168148D03*
X259000Y168148D03*
X249000Y168148D03*
D11*
X186055Y92640D03*
X186055Y115640D03*
X170180Y92640D03*
X170180Y115640D03*
D12*
X257620Y69540D02*
X257620Y62540D01*
X250620Y62540D01*
X250620Y69540D01*
X257620Y69540D01*
X257620Y65390D02*
X250620Y65390D01*
X250620Y68240D02*
X257620Y68240D01*
X275160Y69540D02*
X275160Y62540D01*
X268160Y62540D01*
X268160Y69540D01*
X275160Y69540D01*
X275160Y65390D02*
X268160Y65390D01*
X268160Y68240D02*
X275160Y68240D01*
X268160Y78288D02*
X268160Y85288D01*
X275160Y85288D01*
X275160Y78288D01*
X268160Y78288D01*
X268160Y81138D02*
X275160Y81138D01*
X275160Y83988D02*
X268160Y83988D01*
X250620Y85288D02*
X250620Y78288D01*
X250620Y85288D02*
X257620Y85288D01*
X257620Y78288D01*
X250620Y78288D01*
X250620Y81138D02*
X257620Y81138D01*
X257620Y83988D02*
X250620Y83988D01*
D13*
X60100Y106800D03*
X60100Y111800D03*
D14*
X60100Y82050D03*
X60100Y89800D03*
D13*
X60100Y96800D03*
X60100Y101800D03*
X60100Y121800D03*
X60100Y116800D03*
D14*
X60100Y146550D03*
X60100Y138800D03*
D13*
X60100Y131800D03*
X60100Y126800D03*
D15*
X167800Y156802D03*
X187800Y156802D03*
D16*
X143800Y208802D03*
X211800Y208802D03*
D17*
X121980Y214550D03*
X65980Y214550D03*
D18*
X108980Y177800D03*
X98980Y177800D03*
X88980Y177800D03*
X78980Y177800D03*
D19*
X81280Y24520D03*
X81280Y41520D03*
X66040Y24520D03*
X66040Y41520D03*
X151130Y58810D03*
X151130Y75810D03*
D10*
X285830Y66040D03*
X295830Y66040D03*
X295830Y82042D03*
X285830Y82042D03*
D20*
X251070Y118110D03*
X234070Y118110D03*
D21*
X361600Y116800D03*
X361600Y111800D03*
X361600Y126800D03*
X361600Y136800D03*
X361600Y146800D03*
X361600Y121800D03*
X361600Y131800D03*
X361600Y141800D03*
X361600Y151800D03*
X361600Y101800D03*
X361600Y91800D03*
X361600Y81800D03*
X361600Y76800D03*
X361600Y86800D03*
X361600Y96800D03*
X361600Y106800D03*
D22*
X416600Y56800D03*
X421600Y56800D03*
X406600Y56800D03*
X396600Y56800D03*
X386600Y56800D03*
X411600Y56800D03*
X401600Y56800D03*
X391600Y56800D03*
X381600Y56800D03*
X431600Y56800D03*
X441600Y56800D03*
X451600Y56800D03*
X456600Y56800D03*
X446600Y56800D03*
X436600Y56800D03*
X426600Y56800D03*
D21*
X476600Y111800D03*
X476600Y116800D03*
X476600Y101800D03*
X476600Y91800D03*
X476600Y81800D03*
X476600Y106800D03*
X476600Y96800D03*
X476600Y86800D03*
X476600Y76800D03*
X476600Y126800D03*
X476600Y136800D03*
X476600Y146800D03*
X476600Y151800D03*
X476600Y141800D03*
X476600Y131800D03*
X476600Y121800D03*
D22*
X421600Y171800D03*
X416600Y171800D03*
X431600Y171800D03*
X441600Y171800D03*
X451600Y171800D03*
X426600Y171800D03*
X436600Y171800D03*
X446600Y171800D03*
X456600Y171800D03*
X406600Y171800D03*
X396600Y171800D03*
X386600Y171800D03*
X381600Y171800D03*
X391600Y171800D03*
X401600Y171800D03*
X411600Y171800D03*
D23*
X255571Y135280D03*
X255571Y144780D03*
X255571Y154280D03*
X229569Y154280D03*
X229569Y135280D03*
X181309Y76810D03*
X181309Y67310D03*
X181309Y57810D03*
X207311Y57810D03*
X207311Y76810D03*
D10*
X481410Y48260D03*
X491410Y48260D03*
X493014Y154860D03*
X493014Y144860D03*
X337820Y64690D03*
X337820Y54690D03*
X326390Y64690D03*
X326390Y54690D03*
X360680Y64690D03*
X360680Y54690D03*
X349250Y64690D03*
X349250Y54690D03*
X481410Y58420D03*
X491410Y58420D03*
X503174Y154860D03*
X503174Y144860D03*
X381000Y184230D03*
X381000Y194230D03*
D24*
X129720Y76580D03*
X129720Y60580D03*
X88720Y60580D03*
X88720Y76580D03*
X129720Y142620D03*
X129720Y126620D03*
X88720Y126620D03*
X88720Y142620D03*
D10*
X153670Y96600D03*
X153670Y106600D03*
D20*
X96910Y41910D03*
X113910Y41910D03*
D10*
X96520Y29130D03*
X96520Y19130D03*
D20*
X95640Y93980D03*
X112640Y93980D03*
X95640Y109220D03*
X112640Y109220D03*
D10*
X513080Y154860D03*
X513080Y144860D03*
D25*
X533400Y86550D03*
X546100Y86550D03*
X558800Y86550D03*
X571500Y86550D03*
X558800Y142050D03*
X571500Y142050D03*
X546100Y142050D03*
X533400Y142050D03*
D26*
X552450Y114300D03*
D27*
X337820Y167440D03*
X337820Y142440D03*
D28*
X318700Y121370D03*
X341700Y84370D03*
X341700Y121370D03*
X318700Y84370D03*
D10*
X319880Y158750D03*
X309880Y158750D03*
X319880Y148590D03*
X309880Y148590D03*
X319880Y138430D03*
X309880Y138430D03*
X314960Y64610D03*
X314960Y54610D03*
X514350Y77390D03*
X514350Y67390D03*
D12*
X293560Y171760D02*
X293560Y178760D01*
X300560Y178760D01*
X300560Y171760D01*
X293560Y171760D01*
X293560Y174610D02*
X300560Y174610D01*
X300560Y177460D02*
X293560Y177460D01*
X276020Y178760D02*
X276020Y171760D01*
X276020Y178760D02*
X283020Y178760D01*
X283020Y171760D01*
X276020Y171760D01*
X276020Y174610D02*
X283020Y174610D01*
X283020Y177460D02*
X276020Y177460D01*
D10*
X283290Y187960D03*
X293290Y187960D03*
X781050Y77390D03*
X781050Y67390D03*
X822960Y86440D03*
X822960Y96440D03*
X842090Y168148D03*
X852090Y168148D03*
X873680Y168148D03*
X863680Y168148D03*
D11*
X800735Y92640D03*
X800735Y115640D03*
X784860Y92640D03*
X784860Y115640D03*
D12*
X872300Y69540D02*
X872300Y62540D01*
X865300Y62540D01*
X865300Y69540D01*
X872300Y69540D01*
X872300Y65390D02*
X865300Y65390D01*
X865300Y68240D02*
X872300Y68240D01*
X889840Y69540D02*
X889840Y62540D01*
X882840Y62540D01*
X882840Y69540D01*
X889840Y69540D01*
X889840Y65390D02*
X882840Y65390D01*
X882840Y68240D02*
X889840Y68240D01*
X882840Y78288D02*
X882840Y85288D01*
X889840Y85288D01*
X889840Y78288D01*
X882840Y78288D01*
X882840Y81138D02*
X889840Y81138D01*
X889840Y83988D02*
X882840Y83988D01*
X865300Y85288D02*
X865300Y78288D01*
X865300Y85288D02*
X872300Y85288D01*
X872300Y78288D01*
X865300Y78288D01*
X865300Y81138D02*
X872300Y81138D01*
X872300Y83988D02*
X865300Y83988D01*
D13*
X674780Y106800D03*
X674780Y111800D03*
D14*
X674780Y82050D03*
X674780Y89800D03*
D13*
X674780Y96800D03*
X674780Y101800D03*
X674780Y121800D03*
X674780Y116800D03*
D14*
X674780Y146550D03*
X674780Y138800D03*
D13*
X674780Y131800D03*
X674780Y126800D03*
D15*
X782480Y156802D03*
X802480Y156802D03*
D16*
X758480Y208802D03*
X826480Y208802D03*
D17*
X736660Y214550D03*
X680660Y214550D03*
D18*
X723660Y177800D03*
X713660Y177800D03*
X703660Y177800D03*
X693660Y177800D03*
D19*
X695960Y24520D03*
X695960Y41520D03*
X680720Y24520D03*
X680720Y41520D03*
X765810Y58810D03*
X765810Y75810D03*
D10*
X900510Y66040D03*
X910510Y66040D03*
X910510Y82042D03*
X900510Y82042D03*
D20*
X865750Y118110D03*
X848750Y118110D03*
D21*
X976280Y116800D03*
X976280Y111800D03*
X976280Y126800D03*
X976280Y136800D03*
X976280Y146800D03*
X976280Y121800D03*
X976280Y131800D03*
X976280Y141800D03*
X976280Y151800D03*
X976280Y101800D03*
X976280Y91800D03*
X976280Y81800D03*
X976280Y76800D03*
X976280Y86800D03*
X976280Y96800D03*
X976280Y106800D03*
D22*
X1031280Y56800D03*
X1036280Y56800D03*
X1021280Y56800D03*
X1011280Y56800D03*
X1001280Y56800D03*
X1026280Y56800D03*
X1016280Y56800D03*
X1006280Y56800D03*
X996280Y56800D03*
X1046280Y56800D03*
X1056280Y56800D03*
X1066280Y56800D03*
X1071280Y56800D03*
X1061280Y56800D03*
X1051280Y56800D03*
X1041280Y56800D03*
D21*
X1091280Y111800D03*
X1091280Y116800D03*
X1091280Y101800D03*
X1091280Y91800D03*
X1091280Y81800D03*
X1091280Y106800D03*
X1091280Y96800D03*
X1091280Y86800D03*
X1091280Y76800D03*
X1091280Y126800D03*
X1091280Y136800D03*
X1091280Y146800D03*
X1091280Y151800D03*
X1091280Y141800D03*
X1091280Y131800D03*
X1091280Y121800D03*
D22*
X1036280Y171800D03*
X1031280Y171800D03*
X1046280Y171800D03*
X1056280Y171800D03*
X1066280Y171800D03*
X1041280Y171800D03*
X1051280Y171800D03*
X1061280Y171800D03*
X1071280Y171800D03*
X1021280Y171800D03*
X1011280Y171800D03*
X1001280Y171800D03*
X996280Y171800D03*
X1006280Y171800D03*
X1016280Y171800D03*
X1026280Y171800D03*
D23*
X870251Y135280D03*
X870251Y144780D03*
X870251Y154280D03*
X844249Y154280D03*
X844249Y135280D03*
X795989Y76810D03*
X795989Y67310D03*
X795989Y57810D03*
X821991Y57810D03*
X821991Y76810D03*
D10*
X1096090Y48260D03*
X1106090Y48260D03*
X1107694Y154860D03*
X1107694Y144860D03*
X952500Y64690D03*
X952500Y54690D03*
X941070Y64690D03*
X941070Y54690D03*
X975360Y64690D03*
X975360Y54690D03*
X963930Y64690D03*
X963930Y54690D03*
X1096090Y58420D03*
X1106090Y58420D03*
X1117854Y154860D03*
X1117854Y144860D03*
X995680Y184230D03*
X995680Y194230D03*
D24*
X744400Y76580D03*
X744400Y60580D03*
X703400Y60580D03*
X703400Y76580D03*
X744400Y142620D03*
X744400Y126620D03*
X703400Y126620D03*
X703400Y142620D03*
D10*
X768350Y96600D03*
X768350Y106600D03*
D20*
X711590Y41910D03*
X728590Y41910D03*
D10*
X711200Y29130D03*
X711200Y19130D03*
D20*
X710320Y93980D03*
X727320Y93980D03*
X710320Y109220D03*
X727320Y109220D03*
D10*
X1127760Y154860D03*
X1127760Y144860D03*
D25*
X1148080Y86550D03*
X1160780Y86550D03*
X1173480Y86550D03*
X1186180Y86550D03*
X1173480Y142050D03*
X1186180Y142050D03*
X1160780Y142050D03*
X1148080Y142050D03*
D26*
X1167130Y114300D03*
D27*
X952500Y167440D03*
X952500Y142440D03*
D28*
X933380Y121370D03*
X956380Y84370D03*
X956380Y121370D03*
X933380Y84370D03*
D10*
X934560Y158750D03*
X924560Y158750D03*
X934560Y148590D03*
X924560Y148590D03*
X934560Y138430D03*
X924560Y138430D03*
X929640Y64610D03*
X929640Y54610D03*
X1129030Y77390D03*
X1129030Y67390D03*
D12*
X908240Y171760D02*
X908240Y178760D01*
X915240Y178760D01*
X915240Y171760D01*
X908240Y171760D01*
X908240Y174610D02*
X915240Y174610D01*
X915240Y177460D02*
X908240Y177460D01*
X890700Y178760D02*
X890700Y171760D01*
X890700Y178760D02*
X897700Y178760D01*
X897700Y171760D01*
X890700Y171760D01*
X890700Y174610D02*
X897700Y174610D01*
X897700Y177460D02*
X890700Y177460D01*
D10*
X897970Y187960D03*
X907970Y187960D03*
X166370Y311070D03*
X166370Y301070D03*
X208280Y320120D03*
X208280Y330120D03*
X227410Y401828D03*
X237410Y401828D03*
X259000Y401828D03*
X249000Y401828D03*
D11*
X186055Y326320D03*
X186055Y349320D03*
X170180Y326320D03*
X170180Y349320D03*
D12*
X257620Y303220D02*
X257620Y296220D01*
X250620Y296220D01*
X250620Y303220D01*
X257620Y303220D01*
X257620Y299070D02*
X250620Y299070D01*
X250620Y301920D02*
X257620Y301920D01*
X275160Y303220D02*
X275160Y296220D01*
X268160Y296220D01*
X268160Y303220D01*
X275160Y303220D01*
X275160Y299070D02*
X268160Y299070D01*
X268160Y301920D02*
X275160Y301920D01*
X268160Y311968D02*
X268160Y318968D01*
X275160Y318968D01*
X275160Y311968D01*
X268160Y311968D01*
X268160Y314818D02*
X275160Y314818D01*
X275160Y317668D02*
X268160Y317668D01*
X250620Y318968D02*
X250620Y311968D01*
X250620Y318968D02*
X257620Y318968D01*
X257620Y311968D01*
X250620Y311968D01*
X250620Y314818D02*
X257620Y314818D01*
X257620Y317668D02*
X250620Y317668D01*
D13*
X60100Y340480D03*
X60100Y345480D03*
D14*
X60100Y315730D03*
X60100Y323480D03*
D13*
X60100Y330480D03*
X60100Y335480D03*
X60100Y355480D03*
X60100Y350480D03*
D14*
X60100Y380230D03*
X60100Y372480D03*
D13*
X60100Y365480D03*
X60100Y360480D03*
D15*
X167800Y390482D03*
X187800Y390482D03*
D16*
X143800Y442482D03*
X211800Y442482D03*
D17*
X121980Y448230D03*
X65980Y448230D03*
D18*
X108980Y411480D03*
X98980Y411480D03*
X88980Y411480D03*
X78980Y411480D03*
D19*
X81280Y258200D03*
X81280Y275200D03*
X66040Y258200D03*
X66040Y275200D03*
X151130Y292490D03*
X151130Y309490D03*
D10*
X285830Y299720D03*
X295830Y299720D03*
X295830Y315722D03*
X285830Y315722D03*
D20*
X251070Y351790D03*
X234070Y351790D03*
D21*
X361600Y350480D03*
X361600Y345480D03*
X361600Y360480D03*
X361600Y370480D03*
X361600Y380480D03*
X361600Y355480D03*
X361600Y365480D03*
X361600Y375480D03*
X361600Y385480D03*
X361600Y335480D03*
X361600Y325480D03*
X361600Y315480D03*
X361600Y310480D03*
X361600Y320480D03*
X361600Y330480D03*
X361600Y340480D03*
D22*
X416600Y290480D03*
X421600Y290480D03*
X406600Y290480D03*
X396600Y290480D03*
X386600Y290480D03*
X411600Y290480D03*
X401600Y290480D03*
X391600Y290480D03*
X381600Y290480D03*
X431600Y290480D03*
X441600Y290480D03*
X451600Y290480D03*
X456600Y290480D03*
X446600Y290480D03*
X436600Y290480D03*
X426600Y290480D03*
D21*
X476600Y345480D03*
X476600Y350480D03*
X476600Y335480D03*
X476600Y325480D03*
X476600Y315480D03*
X476600Y340480D03*
X476600Y330480D03*
X476600Y320480D03*
X476600Y310480D03*
X476600Y360480D03*
X476600Y370480D03*
X476600Y380480D03*
X476600Y385480D03*
X476600Y375480D03*
X476600Y365480D03*
X476600Y355480D03*
D22*
X421600Y405480D03*
X416600Y405480D03*
X431600Y405480D03*
X441600Y405480D03*
X451600Y405480D03*
X426600Y405480D03*
X436600Y405480D03*
X446600Y405480D03*
X456600Y405480D03*
X406600Y405480D03*
X396600Y405480D03*
X386600Y405480D03*
X381600Y405480D03*
X391600Y405480D03*
X401600Y405480D03*
X411600Y405480D03*
D23*
X255571Y368960D03*
X255571Y378460D03*
X255571Y387960D03*
X229569Y387960D03*
X229569Y368960D03*
X181309Y310490D03*
X181309Y300990D03*
X181309Y291490D03*
X207311Y291490D03*
X207311Y310490D03*
D10*
X481410Y281940D03*
X491410Y281940D03*
X493014Y388540D03*
X493014Y378540D03*
X337820Y298370D03*
X337820Y288370D03*
X326390Y298370D03*
X326390Y288370D03*
X360680Y298370D03*
X360680Y288370D03*
X349250Y298370D03*
X349250Y288370D03*
X481410Y292100D03*
X491410Y292100D03*
X503174Y388540D03*
X503174Y378540D03*
X381000Y417910D03*
X381000Y427910D03*
D24*
X129720Y310260D03*
X129720Y294260D03*
X88720Y294260D03*
X88720Y310260D03*
X129720Y376300D03*
X129720Y360300D03*
X88720Y360300D03*
X88720Y376300D03*
D10*
X153670Y330280D03*
X153670Y340280D03*
D20*
X96910Y275590D03*
X113910Y275590D03*
D10*
X96520Y262810D03*
X96520Y252810D03*
D20*
X95640Y327660D03*
X112640Y327660D03*
X95640Y342900D03*
X112640Y342900D03*
D10*
X513080Y388540D03*
X513080Y378540D03*
D25*
X533400Y320230D03*
X546100Y320230D03*
X558800Y320230D03*
X571500Y320230D03*
X558800Y375730D03*
X571500Y375730D03*
X546100Y375730D03*
X533400Y375730D03*
D26*
X552450Y347980D03*
D27*
X337820Y401120D03*
X337820Y376120D03*
D28*
X318700Y355050D03*
X341700Y318050D03*
X341700Y355050D03*
X318700Y318050D03*
D10*
X319880Y392430D03*
X309880Y392430D03*
X319880Y382270D03*
X309880Y382270D03*
X319880Y372110D03*
X309880Y372110D03*
X314960Y298290D03*
X314960Y288290D03*
X514350Y311070D03*
X514350Y301070D03*
D12*
X293560Y405440D02*
X293560Y412440D01*
X300560Y412440D01*
X300560Y405440D01*
X293560Y405440D01*
X293560Y408290D02*
X300560Y408290D01*
X300560Y411140D02*
X293560Y411140D01*
X276020Y412440D02*
X276020Y405440D01*
X276020Y412440D02*
X283020Y412440D01*
X283020Y405440D01*
X276020Y405440D01*
X276020Y408290D02*
X283020Y408290D01*
X283020Y411140D02*
X276020Y411140D01*
D10*
X283290Y421640D03*
X293290Y421640D03*
X781050Y311070D03*
X781050Y301070D03*
X822960Y320120D03*
X822960Y330120D03*
X842090Y401828D03*
X852090Y401828D03*
X873680Y401828D03*
X863680Y401828D03*
D11*
X800735Y326320D03*
X800735Y349320D03*
X784860Y326320D03*
X784860Y349320D03*
D12*
X872300Y303220D02*
X872300Y296220D01*
X865300Y296220D01*
X865300Y303220D01*
X872300Y303220D01*
X872300Y299070D02*
X865300Y299070D01*
X865300Y301920D02*
X872300Y301920D01*
X889840Y303220D02*
X889840Y296220D01*
X882840Y296220D01*
X882840Y303220D01*
X889840Y303220D01*
X889840Y299070D02*
X882840Y299070D01*
X882840Y301920D02*
X889840Y301920D01*
X882840Y311968D02*
X882840Y318968D01*
X889840Y318968D01*
X889840Y311968D01*
X882840Y311968D01*
X882840Y314818D02*
X889840Y314818D01*
X889840Y317668D02*
X882840Y317668D01*
X865300Y318968D02*
X865300Y311968D01*
X865300Y318968D02*
X872300Y318968D01*
X872300Y311968D01*
X865300Y311968D01*
X865300Y314818D02*
X872300Y314818D01*
X872300Y317668D02*
X865300Y317668D01*
D13*
X674780Y340480D03*
X674780Y345480D03*
D14*
X674780Y315730D03*
X674780Y323480D03*
D13*
X674780Y330480D03*
X674780Y335480D03*
X674780Y355480D03*
X674780Y350480D03*
D14*
X674780Y380230D03*
X674780Y372480D03*
D13*
X674780Y365480D03*
X674780Y360480D03*
D15*
X782480Y390482D03*
X802480Y390482D03*
D16*
X758480Y442482D03*
X826480Y442482D03*
D17*
X736660Y448230D03*
X680660Y448230D03*
D18*
X723660Y411480D03*
X713660Y411480D03*
X703660Y411480D03*
X693660Y411480D03*
D19*
X695960Y258200D03*
X695960Y275200D03*
X680720Y258200D03*
X680720Y275200D03*
X765810Y292490D03*
X765810Y309490D03*
D10*
X900510Y299720D03*
X910510Y299720D03*
X910510Y315722D03*
X900510Y315722D03*
D20*
X865750Y351790D03*
X848750Y351790D03*
D21*
X976280Y350480D03*
X976280Y345480D03*
X976280Y360480D03*
X976280Y370480D03*
X976280Y380480D03*
X976280Y355480D03*
X976280Y365480D03*
X976280Y375480D03*
X976280Y385480D03*
X976280Y335480D03*
X976280Y325480D03*
X976280Y315480D03*
X976280Y310480D03*
X976280Y320480D03*
X976280Y330480D03*
X976280Y340480D03*
D22*
X1031280Y290480D03*
X1036280Y290480D03*
X1021280Y290480D03*
X1011280Y290480D03*
X1001280Y290480D03*
X1026280Y290480D03*
X1016280Y290480D03*
X1006280Y290480D03*
X996280Y290480D03*
X1046280Y290480D03*
X1056280Y290480D03*
X1066280Y290480D03*
X1071280Y290480D03*
X1061280Y290480D03*
X1051280Y290480D03*
X1041280Y290480D03*
D21*
X1091280Y345480D03*
X1091280Y350480D03*
X1091280Y335480D03*
X1091280Y325480D03*
X1091280Y315480D03*
X1091280Y340480D03*
X1091280Y330480D03*
X1091280Y320480D03*
X1091280Y310480D03*
X1091280Y360480D03*
X1091280Y370480D03*
X1091280Y380480D03*
X1091280Y385480D03*
X1091280Y375480D03*
X1091280Y365480D03*
X1091280Y355480D03*
D22*
X1036280Y405480D03*
X1031280Y405480D03*
X1046280Y405480D03*
X1056280Y405480D03*
X1066280Y405480D03*
X1041280Y405480D03*
X1051280Y405480D03*
X1061280Y405480D03*
X1071280Y405480D03*
X1021280Y405480D03*
X1011280Y405480D03*
X1001280Y405480D03*
X996280Y405480D03*
X1006280Y405480D03*
X1016280Y405480D03*
X1026280Y405480D03*
D23*
X870251Y368960D03*
X870251Y378460D03*
X870251Y387960D03*
X844249Y387960D03*
X844249Y368960D03*
X795989Y310490D03*
X795989Y300990D03*
X795989Y291490D03*
X821991Y291490D03*
X821991Y310490D03*
D10*
X1096090Y281940D03*
X1106090Y281940D03*
X1107694Y388540D03*
X1107694Y378540D03*
X952500Y298370D03*
X952500Y288370D03*
X941070Y298370D03*
X941070Y288370D03*
X975360Y298370D03*
X975360Y288370D03*
X963930Y298370D03*
X963930Y288370D03*
X1096090Y292100D03*
X1106090Y292100D03*
X1117854Y388540D03*
X1117854Y378540D03*
X995680Y417910D03*
X995680Y427910D03*
D24*
X744400Y310260D03*
X744400Y294260D03*
X703400Y294260D03*
X703400Y310260D03*
X744400Y376300D03*
X744400Y360300D03*
X703400Y360300D03*
X703400Y376300D03*
D10*
X768350Y330280D03*
X768350Y340280D03*
D20*
X711590Y275590D03*
X728590Y275590D03*
D10*
X711200Y262810D03*
X711200Y252810D03*
D20*
X710320Y327660D03*
X727320Y327660D03*
X710320Y342900D03*
X727320Y342900D03*
D10*
X1127760Y388540D03*
X1127760Y378540D03*
D25*
X1148080Y320230D03*
X1160780Y320230D03*
X1173480Y320230D03*
X1186180Y320230D03*
X1173480Y375730D03*
X1186180Y375730D03*
X1160780Y375730D03*
X1148080Y375730D03*
D26*
X1167130Y347980D03*
D27*
X952500Y401120D03*
X952500Y376120D03*
D28*
X933380Y355050D03*
X956380Y318050D03*
X956380Y355050D03*
X933380Y318050D03*
D10*
X934560Y392430D03*
X924560Y392430D03*
X934560Y382270D03*
X924560Y382270D03*
X934560Y372110D03*
X924560Y372110D03*
X929640Y298290D03*
X929640Y288290D03*
X1129030Y311070D03*
X1129030Y301070D03*
D12*
X908240Y405440D02*
X908240Y412440D01*
X915240Y412440D01*
X915240Y405440D01*
X908240Y405440D01*
X908240Y408290D02*
X915240Y408290D01*
X915240Y411140D02*
X908240Y411140D01*
X890700Y412440D02*
X890700Y405440D01*
X890700Y412440D02*
X897700Y412440D01*
X897700Y405440D01*
X890700Y405440D01*
X890700Y408290D02*
X897700Y408290D01*
X897700Y411140D02*
X890700Y411140D01*
D10*
X897970Y421640D03*
X907970Y421640D03*
X166370Y544750D03*
X166370Y534750D03*
X208280Y553800D03*
X208280Y563800D03*
X227410Y635508D03*
X237410Y635508D03*
X259000Y635508D03*
X249000Y635508D03*
D11*
X186055Y560000D03*
X186055Y583000D03*
X170180Y560000D03*
X170180Y583000D03*
D12*
X257620Y536900D02*
X257620Y529900D01*
X250620Y529900D01*
X250620Y536900D01*
X257620Y536900D01*
X257620Y532750D02*
X250620Y532750D01*
X250620Y535600D02*
X257620Y535600D01*
X275160Y536900D02*
X275160Y529900D01*
X268160Y529900D01*
X268160Y536900D01*
X275160Y536900D01*
X275160Y532750D02*
X268160Y532750D01*
X268160Y535600D02*
X275160Y535600D01*
X268160Y545648D02*
X268160Y552648D01*
X275160Y552648D01*
X275160Y545648D01*
X268160Y545648D01*
X268160Y548498D02*
X275160Y548498D01*
X275160Y551348D02*
X268160Y551348D01*
X250620Y552648D02*
X250620Y545648D01*
X250620Y552648D02*
X257620Y552648D01*
X257620Y545648D01*
X250620Y545648D01*
X250620Y548498D02*
X257620Y548498D01*
X257620Y551348D02*
X250620Y551348D01*
D13*
X60100Y574160D03*
X60100Y579160D03*
D14*
X60100Y549410D03*
X60100Y557160D03*
D13*
X60100Y564160D03*
X60100Y569160D03*
X60100Y589160D03*
X60100Y584160D03*
D14*
X60100Y613910D03*
X60100Y606160D03*
D13*
X60100Y599160D03*
X60100Y594160D03*
D15*
X167800Y624162D03*
X187800Y624162D03*
D16*
X143800Y676162D03*
X211800Y676162D03*
D17*
X121980Y681910D03*
X65980Y681910D03*
D18*
X108980Y645160D03*
X98980Y645160D03*
X88980Y645160D03*
X78980Y645160D03*
D19*
X81280Y491880D03*
X81280Y508880D03*
X66040Y491880D03*
X66040Y508880D03*
X151130Y526170D03*
X151130Y543170D03*
D10*
X285830Y533400D03*
X295830Y533400D03*
X295830Y549402D03*
X285830Y549402D03*
D20*
X251070Y585470D03*
X234070Y585470D03*
D21*
X361600Y584160D03*
X361600Y579160D03*
X361600Y594160D03*
X361600Y604160D03*
X361600Y614160D03*
X361600Y589160D03*
X361600Y599160D03*
X361600Y609160D03*
X361600Y619160D03*
X361600Y569160D03*
X361600Y559160D03*
X361600Y549160D03*
X361600Y544160D03*
X361600Y554160D03*
X361600Y564160D03*
X361600Y574160D03*
D22*
X416600Y524160D03*
X421600Y524160D03*
X406600Y524160D03*
X396600Y524160D03*
X386600Y524160D03*
X411600Y524160D03*
X401600Y524160D03*
X391600Y524160D03*
X381600Y524160D03*
X431600Y524160D03*
X441600Y524160D03*
X451600Y524160D03*
X456600Y524160D03*
X446600Y524160D03*
X436600Y524160D03*
X426600Y524160D03*
D21*
X476600Y579160D03*
X476600Y584160D03*
X476600Y569160D03*
X476600Y559160D03*
X476600Y549160D03*
X476600Y574160D03*
X476600Y564160D03*
X476600Y554160D03*
X476600Y544160D03*
X476600Y594160D03*
X476600Y604160D03*
X476600Y614160D03*
X476600Y619160D03*
X476600Y609160D03*
X476600Y599160D03*
X476600Y589160D03*
D22*
X421600Y639160D03*
X416600Y639160D03*
X431600Y639160D03*
X441600Y639160D03*
X451600Y639160D03*
X426600Y639160D03*
X436600Y639160D03*
X446600Y639160D03*
X456600Y639160D03*
X406600Y639160D03*
X396600Y639160D03*
X386600Y639160D03*
X381600Y639160D03*
X391600Y639160D03*
X401600Y639160D03*
X411600Y639160D03*
D23*
X255571Y602640D03*
X255571Y612140D03*
X255571Y621640D03*
X229569Y621640D03*
X229569Y602640D03*
X181309Y544170D03*
X181309Y534670D03*
X181309Y525170D03*
X207311Y525170D03*
X207311Y544170D03*
D10*
X481410Y515620D03*
X491410Y515620D03*
X493014Y622220D03*
X493014Y612220D03*
X337820Y532050D03*
X337820Y522050D03*
X326390Y532050D03*
X326390Y522050D03*
X360680Y532050D03*
X360680Y522050D03*
X349250Y532050D03*
X349250Y522050D03*
X481410Y525780D03*
X491410Y525780D03*
X503174Y622220D03*
X503174Y612220D03*
X381000Y651590D03*
X381000Y661590D03*
D24*
X129720Y543940D03*
X129720Y527940D03*
X88720Y527940D03*
X88720Y543940D03*
X129720Y609980D03*
X129720Y593980D03*
X88720Y593980D03*
X88720Y609980D03*
D10*
X153670Y563960D03*
X153670Y573960D03*
D20*
X96910Y509270D03*
X113910Y509270D03*
D10*
X96520Y496490D03*
X96520Y486490D03*
D20*
X95640Y561340D03*
X112640Y561340D03*
X95640Y576580D03*
X112640Y576580D03*
D10*
X513080Y622220D03*
X513080Y612220D03*
D25*
X533400Y553910D03*
X546100Y553910D03*
X558800Y553910D03*
X571500Y553910D03*
X558800Y609410D03*
X571500Y609410D03*
X546100Y609410D03*
X533400Y609410D03*
D26*
X552450Y581660D03*
D27*
X337820Y634800D03*
X337820Y609800D03*
D28*
X318700Y588730D03*
X341700Y551730D03*
X341700Y588730D03*
X318700Y551730D03*
D10*
X319880Y626110D03*
X309880Y626110D03*
X319880Y615950D03*
X309880Y615950D03*
X319880Y605790D03*
X309880Y605790D03*
X314960Y531970D03*
X314960Y521970D03*
X514350Y544750D03*
X514350Y534750D03*
D12*
X293560Y639120D02*
X293560Y646120D01*
X300560Y646120D01*
X300560Y639120D01*
X293560Y639120D01*
X293560Y641970D02*
X300560Y641970D01*
X300560Y644820D02*
X293560Y644820D01*
X276020Y646120D02*
X276020Y639120D01*
X276020Y646120D02*
X283020Y646120D01*
X283020Y639120D01*
X276020Y639120D01*
X276020Y641970D02*
X283020Y641970D01*
X283020Y644820D02*
X276020Y644820D01*
D10*
X283290Y655320D03*
X293290Y655320D03*
X781050Y544750D03*
X781050Y534750D03*
X822960Y553800D03*
X822960Y563800D03*
X842090Y635508D03*
X852090Y635508D03*
X873680Y635508D03*
X863680Y635508D03*
D11*
X800735Y560000D03*
X800735Y583000D03*
X784860Y560000D03*
X784860Y583000D03*
D12*
X872300Y536900D02*
X872300Y529900D01*
X865300Y529900D01*
X865300Y536900D01*
X872300Y536900D01*
X872300Y532750D02*
X865300Y532750D01*
X865300Y535600D02*
X872300Y535600D01*
X889840Y536900D02*
X889840Y529900D01*
X882840Y529900D01*
X882840Y536900D01*
X889840Y536900D01*
X889840Y532750D02*
X882840Y532750D01*
X882840Y535600D02*
X889840Y535600D01*
X882840Y545648D02*
X882840Y552648D01*
X889840Y552648D01*
X889840Y545648D01*
X882840Y545648D01*
X882840Y548498D02*
X889840Y548498D01*
X889840Y551348D02*
X882840Y551348D01*
X865300Y552648D02*
X865300Y545648D01*
X865300Y552648D02*
X872300Y552648D01*
X872300Y545648D01*
X865300Y545648D01*
X865300Y548498D02*
X872300Y548498D01*
X872300Y551348D02*
X865300Y551348D01*
D13*
X674780Y574160D03*
X674780Y579160D03*
D14*
X674780Y549410D03*
X674780Y557160D03*
D13*
X674780Y564160D03*
X674780Y569160D03*
X674780Y589160D03*
X674780Y584160D03*
D14*
X674780Y613910D03*
X674780Y606160D03*
D13*
X674780Y599160D03*
X674780Y594160D03*
D15*
X782480Y624162D03*
X802480Y624162D03*
D16*
X758480Y676162D03*
X826480Y676162D03*
D17*
X736660Y681910D03*
X680660Y681910D03*
D18*
X723660Y645160D03*
X713660Y645160D03*
X703660Y645160D03*
X693660Y645160D03*
D19*
X695960Y491880D03*
X695960Y508880D03*
X680720Y491880D03*
X680720Y508880D03*
X765810Y526170D03*
X765810Y543170D03*
D10*
X900510Y533400D03*
X910510Y533400D03*
X910510Y549402D03*
X900510Y549402D03*
D20*
X865750Y585470D03*
X848750Y585470D03*
D21*
X976280Y584160D03*
X976280Y579160D03*
X976280Y594160D03*
X976280Y604160D03*
X976280Y614160D03*
X976280Y589160D03*
X976280Y599160D03*
X976280Y609160D03*
X976280Y619160D03*
X976280Y569160D03*
X976280Y559160D03*
X976280Y549160D03*
X976280Y544160D03*
X976280Y554160D03*
X976280Y564160D03*
X976280Y574160D03*
D22*
X1031280Y524160D03*
X1036280Y524160D03*
X1021280Y524160D03*
X1011280Y524160D03*
X1001280Y524160D03*
X1026280Y524160D03*
X1016280Y524160D03*
X1006280Y524160D03*
X996280Y524160D03*
X1046280Y524160D03*
X1056280Y524160D03*
X1066280Y524160D03*
X1071280Y524160D03*
X1061280Y524160D03*
X1051280Y524160D03*
X1041280Y524160D03*
D21*
X1091280Y579160D03*
X1091280Y584160D03*
X1091280Y569160D03*
X1091280Y559160D03*
X1091280Y549160D03*
X1091280Y574160D03*
X1091280Y564160D03*
X1091280Y554160D03*
X1091280Y544160D03*
X1091280Y594160D03*
X1091280Y604160D03*
X1091280Y614160D03*
X1091280Y619160D03*
X1091280Y609160D03*
X1091280Y599160D03*
X1091280Y589160D03*
D22*
X1036280Y639160D03*
X1031280Y639160D03*
X1046280Y639160D03*
X1056280Y639160D03*
X1066280Y639160D03*
X1041280Y639160D03*
X1051280Y639160D03*
X1061280Y639160D03*
X1071280Y639160D03*
X1021280Y639160D03*
X1011280Y639160D03*
X1001280Y639160D03*
X996280Y639160D03*
X1006280Y639160D03*
X1016280Y639160D03*
X1026280Y639160D03*
D23*
X870251Y602640D03*
X870251Y612140D03*
X870251Y621640D03*
X844249Y621640D03*
X844249Y602640D03*
X795989Y544170D03*
X795989Y534670D03*
X795989Y525170D03*
X821991Y525170D03*
X821991Y544170D03*
D10*
X1096090Y515620D03*
X1106090Y515620D03*
X1107694Y622220D03*
X1107694Y612220D03*
X952500Y532050D03*
X952500Y522050D03*
X941070Y532050D03*
X941070Y522050D03*
X975360Y532050D03*
X975360Y522050D03*
X963930Y532050D03*
X963930Y522050D03*
X1096090Y525780D03*
X1106090Y525780D03*
X1117854Y622220D03*
X1117854Y612220D03*
X995680Y651590D03*
X995680Y661590D03*
D24*
X744400Y543940D03*
X744400Y527940D03*
X703400Y527940D03*
X703400Y543940D03*
X744400Y609980D03*
X744400Y593980D03*
X703400Y593980D03*
X703400Y609980D03*
D10*
X768350Y563960D03*
X768350Y573960D03*
D20*
X711590Y509270D03*
X728590Y509270D03*
D10*
X711200Y496490D03*
X711200Y486490D03*
D20*
X710320Y561340D03*
X727320Y561340D03*
X710320Y576580D03*
X727320Y576580D03*
D10*
X1127760Y622220D03*
X1127760Y612220D03*
D25*
X1148080Y553910D03*
X1160780Y553910D03*
X1173480Y553910D03*
X1186180Y553910D03*
X1173480Y609410D03*
X1186180Y609410D03*
X1160780Y609410D03*
X1148080Y609410D03*
D26*
X1167130Y581660D03*
D27*
X952500Y634800D03*
X952500Y609800D03*
D28*
X933380Y588730D03*
X956380Y551730D03*
X956380Y588730D03*
X933380Y551730D03*
D10*
X934560Y626110D03*
X924560Y626110D03*
X934560Y615950D03*
X924560Y615950D03*
X934560Y605790D03*
X924560Y605790D03*
X929640Y531970D03*
X929640Y521970D03*
X1129030Y544750D03*
X1129030Y534750D03*
D12*
X908240Y639120D02*
X908240Y646120D01*
X915240Y646120D01*
X915240Y639120D01*
X908240Y639120D01*
X908240Y641970D02*
X915240Y641970D01*
X915240Y644820D02*
X908240Y644820D01*
X890700Y646120D02*
X890700Y639120D01*
X890700Y646120D02*
X897700Y646120D01*
X897700Y639120D01*
X890700Y639120D01*
X890700Y641970D02*
X897700Y641970D01*
X897700Y644820D02*
X890700Y644820D01*
D10*
X897970Y655320D03*
X907970Y655320D03*
X166370Y778430D03*
X166370Y768430D03*
X208280Y787480D03*
X208280Y797480D03*
X227410Y869188D03*
X237410Y869188D03*
X259000Y869188D03*
X249000Y869188D03*
D11*
X186055Y793680D03*
X186055Y816680D03*
X170180Y793680D03*
X170180Y816680D03*
D12*
X257620Y770580D02*
X257620Y763580D01*
X250620Y763580D01*
X250620Y770580D01*
X257620Y770580D01*
X257620Y766430D02*
X250620Y766430D01*
X250620Y769280D02*
X257620Y769280D01*
X275160Y770580D02*
X275160Y763580D01*
X268160Y763580D01*
X268160Y770580D01*
X275160Y770580D01*
X275160Y766430D02*
X268160Y766430D01*
X268160Y769280D02*
X275160Y769280D01*
X268160Y779328D02*
X268160Y786328D01*
X275160Y786328D01*
X275160Y779328D01*
X268160Y779328D01*
X268160Y782178D02*
X275160Y782178D01*
X275160Y785028D02*
X268160Y785028D01*
X250620Y786328D02*
X250620Y779328D01*
X250620Y786328D02*
X257620Y786328D01*
X257620Y779328D01*
X250620Y779328D01*
X250620Y782178D02*
X257620Y782178D01*
X257620Y785028D02*
X250620Y785028D01*
D13*
X60100Y807840D03*
X60100Y812840D03*
D14*
X60100Y783090D03*
X60100Y790840D03*
D13*
X60100Y797840D03*
X60100Y802840D03*
X60100Y822840D03*
X60100Y817840D03*
D14*
X60100Y847590D03*
X60100Y839840D03*
D13*
X60100Y832840D03*
X60100Y827840D03*
D15*
X167800Y857842D03*
X187800Y857842D03*
D16*
X143800Y909842D03*
X211800Y909842D03*
D17*
X121980Y915590D03*
X65980Y915590D03*
D18*
X108980Y878840D03*
X98980Y878840D03*
X88980Y878840D03*
X78980Y878840D03*
D19*
X81280Y725560D03*
X81280Y742560D03*
X66040Y725560D03*
X66040Y742560D03*
X151130Y759850D03*
X151130Y776850D03*
D10*
X285830Y767080D03*
X295830Y767080D03*
X295830Y783082D03*
X285830Y783082D03*
D20*
X251070Y819150D03*
X234070Y819150D03*
D21*
X361600Y817840D03*
X361600Y812840D03*
X361600Y827840D03*
X361600Y837840D03*
X361600Y847840D03*
X361600Y822840D03*
X361600Y832840D03*
X361600Y842840D03*
X361600Y852840D03*
X361600Y802840D03*
X361600Y792840D03*
X361600Y782840D03*
X361600Y777840D03*
X361600Y787840D03*
X361600Y797840D03*
X361600Y807840D03*
D22*
X416600Y757840D03*
X421600Y757840D03*
X406600Y757840D03*
X396600Y757840D03*
X386600Y757840D03*
X411600Y757840D03*
X401600Y757840D03*
X391600Y757840D03*
X381600Y757840D03*
X431600Y757840D03*
X441600Y757840D03*
X451600Y757840D03*
X456600Y757840D03*
X446600Y757840D03*
X436600Y757840D03*
X426600Y757840D03*
D21*
X476600Y812840D03*
X476600Y817840D03*
X476600Y802840D03*
X476600Y792840D03*
X476600Y782840D03*
X476600Y807840D03*
X476600Y797840D03*
X476600Y787840D03*
X476600Y777840D03*
X476600Y827840D03*
X476600Y837840D03*
X476600Y847840D03*
X476600Y852840D03*
X476600Y842840D03*
X476600Y832840D03*
X476600Y822840D03*
D22*
X421600Y872840D03*
X416600Y872840D03*
X431600Y872840D03*
X441600Y872840D03*
X451600Y872840D03*
X426600Y872840D03*
X436600Y872840D03*
X446600Y872840D03*
X456600Y872840D03*
X406600Y872840D03*
X396600Y872840D03*
X386600Y872840D03*
X381600Y872840D03*
X391600Y872840D03*
X401600Y872840D03*
X411600Y872840D03*
D23*
X255571Y836320D03*
X255571Y845820D03*
X255571Y855320D03*
X229569Y855320D03*
X229569Y836320D03*
X181309Y777850D03*
X181309Y768350D03*
X181309Y758850D03*
X207311Y758850D03*
X207311Y777850D03*
D10*
X481410Y749300D03*
X491410Y749300D03*
X493014Y855900D03*
X493014Y845900D03*
X337820Y765730D03*
X337820Y755730D03*
X326390Y765730D03*
X326390Y755730D03*
X360680Y765730D03*
X360680Y755730D03*
X349250Y765730D03*
X349250Y755730D03*
X481410Y759460D03*
X491410Y759460D03*
X503174Y855900D03*
X503174Y845900D03*
X381000Y885270D03*
X381000Y895270D03*
D24*
X129720Y777620D03*
X129720Y761620D03*
X88720Y761620D03*
X88720Y777620D03*
X129720Y843660D03*
X129720Y827660D03*
X88720Y827660D03*
X88720Y843660D03*
D10*
X153670Y797640D03*
X153670Y807640D03*
D20*
X96910Y742950D03*
X113910Y742950D03*
D10*
X96520Y730170D03*
X96520Y720170D03*
D20*
X95640Y795020D03*
X112640Y795020D03*
X95640Y810260D03*
X112640Y810260D03*
D10*
X513080Y855900D03*
X513080Y845900D03*
D25*
X533400Y787590D03*
X546100Y787590D03*
X558800Y787590D03*
X571500Y787590D03*
X558800Y843090D03*
X571500Y843090D03*
X546100Y843090D03*
X533400Y843090D03*
D26*
X552450Y815340D03*
D27*
X337820Y868480D03*
X337820Y843480D03*
D28*
X318700Y822410D03*
X341700Y785410D03*
X341700Y822410D03*
X318700Y785410D03*
D10*
X319880Y859790D03*
X309880Y859790D03*
X319880Y849630D03*
X309880Y849630D03*
X319880Y839470D03*
X309880Y839470D03*
X314960Y765650D03*
X314960Y755650D03*
X514350Y778430D03*
X514350Y768430D03*
D12*
X293560Y872800D02*
X293560Y879800D01*
X300560Y879800D01*
X300560Y872800D01*
X293560Y872800D01*
X293560Y875650D02*
X300560Y875650D01*
X300560Y878500D02*
X293560Y878500D01*
X276020Y879800D02*
X276020Y872800D01*
X276020Y879800D02*
X283020Y879800D01*
X283020Y872800D01*
X276020Y872800D01*
X276020Y875650D02*
X283020Y875650D01*
X283020Y878500D02*
X276020Y878500D01*
D10*
X283290Y889000D03*
X293290Y889000D03*
X781050Y778430D03*
X781050Y768430D03*
X822960Y787480D03*
X822960Y797480D03*
X842090Y869188D03*
X852090Y869188D03*
X873680Y869188D03*
X863680Y869188D03*
D11*
X800735Y793680D03*
X800735Y816680D03*
X784860Y793680D03*
X784860Y816680D03*
D12*
X872300Y770580D02*
X872300Y763580D01*
X865300Y763580D01*
X865300Y770580D01*
X872300Y770580D01*
X872300Y766430D02*
X865300Y766430D01*
X865300Y769280D02*
X872300Y769280D01*
X889840Y770580D02*
X889840Y763580D01*
X882840Y763580D01*
X882840Y770580D01*
X889840Y770580D01*
X889840Y766430D02*
X882840Y766430D01*
X882840Y769280D02*
X889840Y769280D01*
X882840Y779328D02*
X882840Y786328D01*
X889840Y786328D01*
X889840Y779328D01*
X882840Y779328D01*
X882840Y782178D02*
X889840Y782178D01*
X889840Y785028D02*
X882840Y785028D01*
X865300Y786328D02*
X865300Y779328D01*
X865300Y786328D02*
X872300Y786328D01*
X872300Y779328D01*
X865300Y779328D01*
X865300Y782178D02*
X872300Y782178D01*
X872300Y785028D02*
X865300Y785028D01*
D13*
X674780Y807840D03*
X674780Y812840D03*
D14*
X674780Y783090D03*
X674780Y790840D03*
D13*
X674780Y797840D03*
X674780Y802840D03*
X674780Y822840D03*
X674780Y817840D03*
D14*
X674780Y847590D03*
X674780Y839840D03*
D13*
X674780Y832840D03*
X674780Y827840D03*
D15*
X782480Y857842D03*
X802480Y857842D03*
D16*
X758480Y909842D03*
X826480Y909842D03*
D17*
X736660Y915590D03*
X680660Y915590D03*
D18*
X723660Y878840D03*
X713660Y878840D03*
X703660Y878840D03*
X693660Y878840D03*
D19*
X695960Y725560D03*
X695960Y742560D03*
X680720Y725560D03*
X680720Y742560D03*
X765810Y759850D03*
X765810Y776850D03*
D10*
X900510Y767080D03*
X910510Y767080D03*
X910510Y783082D03*
X900510Y783082D03*
D20*
X865750Y819150D03*
X848750Y819150D03*
D21*
X976280Y817840D03*
X976280Y812840D03*
X976280Y827840D03*
X976280Y837840D03*
X976280Y847840D03*
X976280Y822840D03*
X976280Y832840D03*
X976280Y842840D03*
X976280Y852840D03*
X976280Y802840D03*
X976280Y792840D03*
X976280Y782840D03*
X976280Y777840D03*
X976280Y787840D03*
X976280Y797840D03*
X976280Y807840D03*
D22*
X1031280Y757840D03*
X1036280Y757840D03*
X1021280Y757840D03*
X1011280Y757840D03*
X1001280Y757840D03*
X1026280Y757840D03*
X1016280Y757840D03*
X1006280Y757840D03*
X996280Y757840D03*
X1046280Y757840D03*
X1056280Y757840D03*
X1066280Y757840D03*
X1071280Y757840D03*
X1061280Y757840D03*
X1051280Y757840D03*
X1041280Y757840D03*
D21*
X1091280Y812840D03*
X1091280Y817840D03*
X1091280Y802840D03*
X1091280Y792840D03*
X1091280Y782840D03*
X1091280Y807840D03*
X1091280Y797840D03*
X1091280Y787840D03*
X1091280Y777840D03*
X1091280Y827840D03*
X1091280Y837840D03*
X1091280Y847840D03*
X1091280Y852840D03*
X1091280Y842840D03*
X1091280Y832840D03*
X1091280Y822840D03*
D22*
X1036280Y872840D03*
X1031280Y872840D03*
X1046280Y872840D03*
X1056280Y872840D03*
X1066280Y872840D03*
X1041280Y872840D03*
X1051280Y872840D03*
X1061280Y872840D03*
X1071280Y872840D03*
X1021280Y872840D03*
X1011280Y872840D03*
X1001280Y872840D03*
X996280Y872840D03*
X1006280Y872840D03*
X1016280Y872840D03*
X1026280Y872840D03*
D23*
X870251Y836320D03*
X870251Y845820D03*
X870251Y855320D03*
X844249Y855320D03*
X844249Y836320D03*
X795989Y777850D03*
X795989Y768350D03*
X795989Y758850D03*
X821991Y758850D03*
X821991Y777850D03*
D10*
X1096090Y749300D03*
X1106090Y749300D03*
X1107694Y855900D03*
X1107694Y845900D03*
X952500Y765730D03*
X952500Y755730D03*
X941070Y765730D03*
X941070Y755730D03*
X975360Y765730D03*
X975360Y755730D03*
X963930Y765730D03*
X963930Y755730D03*
X1096090Y759460D03*
X1106090Y759460D03*
X1117854Y855900D03*
X1117854Y845900D03*
X995680Y885270D03*
X995680Y895270D03*
D24*
X744400Y777620D03*
X744400Y761620D03*
X703400Y761620D03*
X703400Y777620D03*
X744400Y843660D03*
X744400Y827660D03*
X703400Y827660D03*
X703400Y843660D03*
D10*
X768350Y797640D03*
X768350Y807640D03*
D20*
X711590Y742950D03*
X728590Y742950D03*
D10*
X711200Y730170D03*
X711200Y720170D03*
D20*
X710320Y795020D03*
X727320Y795020D03*
X710320Y810260D03*
X727320Y810260D03*
D10*
X1127760Y855900D03*
X1127760Y845900D03*
D25*
X1148080Y787590D03*
X1160780Y787590D03*
X1173480Y787590D03*
X1186180Y787590D03*
X1173480Y843090D03*
X1186180Y843090D03*
X1160780Y843090D03*
X1148080Y843090D03*
D26*
X1167130Y815340D03*
D27*
X952500Y868480D03*
X952500Y843480D03*
D28*
X933380Y822410D03*
X956380Y785410D03*
X956380Y822410D03*
X933380Y785410D03*
D10*
X934560Y859790D03*
X924560Y859790D03*
X934560Y849630D03*
X924560Y849630D03*
X934560Y839470D03*
X924560Y839470D03*
X929640Y765650D03*
X929640Y755650D03*
X1129030Y778430D03*
X1129030Y768430D03*
D12*
X908240Y872800D02*
X908240Y879800D01*
X915240Y879800D01*
X915240Y872800D01*
X908240Y872800D01*
X908240Y875650D02*
X915240Y875650D01*
X915240Y878500D02*
X908240Y878500D01*
X890700Y879800D02*
X890700Y872800D01*
X890700Y879800D02*
X897700Y879800D01*
X897700Y872800D01*
X890700Y872800D01*
X890700Y875650D02*
X897700Y875650D01*
X897700Y878500D02*
X890700Y878500D01*
D10*
X897970Y889000D03*
X907970Y889000D03*
M02*
