G04 EAGLE Gerber RS-274X export*
G75*
%MOMM*%
%FSLAX34Y34*%
%LPD*%
%INSoldermask Bottom*%
%IPPOS*%
%AMOC8*
5,1,8,0,0,1.08239X$1,22.5*%
G01*
%ADD10C,0.853200*%
%ADD11R,1.727200X1.727200*%
%ADD12C,1.203200*%
%ADD13C,3.251200*%
%ADD14C,0.838200*%
%ADD15R,1.603200X2.003200*%
%ADD16R,2.103200X1.603200*%
%ADD17R,1.703200X1.003200*%
%ADD18C,0.965200*%
%ADD19R,1.473200X0.863600*%
%ADD20C,1.270000*%
%ADD21C,1.703200*%

G36*
X1510095Y55892D02*
X1510095Y55892D01*
X1510161Y55894D01*
X1510204Y55912D01*
X1510251Y55920D01*
X1510308Y55954D01*
X1510368Y55979D01*
X1510403Y56010D01*
X1510444Y56035D01*
X1510486Y56086D01*
X1510534Y56130D01*
X1510556Y56172D01*
X1510585Y56209D01*
X1510606Y56271D01*
X1510637Y56330D01*
X1510645Y56384D01*
X1510657Y56421D01*
X1510656Y56461D01*
X1510664Y56515D01*
X1510664Y60325D01*
X1510653Y60390D01*
X1510651Y60456D01*
X1510633Y60499D01*
X1510625Y60546D01*
X1510591Y60603D01*
X1510566Y60663D01*
X1510535Y60698D01*
X1510510Y60739D01*
X1510459Y60781D01*
X1510415Y60829D01*
X1510373Y60851D01*
X1510336Y60880D01*
X1510274Y60901D01*
X1510215Y60932D01*
X1510161Y60940D01*
X1510124Y60952D01*
X1510084Y60951D01*
X1510030Y60959D01*
X1507490Y60959D01*
X1507425Y60948D01*
X1507359Y60946D01*
X1507316Y60928D01*
X1507269Y60920D01*
X1507212Y60886D01*
X1507152Y60861D01*
X1507117Y60830D01*
X1507076Y60805D01*
X1507035Y60754D01*
X1506986Y60710D01*
X1506964Y60668D01*
X1506935Y60631D01*
X1506914Y60569D01*
X1506883Y60510D01*
X1506875Y60456D01*
X1506863Y60419D01*
X1506863Y60415D01*
X1506863Y60414D01*
X1506864Y60379D01*
X1506856Y60325D01*
X1506856Y56515D01*
X1506867Y56450D01*
X1506869Y56384D01*
X1506887Y56341D01*
X1506895Y56294D01*
X1506929Y56237D01*
X1506954Y56177D01*
X1506985Y56142D01*
X1507010Y56101D01*
X1507061Y56060D01*
X1507105Y56011D01*
X1507147Y55989D01*
X1507184Y55960D01*
X1507246Y55939D01*
X1507305Y55908D01*
X1507359Y55900D01*
X1507396Y55888D01*
X1507436Y55889D01*
X1507490Y55881D01*
X1510030Y55881D01*
X1510095Y55892D01*
G37*
G36*
X895415Y55892D02*
X895415Y55892D01*
X895481Y55894D01*
X895524Y55912D01*
X895571Y55920D01*
X895628Y55954D01*
X895688Y55979D01*
X895723Y56010D01*
X895764Y56035D01*
X895806Y56086D01*
X895854Y56130D01*
X895876Y56172D01*
X895905Y56209D01*
X895926Y56271D01*
X895957Y56330D01*
X895965Y56384D01*
X895977Y56421D01*
X895976Y56461D01*
X895984Y56515D01*
X895984Y60325D01*
X895973Y60390D01*
X895971Y60456D01*
X895953Y60499D01*
X895945Y60546D01*
X895911Y60603D01*
X895886Y60663D01*
X895855Y60698D01*
X895830Y60739D01*
X895779Y60781D01*
X895735Y60829D01*
X895693Y60851D01*
X895656Y60880D01*
X895594Y60901D01*
X895535Y60932D01*
X895481Y60940D01*
X895444Y60952D01*
X895404Y60951D01*
X895350Y60959D01*
X892810Y60959D01*
X892745Y60948D01*
X892679Y60946D01*
X892636Y60928D01*
X892589Y60920D01*
X892532Y60886D01*
X892472Y60861D01*
X892437Y60830D01*
X892396Y60805D01*
X892355Y60754D01*
X892306Y60710D01*
X892284Y60668D01*
X892255Y60631D01*
X892234Y60569D01*
X892203Y60510D01*
X892195Y60456D01*
X892183Y60419D01*
X892183Y60415D01*
X892183Y60414D01*
X892184Y60379D01*
X892176Y60325D01*
X892176Y56515D01*
X892187Y56450D01*
X892189Y56384D01*
X892207Y56341D01*
X892215Y56294D01*
X892249Y56237D01*
X892274Y56177D01*
X892305Y56142D01*
X892330Y56101D01*
X892381Y56060D01*
X892425Y56011D01*
X892467Y55989D01*
X892504Y55960D01*
X892566Y55939D01*
X892625Y55908D01*
X892679Y55900D01*
X892716Y55888D01*
X892756Y55889D01*
X892810Y55881D01*
X895350Y55881D01*
X895415Y55892D01*
G37*
G36*
X280735Y55892D02*
X280735Y55892D01*
X280801Y55894D01*
X280844Y55912D01*
X280891Y55920D01*
X280948Y55954D01*
X281008Y55979D01*
X281043Y56010D01*
X281084Y56035D01*
X281126Y56086D01*
X281174Y56130D01*
X281196Y56172D01*
X281225Y56209D01*
X281246Y56271D01*
X281277Y56330D01*
X281285Y56384D01*
X281297Y56421D01*
X281296Y56461D01*
X281304Y56515D01*
X281304Y60325D01*
X281293Y60390D01*
X281291Y60456D01*
X281273Y60499D01*
X281265Y60546D01*
X281231Y60603D01*
X281206Y60663D01*
X281175Y60698D01*
X281150Y60739D01*
X281099Y60781D01*
X281055Y60829D01*
X281013Y60851D01*
X280976Y60880D01*
X280914Y60901D01*
X280855Y60932D01*
X280801Y60940D01*
X280764Y60952D01*
X280724Y60951D01*
X280670Y60959D01*
X278130Y60959D01*
X278065Y60948D01*
X277999Y60946D01*
X277956Y60928D01*
X277909Y60920D01*
X277852Y60886D01*
X277792Y60861D01*
X277757Y60830D01*
X277716Y60805D01*
X277675Y60754D01*
X277626Y60710D01*
X277604Y60668D01*
X277575Y60631D01*
X277554Y60569D01*
X277523Y60510D01*
X277515Y60456D01*
X277503Y60419D01*
X277503Y60415D01*
X277503Y60414D01*
X277504Y60379D01*
X277496Y60325D01*
X277496Y56515D01*
X277507Y56450D01*
X277509Y56384D01*
X277527Y56341D01*
X277535Y56294D01*
X277569Y56237D01*
X277594Y56177D01*
X277625Y56142D01*
X277650Y56101D01*
X277701Y56060D01*
X277745Y56011D01*
X277787Y55989D01*
X277824Y55960D01*
X277886Y55939D01*
X277945Y55908D01*
X277999Y55900D01*
X278036Y55888D01*
X278076Y55889D01*
X278130Y55881D01*
X280670Y55881D01*
X280735Y55892D01*
G37*
G36*
X1510095Y990612D02*
X1510095Y990612D01*
X1510161Y990614D01*
X1510204Y990632D01*
X1510251Y990640D01*
X1510308Y990674D01*
X1510368Y990699D01*
X1510403Y990730D01*
X1510444Y990755D01*
X1510486Y990806D01*
X1510534Y990850D01*
X1510556Y990892D01*
X1510585Y990929D01*
X1510606Y990991D01*
X1510637Y991050D01*
X1510645Y991104D01*
X1510657Y991141D01*
X1510656Y991181D01*
X1510664Y991235D01*
X1510664Y995045D01*
X1510653Y995110D01*
X1510651Y995176D01*
X1510633Y995219D01*
X1510625Y995266D01*
X1510591Y995323D01*
X1510566Y995383D01*
X1510535Y995418D01*
X1510510Y995459D01*
X1510459Y995501D01*
X1510415Y995549D01*
X1510373Y995571D01*
X1510336Y995600D01*
X1510274Y995621D01*
X1510215Y995652D01*
X1510161Y995660D01*
X1510124Y995672D01*
X1510084Y995671D01*
X1510030Y995679D01*
X1507490Y995679D01*
X1507425Y995668D01*
X1507359Y995666D01*
X1507316Y995648D01*
X1507269Y995640D01*
X1507212Y995606D01*
X1507152Y995581D01*
X1507117Y995550D01*
X1507076Y995525D01*
X1507035Y995474D01*
X1506986Y995430D01*
X1506964Y995388D01*
X1506935Y995351D01*
X1506914Y995289D01*
X1506883Y995230D01*
X1506875Y995176D01*
X1506863Y995139D01*
X1506863Y995135D01*
X1506863Y995134D01*
X1506864Y995099D01*
X1506856Y995045D01*
X1506856Y991235D01*
X1506867Y991170D01*
X1506869Y991104D01*
X1506887Y991061D01*
X1506895Y991014D01*
X1506929Y990957D01*
X1506954Y990897D01*
X1506985Y990862D01*
X1507010Y990821D01*
X1507061Y990780D01*
X1507105Y990731D01*
X1507147Y990709D01*
X1507184Y990680D01*
X1507246Y990659D01*
X1507305Y990628D01*
X1507359Y990620D01*
X1507396Y990608D01*
X1507436Y990609D01*
X1507490Y990601D01*
X1510030Y990601D01*
X1510095Y990612D01*
G37*
G36*
X895415Y990612D02*
X895415Y990612D01*
X895481Y990614D01*
X895524Y990632D01*
X895571Y990640D01*
X895628Y990674D01*
X895688Y990699D01*
X895723Y990730D01*
X895764Y990755D01*
X895806Y990806D01*
X895854Y990850D01*
X895876Y990892D01*
X895905Y990929D01*
X895926Y990991D01*
X895957Y991050D01*
X895965Y991104D01*
X895977Y991141D01*
X895976Y991181D01*
X895984Y991235D01*
X895984Y995045D01*
X895973Y995110D01*
X895971Y995176D01*
X895953Y995219D01*
X895945Y995266D01*
X895911Y995323D01*
X895886Y995383D01*
X895855Y995418D01*
X895830Y995459D01*
X895779Y995501D01*
X895735Y995549D01*
X895693Y995571D01*
X895656Y995600D01*
X895594Y995621D01*
X895535Y995652D01*
X895481Y995660D01*
X895444Y995672D01*
X895404Y995671D01*
X895350Y995679D01*
X892810Y995679D01*
X892745Y995668D01*
X892679Y995666D01*
X892636Y995648D01*
X892589Y995640D01*
X892532Y995606D01*
X892472Y995581D01*
X892437Y995550D01*
X892396Y995525D01*
X892355Y995474D01*
X892306Y995430D01*
X892284Y995388D01*
X892255Y995351D01*
X892234Y995289D01*
X892203Y995230D01*
X892195Y995176D01*
X892183Y995139D01*
X892183Y995135D01*
X892183Y995134D01*
X892184Y995099D01*
X892176Y995045D01*
X892176Y991235D01*
X892187Y991170D01*
X892189Y991104D01*
X892207Y991061D01*
X892215Y991014D01*
X892249Y990957D01*
X892274Y990897D01*
X892305Y990862D01*
X892330Y990821D01*
X892381Y990780D01*
X892425Y990731D01*
X892467Y990709D01*
X892504Y990680D01*
X892566Y990659D01*
X892625Y990628D01*
X892679Y990620D01*
X892716Y990608D01*
X892756Y990609D01*
X892810Y990601D01*
X895350Y990601D01*
X895415Y990612D01*
G37*
G36*
X280735Y990612D02*
X280735Y990612D01*
X280801Y990614D01*
X280844Y990632D01*
X280891Y990640D01*
X280948Y990674D01*
X281008Y990699D01*
X281043Y990730D01*
X281084Y990755D01*
X281126Y990806D01*
X281174Y990850D01*
X281196Y990892D01*
X281225Y990929D01*
X281246Y990991D01*
X281277Y991050D01*
X281285Y991104D01*
X281297Y991141D01*
X281296Y991181D01*
X281304Y991235D01*
X281304Y995045D01*
X281293Y995110D01*
X281291Y995176D01*
X281273Y995219D01*
X281265Y995266D01*
X281231Y995323D01*
X281206Y995383D01*
X281175Y995418D01*
X281150Y995459D01*
X281099Y995501D01*
X281055Y995549D01*
X281013Y995571D01*
X280976Y995600D01*
X280914Y995621D01*
X280855Y995652D01*
X280801Y995660D01*
X280764Y995672D01*
X280724Y995671D01*
X280670Y995679D01*
X278130Y995679D01*
X278065Y995668D01*
X277999Y995666D01*
X277956Y995648D01*
X277909Y995640D01*
X277852Y995606D01*
X277792Y995581D01*
X277757Y995550D01*
X277716Y995525D01*
X277675Y995474D01*
X277626Y995430D01*
X277604Y995388D01*
X277575Y995351D01*
X277554Y995289D01*
X277523Y995230D01*
X277515Y995176D01*
X277503Y995139D01*
X277503Y995135D01*
X277503Y995134D01*
X277504Y995099D01*
X277496Y995045D01*
X277496Y991235D01*
X277507Y991170D01*
X277509Y991104D01*
X277527Y991061D01*
X277535Y991014D01*
X277569Y990957D01*
X277594Y990897D01*
X277625Y990862D01*
X277650Y990821D01*
X277701Y990780D01*
X277745Y990731D01*
X277787Y990709D01*
X277824Y990680D01*
X277886Y990659D01*
X277945Y990628D01*
X277999Y990620D01*
X278036Y990608D01*
X278076Y990609D01*
X278130Y990601D01*
X280670Y990601D01*
X280735Y990612D01*
G37*
G36*
X280735Y756932D02*
X280735Y756932D01*
X280801Y756934D01*
X280844Y756952D01*
X280891Y756960D01*
X280948Y756994D01*
X281008Y757019D01*
X281043Y757050D01*
X281084Y757075D01*
X281126Y757126D01*
X281174Y757170D01*
X281196Y757212D01*
X281225Y757249D01*
X281246Y757311D01*
X281277Y757370D01*
X281285Y757424D01*
X281297Y757461D01*
X281296Y757501D01*
X281304Y757555D01*
X281304Y761365D01*
X281293Y761430D01*
X281291Y761496D01*
X281273Y761539D01*
X281265Y761586D01*
X281231Y761643D01*
X281206Y761703D01*
X281175Y761738D01*
X281150Y761779D01*
X281099Y761821D01*
X281055Y761869D01*
X281013Y761891D01*
X280976Y761920D01*
X280914Y761941D01*
X280855Y761972D01*
X280801Y761980D01*
X280764Y761992D01*
X280724Y761991D01*
X280670Y761999D01*
X278130Y761999D01*
X278065Y761988D01*
X277999Y761986D01*
X277956Y761968D01*
X277909Y761960D01*
X277852Y761926D01*
X277792Y761901D01*
X277757Y761870D01*
X277716Y761845D01*
X277675Y761794D01*
X277626Y761750D01*
X277604Y761708D01*
X277575Y761671D01*
X277554Y761609D01*
X277523Y761550D01*
X277515Y761496D01*
X277503Y761459D01*
X277503Y761455D01*
X277503Y761454D01*
X277504Y761419D01*
X277496Y761365D01*
X277496Y757555D01*
X277507Y757490D01*
X277509Y757424D01*
X277527Y757381D01*
X277535Y757334D01*
X277569Y757277D01*
X277594Y757217D01*
X277625Y757182D01*
X277650Y757141D01*
X277701Y757100D01*
X277745Y757051D01*
X277787Y757029D01*
X277824Y757000D01*
X277886Y756979D01*
X277945Y756948D01*
X277999Y756940D01*
X278036Y756928D01*
X278076Y756929D01*
X278130Y756921D01*
X280670Y756921D01*
X280735Y756932D01*
G37*
G36*
X1510095Y756932D02*
X1510095Y756932D01*
X1510161Y756934D01*
X1510204Y756952D01*
X1510251Y756960D01*
X1510308Y756994D01*
X1510368Y757019D01*
X1510403Y757050D01*
X1510444Y757075D01*
X1510486Y757126D01*
X1510534Y757170D01*
X1510556Y757212D01*
X1510585Y757249D01*
X1510606Y757311D01*
X1510637Y757370D01*
X1510645Y757424D01*
X1510657Y757461D01*
X1510656Y757501D01*
X1510664Y757555D01*
X1510664Y761365D01*
X1510653Y761430D01*
X1510651Y761496D01*
X1510633Y761539D01*
X1510625Y761586D01*
X1510591Y761643D01*
X1510566Y761703D01*
X1510535Y761738D01*
X1510510Y761779D01*
X1510459Y761821D01*
X1510415Y761869D01*
X1510373Y761891D01*
X1510336Y761920D01*
X1510274Y761941D01*
X1510215Y761972D01*
X1510161Y761980D01*
X1510124Y761992D01*
X1510084Y761991D01*
X1510030Y761999D01*
X1507490Y761999D01*
X1507425Y761988D01*
X1507359Y761986D01*
X1507316Y761968D01*
X1507269Y761960D01*
X1507212Y761926D01*
X1507152Y761901D01*
X1507117Y761870D01*
X1507076Y761845D01*
X1507035Y761794D01*
X1506986Y761750D01*
X1506964Y761708D01*
X1506935Y761671D01*
X1506914Y761609D01*
X1506883Y761550D01*
X1506875Y761496D01*
X1506863Y761459D01*
X1506863Y761455D01*
X1506863Y761454D01*
X1506864Y761419D01*
X1506856Y761365D01*
X1506856Y757555D01*
X1506867Y757490D01*
X1506869Y757424D01*
X1506887Y757381D01*
X1506895Y757334D01*
X1506929Y757277D01*
X1506954Y757217D01*
X1506985Y757182D01*
X1507010Y757141D01*
X1507061Y757100D01*
X1507105Y757051D01*
X1507147Y757029D01*
X1507184Y757000D01*
X1507246Y756979D01*
X1507305Y756948D01*
X1507359Y756940D01*
X1507396Y756928D01*
X1507436Y756929D01*
X1507490Y756921D01*
X1510030Y756921D01*
X1510095Y756932D01*
G37*
G36*
X895415Y756932D02*
X895415Y756932D01*
X895481Y756934D01*
X895524Y756952D01*
X895571Y756960D01*
X895628Y756994D01*
X895688Y757019D01*
X895723Y757050D01*
X895764Y757075D01*
X895806Y757126D01*
X895854Y757170D01*
X895876Y757212D01*
X895905Y757249D01*
X895926Y757311D01*
X895957Y757370D01*
X895965Y757424D01*
X895977Y757461D01*
X895976Y757501D01*
X895984Y757555D01*
X895984Y761365D01*
X895973Y761430D01*
X895971Y761496D01*
X895953Y761539D01*
X895945Y761586D01*
X895911Y761643D01*
X895886Y761703D01*
X895855Y761738D01*
X895830Y761779D01*
X895779Y761821D01*
X895735Y761869D01*
X895693Y761891D01*
X895656Y761920D01*
X895594Y761941D01*
X895535Y761972D01*
X895481Y761980D01*
X895444Y761992D01*
X895404Y761991D01*
X895350Y761999D01*
X892810Y761999D01*
X892745Y761988D01*
X892679Y761986D01*
X892636Y761968D01*
X892589Y761960D01*
X892532Y761926D01*
X892472Y761901D01*
X892437Y761870D01*
X892396Y761845D01*
X892355Y761794D01*
X892306Y761750D01*
X892284Y761708D01*
X892255Y761671D01*
X892234Y761609D01*
X892203Y761550D01*
X892195Y761496D01*
X892183Y761459D01*
X892183Y761455D01*
X892183Y761454D01*
X892184Y761419D01*
X892176Y761365D01*
X892176Y757555D01*
X892187Y757490D01*
X892189Y757424D01*
X892207Y757381D01*
X892215Y757334D01*
X892249Y757277D01*
X892274Y757217D01*
X892305Y757182D01*
X892330Y757141D01*
X892381Y757100D01*
X892425Y757051D01*
X892467Y757029D01*
X892504Y757000D01*
X892566Y756979D01*
X892625Y756948D01*
X892679Y756940D01*
X892716Y756928D01*
X892756Y756929D01*
X892810Y756921D01*
X895350Y756921D01*
X895415Y756932D01*
G37*
G36*
X895415Y523252D02*
X895415Y523252D01*
X895481Y523254D01*
X895524Y523272D01*
X895571Y523280D01*
X895628Y523314D01*
X895688Y523339D01*
X895723Y523370D01*
X895764Y523395D01*
X895806Y523446D01*
X895854Y523490D01*
X895876Y523532D01*
X895905Y523569D01*
X895926Y523631D01*
X895957Y523690D01*
X895965Y523744D01*
X895977Y523781D01*
X895976Y523821D01*
X895984Y523875D01*
X895984Y527685D01*
X895973Y527750D01*
X895971Y527816D01*
X895953Y527859D01*
X895945Y527906D01*
X895911Y527963D01*
X895886Y528023D01*
X895855Y528058D01*
X895830Y528099D01*
X895779Y528141D01*
X895735Y528189D01*
X895693Y528211D01*
X895656Y528240D01*
X895594Y528261D01*
X895535Y528292D01*
X895481Y528300D01*
X895444Y528312D01*
X895404Y528311D01*
X895350Y528319D01*
X892810Y528319D01*
X892745Y528308D01*
X892679Y528306D01*
X892636Y528288D01*
X892589Y528280D01*
X892532Y528246D01*
X892472Y528221D01*
X892437Y528190D01*
X892396Y528165D01*
X892355Y528114D01*
X892306Y528070D01*
X892284Y528028D01*
X892255Y527991D01*
X892234Y527929D01*
X892203Y527870D01*
X892195Y527816D01*
X892183Y527779D01*
X892183Y527775D01*
X892183Y527774D01*
X892184Y527739D01*
X892176Y527685D01*
X892176Y523875D01*
X892187Y523810D01*
X892189Y523744D01*
X892207Y523701D01*
X892215Y523654D01*
X892249Y523597D01*
X892274Y523537D01*
X892305Y523502D01*
X892330Y523461D01*
X892381Y523420D01*
X892425Y523371D01*
X892467Y523349D01*
X892504Y523320D01*
X892566Y523299D01*
X892625Y523268D01*
X892679Y523260D01*
X892716Y523248D01*
X892756Y523249D01*
X892810Y523241D01*
X895350Y523241D01*
X895415Y523252D01*
G37*
G36*
X1510095Y523252D02*
X1510095Y523252D01*
X1510161Y523254D01*
X1510204Y523272D01*
X1510251Y523280D01*
X1510308Y523314D01*
X1510368Y523339D01*
X1510403Y523370D01*
X1510444Y523395D01*
X1510486Y523446D01*
X1510534Y523490D01*
X1510556Y523532D01*
X1510585Y523569D01*
X1510606Y523631D01*
X1510637Y523690D01*
X1510645Y523744D01*
X1510657Y523781D01*
X1510656Y523821D01*
X1510664Y523875D01*
X1510664Y527685D01*
X1510653Y527750D01*
X1510651Y527816D01*
X1510633Y527859D01*
X1510625Y527906D01*
X1510591Y527963D01*
X1510566Y528023D01*
X1510535Y528058D01*
X1510510Y528099D01*
X1510459Y528141D01*
X1510415Y528189D01*
X1510373Y528211D01*
X1510336Y528240D01*
X1510274Y528261D01*
X1510215Y528292D01*
X1510161Y528300D01*
X1510124Y528312D01*
X1510084Y528311D01*
X1510030Y528319D01*
X1507490Y528319D01*
X1507425Y528308D01*
X1507359Y528306D01*
X1507316Y528288D01*
X1507269Y528280D01*
X1507212Y528246D01*
X1507152Y528221D01*
X1507117Y528190D01*
X1507076Y528165D01*
X1507035Y528114D01*
X1506986Y528070D01*
X1506964Y528028D01*
X1506935Y527991D01*
X1506914Y527929D01*
X1506883Y527870D01*
X1506875Y527816D01*
X1506863Y527779D01*
X1506863Y527775D01*
X1506863Y527774D01*
X1506864Y527739D01*
X1506856Y527685D01*
X1506856Y523875D01*
X1506867Y523810D01*
X1506869Y523744D01*
X1506887Y523701D01*
X1506895Y523654D01*
X1506929Y523597D01*
X1506954Y523537D01*
X1506985Y523502D01*
X1507010Y523461D01*
X1507061Y523420D01*
X1507105Y523371D01*
X1507147Y523349D01*
X1507184Y523320D01*
X1507246Y523299D01*
X1507305Y523268D01*
X1507359Y523260D01*
X1507396Y523248D01*
X1507436Y523249D01*
X1507490Y523241D01*
X1510030Y523241D01*
X1510095Y523252D01*
G37*
G36*
X280735Y523252D02*
X280735Y523252D01*
X280801Y523254D01*
X280844Y523272D01*
X280891Y523280D01*
X280948Y523314D01*
X281008Y523339D01*
X281043Y523370D01*
X281084Y523395D01*
X281126Y523446D01*
X281174Y523490D01*
X281196Y523532D01*
X281225Y523569D01*
X281246Y523631D01*
X281277Y523690D01*
X281285Y523744D01*
X281297Y523781D01*
X281296Y523821D01*
X281304Y523875D01*
X281304Y527685D01*
X281293Y527750D01*
X281291Y527816D01*
X281273Y527859D01*
X281265Y527906D01*
X281231Y527963D01*
X281206Y528023D01*
X281175Y528058D01*
X281150Y528099D01*
X281099Y528141D01*
X281055Y528189D01*
X281013Y528211D01*
X280976Y528240D01*
X280914Y528261D01*
X280855Y528292D01*
X280801Y528300D01*
X280764Y528312D01*
X280724Y528311D01*
X280670Y528319D01*
X278130Y528319D01*
X278065Y528308D01*
X277999Y528306D01*
X277956Y528288D01*
X277909Y528280D01*
X277852Y528246D01*
X277792Y528221D01*
X277757Y528190D01*
X277716Y528165D01*
X277675Y528114D01*
X277626Y528070D01*
X277604Y528028D01*
X277575Y527991D01*
X277554Y527929D01*
X277523Y527870D01*
X277515Y527816D01*
X277503Y527779D01*
X277503Y527775D01*
X277503Y527774D01*
X277504Y527739D01*
X277496Y527685D01*
X277496Y523875D01*
X277507Y523810D01*
X277509Y523744D01*
X277527Y523701D01*
X277535Y523654D01*
X277569Y523597D01*
X277594Y523537D01*
X277625Y523502D01*
X277650Y523461D01*
X277701Y523420D01*
X277745Y523371D01*
X277787Y523349D01*
X277824Y523320D01*
X277886Y523299D01*
X277945Y523268D01*
X277999Y523260D01*
X278036Y523248D01*
X278076Y523249D01*
X278130Y523241D01*
X280670Y523241D01*
X280735Y523252D01*
G37*
G36*
X1510095Y289572D02*
X1510095Y289572D01*
X1510161Y289574D01*
X1510204Y289592D01*
X1510251Y289600D01*
X1510308Y289634D01*
X1510368Y289659D01*
X1510403Y289690D01*
X1510444Y289715D01*
X1510486Y289766D01*
X1510534Y289810D01*
X1510556Y289852D01*
X1510585Y289889D01*
X1510606Y289951D01*
X1510637Y290010D01*
X1510645Y290064D01*
X1510657Y290101D01*
X1510656Y290141D01*
X1510664Y290195D01*
X1510664Y294005D01*
X1510653Y294070D01*
X1510651Y294136D01*
X1510633Y294179D01*
X1510625Y294226D01*
X1510591Y294283D01*
X1510566Y294343D01*
X1510535Y294378D01*
X1510510Y294419D01*
X1510459Y294461D01*
X1510415Y294509D01*
X1510373Y294531D01*
X1510336Y294560D01*
X1510274Y294581D01*
X1510215Y294612D01*
X1510161Y294620D01*
X1510124Y294632D01*
X1510084Y294631D01*
X1510030Y294639D01*
X1507490Y294639D01*
X1507425Y294628D01*
X1507359Y294626D01*
X1507316Y294608D01*
X1507269Y294600D01*
X1507212Y294566D01*
X1507152Y294541D01*
X1507117Y294510D01*
X1507076Y294485D01*
X1507035Y294434D01*
X1506986Y294390D01*
X1506964Y294348D01*
X1506935Y294311D01*
X1506914Y294249D01*
X1506883Y294190D01*
X1506875Y294136D01*
X1506863Y294099D01*
X1506863Y294095D01*
X1506863Y294094D01*
X1506864Y294059D01*
X1506856Y294005D01*
X1506856Y290195D01*
X1506867Y290130D01*
X1506869Y290064D01*
X1506887Y290021D01*
X1506895Y289974D01*
X1506929Y289917D01*
X1506954Y289857D01*
X1506985Y289822D01*
X1507010Y289781D01*
X1507061Y289740D01*
X1507105Y289691D01*
X1507147Y289669D01*
X1507184Y289640D01*
X1507246Y289619D01*
X1507305Y289588D01*
X1507359Y289580D01*
X1507396Y289568D01*
X1507436Y289569D01*
X1507490Y289561D01*
X1510030Y289561D01*
X1510095Y289572D01*
G37*
G36*
X895415Y289572D02*
X895415Y289572D01*
X895481Y289574D01*
X895524Y289592D01*
X895571Y289600D01*
X895628Y289634D01*
X895688Y289659D01*
X895723Y289690D01*
X895764Y289715D01*
X895806Y289766D01*
X895854Y289810D01*
X895876Y289852D01*
X895905Y289889D01*
X895926Y289951D01*
X895957Y290010D01*
X895965Y290064D01*
X895977Y290101D01*
X895976Y290141D01*
X895984Y290195D01*
X895984Y294005D01*
X895973Y294070D01*
X895971Y294136D01*
X895953Y294179D01*
X895945Y294226D01*
X895911Y294283D01*
X895886Y294343D01*
X895855Y294378D01*
X895830Y294419D01*
X895779Y294461D01*
X895735Y294509D01*
X895693Y294531D01*
X895656Y294560D01*
X895594Y294581D01*
X895535Y294612D01*
X895481Y294620D01*
X895444Y294632D01*
X895404Y294631D01*
X895350Y294639D01*
X892810Y294639D01*
X892745Y294628D01*
X892679Y294626D01*
X892636Y294608D01*
X892589Y294600D01*
X892532Y294566D01*
X892472Y294541D01*
X892437Y294510D01*
X892396Y294485D01*
X892355Y294434D01*
X892306Y294390D01*
X892284Y294348D01*
X892255Y294311D01*
X892234Y294249D01*
X892203Y294190D01*
X892195Y294136D01*
X892183Y294099D01*
X892183Y294095D01*
X892183Y294094D01*
X892184Y294059D01*
X892176Y294005D01*
X892176Y290195D01*
X892187Y290130D01*
X892189Y290064D01*
X892207Y290021D01*
X892215Y289974D01*
X892249Y289917D01*
X892274Y289857D01*
X892305Y289822D01*
X892330Y289781D01*
X892381Y289740D01*
X892425Y289691D01*
X892467Y289669D01*
X892504Y289640D01*
X892566Y289619D01*
X892625Y289588D01*
X892679Y289580D01*
X892716Y289568D01*
X892756Y289569D01*
X892810Y289561D01*
X895350Y289561D01*
X895415Y289572D01*
G37*
G36*
X280735Y289572D02*
X280735Y289572D01*
X280801Y289574D01*
X280844Y289592D01*
X280891Y289600D01*
X280948Y289634D01*
X281008Y289659D01*
X281043Y289690D01*
X281084Y289715D01*
X281126Y289766D01*
X281174Y289810D01*
X281196Y289852D01*
X281225Y289889D01*
X281246Y289951D01*
X281277Y290010D01*
X281285Y290064D01*
X281297Y290101D01*
X281296Y290141D01*
X281304Y290195D01*
X281304Y294005D01*
X281293Y294070D01*
X281291Y294136D01*
X281273Y294179D01*
X281265Y294226D01*
X281231Y294283D01*
X281206Y294343D01*
X281175Y294378D01*
X281150Y294419D01*
X281099Y294461D01*
X281055Y294509D01*
X281013Y294531D01*
X280976Y294560D01*
X280914Y294581D01*
X280855Y294612D01*
X280801Y294620D01*
X280764Y294632D01*
X280724Y294631D01*
X280670Y294639D01*
X278130Y294639D01*
X278065Y294628D01*
X277999Y294626D01*
X277956Y294608D01*
X277909Y294600D01*
X277852Y294566D01*
X277792Y294541D01*
X277757Y294510D01*
X277716Y294485D01*
X277675Y294434D01*
X277626Y294390D01*
X277604Y294348D01*
X277575Y294311D01*
X277554Y294249D01*
X277523Y294190D01*
X277515Y294136D01*
X277503Y294099D01*
X277503Y294095D01*
X277503Y294094D01*
X277504Y294059D01*
X277496Y294005D01*
X277496Y290195D01*
X277507Y290130D01*
X277509Y290064D01*
X277527Y290021D01*
X277535Y289974D01*
X277569Y289917D01*
X277594Y289857D01*
X277625Y289822D01*
X277650Y289781D01*
X277701Y289740D01*
X277745Y289691D01*
X277787Y289669D01*
X277824Y289640D01*
X277886Y289619D01*
X277945Y289588D01*
X277999Y289580D01*
X278036Y289568D01*
X278076Y289569D01*
X278130Y289561D01*
X280670Y289561D01*
X280735Y289572D01*
G37*
D10*
X49050Y143200D03*
X49050Y85400D03*
D11*
X520700Y215900D03*
X495300Y215900D03*
X469900Y215900D03*
X444500Y215900D03*
X419100Y215900D03*
X393700Y215900D03*
X368300Y215900D03*
X342900Y215900D03*
X317500Y215900D03*
X292100Y215900D03*
X266700Y215900D03*
X241300Y215900D03*
X520700Y12700D03*
X495300Y12700D03*
X469900Y12700D03*
X444500Y12700D03*
X419100Y12700D03*
X393700Y12700D03*
X368300Y12700D03*
X342900Y12700D03*
X317500Y12700D03*
X292100Y12700D03*
X266700Y12700D03*
X241300Y12700D03*
X215900Y12700D03*
X190500Y12700D03*
X165100Y12700D03*
X139700Y12700D03*
D12*
X289560Y118110D03*
X289560Y130810D03*
X289560Y143510D03*
X289560Y156210D03*
X289560Y105410D03*
X276860Y118110D03*
X276860Y130810D03*
X276860Y143510D03*
X276860Y156210D03*
X276860Y105410D03*
D13*
X25400Y25400D03*
X25400Y203200D03*
X558800Y203200D03*
X558800Y25400D03*
D14*
X6350Y172720D03*
X577850Y57150D03*
D15*
X387540Y91410D03*
X387540Y148410D03*
D16*
X519040Y164410D03*
X529040Y32910D03*
D17*
X490540Y79510D03*
X486540Y90510D03*
X490540Y101510D03*
X492540Y112510D03*
X490540Y123510D03*
X492540Y134510D03*
X490540Y145510D03*
X490540Y156510D03*
D18*
X317500Y152400D03*
X317500Y127000D03*
D19*
X279400Y63627D03*
X279400Y53213D03*
D18*
X345440Y152400D03*
D10*
X663730Y143200D03*
X663730Y85400D03*
D11*
X1135380Y215900D03*
X1109980Y215900D03*
X1084580Y215900D03*
X1059180Y215900D03*
X1033780Y215900D03*
X1008380Y215900D03*
X982980Y215900D03*
X957580Y215900D03*
X932180Y215900D03*
X906780Y215900D03*
X881380Y215900D03*
X855980Y215900D03*
X1135380Y12700D03*
X1109980Y12700D03*
X1084580Y12700D03*
X1059180Y12700D03*
X1033780Y12700D03*
X1008380Y12700D03*
X982980Y12700D03*
X957580Y12700D03*
X932180Y12700D03*
X906780Y12700D03*
X881380Y12700D03*
X855980Y12700D03*
X830580Y12700D03*
X805180Y12700D03*
X779780Y12700D03*
X754380Y12700D03*
D12*
X904240Y118110D03*
X904240Y130810D03*
X904240Y143510D03*
X904240Y156210D03*
X904240Y105410D03*
X891540Y118110D03*
X891540Y130810D03*
X891540Y143510D03*
X891540Y156210D03*
X891540Y105410D03*
D13*
X640080Y25400D03*
X640080Y203200D03*
X1173480Y203200D03*
X1173480Y25400D03*
D14*
X621030Y172720D03*
X1192530Y57150D03*
D15*
X1002220Y91410D03*
X1002220Y148410D03*
D16*
X1133720Y164410D03*
X1143720Y32910D03*
D17*
X1105220Y79510D03*
X1101220Y90510D03*
X1105220Y101510D03*
X1107220Y112510D03*
X1105220Y123510D03*
X1107220Y134510D03*
X1105220Y145510D03*
X1105220Y156510D03*
D18*
X932180Y152400D03*
X932180Y127000D03*
D19*
X894080Y63627D03*
X894080Y53213D03*
D18*
X960120Y152400D03*
D10*
X1278410Y143200D03*
X1278410Y85400D03*
D11*
X1750060Y215900D03*
X1724660Y215900D03*
X1699260Y215900D03*
X1673860Y215900D03*
X1648460Y215900D03*
X1623060Y215900D03*
X1597660Y215900D03*
X1572260Y215900D03*
X1546860Y215900D03*
X1521460Y215900D03*
X1496060Y215900D03*
X1470660Y215900D03*
X1750060Y12700D03*
X1724660Y12700D03*
X1699260Y12700D03*
X1673860Y12700D03*
X1648460Y12700D03*
X1623060Y12700D03*
X1597660Y12700D03*
X1572260Y12700D03*
X1546860Y12700D03*
X1521460Y12700D03*
X1496060Y12700D03*
X1470660Y12700D03*
X1445260Y12700D03*
X1419860Y12700D03*
X1394460Y12700D03*
X1369060Y12700D03*
D12*
X1518920Y118110D03*
X1518920Y130810D03*
X1518920Y143510D03*
X1518920Y156210D03*
X1518920Y105410D03*
X1506220Y118110D03*
X1506220Y130810D03*
X1506220Y143510D03*
X1506220Y156210D03*
X1506220Y105410D03*
D13*
X1254760Y25400D03*
X1254760Y203200D03*
X1788160Y203200D03*
X1788160Y25400D03*
D14*
X1235710Y172720D03*
X1807210Y57150D03*
D15*
X1616900Y91410D03*
X1616900Y148410D03*
D16*
X1748400Y164410D03*
X1758400Y32910D03*
D17*
X1719900Y79510D03*
X1715900Y90510D03*
X1719900Y101510D03*
X1721900Y112510D03*
X1719900Y123510D03*
X1721900Y134510D03*
X1719900Y145510D03*
X1719900Y156510D03*
D18*
X1546860Y152400D03*
X1546860Y127000D03*
D19*
X1508760Y63627D03*
X1508760Y53213D03*
D18*
X1574800Y152400D03*
D10*
X49050Y376880D03*
X49050Y319080D03*
D11*
X520700Y449580D03*
X495300Y449580D03*
X469900Y449580D03*
X444500Y449580D03*
X419100Y449580D03*
X393700Y449580D03*
X368300Y449580D03*
X342900Y449580D03*
X317500Y449580D03*
X292100Y449580D03*
X266700Y449580D03*
X241300Y449580D03*
X520700Y246380D03*
X495300Y246380D03*
X469900Y246380D03*
X444500Y246380D03*
X419100Y246380D03*
X393700Y246380D03*
X368300Y246380D03*
X342900Y246380D03*
X317500Y246380D03*
X292100Y246380D03*
X266700Y246380D03*
X241300Y246380D03*
X215900Y246380D03*
X190500Y246380D03*
X165100Y246380D03*
X139700Y246380D03*
D12*
X289560Y351790D03*
X289560Y364490D03*
X289560Y377190D03*
X289560Y389890D03*
X289560Y339090D03*
X276860Y351790D03*
X276860Y364490D03*
X276860Y377190D03*
X276860Y389890D03*
X276860Y339090D03*
D13*
X25400Y259080D03*
X25400Y436880D03*
X558800Y436880D03*
X558800Y259080D03*
D14*
X6350Y406400D03*
X577850Y290830D03*
D15*
X387540Y325090D03*
X387540Y382090D03*
D16*
X519040Y398090D03*
X529040Y266590D03*
D17*
X490540Y313190D03*
X486540Y324190D03*
X490540Y335190D03*
X492540Y346190D03*
X490540Y357190D03*
X492540Y368190D03*
X490540Y379190D03*
X490540Y390190D03*
D18*
X317500Y386080D03*
X317500Y360680D03*
D19*
X279400Y297307D03*
X279400Y286893D03*
D18*
X345440Y386080D03*
D10*
X663730Y376880D03*
X663730Y319080D03*
D11*
X1135380Y449580D03*
X1109980Y449580D03*
X1084580Y449580D03*
X1059180Y449580D03*
X1033780Y449580D03*
X1008380Y449580D03*
X982980Y449580D03*
X957580Y449580D03*
X932180Y449580D03*
X906780Y449580D03*
X881380Y449580D03*
X855980Y449580D03*
X1135380Y246380D03*
X1109980Y246380D03*
X1084580Y246380D03*
X1059180Y246380D03*
X1033780Y246380D03*
X1008380Y246380D03*
X982980Y246380D03*
X957580Y246380D03*
X932180Y246380D03*
X906780Y246380D03*
X881380Y246380D03*
X855980Y246380D03*
X830580Y246380D03*
X805180Y246380D03*
X779780Y246380D03*
X754380Y246380D03*
D12*
X904240Y351790D03*
X904240Y364490D03*
X904240Y377190D03*
X904240Y389890D03*
X904240Y339090D03*
X891540Y351790D03*
X891540Y364490D03*
X891540Y377190D03*
X891540Y389890D03*
X891540Y339090D03*
D13*
X640080Y259080D03*
X640080Y436880D03*
X1173480Y436880D03*
X1173480Y259080D03*
D14*
X621030Y406400D03*
X1192530Y290830D03*
D15*
X1002220Y325090D03*
X1002220Y382090D03*
D16*
X1133720Y398090D03*
X1143720Y266590D03*
D17*
X1105220Y313190D03*
X1101220Y324190D03*
X1105220Y335190D03*
X1107220Y346190D03*
X1105220Y357190D03*
X1107220Y368190D03*
X1105220Y379190D03*
X1105220Y390190D03*
D18*
X932180Y386080D03*
X932180Y360680D03*
D19*
X894080Y297307D03*
X894080Y286893D03*
D18*
X960120Y386080D03*
D10*
X1278410Y376880D03*
X1278410Y319080D03*
D11*
X1750060Y449580D03*
X1724660Y449580D03*
X1699260Y449580D03*
X1673860Y449580D03*
X1648460Y449580D03*
X1623060Y449580D03*
X1597660Y449580D03*
X1572260Y449580D03*
X1546860Y449580D03*
X1521460Y449580D03*
X1496060Y449580D03*
X1470660Y449580D03*
X1750060Y246380D03*
X1724660Y246380D03*
X1699260Y246380D03*
X1673860Y246380D03*
X1648460Y246380D03*
X1623060Y246380D03*
X1597660Y246380D03*
X1572260Y246380D03*
X1546860Y246380D03*
X1521460Y246380D03*
X1496060Y246380D03*
X1470660Y246380D03*
X1445260Y246380D03*
X1419860Y246380D03*
X1394460Y246380D03*
X1369060Y246380D03*
D12*
X1518920Y351790D03*
X1518920Y364490D03*
X1518920Y377190D03*
X1518920Y389890D03*
X1518920Y339090D03*
X1506220Y351790D03*
X1506220Y364490D03*
X1506220Y377190D03*
X1506220Y389890D03*
X1506220Y339090D03*
D13*
X1254760Y259080D03*
X1254760Y436880D03*
X1788160Y436880D03*
X1788160Y259080D03*
D14*
X1235710Y406400D03*
X1807210Y290830D03*
D15*
X1616900Y325090D03*
X1616900Y382090D03*
D16*
X1748400Y398090D03*
X1758400Y266590D03*
D17*
X1719900Y313190D03*
X1715900Y324190D03*
X1719900Y335190D03*
X1721900Y346190D03*
X1719900Y357190D03*
X1721900Y368190D03*
X1719900Y379190D03*
X1719900Y390190D03*
D18*
X1546860Y386080D03*
X1546860Y360680D03*
D19*
X1508760Y297307D03*
X1508760Y286893D03*
D18*
X1574800Y386080D03*
D10*
X49050Y610560D03*
X49050Y552760D03*
D11*
X520700Y683260D03*
X495300Y683260D03*
X469900Y683260D03*
X444500Y683260D03*
X419100Y683260D03*
X393700Y683260D03*
X368300Y683260D03*
X342900Y683260D03*
X317500Y683260D03*
X292100Y683260D03*
X266700Y683260D03*
X241300Y683260D03*
X520700Y480060D03*
X495300Y480060D03*
X469900Y480060D03*
X444500Y480060D03*
X419100Y480060D03*
X393700Y480060D03*
X368300Y480060D03*
X342900Y480060D03*
X317500Y480060D03*
X292100Y480060D03*
X266700Y480060D03*
X241300Y480060D03*
X215900Y480060D03*
X190500Y480060D03*
X165100Y480060D03*
X139700Y480060D03*
D12*
X289560Y585470D03*
X289560Y598170D03*
X289560Y610870D03*
X289560Y623570D03*
X289560Y572770D03*
X276860Y585470D03*
X276860Y598170D03*
X276860Y610870D03*
X276860Y623570D03*
X276860Y572770D03*
D13*
X25400Y492760D03*
X25400Y670560D03*
X558800Y670560D03*
X558800Y492760D03*
D14*
X6350Y640080D03*
X577850Y524510D03*
D15*
X387540Y558770D03*
X387540Y615770D03*
D16*
X519040Y631770D03*
X529040Y500270D03*
D17*
X490540Y546870D03*
X486540Y557870D03*
X490540Y568870D03*
X492540Y579870D03*
X490540Y590870D03*
X492540Y601870D03*
X490540Y612870D03*
X490540Y623870D03*
D18*
X317500Y619760D03*
X317500Y594360D03*
D19*
X279400Y530987D03*
X279400Y520573D03*
D18*
X345440Y619760D03*
D10*
X663730Y610560D03*
X663730Y552760D03*
D11*
X1135380Y683260D03*
X1109980Y683260D03*
X1084580Y683260D03*
X1059180Y683260D03*
X1033780Y683260D03*
X1008380Y683260D03*
X982980Y683260D03*
X957580Y683260D03*
X932180Y683260D03*
X906780Y683260D03*
X881380Y683260D03*
X855980Y683260D03*
X1135380Y480060D03*
X1109980Y480060D03*
X1084580Y480060D03*
X1059180Y480060D03*
X1033780Y480060D03*
X1008380Y480060D03*
X982980Y480060D03*
X957580Y480060D03*
X932180Y480060D03*
X906780Y480060D03*
X881380Y480060D03*
X855980Y480060D03*
X830580Y480060D03*
X805180Y480060D03*
X779780Y480060D03*
X754380Y480060D03*
D12*
X904240Y585470D03*
X904240Y598170D03*
X904240Y610870D03*
X904240Y623570D03*
X904240Y572770D03*
X891540Y585470D03*
X891540Y598170D03*
X891540Y610870D03*
X891540Y623570D03*
X891540Y572770D03*
D13*
X640080Y492760D03*
X640080Y670560D03*
X1173480Y670560D03*
X1173480Y492760D03*
D14*
X621030Y640080D03*
X1192530Y524510D03*
D15*
X1002220Y558770D03*
X1002220Y615770D03*
D16*
X1133720Y631770D03*
X1143720Y500270D03*
D17*
X1105220Y546870D03*
X1101220Y557870D03*
X1105220Y568870D03*
X1107220Y579870D03*
X1105220Y590870D03*
X1107220Y601870D03*
X1105220Y612870D03*
X1105220Y623870D03*
D18*
X932180Y619760D03*
X932180Y594360D03*
D19*
X894080Y530987D03*
X894080Y520573D03*
D18*
X960120Y619760D03*
D10*
X1278410Y610560D03*
X1278410Y552760D03*
D11*
X1750060Y683260D03*
X1724660Y683260D03*
X1699260Y683260D03*
X1673860Y683260D03*
X1648460Y683260D03*
X1623060Y683260D03*
X1597660Y683260D03*
X1572260Y683260D03*
X1546860Y683260D03*
X1521460Y683260D03*
X1496060Y683260D03*
X1470660Y683260D03*
X1750060Y480060D03*
X1724660Y480060D03*
X1699260Y480060D03*
X1673860Y480060D03*
X1648460Y480060D03*
X1623060Y480060D03*
X1597660Y480060D03*
X1572260Y480060D03*
X1546860Y480060D03*
X1521460Y480060D03*
X1496060Y480060D03*
X1470660Y480060D03*
X1445260Y480060D03*
X1419860Y480060D03*
X1394460Y480060D03*
X1369060Y480060D03*
D12*
X1518920Y585470D03*
X1518920Y598170D03*
X1518920Y610870D03*
X1518920Y623570D03*
X1518920Y572770D03*
X1506220Y585470D03*
X1506220Y598170D03*
X1506220Y610870D03*
X1506220Y623570D03*
X1506220Y572770D03*
D13*
X1254760Y492760D03*
X1254760Y670560D03*
X1788160Y670560D03*
X1788160Y492760D03*
D14*
X1235710Y640080D03*
X1807210Y524510D03*
D15*
X1616900Y558770D03*
X1616900Y615770D03*
D16*
X1748400Y631770D03*
X1758400Y500270D03*
D17*
X1719900Y546870D03*
X1715900Y557870D03*
X1719900Y568870D03*
X1721900Y579870D03*
X1719900Y590870D03*
X1721900Y601870D03*
X1719900Y612870D03*
X1719900Y623870D03*
D18*
X1546860Y619760D03*
X1546860Y594360D03*
D19*
X1508760Y530987D03*
X1508760Y520573D03*
D18*
X1574800Y619760D03*
D10*
X49050Y844240D03*
X49050Y786440D03*
D11*
X520700Y916940D03*
X495300Y916940D03*
X469900Y916940D03*
X444500Y916940D03*
X419100Y916940D03*
X393700Y916940D03*
X368300Y916940D03*
X342900Y916940D03*
X317500Y916940D03*
X292100Y916940D03*
X266700Y916940D03*
X241300Y916940D03*
X520700Y713740D03*
X495300Y713740D03*
X469900Y713740D03*
X444500Y713740D03*
X419100Y713740D03*
X393700Y713740D03*
X368300Y713740D03*
X342900Y713740D03*
X317500Y713740D03*
X292100Y713740D03*
X266700Y713740D03*
X241300Y713740D03*
X215900Y713740D03*
X190500Y713740D03*
X165100Y713740D03*
X139700Y713740D03*
D12*
X289560Y819150D03*
X289560Y831850D03*
X289560Y844550D03*
X289560Y857250D03*
X289560Y806450D03*
X276860Y819150D03*
X276860Y831850D03*
X276860Y844550D03*
X276860Y857250D03*
X276860Y806450D03*
D13*
X25400Y726440D03*
X25400Y904240D03*
X558800Y904240D03*
X558800Y726440D03*
D14*
X6350Y873760D03*
X577850Y758190D03*
D15*
X387540Y792450D03*
X387540Y849450D03*
D16*
X519040Y865450D03*
X529040Y733950D03*
D17*
X490540Y780550D03*
X486540Y791550D03*
X490540Y802550D03*
X492540Y813550D03*
X490540Y824550D03*
X492540Y835550D03*
X490540Y846550D03*
X490540Y857550D03*
D18*
X317500Y853440D03*
X317500Y828040D03*
D19*
X279400Y764667D03*
X279400Y754253D03*
D18*
X345440Y853440D03*
D10*
X663730Y844240D03*
X663730Y786440D03*
D11*
X1135380Y916940D03*
X1109980Y916940D03*
X1084580Y916940D03*
X1059180Y916940D03*
X1033780Y916940D03*
X1008380Y916940D03*
X982980Y916940D03*
X957580Y916940D03*
X932180Y916940D03*
X906780Y916940D03*
X881380Y916940D03*
X855980Y916940D03*
X1135380Y713740D03*
X1109980Y713740D03*
X1084580Y713740D03*
X1059180Y713740D03*
X1033780Y713740D03*
X1008380Y713740D03*
X982980Y713740D03*
X957580Y713740D03*
X932180Y713740D03*
X906780Y713740D03*
X881380Y713740D03*
X855980Y713740D03*
X830580Y713740D03*
X805180Y713740D03*
X779780Y713740D03*
X754380Y713740D03*
D12*
X904240Y819150D03*
X904240Y831850D03*
X904240Y844550D03*
X904240Y857250D03*
X904240Y806450D03*
X891540Y819150D03*
X891540Y831850D03*
X891540Y844550D03*
X891540Y857250D03*
X891540Y806450D03*
D13*
X640080Y726440D03*
X640080Y904240D03*
X1173480Y904240D03*
X1173480Y726440D03*
D14*
X621030Y873760D03*
X1192530Y758190D03*
D15*
X1002220Y792450D03*
X1002220Y849450D03*
D16*
X1133720Y865450D03*
X1143720Y733950D03*
D17*
X1105220Y780550D03*
X1101220Y791550D03*
X1105220Y802550D03*
X1107220Y813550D03*
X1105220Y824550D03*
X1107220Y835550D03*
X1105220Y846550D03*
X1105220Y857550D03*
D18*
X932180Y853440D03*
X932180Y828040D03*
D19*
X894080Y764667D03*
X894080Y754253D03*
D18*
X960120Y853440D03*
D10*
X1278410Y844240D03*
X1278410Y786440D03*
D11*
X1750060Y916940D03*
X1724660Y916940D03*
X1699260Y916940D03*
X1673860Y916940D03*
X1648460Y916940D03*
X1623060Y916940D03*
X1597660Y916940D03*
X1572260Y916940D03*
X1546860Y916940D03*
X1521460Y916940D03*
X1496060Y916940D03*
X1470660Y916940D03*
X1750060Y713740D03*
X1724660Y713740D03*
X1699260Y713740D03*
X1673860Y713740D03*
X1648460Y713740D03*
X1623060Y713740D03*
X1597660Y713740D03*
X1572260Y713740D03*
X1546860Y713740D03*
X1521460Y713740D03*
X1496060Y713740D03*
X1470660Y713740D03*
X1445260Y713740D03*
X1419860Y713740D03*
X1394460Y713740D03*
X1369060Y713740D03*
D12*
X1518920Y819150D03*
X1518920Y831850D03*
X1518920Y844550D03*
X1518920Y857250D03*
X1518920Y806450D03*
X1506220Y819150D03*
X1506220Y831850D03*
X1506220Y844550D03*
X1506220Y857250D03*
X1506220Y806450D03*
D13*
X1254760Y726440D03*
X1254760Y904240D03*
X1788160Y904240D03*
X1788160Y726440D03*
D14*
X1235710Y873760D03*
X1807210Y758190D03*
D15*
X1616900Y792450D03*
X1616900Y849450D03*
D16*
X1748400Y865450D03*
X1758400Y733950D03*
D17*
X1719900Y780550D03*
X1715900Y791550D03*
X1719900Y802550D03*
X1721900Y813550D03*
X1719900Y824550D03*
X1721900Y835550D03*
X1719900Y846550D03*
X1719900Y857550D03*
D18*
X1546860Y853440D03*
X1546860Y828040D03*
D19*
X1508760Y764667D03*
X1508760Y754253D03*
D18*
X1574800Y853440D03*
D10*
X49050Y1077920D03*
X49050Y1020120D03*
D11*
X520700Y1150620D03*
X495300Y1150620D03*
X469900Y1150620D03*
X444500Y1150620D03*
X419100Y1150620D03*
X393700Y1150620D03*
X368300Y1150620D03*
X342900Y1150620D03*
X317500Y1150620D03*
X292100Y1150620D03*
X266700Y1150620D03*
X241300Y1150620D03*
X520700Y947420D03*
X495300Y947420D03*
X469900Y947420D03*
X444500Y947420D03*
X419100Y947420D03*
X393700Y947420D03*
X368300Y947420D03*
X342900Y947420D03*
X317500Y947420D03*
X292100Y947420D03*
X266700Y947420D03*
X241300Y947420D03*
X215900Y947420D03*
X190500Y947420D03*
X165100Y947420D03*
X139700Y947420D03*
D12*
X289560Y1052830D03*
X289560Y1065530D03*
X289560Y1078230D03*
X289560Y1090930D03*
X289560Y1040130D03*
X276860Y1052830D03*
X276860Y1065530D03*
X276860Y1078230D03*
X276860Y1090930D03*
X276860Y1040130D03*
D13*
X25400Y960120D03*
X25400Y1137920D03*
X558800Y1137920D03*
X558800Y960120D03*
D14*
X6350Y1107440D03*
X577850Y991870D03*
D15*
X387540Y1026130D03*
X387540Y1083130D03*
D16*
X519040Y1099130D03*
X529040Y967630D03*
D17*
X490540Y1014230D03*
X486540Y1025230D03*
X490540Y1036230D03*
X492540Y1047230D03*
X490540Y1058230D03*
X492540Y1069230D03*
X490540Y1080230D03*
X490540Y1091230D03*
D18*
X317500Y1087120D03*
X317500Y1061720D03*
D19*
X279400Y998347D03*
X279400Y987933D03*
D18*
X345440Y1087120D03*
D10*
X663730Y1077920D03*
X663730Y1020120D03*
D11*
X1135380Y1150620D03*
X1109980Y1150620D03*
X1084580Y1150620D03*
X1059180Y1150620D03*
X1033780Y1150620D03*
X1008380Y1150620D03*
X982980Y1150620D03*
X957580Y1150620D03*
X932180Y1150620D03*
X906780Y1150620D03*
X881380Y1150620D03*
X855980Y1150620D03*
X1135380Y947420D03*
X1109980Y947420D03*
X1084580Y947420D03*
X1059180Y947420D03*
X1033780Y947420D03*
X1008380Y947420D03*
X982980Y947420D03*
X957580Y947420D03*
X932180Y947420D03*
X906780Y947420D03*
X881380Y947420D03*
X855980Y947420D03*
X830580Y947420D03*
X805180Y947420D03*
X779780Y947420D03*
X754380Y947420D03*
D12*
X904240Y1052830D03*
X904240Y1065530D03*
X904240Y1078230D03*
X904240Y1090930D03*
X904240Y1040130D03*
X891540Y1052830D03*
X891540Y1065530D03*
X891540Y1078230D03*
X891540Y1090930D03*
X891540Y1040130D03*
D13*
X640080Y960120D03*
X640080Y1137920D03*
X1173480Y1137920D03*
X1173480Y960120D03*
D14*
X621030Y1107440D03*
X1192530Y991870D03*
D15*
X1002220Y1026130D03*
X1002220Y1083130D03*
D16*
X1133720Y1099130D03*
X1143720Y967630D03*
D17*
X1105220Y1014230D03*
X1101220Y1025230D03*
X1105220Y1036230D03*
X1107220Y1047230D03*
X1105220Y1058230D03*
X1107220Y1069230D03*
X1105220Y1080230D03*
X1105220Y1091230D03*
D18*
X932180Y1087120D03*
X932180Y1061720D03*
D19*
X894080Y998347D03*
X894080Y987933D03*
D18*
X960120Y1087120D03*
D10*
X1278410Y1077920D03*
X1278410Y1020120D03*
D11*
X1750060Y1150620D03*
X1724660Y1150620D03*
X1699260Y1150620D03*
X1673860Y1150620D03*
X1648460Y1150620D03*
X1623060Y1150620D03*
X1597660Y1150620D03*
X1572260Y1150620D03*
X1546860Y1150620D03*
X1521460Y1150620D03*
X1496060Y1150620D03*
X1470660Y1150620D03*
X1750060Y947420D03*
X1724660Y947420D03*
X1699260Y947420D03*
X1673860Y947420D03*
X1648460Y947420D03*
X1623060Y947420D03*
X1597660Y947420D03*
X1572260Y947420D03*
X1546860Y947420D03*
X1521460Y947420D03*
X1496060Y947420D03*
X1470660Y947420D03*
X1445260Y947420D03*
X1419860Y947420D03*
X1394460Y947420D03*
X1369060Y947420D03*
D12*
X1518920Y1052830D03*
X1518920Y1065530D03*
X1518920Y1078230D03*
X1518920Y1090930D03*
X1518920Y1040130D03*
X1506220Y1052830D03*
X1506220Y1065530D03*
X1506220Y1078230D03*
X1506220Y1090930D03*
X1506220Y1040130D03*
D13*
X1254760Y960120D03*
X1254760Y1137920D03*
X1788160Y1137920D03*
X1788160Y960120D03*
D14*
X1235710Y1107440D03*
X1807210Y991870D03*
D15*
X1616900Y1026130D03*
X1616900Y1083130D03*
D16*
X1748400Y1099130D03*
X1758400Y967630D03*
D17*
X1719900Y1014230D03*
X1715900Y1025230D03*
X1719900Y1036230D03*
X1721900Y1047230D03*
X1719900Y1058230D03*
X1721900Y1069230D03*
X1719900Y1080230D03*
X1719900Y1091230D03*
D18*
X1546860Y1087120D03*
X1546860Y1061720D03*
D19*
X1508760Y998347D03*
X1508760Y987933D03*
D18*
X1574800Y1087120D03*
D12*
X93980Y1184275D03*
X1795145Y1184275D03*
D20*
X84925Y-20955D02*
X84928Y-20733D01*
X84936Y-20511D01*
X84950Y-20289D01*
X84969Y-20067D01*
X84993Y-19847D01*
X85023Y-19626D01*
X85058Y-19407D01*
X85099Y-19188D01*
X85145Y-18971D01*
X85196Y-18755D01*
X85253Y-18540D01*
X85315Y-18326D01*
X85382Y-18115D01*
X85454Y-17904D01*
X85532Y-17696D01*
X85614Y-17490D01*
X85702Y-17286D01*
X85794Y-17083D01*
X85892Y-16884D01*
X85994Y-16687D01*
X86101Y-16492D01*
X86213Y-16300D01*
X86330Y-16111D01*
X86451Y-15924D01*
X86577Y-15741D01*
X86707Y-15561D01*
X86842Y-15384D01*
X86980Y-15211D01*
X87123Y-15041D01*
X87271Y-14874D01*
X87422Y-14711D01*
X87577Y-14552D01*
X87736Y-14397D01*
X87899Y-14246D01*
X88066Y-14098D01*
X88236Y-13955D01*
X88409Y-13817D01*
X88586Y-13682D01*
X88766Y-13552D01*
X88949Y-13426D01*
X89136Y-13305D01*
X89325Y-13188D01*
X89517Y-13076D01*
X89712Y-12969D01*
X89909Y-12867D01*
X90108Y-12769D01*
X90311Y-12677D01*
X90515Y-12589D01*
X90721Y-12507D01*
X90929Y-12429D01*
X91140Y-12357D01*
X91351Y-12290D01*
X91565Y-12228D01*
X91780Y-12171D01*
X91996Y-12120D01*
X92213Y-12074D01*
X92432Y-12033D01*
X92651Y-11998D01*
X92872Y-11968D01*
X93092Y-11944D01*
X93314Y-11925D01*
X93536Y-11911D01*
X93758Y-11903D01*
X93980Y-11900D01*
X94202Y-11903D01*
X94424Y-11911D01*
X94646Y-11925D01*
X94868Y-11944D01*
X95088Y-11968D01*
X95309Y-11998D01*
X95528Y-12033D01*
X95747Y-12074D01*
X95964Y-12120D01*
X96180Y-12171D01*
X96395Y-12228D01*
X96609Y-12290D01*
X96820Y-12357D01*
X97031Y-12429D01*
X97239Y-12507D01*
X97445Y-12589D01*
X97649Y-12677D01*
X97852Y-12769D01*
X98051Y-12867D01*
X98248Y-12969D01*
X98443Y-13076D01*
X98635Y-13188D01*
X98824Y-13305D01*
X99011Y-13426D01*
X99194Y-13552D01*
X99374Y-13682D01*
X99551Y-13817D01*
X99724Y-13955D01*
X99894Y-14098D01*
X100061Y-14246D01*
X100224Y-14397D01*
X100383Y-14552D01*
X100538Y-14711D01*
X100689Y-14874D01*
X100837Y-15041D01*
X100980Y-15211D01*
X101118Y-15384D01*
X101253Y-15561D01*
X101383Y-15741D01*
X101509Y-15924D01*
X101630Y-16111D01*
X101747Y-16300D01*
X101859Y-16492D01*
X101966Y-16687D01*
X102068Y-16884D01*
X102166Y-17083D01*
X102258Y-17286D01*
X102346Y-17490D01*
X102428Y-17696D01*
X102506Y-17904D01*
X102578Y-18115D01*
X102645Y-18326D01*
X102707Y-18540D01*
X102764Y-18755D01*
X102815Y-18971D01*
X102861Y-19188D01*
X102902Y-19407D01*
X102937Y-19626D01*
X102967Y-19847D01*
X102991Y-20067D01*
X103010Y-20289D01*
X103024Y-20511D01*
X103032Y-20733D01*
X103035Y-20955D01*
X103032Y-21177D01*
X103024Y-21399D01*
X103010Y-21621D01*
X102991Y-21843D01*
X102967Y-22063D01*
X102937Y-22284D01*
X102902Y-22503D01*
X102861Y-22722D01*
X102815Y-22939D01*
X102764Y-23155D01*
X102707Y-23370D01*
X102645Y-23584D01*
X102578Y-23795D01*
X102506Y-24006D01*
X102428Y-24214D01*
X102346Y-24420D01*
X102258Y-24624D01*
X102166Y-24827D01*
X102068Y-25026D01*
X101966Y-25223D01*
X101859Y-25418D01*
X101747Y-25610D01*
X101630Y-25799D01*
X101509Y-25986D01*
X101383Y-26169D01*
X101253Y-26349D01*
X101118Y-26526D01*
X100980Y-26699D01*
X100837Y-26869D01*
X100689Y-27036D01*
X100538Y-27199D01*
X100383Y-27358D01*
X100224Y-27513D01*
X100061Y-27664D01*
X99894Y-27812D01*
X99724Y-27955D01*
X99551Y-28093D01*
X99374Y-28228D01*
X99194Y-28358D01*
X99011Y-28484D01*
X98824Y-28605D01*
X98635Y-28722D01*
X98443Y-28834D01*
X98248Y-28941D01*
X98051Y-29043D01*
X97852Y-29141D01*
X97649Y-29233D01*
X97445Y-29321D01*
X97239Y-29403D01*
X97031Y-29481D01*
X96820Y-29553D01*
X96609Y-29620D01*
X96395Y-29682D01*
X96180Y-29739D01*
X95964Y-29790D01*
X95747Y-29836D01*
X95528Y-29877D01*
X95309Y-29912D01*
X95088Y-29942D01*
X94868Y-29966D01*
X94646Y-29985D01*
X94424Y-29999D01*
X94202Y-30007D01*
X93980Y-30010D01*
X93758Y-30007D01*
X93536Y-29999D01*
X93314Y-29985D01*
X93092Y-29966D01*
X92872Y-29942D01*
X92651Y-29912D01*
X92432Y-29877D01*
X92213Y-29836D01*
X91996Y-29790D01*
X91780Y-29739D01*
X91565Y-29682D01*
X91351Y-29620D01*
X91140Y-29553D01*
X90929Y-29481D01*
X90721Y-29403D01*
X90515Y-29321D01*
X90311Y-29233D01*
X90108Y-29141D01*
X89909Y-29043D01*
X89712Y-28941D01*
X89517Y-28834D01*
X89325Y-28722D01*
X89136Y-28605D01*
X88949Y-28484D01*
X88766Y-28358D01*
X88586Y-28228D01*
X88409Y-28093D01*
X88236Y-27955D01*
X88066Y-27812D01*
X87899Y-27664D01*
X87736Y-27513D01*
X87577Y-27358D01*
X87422Y-27199D01*
X87271Y-27036D01*
X87123Y-26869D01*
X86980Y-26699D01*
X86842Y-26526D01*
X86707Y-26349D01*
X86577Y-26169D01*
X86451Y-25986D01*
X86330Y-25799D01*
X86213Y-25610D01*
X86101Y-25418D01*
X85994Y-25223D01*
X85892Y-25026D01*
X85794Y-24827D01*
X85702Y-24624D01*
X85614Y-24420D01*
X85532Y-24214D01*
X85454Y-24006D01*
X85382Y-23795D01*
X85315Y-23584D01*
X85253Y-23370D01*
X85196Y-23155D01*
X85145Y-22939D01*
X85099Y-22722D01*
X85058Y-22503D01*
X85023Y-22284D01*
X84993Y-22063D01*
X84969Y-21843D01*
X84950Y-21621D01*
X84936Y-21399D01*
X84928Y-21177D01*
X84925Y-20955D01*
D21*
X93980Y-20955D03*
M02*
