M48
;GenerationSoftware,Autodesk,EAGLE,9.6.2*%
;CreationDate,2021-02-02T21:17:06Z*%
FMAT,2
ICI,OFF
METRIC,TZ,000.000
T6C0.305
T5C0.400
T4C0.508
T3C0.650
T2C1.016
T1C3.048
%
G90
M71
T1
X64008Y20320
X117348Y72644
X64008Y49276
X64008Y67056
X2540Y2540
X2540Y20320
X55880Y20320
X55880Y2540
X117348Y67056
X117348Y49276
X64008Y2540
X117348Y20320
X117348Y2540
X64008Y72644
X64008Y90424
X2540Y25908
X2540Y43688
X55880Y43688
X55880Y25908
X2540Y72644
X2540Y90424
X64008Y25908
X64008Y43688
X117348Y43688
X117348Y25908
X55880Y90424
X55880Y72644
X2540Y49276
X2540Y67056
X55880Y67056
X55880Y49276
X117348Y90424
T2
X90678Y48006
X88138Y48006
X85598Y48006
X83058Y48006
X80518Y48006
X77978Y48006
X75438Y48006
X52070Y91694
X49530Y91694
X46990Y91694
X44450Y91694
X41910Y91694
X39370Y91694
X36830Y91694
X34290Y91694
X31750Y91694
X29210Y91694
X26670Y91694
X24130Y91694
X52070Y71374
X49530Y71374
X52070Y21590
X49530Y21590
X46990Y21590
X44450Y21590
X41910Y21590
X39370Y21590
X36830Y21590
X34290Y21590
X31750Y21590
X29210Y21590
X26670Y21590
X24130Y21590
X52070Y1270
X49530Y1270
X46990Y1270
X44450Y1270
X41910Y1270
X39370Y1270
X36830Y1270
X34290Y1270
X31750Y1270
X29210Y1270
X26670Y1270
X24130Y1270
X21590Y1270
X19050Y1270
X16510Y1270
X13970Y1270
X46990Y71374
X44450Y71374
X41910Y71374
X39370Y71374
X36830Y71374
X34290Y71374
X31750Y71374
X29210Y71374
X26670Y71374
X24130Y71374
X21590Y71374
X19050Y71374
X16510Y71374
X13970Y71374
X113538Y21590
X110998Y21590
X108458Y21590
X105918Y21590
X103378Y21590
X100838Y21590
X98298Y21590
X95758Y21590
X93218Y21590
X90678Y21590
X88138Y21590
X85598Y21590
X113538Y1270
X110998Y1270
X108458Y1270
X105918Y1270
X103378Y1270
X100838Y1270
X98298Y1270
X95758Y1270
X93218Y1270
X90678Y1270
X88138Y1270
X85598Y1270
X83058Y1270
X80518Y1270
X77978Y1270
X75438Y1270
X113538Y91694
X110998Y91694
X108458Y91694
X105918Y91694
X103378Y91694
X100838Y91694
X98298Y91694
X95758Y91694
X93218Y91694
X90678Y91694
X88138Y91694
X85598Y91694
X113538Y71374
X110998Y71374
X52070Y44958
X49530Y44958
X46990Y44958
X44450Y44958
X41910Y44958
X39370Y44958
X36830Y44958
X34290Y44958
X31750Y44958
X29210Y44958
X26670Y44958
X24130Y44958
X52070Y24638
X49530Y24638
X46990Y24638
X44450Y24638
X41910Y24638
X39370Y24638
X36830Y24638
X34290Y24638
X31750Y24638
X29210Y24638
X26670Y24638
X24130Y24638
X21590Y24638
X19050Y24638
X16510Y24638
X13970Y24638
X108458Y71374
X105918Y71374
X103378Y71374
X100838Y71374
X98298Y71374
X95758Y71374
X93218Y71374
X90678Y71374
X88138Y71374
X85598Y71374
X83058Y71374
X80518Y71374
X77978Y71374
X75438Y71374
X113538Y44958
X110998Y44958
X108458Y44958
X105918Y44958
X103378Y44958
X100838Y44958
X98298Y44958
X95758Y44958
X93218Y44958
X90678Y44958
X88138Y44958
X85598Y44958
X113538Y24638
X110998Y24638
X108458Y24638
X105918Y24638
X103378Y24638
X100838Y24638
X98298Y24638
X95758Y24638
X93218Y24638
X90678Y24638
X88138Y24638
X85598Y24638
X83058Y24638
X80518Y24638
X77978Y24638
X75438Y24638
X52070Y68326
X49530Y68326
X46990Y68326
X44450Y68326
X41910Y68326
X39370Y68326
X36830Y68326
X34290Y68326
X31750Y68326
X29210Y68326
X26670Y68326
X24130Y68326
X52070Y48006
X49530Y48006
X46990Y48006
X44450Y48006
X41910Y48006
X39370Y48006
X36830Y48006
X34290Y48006
X31750Y48006
X29210Y48006
X26670Y48006
X24130Y48006
X21590Y48006
X19050Y48006
X16510Y48006
X13970Y48006
X113538Y68326
X110998Y68326
X108458Y68326
X105918Y68326
X103378Y68326
X100838Y68326
X98298Y68326
X95758Y68326
X93218Y68326
X90678Y68326
X88138Y68326
X85598Y68326
X113538Y48006
X110998Y48006
X108458Y48006
X105918Y48006
X103378Y48006
X100838Y48006
X98298Y48006
X95758Y48006
X93218Y48006
T3
X66373Y78644
X4905Y14320
X4905Y8540
X66373Y14320
X66373Y8540
X4905Y37688
X4905Y31908
X66373Y37688
X66373Y31908
X4905Y61056
X4905Y55276
X66373Y61056
X66373Y55276
X4905Y84424
X4905Y78644
X66373Y84424
T4
X28956Y80645
X89154Y36449
X89154Y37719
X89154Y38989
X28956Y58547
X28956Y11811
X28956Y13081
X28956Y14351
X28956Y15621
X28956Y10541
X27686Y11811
X27686Y13081
X27686Y14351
X27686Y15621
X27686Y10541
X28956Y59817
X90424Y81915
X90424Y83185
X90424Y84455
X90424Y11811
X90424Y13081
X90424Y14351
X90424Y15621
X90424Y10541
X89154Y11811
X89154Y13081
X89154Y14351
X89154Y15621
X89154Y10541
X90424Y85725
X89154Y80645
X90424Y80645
X28956Y62357
X28956Y35179
X28956Y36449
X28956Y37719
X28956Y38989
X28956Y33909
X27686Y35179
X27686Y36449
X27686Y37719
X27686Y38989
X27686Y33909
X89154Y81915
X89154Y83185
X89154Y84455
X89154Y85725
X28956Y61087
X89154Y33909
X28956Y57277
X27686Y58547
X27686Y59817
X27686Y61087
X27686Y62357
X27686Y57277
X90424Y35179
X90424Y58547
X28956Y81915
X28956Y83185
X28956Y84455
X28956Y85725
X27686Y81915
X27686Y83185
X27686Y84455
X27686Y85725
X27686Y80645
X90424Y59817
X90424Y61087
X90424Y62357
X90424Y57277
X89154Y58547
X89154Y59817
X89154Y61087
X89154Y62357
X89154Y57277
X90424Y36449
X90424Y37719
X90424Y38989
X90424Y33909
X89154Y35179
T5
X1255Y15748
X1255Y7112
X5435Y7112
X5435Y15748
X62723Y15748
X62723Y7112
X66903Y7112
X66903Y15748
X1255Y39116
X5435Y30480
X62723Y39116
X62723Y30480
X66903Y30480
X66903Y39116
X66903Y53848
X1255Y30480
X1255Y62484
X1255Y53848
X5435Y53848
X5435Y62484
X1255Y85852
X1255Y77216
X5435Y77216
X5435Y85852
X66903Y62484
X5435Y39116
X62723Y53848
X62723Y85852
X62723Y77216
X66903Y77216
X66903Y85852
X62723Y62484
T6
X35179Y62611
X96393Y56896
X86487Y64389
X68453Y54991
X69469Y61976
X67945Y47879
X69723Y47879
X72136Y48768
X80899Y53492
X73406Y53594
X73914Y64389
X76759Y63551
X76759Y62255
X83388Y59385
X85725Y60706
X94463Y56744
X91618Y62179
X73990Y55474
X112217Y56515
X111887Y51714
X92050Y53823
X85598Y52197
X63957Y61265
X63551Y55245
X68783Y59741
X67691Y64084
X101752Y62052
X105359Y49911
X91542Y52172
X98654Y52299
X94539Y65354
X118618Y54254
X103378Y56896
X112116Y60376
X112192Y59512
X84303Y50927
X71366Y60998
X98374Y53238
X100787Y53365
X76810Y51054
X66294Y56261
X66294Y60071
X83185Y62230
X78486Y59309
X84201Y66446
X87393Y62840
X98704Y59157
X72263Y54445
X106426Y59233
X104826Y58750
X74803Y56515
X106375Y57988
X74422Y57302
X106804Y57483
X116230Y63551
X116154Y54356
X114808Y62611
X114783Y54475
X107899Y64186
X108636Y64135
X69469Y66294
X104648Y66929
X102108Y66243
X70358Y65786
X102616Y54305
X103378Y54813
X104394Y54788
X107188Y49657
X71501Y59398
X102235Y55728
X103893Y60656
X104546Y60122
X112852Y57480
X111888Y57404
X104857Y62096
X104242Y61468
X91948Y52959
X96647Y62611
X34925Y80264
X25019Y87757
X6985Y78359
X8001Y85344
X6477Y71247
X8255Y71247
X10668Y72136
X19431Y76860
X11938Y76962
X12446Y87757
X15291Y86919
X15291Y85623
X21920Y82753
X24257Y84074
X32995Y80112
X30150Y85547
X12522Y78842
X50749Y79883
X50419Y75082
X30582Y77191
X24130Y75565
X2489Y84633
X2083Y78613
X7315Y83109
X6223Y87452
X40284Y85420
X43891Y73279
X30074Y75540
X37186Y75667
X33071Y88722
X57150Y77622
X41910Y80264
X50648Y83744
X50724Y82880
X22835Y74295
X9898Y84366
X36906Y76606
X39319Y76733
X104826Y12014
X4826Y79629
X4826Y83439
X21717Y85598
X17018Y82677
X22733Y89814
X25925Y86208
X37236Y82525
X10795Y77813
X44958Y82601
X43358Y82118
X13335Y79883
X44907Y81356
X12954Y80670
X45336Y80851
X54762Y86919
X54686Y77724
X53340Y85979
X53315Y77843
X46431Y87554
X47168Y87503
X8001Y89662
X43180Y90297
X40640Y89611
X8890Y89154
X41148Y77673
X41910Y78181
X42926Y78156
X45720Y73025
X10033Y82766
X40767Y79096
X42425Y84024
X43078Y83490
X51384Y80848
X50420Y80772
X43389Y85464
X42774Y84836
X30480Y76327
X35179Y85979
X96393Y80264
X86487Y87757
X68453Y78359
X69469Y85344
X67945Y71247
X69723Y71247
X72136Y72136
X80899Y76860
X73406Y76962
X73914Y87757
X76759Y86919
X76759Y85623
X83388Y82753
X85725Y84074
X94463Y80112
X91618Y85547
X73990Y78842
X112217Y79883
X111887Y75082
X92050Y77191
X85598Y75565
X63957Y84633
X63551Y78613
X68783Y83109
X67691Y87452
X101752Y85420
X105359Y73279
X91542Y75540
X98654Y75667
X94539Y88722
X118618Y77622
X103378Y80264
X112116Y83744
X112192Y82880
X84303Y74295
X71366Y84366
X98374Y76606
X100787Y76733
X76810Y74422
X66294Y79629
X66294Y83439
X83185Y85598
X78486Y82677
X84201Y89814
X87393Y86208
X98704Y82525
X72263Y77813
X106426Y82601
X104826Y82118
X74803Y79883
X106375Y81356
X74422Y80670
X106804Y80851
X116230Y86919
X116154Y77724
X114808Y85979
X114783Y77843
X107899Y87554
X108636Y87503
X69469Y89662
X104648Y90297
X102108Y89611
X70358Y89154
X102616Y77673
X103378Y78181
X104394Y78156
X107188Y73025
X71501Y82766
X102235Y79096
X103893Y84024
X104546Y83490
X112852Y80848
X111888Y80772
X104857Y85464
X104242Y84836
X91948Y76327
X96647Y85979
X34925Y10160
X25019Y17653
X6985Y8255
X8001Y15240
X6477Y1143
X8255Y1143
X10668Y2032
X19431Y6756
X11938Y6858
X15342Y74422
X12446Y17653
X15291Y16815
X15291Y15519
X21920Y12649
X24257Y13970
X32995Y10008
X30150Y15443
X12522Y8738
X50749Y9779
X50419Y4978
X30582Y7087
X24130Y5461
X2489Y14529
X2083Y8509
X7315Y13005
X6223Y17348
X40284Y15316
X43891Y3175
X30074Y5436
X37186Y5563
X33071Y18618
X57150Y7518
X41910Y10160
X50648Y13640
X50724Y12776
X22835Y4191
X9898Y14262
X36906Y6502
X39319Y6629
X15342Y4318
X4826Y9525
X4826Y13335
X21717Y15494
X17018Y12573
X22733Y19710
X25925Y16104
X37236Y12421
X10795Y7709
X44958Y12497
X43358Y12014
X13335Y9779
X44907Y11252
X12954Y10566
X45336Y10747
X54762Y16815
X54686Y7620
X53340Y15875
X53315Y7739
X46431Y17450
X47168Y17399
X8001Y19558
X43180Y20193
X40640Y19507
X8890Y19050
X41148Y7569
X41910Y8077
X42926Y8052
X45720Y2921
X10033Y12662
X40767Y8992
X42425Y13920
X43078Y13386
X51384Y10744
X50420Y10668
X43389Y15360
X42774Y14732
X30480Y6223
X35179Y15875
X96393Y10160
X86487Y17653
X68453Y8255
X69469Y15240
X67945Y1143
X69723Y1143
X72136Y2032
X80899Y6756
X73406Y6858
X73914Y17653
X76759Y16815
X76759Y15519
X83388Y12649
X85725Y13970
X94463Y10008
X91618Y15443
X73990Y8738
X112217Y9779
X111887Y4978
X92050Y7087
X85598Y5461
X63957Y14529
X63551Y8509
X68783Y13005
X67691Y17348
X101752Y15316
X105359Y3175
X91542Y5436
X98654Y5563
X94539Y18618
X118618Y7518
X103378Y10160
X112116Y13640
X112192Y12776
X84303Y4191
X71366Y14262
X98374Y6502
X100787Y6629
X76810Y4318
X66294Y9525
X66294Y13335
X83185Y15494
X78486Y12573
X84201Y19710
X87393Y16104
X98704Y12421
X72263Y7709
X106426Y12497
X74803Y9779
X106375Y11252
X74422Y10566
X106804Y10747
X116230Y16815
X116154Y7620
X114808Y15875
X114783Y7739
X107899Y17450
X108636Y17399
X69469Y19558
X104648Y20193
X102108Y19507
X70358Y19050
X102616Y7569
X103378Y8077
X104394Y8052
X107188Y2921
X71501Y12662
X102235Y8992
X103893Y13920
X104546Y13386
X112852Y10744
X111888Y10668
X104857Y15360
X104242Y14732
X91948Y6223
X96647Y15875
X34925Y33528
X25019Y41021
X6985Y31623
X8001Y38608
X6477Y24511
X8255Y24511
X10668Y25400
X19431Y30124
X11938Y30226
X12446Y41021
X15291Y40183
X15291Y38887
X21920Y36017
X24257Y37338
X32995Y33376
X30150Y38811
X12522Y32106
X50749Y33147
X50419Y28346
X30582Y30455
X24130Y28829
X2489Y37897
X2083Y31877
X7315Y36373
X6223Y40716
X40284Y38684
X43891Y26543
X30074Y28804
X37186Y28931
X33071Y41986
X57150Y30886
X41910Y33528
X50648Y37008
X50724Y36144
X22835Y27559
X9898Y37630
X36906Y29870
X39319Y29997
X15342Y27686
X4826Y32893
X4826Y36703
X21717Y38862
X17018Y35941
X22733Y43078
X25925Y39472
X37236Y35789
X10795Y31077
X44958Y35865
X43358Y35382
X13335Y33147
X44907Y34620
X12954Y33934
X45336Y34115
X54762Y40183
X54686Y30988
X53340Y39243
X53315Y31107
X46431Y40818
X47168Y40767
X8001Y42926
X43180Y43561
X40640Y42875
X8890Y42418
X41148Y30937
X41910Y31445
X42926Y31420
X45720Y26289
X10033Y36030
X40767Y32360
X42425Y37288
X43078Y36754
X51384Y34112
X50420Y34036
X43389Y38728
X42774Y38100
X30480Y29591
X35179Y39243
X96393Y33528
X86487Y41021
X68453Y31623
X69469Y38608
X67945Y24511
X69723Y24511
X72136Y25400
X80899Y30124
X73406Y30226
X73914Y41021
X76759Y40183
X76759Y38887
X83388Y36017
X85725Y37338
X94463Y33376
X91618Y38811
X73990Y32106
X112217Y33147
X111887Y28346
X92050Y30455
X85598Y28829
X63957Y37897
X63551Y31877
X68783Y36373
X67691Y40716
X101752Y38684
X105359Y26543
X10033Y59398
X91542Y28804
X98654Y28931
X94539Y41986
X118618Y30886
X103378Y33528
X112116Y37008
X112192Y36144
X84303Y27559
X71366Y37630
X98374Y29870
X100787Y29997
X76810Y27686
X66294Y32893
X66294Y36703
X83185Y38862
X78486Y35941
X84201Y43078
X87393Y39472
X98704Y35789
X72263Y31077
X106426Y35865
X104826Y35382
X74803Y33147
X106375Y34620
X74422Y33934
X106804Y34115
X116230Y40183
X116154Y30988
X114808Y39243
X114783Y31107
X107899Y40818
X108636Y40767
X69469Y42926
X104648Y43561
X102108Y42875
X70358Y42418
X102616Y30937
X103378Y31445
X104394Y31420
X107188Y26289
X71501Y36030
X102235Y32360
X103893Y37288
X104546Y36754
X112852Y34112
X111888Y34036
X104857Y38728
X104242Y38100
X91948Y29591
X96647Y39243
X34925Y56896
X25019Y64389
X6985Y54991
X8001Y61976
X6477Y47879
X8255Y47879
X10668Y48768
X19431Y53492
X11938Y53594
X12446Y64389
X15291Y63551
X15291Y62255
X21920Y59385
X24257Y60706
X32995Y56744
X30150Y62179
X12522Y55474
X50749Y56515
X50419Y51714
X30582Y53823
X24130Y52197
X2489Y61265
X2083Y55245
X7315Y59741
X6223Y64084
X40284Y62052
X43891Y49911
X30074Y52172
X37186Y52299
X33071Y65354
X57150Y54254
X41910Y56896
X50648Y60376
X50724Y59512
X22835Y50927
X9898Y60998
X36906Y53238
X39319Y53365
X15342Y51054
X4826Y56261
X4826Y60071
X21717Y62230
X17018Y59309
X22733Y66446
X25925Y62840
X37236Y59157
X10795Y54445
X44958Y59233
X43358Y58750
X13335Y56515
X44907Y57988
X12954Y57302
X45336Y57483
X54762Y63551
X54686Y54356
X53340Y62611
X53315Y54475
X46431Y64186
X47168Y64135
X8001Y66294
X43180Y66929
X40640Y66243
X8890Y65786
X41148Y54305
X41910Y54813
X42926Y54788
X45720Y49657
X40767Y55728
X42425Y60656
X43078Y60122
X51384Y57480
X50420Y57404
X43389Y62096
X42774Y61468
X30480Y52959
M30